%TF.GenerationSoftware,KiCad,Pcbnew,8.0.4*%
%TF.CreationDate,2024-12-23T16:55:19-08:00*%
%TF.ProjectId,Butterfly_v0,42757474-6572-4666-9c79-5f76302e6b69,rev?*%
%TF.SameCoordinates,Original*%
%TF.FileFunction,Copper,L4,Bot*%
%TF.FilePolarity,Positive*%
%FSLAX46Y46*%
G04 Gerber Fmt 4.6, Leading zero omitted, Abs format (unit mm)*
G04 Created by KiCad (PCBNEW 8.0.4) date 2024-12-23 16:55:19*
%MOMM*%
%LPD*%
G01*
G04 APERTURE LIST*
%TA.AperFunction,ComponentPad*%
%ADD10R,1.520000X1.520000*%
%TD*%
%TA.AperFunction,ComponentPad*%
%ADD11C,1.520000*%
%TD*%
%TA.AperFunction,ComponentPad*%
%ADD12R,1.605000X1.605000*%
%TD*%
%TA.AperFunction,ComponentPad*%
%ADD13C,1.605000*%
%TD*%
%TA.AperFunction,ComponentPad*%
%ADD14O,1.460000X0.730000*%
%TD*%
%TA.AperFunction,ComponentPad*%
%ADD15O,2.400000X1.200000*%
%TD*%
%TA.AperFunction,SMDPad,CuDef*%
%ADD16O,2.100000X1.050000*%
%TD*%
%TA.AperFunction,ComponentPad*%
%ADD17C,9.200000*%
%TD*%
%TA.AperFunction,ViaPad*%
%ADD18C,0.600000*%
%TD*%
%TA.AperFunction,Conductor*%
%ADD19C,0.150000*%
%TD*%
G04 APERTURE END LIST*
D10*
%TO.P,J6,1,1*%
%TO.N,Net-(J6-Pad1)*%
X145500000Y-84680000D03*
D11*
%TO.P,J6,2,2*%
%TO.N,GND*%
X142500000Y-84680000D03*
%TD*%
D10*
%TO.P,J4,1,1*%
%TO.N,+12V*%
X124000000Y-65000000D03*
D11*
%TO.P,J4,2,2*%
%TO.N,Net-(J4-Pad2)*%
X127000000Y-65000000D03*
%TD*%
D12*
%TO.P,J8,1,1*%
%TO.N,MISO*%
X112540000Y-61270000D03*
D13*
%TO.P,J8,2,2*%
%TO.N,+3.3V*%
X112540000Y-58730000D03*
%TO.P,J8,3,3*%
%TO.N,SCK*%
X110000000Y-61270000D03*
%TO.P,J8,4,4*%
%TO.N,MOSI*%
X110000000Y-58730000D03*
%TO.P,J8,5,5*%
%TO.N,RESET*%
X107460000Y-61270000D03*
%TO.P,J8,6,6*%
%TO.N,GND*%
X107460000Y-58730000D03*
%TD*%
D14*
%TO.P,J2,6,SHIELD*%
%TO.N,GND*%
X55030000Y-75575000D03*
%TO.P,J2,7,SHIELD*%
X55030000Y-80425000D03*
D15*
%TO.P,J2,8,SHIELD*%
X52000000Y-75275000D03*
%TO.P,J2,9,SHIELD*%
X52000000Y-80725000D03*
D16*
%TO.P,J2,10,SHIELD*%
X55030000Y-75575000D03*
%TO.P,J2,11,SHIELD*%
X55030000Y-80425000D03*
%TD*%
D10*
%TO.P,J7,1,1*%
%TO.N,Net-(J7-Pad1)*%
X127500000Y-84680000D03*
D11*
%TO.P,J7,2,2*%
%TO.N,GND*%
X124500000Y-84680000D03*
%TD*%
D10*
%TO.P,J3,1,1*%
%TO.N,+12V*%
X92000000Y-65000000D03*
D11*
%TO.P,J3,2,2*%
%TO.N,Net-(D2-PadA)*%
X95000000Y-65000000D03*
%TD*%
D17*
%TO.P,H3,1,1*%
%TO.N,GND*%
X163000000Y-93000000D03*
%TD*%
D10*
%TO.P,J5,1,1*%
%TO.N,+12V*%
X143000000Y-65000000D03*
D11*
%TO.P,J5,2,2*%
%TO.N,Net-(J5-Pad2)*%
X146000000Y-65000000D03*
%TD*%
D17*
%TO.P,H2,1,1*%
%TO.N,GND*%
X57000000Y-93000000D03*
%TD*%
D10*
%TO.P,J1,1,1*%
%TO.N,Net-(D1-A)*%
X74000000Y-65000000D03*
D11*
%TO.P,J1,2,2*%
%TO.N,GND*%
X77000000Y-65000000D03*
%TD*%
D17*
%TO.P,H4,1,1*%
%TO.N,GND*%
X163000000Y-57000000D03*
%TD*%
%TO.P,H1,1,1*%
%TO.N,GND*%
X57000000Y-57000000D03*
%TD*%
D18*
%TO.N,+12V*%
X72000000Y-70000000D03*
X72000000Y-74000000D03*
X82000000Y-74000000D03*
%TO.N,GND*%
X94000000Y-79000000D03*
X96000000Y-80000000D03*
X94000000Y-68000000D03*
X96000000Y-81000000D03*
X60000000Y-81000000D03*
X64000000Y-76000000D03*
X95000000Y-81000000D03*
X80000000Y-74000000D03*
X145000000Y-69000000D03*
X94000000Y-81000000D03*
X51750000Y-78962500D03*
X95000000Y-80000000D03*
X51750000Y-77037500D03*
X96000000Y-79000000D03*
X128000000Y-69000000D03*
X84000000Y-83000000D03*
X88000000Y-82000000D03*
X103000000Y-79000000D03*
X95000000Y-79000000D03*
X94000000Y-80000000D03*
X74000000Y-90000000D03*
X68000000Y-82000000D03*
X93000000Y-87000000D03*
X81000000Y-84000000D03*
X100000000Y-68000000D03*
X99000000Y-86000000D03*
X58000000Y-74000000D03*
%TO.N,+3.3V*%
X100000000Y-88000000D03*
X76000000Y-78000000D03*
X72000000Y-88000000D03*
X97000000Y-90000000D03*
X95000000Y-91000000D03*
X89000000Y-90000000D03*
X67000000Y-67000000D03*
X74000000Y-81000000D03*
X63000000Y-84000000D03*
X95000000Y-89000000D03*
X72000000Y-78000000D03*
X76000000Y-81000000D03*
X65000000Y-71000000D03*
X100000000Y-86000000D03*
X78000000Y-80000000D03*
X78000000Y-89000000D03*
X62000000Y-67000000D03*
X74000000Y-78000000D03*
X98374999Y-80675000D03*
X94934413Y-88065587D03*
X91000000Y-91000000D03*
X72000000Y-81000000D03*
X88000000Y-78000000D03*
%TO.N,RESET*%
X87000000Y-76000000D03*
X114000000Y-73000000D03*
X95077087Y-85922913D03*
X104000000Y-83000000D03*
X85500000Y-83500000D03*
X87000000Y-82000000D03*
%TO.N,Net-(U6-~{DTR}#)*%
X67000000Y-71000000D03*
X69000000Y-71000000D03*
%TO.N,TX-O*%
X97000000Y-84000000D03*
X67000000Y-76000000D03*
%TO.N,RX-I*%
X89617408Y-83567429D03*
X96000000Y-84000000D03*
%TO.N,SCK*%
X106000000Y-69000000D03*
X92000000Y-74000000D03*
%TO.N,MISO*%
X104000000Y-73000000D03*
X93000000Y-75000000D03*
%TO.N,SCL*%
X92000000Y-86000000D03*
X79000000Y-91000000D03*
%TO.N,PD5*%
X99000000Y-76000000D03*
X99000000Y-74000000D03*
%TO.N,PD6*%
X127000000Y-76000000D03*
X101000000Y-76000000D03*
X97000000Y-76000000D03*
X127000000Y-74000000D03*
%TO.N,PD3*%
X106000000Y-80000000D03*
X102000000Y-82000000D03*
%TD*%
D19*
%TO.N,SCL*%
X79000000Y-91000000D02*
X84000000Y-86000000D01*
X84000000Y-86000000D02*
X92000000Y-86000000D01*
%TO.N,+3.3V*%
X116000000Y-59000000D02*
X116000000Y-75000000D01*
X116000000Y-75000000D02*
X103000000Y-88000000D01*
X103000000Y-88000000D02*
X100000000Y-88000000D01*
X115730000Y-58730000D02*
X116000000Y-59000000D01*
X112540000Y-58730000D02*
X115730000Y-58730000D01*
%TO.N,RESET*%
X95077087Y-85922913D02*
X94154174Y-85000000D01*
X94154174Y-85000000D02*
X87000000Y-85000000D01*
X87000000Y-85000000D02*
X85500000Y-83500000D01*
X114000000Y-73000000D02*
X104000000Y-83000000D01*
X87000000Y-76000000D02*
X87000000Y-82000000D01*
%TO.N,Net-(U6-~{DTR}#)*%
X69000000Y-71000000D02*
X67000000Y-71000000D01*
%TO.N,TX-O*%
X67000000Y-76000000D02*
X85000000Y-76000000D01*
X87000000Y-84000000D02*
X89000000Y-84000000D01*
X85000000Y-76000000D02*
X86000000Y-77000000D01*
X89425000Y-84425000D02*
X94425000Y-84425000D01*
X96000000Y-85000000D02*
X97000000Y-84000000D01*
X95000000Y-85000000D02*
X96000000Y-85000000D01*
X86000000Y-77000000D02*
X86000000Y-83000000D01*
X86000000Y-83000000D02*
X87000000Y-84000000D01*
X89000000Y-84000000D02*
X89425000Y-84425000D01*
X94425000Y-84425000D02*
X95000000Y-85000000D01*
%TO.N,RX-I*%
X89617408Y-83567429D02*
X90049979Y-84000000D01*
X90049979Y-84000000D02*
X96000000Y-84000000D01*
%TO.N,SCK*%
X97000000Y-69000000D02*
X92000000Y-74000000D01*
X106000000Y-69000000D02*
X97000000Y-69000000D01*
%TO.N,MISO*%
X95000000Y-73000000D02*
X93000000Y-75000000D01*
X104000000Y-73000000D02*
X95000000Y-73000000D01*
%TO.N,PD5*%
X99000000Y-74000000D02*
X99000000Y-76000000D01*
%TO.N,PD6*%
X97575000Y-76575000D02*
X97000000Y-76000000D01*
X100000000Y-76000000D02*
X99425000Y-76575000D01*
X101000000Y-76000000D02*
X100000000Y-76000000D01*
X127000000Y-76000000D02*
X127000000Y-74000000D01*
X99425000Y-76575000D02*
X97575000Y-76575000D01*
%TO.N,PD3*%
X106000000Y-80000000D02*
X104000000Y-82000000D01*
X104000000Y-82000000D02*
X102000000Y-82000000D01*
%TD*%
M02*
