%TF.GenerationSoftware,KiCad,Pcbnew,8.0.4*%
%TF.CreationDate,2024-12-23T16:55:19-08:00*%
%TF.ProjectId,Butterfly_v0,42757474-6572-4666-9c79-5f76302e6b69,rev?*%
%TF.SameCoordinates,Original*%
%TF.FileFunction,Legend,Bot*%
%TF.FilePolarity,Positive*%
%FSLAX46Y46*%
G04 Gerber Fmt 4.6, Leading zero omitted, Abs format (unit mm)*
G04 Created by KiCad (PCBNEW 8.0.4) date 2024-12-23 16:55:19*
%MOMM*%
%LPD*%
G01*
G04 APERTURE LIST*
%ADD10C,0.300000*%
G04 APERTURE END LIST*
D10*
X165015114Y-69054510D02*
X165086542Y-69268796D01*
X165086542Y-69268796D02*
X165157971Y-69340225D01*
X165157971Y-69340225D02*
X165300828Y-69411653D01*
X165300828Y-69411653D02*
X165515114Y-69411653D01*
X165515114Y-69411653D02*
X165657971Y-69340225D01*
X165657971Y-69340225D02*
X165729400Y-69268796D01*
X165729400Y-69268796D02*
X165800828Y-69125939D01*
X165800828Y-69125939D02*
X165800828Y-68554510D01*
X165800828Y-68554510D02*
X164300828Y-68554510D01*
X164300828Y-68554510D02*
X164300828Y-69054510D01*
X164300828Y-69054510D02*
X164372257Y-69197368D01*
X164372257Y-69197368D02*
X164443685Y-69268796D01*
X164443685Y-69268796D02*
X164586542Y-69340225D01*
X164586542Y-69340225D02*
X164729400Y-69340225D01*
X164729400Y-69340225D02*
X164872257Y-69268796D01*
X164872257Y-69268796D02*
X164943685Y-69197368D01*
X164943685Y-69197368D02*
X165015114Y-69054510D01*
X165015114Y-69054510D02*
X165015114Y-68554510D01*
X164800828Y-70697368D02*
X165800828Y-70697368D01*
X164800828Y-70054510D02*
X165586542Y-70054510D01*
X165586542Y-70054510D02*
X165729400Y-70125939D01*
X165729400Y-70125939D02*
X165800828Y-70268796D01*
X165800828Y-70268796D02*
X165800828Y-70483082D01*
X165800828Y-70483082D02*
X165729400Y-70625939D01*
X165729400Y-70625939D02*
X165657971Y-70697368D01*
X164800828Y-71197368D02*
X164800828Y-71768796D01*
X164300828Y-71411653D02*
X165586542Y-71411653D01*
X165586542Y-71411653D02*
X165729400Y-71483082D01*
X165729400Y-71483082D02*
X165800828Y-71625939D01*
X165800828Y-71625939D02*
X165800828Y-71768796D01*
X164800828Y-72054511D02*
X164800828Y-72625939D01*
X164300828Y-72268796D02*
X165586542Y-72268796D01*
X165586542Y-72268796D02*
X165729400Y-72340225D01*
X165729400Y-72340225D02*
X165800828Y-72483082D01*
X165800828Y-72483082D02*
X165800828Y-72625939D01*
X165729400Y-73697368D02*
X165800828Y-73554511D01*
X165800828Y-73554511D02*
X165800828Y-73268797D01*
X165800828Y-73268797D02*
X165729400Y-73125939D01*
X165729400Y-73125939D02*
X165586542Y-73054511D01*
X165586542Y-73054511D02*
X165015114Y-73054511D01*
X165015114Y-73054511D02*
X164872257Y-73125939D01*
X164872257Y-73125939D02*
X164800828Y-73268797D01*
X164800828Y-73268797D02*
X164800828Y-73554511D01*
X164800828Y-73554511D02*
X164872257Y-73697368D01*
X164872257Y-73697368D02*
X165015114Y-73768797D01*
X165015114Y-73768797D02*
X165157971Y-73768797D01*
X165157971Y-73768797D02*
X165300828Y-73054511D01*
X165800828Y-74411653D02*
X164800828Y-74411653D01*
X165086542Y-74411653D02*
X164943685Y-74483082D01*
X164943685Y-74483082D02*
X164872257Y-74554511D01*
X164872257Y-74554511D02*
X164800828Y-74697368D01*
X164800828Y-74697368D02*
X164800828Y-74840225D01*
X164800828Y-75125939D02*
X164800828Y-75697367D01*
X165800828Y-75340224D02*
X164515114Y-75340224D01*
X164515114Y-75340224D02*
X164372257Y-75411653D01*
X164372257Y-75411653D02*
X164300828Y-75554510D01*
X164300828Y-75554510D02*
X164300828Y-75697367D01*
X165800828Y-76411653D02*
X165729400Y-76268796D01*
X165729400Y-76268796D02*
X165586542Y-76197367D01*
X165586542Y-76197367D02*
X164300828Y-76197367D01*
X164800828Y-76840224D02*
X165800828Y-77197367D01*
X164800828Y-77554510D02*
X165800828Y-77197367D01*
X165800828Y-77197367D02*
X166157971Y-77054510D01*
X166157971Y-77054510D02*
X166229400Y-76983081D01*
X166229400Y-76983081D02*
X166300828Y-76840224D01*
X164300828Y-79054510D02*
X165800828Y-79554510D01*
X165800828Y-79554510D02*
X164300828Y-80054510D01*
X164300828Y-80840224D02*
X164300828Y-80983081D01*
X164300828Y-80983081D02*
X164372257Y-81125938D01*
X164372257Y-81125938D02*
X164443685Y-81197367D01*
X164443685Y-81197367D02*
X164586542Y-81268795D01*
X164586542Y-81268795D02*
X164872257Y-81340224D01*
X164872257Y-81340224D02*
X165229400Y-81340224D01*
X165229400Y-81340224D02*
X165515114Y-81268795D01*
X165515114Y-81268795D02*
X165657971Y-81197367D01*
X165657971Y-81197367D02*
X165729400Y-81125938D01*
X165729400Y-81125938D02*
X165800828Y-80983081D01*
X165800828Y-80983081D02*
X165800828Y-80840224D01*
X165800828Y-80840224D02*
X165729400Y-80697367D01*
X165729400Y-80697367D02*
X165657971Y-80625938D01*
X165657971Y-80625938D02*
X165515114Y-80554509D01*
X165515114Y-80554509D02*
X165229400Y-80483081D01*
X165229400Y-80483081D02*
X164872257Y-80483081D01*
X164872257Y-80483081D02*
X164586542Y-80554509D01*
X164586542Y-80554509D02*
X164443685Y-80625938D01*
X164443685Y-80625938D02*
X164372257Y-80697367D01*
X164372257Y-80697367D02*
X164300828Y-80840224D01*
X165657971Y-81983080D02*
X165729400Y-82054509D01*
X165729400Y-82054509D02*
X165800828Y-81983080D01*
X165800828Y-81983080D02*
X165729400Y-81911652D01*
X165729400Y-81911652D02*
X165657971Y-81983080D01*
X165657971Y-81983080D02*
X165800828Y-81983080D01*
X164300828Y-82983081D02*
X164300828Y-83125938D01*
X164300828Y-83125938D02*
X164372257Y-83268795D01*
X164372257Y-83268795D02*
X164443685Y-83340224D01*
X164443685Y-83340224D02*
X164586542Y-83411652D01*
X164586542Y-83411652D02*
X164872257Y-83483081D01*
X164872257Y-83483081D02*
X165229400Y-83483081D01*
X165229400Y-83483081D02*
X165515114Y-83411652D01*
X165515114Y-83411652D02*
X165657971Y-83340224D01*
X165657971Y-83340224D02*
X165729400Y-83268795D01*
X165729400Y-83268795D02*
X165800828Y-83125938D01*
X165800828Y-83125938D02*
X165800828Y-82983081D01*
X165800828Y-82983081D02*
X165729400Y-82840224D01*
X165729400Y-82840224D02*
X165657971Y-82768795D01*
X165657971Y-82768795D02*
X165515114Y-82697366D01*
X165515114Y-82697366D02*
X165229400Y-82625938D01*
X165229400Y-82625938D02*
X164872257Y-82625938D01*
X164872257Y-82625938D02*
X164586542Y-82697366D01*
X164586542Y-82697366D02*
X164443685Y-82768795D01*
X164443685Y-82768795D02*
X164372257Y-82840224D01*
X164372257Y-82840224D02*
X164300828Y-82983081D01*
X162800828Y-73554510D02*
X161300828Y-73554510D01*
X161300828Y-73554510D02*
X161300828Y-74125939D01*
X161300828Y-74125939D02*
X161372257Y-74268796D01*
X161372257Y-74268796D02*
X161443685Y-74340225D01*
X161443685Y-74340225D02*
X161586542Y-74411653D01*
X161586542Y-74411653D02*
X161800828Y-74411653D01*
X161800828Y-74411653D02*
X161943685Y-74340225D01*
X161943685Y-74340225D02*
X162015114Y-74268796D01*
X162015114Y-74268796D02*
X162086542Y-74125939D01*
X162086542Y-74125939D02*
X162086542Y-73554510D01*
X162800828Y-75268796D02*
X162729400Y-75125939D01*
X162729400Y-75125939D02*
X162657971Y-75054510D01*
X162657971Y-75054510D02*
X162515114Y-74983082D01*
X162515114Y-74983082D02*
X162086542Y-74983082D01*
X162086542Y-74983082D02*
X161943685Y-75054510D01*
X161943685Y-75054510D02*
X161872257Y-75125939D01*
X161872257Y-75125939D02*
X161800828Y-75268796D01*
X161800828Y-75268796D02*
X161800828Y-75483082D01*
X161800828Y-75483082D02*
X161872257Y-75625939D01*
X161872257Y-75625939D02*
X161943685Y-75697368D01*
X161943685Y-75697368D02*
X162086542Y-75768796D01*
X162086542Y-75768796D02*
X162515114Y-75768796D01*
X162515114Y-75768796D02*
X162657971Y-75697368D01*
X162657971Y-75697368D02*
X162729400Y-75625939D01*
X162729400Y-75625939D02*
X162800828Y-75483082D01*
X162800828Y-75483082D02*
X162800828Y-75268796D01*
X162800828Y-76411653D02*
X161800828Y-76411653D01*
X162086542Y-76411653D02*
X161943685Y-76483082D01*
X161943685Y-76483082D02*
X161872257Y-76554511D01*
X161872257Y-76554511D02*
X161800828Y-76697368D01*
X161800828Y-76697368D02*
X161800828Y-76840225D01*
X161800828Y-77125939D02*
X161800828Y-77697367D01*
X161300828Y-77340224D02*
X162586542Y-77340224D01*
X162586542Y-77340224D02*
X162729400Y-77411653D01*
X162729400Y-77411653D02*
X162800828Y-77554510D01*
X162800828Y-77554510D02*
X162800828Y-77697367D01*
X162800828Y-78411653D02*
X162729400Y-78268796D01*
X162729400Y-78268796D02*
X162657971Y-78197367D01*
X162657971Y-78197367D02*
X162515114Y-78125939D01*
X162515114Y-78125939D02*
X162086542Y-78125939D01*
X162086542Y-78125939D02*
X161943685Y-78197367D01*
X161943685Y-78197367D02*
X161872257Y-78268796D01*
X161872257Y-78268796D02*
X161800828Y-78411653D01*
X161800828Y-78411653D02*
X161800828Y-78625939D01*
X161800828Y-78625939D02*
X161872257Y-78768796D01*
X161872257Y-78768796D02*
X161943685Y-78840225D01*
X161943685Y-78840225D02*
X162086542Y-78911653D01*
X162086542Y-78911653D02*
X162515114Y-78911653D01*
X162515114Y-78911653D02*
X162657971Y-78840225D01*
X162657971Y-78840225D02*
X162729400Y-78768796D01*
X162729400Y-78768796D02*
X162800828Y-78625939D01*
X162800828Y-78625939D02*
X162800828Y-78411653D01*
M02*
