M48
; DRILL file {KiCad 8.0.4} date 2024-12-23T16:55:07-0800
; FORMAT={-:-/ absolute / inch / decimal}
; #@! TF.CreationDate,2024-12-23T16:55:07-08:00
; #@! TF.GenerationSoftware,Kicad,Pcbnew,8.0.4
; #@! TF.FileFunction,Plated,1,4,PTH
FMAT,2
INCH
; #@! TA.AperFunction,Plated,PTH,ViaDrill
T1C0.0118
; #@! TA.AperFunction,Plated,PTH,ComponentDrill
T2C0.0256
; #@! TA.AperFunction,Plated,PTH,ComponentDrill
T3C0.0276
; #@! TA.AperFunction,Plated,PTH,ComponentDrill
T4C0.0402
; #@! TA.AperFunction,Plated,PTH,ComponentDrill
T5C0.0421
; #@! TA.AperFunction,Plated,PTH,ComponentDrill
T6C0.2087
%
G90
G05
T1
X2.0374Y-3.033
X2.0374Y-3.1088
X2.2835Y-2.9134
X2.3622Y-3.189
X2.4409Y-2.6378
X2.4803Y-3.3071
X2.5197Y-2.9921
X2.5591Y-2.7953
X2.6378Y-2.6378
X2.6378Y-2.7953
X2.6378Y-2.9921
X2.6772Y-3.2283
X2.7165Y-2.7953
X2.8346Y-2.7559
X2.8346Y-2.9134
X2.8346Y-3.0709
X2.8346Y-3.189
X2.8346Y-3.4646
X2.9134Y-3.0709
X2.9134Y-3.189
X2.9134Y-3.5433
X2.9921Y-3.0709
X2.9921Y-3.189
X3.0709Y-3.1496
X3.0709Y-3.5039
X3.1102Y-3.5827
X3.1496Y-2.9134
X3.189Y-3.3071
X3.2283Y-2.9134
X3.3071Y-3.2677
X3.3661Y-3.2874
X3.4252Y-2.9921
X3.4252Y-3.2283
X3.4646Y-3.0709
X3.4646Y-3.2283
X3.5039Y-3.5433
X3.5282Y-3.2901
X3.5827Y-3.5827
X3.622Y-2.9134
X3.622Y-3.3858
X3.6614Y-2.9528
X3.6614Y-3.4252
X3.7008Y-2.6772
X3.7008Y-3.1102
X3.7008Y-3.1496
X3.7008Y-3.189
X3.7376Y-3.4671
X3.7402Y-3.1102
X3.7402Y-3.1496
X3.7402Y-3.189
X3.7402Y-3.5039
X3.7402Y-3.5827
X3.7432Y-3.3828
X3.7795Y-3.1102
X3.7795Y-3.1496
X3.7795Y-3.189
X3.7795Y-3.3071
X3.8189Y-2.9921
X3.8189Y-3.3071
X3.8189Y-3.5433
X3.873Y-3.1762
X3.8976Y-2.9134
X3.8976Y-2.9921
X3.8976Y-3.3858
X3.937Y-2.6772
X3.937Y-3.3858
X3.937Y-3.4646
X3.9764Y-2.9921
X4.0157Y-3.2283
X4.0551Y-3.1102
X4.0945Y-2.874
X4.0945Y-3.2677
X4.1732Y-2.7165
X4.1732Y-3.1496
X4.4882Y-2.874
X5.0Y-2.9134
X5.0Y-2.9921
X5.0394Y-2.7165
X5.7087Y-2.7165
T4
X2.9134Y-2.5591
X3.0315Y-2.5591
X3.622Y-2.5591
X3.7402Y-2.5591
X4.8819Y-2.5591
X4.9016Y-3.3339
X5.0Y-2.5591
X5.0197Y-3.3339
X5.6102Y-3.3339
X5.6299Y-2.5591
X5.7283Y-3.3339
X5.748Y-2.5591
T5
X4.2307Y-2.3122
X4.2307Y-2.4122
X4.3307Y-2.3122
X4.3307Y-2.4122
X4.4307Y-2.3122
X4.4307Y-2.4122
T6
X2.2441Y-2.2441
X2.2441Y-3.6614
X6.4173Y-2.2441
X6.4173Y-3.6614
T2
G00X2.1744Y-2.9754
M15
G01X2.1587Y-2.9754
M16
G05
G00X2.1744Y-3.1663
M15
G01X2.1587Y-3.1663
M16
G05
T3
G00X2.0571Y-2.9636
M15
G01X2.0374Y-2.9636
M16
G05
G00X2.0571Y-3.1781
M15
G01X2.0374Y-3.1781
M16
G05
M30
