%TF.GenerationSoftware,KiCad,Pcbnew,8.0.4*%
%TF.CreationDate,2024-12-23T16:55:19-08:00*%
%TF.ProjectId,Butterfly_v0,42757474-6572-4666-9c79-5f76302e6b69,rev?*%
%TF.SameCoordinates,Original*%
%TF.FileFunction,Legend,Top*%
%TF.FilePolarity,Positive*%
%FSLAX46Y46*%
G04 Gerber Fmt 4.6, Leading zero omitted, Abs format (unit mm)*
G04 Created by KiCad (PCBNEW 8.0.4) date 2024-12-23 16:55:19*
%MOMM*%
%LPD*%
G01*
G04 APERTURE LIST*
%ADD10C,0.250000*%
%ADD11C,0.150000*%
%ADD12C,0.127000*%
%ADD13C,0.200000*%
%ADD14C,0.100000*%
%ADD15C,0.152400*%
%ADD16C,0.120000*%
G04 APERTURE END LIST*
D10*
X141878758Y-96523000D02*
X144164473Y-96523000D01*
X132803428Y-65478384D02*
X131303428Y-65478384D01*
X131803428Y-64764098D02*
X132803428Y-64764098D01*
X131946285Y-64764098D02*
X131874857Y-64692669D01*
X131874857Y-64692669D02*
X131803428Y-64549812D01*
X131803428Y-64549812D02*
X131803428Y-64335526D01*
X131803428Y-64335526D02*
X131874857Y-64192669D01*
X131874857Y-64192669D02*
X132017714Y-64121241D01*
X132017714Y-64121241D02*
X132803428Y-64121241D01*
X131803428Y-63621240D02*
X131803428Y-63049812D01*
X131303428Y-63406955D02*
X132589142Y-63406955D01*
X132589142Y-63406955D02*
X132732000Y-63335526D01*
X132732000Y-63335526D02*
X132803428Y-63192669D01*
X132803428Y-63192669D02*
X132803428Y-63049812D01*
X132732000Y-61978383D02*
X132803428Y-62121240D01*
X132803428Y-62121240D02*
X132803428Y-62406955D01*
X132803428Y-62406955D02*
X132732000Y-62549812D01*
X132732000Y-62549812D02*
X132589142Y-62621240D01*
X132589142Y-62621240D02*
X132017714Y-62621240D01*
X132017714Y-62621240D02*
X131874857Y-62549812D01*
X131874857Y-62549812D02*
X131803428Y-62406955D01*
X131803428Y-62406955D02*
X131803428Y-62121240D01*
X131803428Y-62121240D02*
X131874857Y-61978383D01*
X131874857Y-61978383D02*
X132017714Y-61906955D01*
X132017714Y-61906955D02*
X132160571Y-61906955D01*
X132160571Y-61906955D02*
X132303428Y-62621240D01*
X132803428Y-61264098D02*
X131803428Y-61264098D01*
X132089142Y-61264098D02*
X131946285Y-61192669D01*
X131946285Y-61192669D02*
X131874857Y-61121241D01*
X131874857Y-61121241D02*
X131803428Y-60978383D01*
X131803428Y-60978383D02*
X131803428Y-60835526D01*
X131803428Y-60335527D02*
X132803428Y-60335527D01*
X131946285Y-60335527D02*
X131874857Y-60264098D01*
X131874857Y-60264098D02*
X131803428Y-60121241D01*
X131803428Y-60121241D02*
X131803428Y-59906955D01*
X131803428Y-59906955D02*
X131874857Y-59764098D01*
X131874857Y-59764098D02*
X132017714Y-59692670D01*
X132017714Y-59692670D02*
X132803428Y-59692670D01*
X132803428Y-58335527D02*
X132017714Y-58335527D01*
X132017714Y-58335527D02*
X131874857Y-58406955D01*
X131874857Y-58406955D02*
X131803428Y-58549812D01*
X131803428Y-58549812D02*
X131803428Y-58835527D01*
X131803428Y-58835527D02*
X131874857Y-58978384D01*
X132732000Y-58335527D02*
X132803428Y-58478384D01*
X132803428Y-58478384D02*
X132803428Y-58835527D01*
X132803428Y-58835527D02*
X132732000Y-58978384D01*
X132732000Y-58978384D02*
X132589142Y-59049812D01*
X132589142Y-59049812D02*
X132446285Y-59049812D01*
X132446285Y-59049812D02*
X132303428Y-58978384D01*
X132303428Y-58978384D02*
X132232000Y-58835527D01*
X132232000Y-58835527D02*
X132232000Y-58478384D01*
X132232000Y-58478384D02*
X132160571Y-58335527D01*
X132803428Y-57406955D02*
X132732000Y-57549812D01*
X132732000Y-57549812D02*
X132589142Y-57621241D01*
X132589142Y-57621241D02*
X131303428Y-57621241D01*
X126878758Y-96523000D02*
X129164473Y-96523000D01*
X128021615Y-95380142D02*
X128021615Y-97665857D01*
X150374857Y-92692669D02*
X150303428Y-92835527D01*
X150303428Y-92835527D02*
X150303428Y-93049812D01*
X150303428Y-93049812D02*
X150374857Y-93264098D01*
X150374857Y-93264098D02*
X150517714Y-93406955D01*
X150517714Y-93406955D02*
X150660571Y-93478384D01*
X150660571Y-93478384D02*
X150946285Y-93549812D01*
X150946285Y-93549812D02*
X151160571Y-93549812D01*
X151160571Y-93549812D02*
X151446285Y-93478384D01*
X151446285Y-93478384D02*
X151589142Y-93406955D01*
X151589142Y-93406955D02*
X151732000Y-93264098D01*
X151732000Y-93264098D02*
X151803428Y-93049812D01*
X151803428Y-93049812D02*
X151803428Y-92906955D01*
X151803428Y-92906955D02*
X151732000Y-92692669D01*
X151732000Y-92692669D02*
X151660571Y-92621241D01*
X151660571Y-92621241D02*
X151160571Y-92621241D01*
X151160571Y-92621241D02*
X151160571Y-92906955D01*
X151803428Y-91978384D02*
X150803428Y-91978384D01*
X151089142Y-91978384D02*
X150946285Y-91906955D01*
X150946285Y-91906955D02*
X150874857Y-91835527D01*
X150874857Y-91835527D02*
X150803428Y-91692669D01*
X150803428Y-91692669D02*
X150803428Y-91549812D01*
X151732000Y-90478384D02*
X151803428Y-90621241D01*
X151803428Y-90621241D02*
X151803428Y-90906956D01*
X151803428Y-90906956D02*
X151732000Y-91049813D01*
X151732000Y-91049813D02*
X151589142Y-91121241D01*
X151589142Y-91121241D02*
X151017714Y-91121241D01*
X151017714Y-91121241D02*
X150874857Y-91049813D01*
X150874857Y-91049813D02*
X150803428Y-90906956D01*
X150803428Y-90906956D02*
X150803428Y-90621241D01*
X150803428Y-90621241D02*
X150874857Y-90478384D01*
X150874857Y-90478384D02*
X151017714Y-90406956D01*
X151017714Y-90406956D02*
X151160571Y-90406956D01*
X151160571Y-90406956D02*
X151303428Y-91121241D01*
X151732000Y-89192670D02*
X151803428Y-89335527D01*
X151803428Y-89335527D02*
X151803428Y-89621242D01*
X151803428Y-89621242D02*
X151732000Y-89764099D01*
X151732000Y-89764099D02*
X151589142Y-89835527D01*
X151589142Y-89835527D02*
X151017714Y-89835527D01*
X151017714Y-89835527D02*
X150874857Y-89764099D01*
X150874857Y-89764099D02*
X150803428Y-89621242D01*
X150803428Y-89621242D02*
X150803428Y-89335527D01*
X150803428Y-89335527D02*
X150874857Y-89192670D01*
X150874857Y-89192670D02*
X151017714Y-89121242D01*
X151017714Y-89121242D02*
X151160571Y-89121242D01*
X151160571Y-89121242D02*
X151303428Y-89835527D01*
X150803428Y-88478385D02*
X151803428Y-88478385D01*
X150946285Y-88478385D02*
X150874857Y-88406956D01*
X150874857Y-88406956D02*
X150803428Y-88264099D01*
X150803428Y-88264099D02*
X150803428Y-88049813D01*
X150803428Y-88049813D02*
X150874857Y-87906956D01*
X150874857Y-87906956D02*
X151017714Y-87835528D01*
X151017714Y-87835528D02*
X151803428Y-87835528D01*
X93121241Y-52477000D02*
X90835527Y-52477000D01*
X91978384Y-53619857D02*
X91978384Y-51334142D01*
X58303428Y-64692669D02*
X58303428Y-63835527D01*
X59803428Y-64264098D02*
X58303428Y-64264098D01*
X58303428Y-63478384D02*
X59803428Y-62478384D01*
X58303428Y-62478384D02*
X59803428Y-63478384D01*
X123878758Y-96523000D02*
X126164473Y-96523000D01*
X90640663Y-95966761D02*
X91831139Y-95966761D01*
X90402568Y-96681047D02*
X91235901Y-94181047D01*
X91235901Y-94181047D02*
X92069234Y-96681047D01*
X94093044Y-96681047D02*
X92902568Y-96681047D01*
X92902568Y-96681047D02*
X92902568Y-94181047D01*
X94807330Y-96562000D02*
X95164473Y-96681047D01*
X95164473Y-96681047D02*
X95759711Y-96681047D01*
X95759711Y-96681047D02*
X95997806Y-96562000D01*
X95997806Y-96562000D02*
X96116854Y-96442952D01*
X96116854Y-96442952D02*
X96235901Y-96204857D01*
X96235901Y-96204857D02*
X96235901Y-95966761D01*
X96235901Y-95966761D02*
X96116854Y-95728666D01*
X96116854Y-95728666D02*
X95997806Y-95609619D01*
X95997806Y-95609619D02*
X95759711Y-95490571D01*
X95759711Y-95490571D02*
X95283520Y-95371523D01*
X95283520Y-95371523D02*
X95045425Y-95252476D01*
X95045425Y-95252476D02*
X94926378Y-95133428D01*
X94926378Y-95133428D02*
X94807330Y-94895333D01*
X94807330Y-94895333D02*
X94807330Y-94657238D01*
X94807330Y-94657238D02*
X94926378Y-94419142D01*
X94926378Y-94419142D02*
X95045425Y-94300095D01*
X95045425Y-94300095D02*
X95283520Y-94181047D01*
X95283520Y-94181047D02*
X95878759Y-94181047D01*
X95878759Y-94181047D02*
X96235901Y-94300095D01*
X147121241Y-52477000D02*
X144835527Y-52477000D01*
X75121241Y-52477000D02*
X72835527Y-52477000D01*
X73978384Y-53619857D02*
X73978384Y-51334142D01*
X125121241Y-52477000D02*
X122835527Y-52477000D01*
X123978384Y-53619857D02*
X123978384Y-51334142D01*
X82017714Y-64978384D02*
X82089142Y-64764098D01*
X82089142Y-64764098D02*
X82160571Y-64692669D01*
X82160571Y-64692669D02*
X82303428Y-64621241D01*
X82303428Y-64621241D02*
X82517714Y-64621241D01*
X82517714Y-64621241D02*
X82660571Y-64692669D01*
X82660571Y-64692669D02*
X82732000Y-64764098D01*
X82732000Y-64764098D02*
X82803428Y-64906955D01*
X82803428Y-64906955D02*
X82803428Y-65478384D01*
X82803428Y-65478384D02*
X81303428Y-65478384D01*
X81303428Y-65478384D02*
X81303428Y-64978384D01*
X81303428Y-64978384D02*
X81374857Y-64835527D01*
X81374857Y-64835527D02*
X81446285Y-64764098D01*
X81446285Y-64764098D02*
X81589142Y-64692669D01*
X81589142Y-64692669D02*
X81732000Y-64692669D01*
X81732000Y-64692669D02*
X81874857Y-64764098D01*
X81874857Y-64764098D02*
X81946285Y-64835527D01*
X81946285Y-64835527D02*
X82017714Y-64978384D01*
X82017714Y-64978384D02*
X82017714Y-65478384D01*
X82803428Y-63335527D02*
X82017714Y-63335527D01*
X82017714Y-63335527D02*
X81874857Y-63406955D01*
X81874857Y-63406955D02*
X81803428Y-63549812D01*
X81803428Y-63549812D02*
X81803428Y-63835527D01*
X81803428Y-63835527D02*
X81874857Y-63978384D01*
X82732000Y-63335527D02*
X82803428Y-63478384D01*
X82803428Y-63478384D02*
X82803428Y-63835527D01*
X82803428Y-63835527D02*
X82732000Y-63978384D01*
X82732000Y-63978384D02*
X82589142Y-64049812D01*
X82589142Y-64049812D02*
X82446285Y-64049812D01*
X82446285Y-64049812D02*
X82303428Y-63978384D01*
X82303428Y-63978384D02*
X82232000Y-63835527D01*
X82232000Y-63835527D02*
X82232000Y-63478384D01*
X82232000Y-63478384D02*
X82160571Y-63335527D01*
X81803428Y-62835526D02*
X81803428Y-62264098D01*
X81303428Y-62621241D02*
X82589142Y-62621241D01*
X82589142Y-62621241D02*
X82732000Y-62549812D01*
X82732000Y-62549812D02*
X82803428Y-62406955D01*
X82803428Y-62406955D02*
X82803428Y-62264098D01*
X81803428Y-61978383D02*
X81803428Y-61406955D01*
X81303428Y-61764098D02*
X82589142Y-61764098D01*
X82589142Y-61764098D02*
X82732000Y-61692669D01*
X82732000Y-61692669D02*
X82803428Y-61549812D01*
X82803428Y-61549812D02*
X82803428Y-61406955D01*
X82732000Y-60335526D02*
X82803428Y-60478383D01*
X82803428Y-60478383D02*
X82803428Y-60764098D01*
X82803428Y-60764098D02*
X82732000Y-60906955D01*
X82732000Y-60906955D02*
X82589142Y-60978383D01*
X82589142Y-60978383D02*
X82017714Y-60978383D01*
X82017714Y-60978383D02*
X81874857Y-60906955D01*
X81874857Y-60906955D02*
X81803428Y-60764098D01*
X81803428Y-60764098D02*
X81803428Y-60478383D01*
X81803428Y-60478383D02*
X81874857Y-60335526D01*
X81874857Y-60335526D02*
X82017714Y-60264098D01*
X82017714Y-60264098D02*
X82160571Y-60264098D01*
X82160571Y-60264098D02*
X82303428Y-60978383D01*
X82803428Y-59621241D02*
X81803428Y-59621241D01*
X82089142Y-59621241D02*
X81946285Y-59549812D01*
X81946285Y-59549812D02*
X81874857Y-59478384D01*
X81874857Y-59478384D02*
X81803428Y-59335526D01*
X81803428Y-59335526D02*
X81803428Y-59192669D01*
X81803428Y-58835527D02*
X82803428Y-58478384D01*
X81803428Y-58121241D02*
X82803428Y-58478384D01*
X82803428Y-58478384D02*
X83160571Y-58621241D01*
X83160571Y-58621241D02*
X83232000Y-58692670D01*
X83232000Y-58692670D02*
X83303428Y-58835527D01*
X108521615Y-64803428D02*
X108521615Y-63303428D01*
X109164473Y-64732000D02*
X109378759Y-64803428D01*
X109378759Y-64803428D02*
X109735901Y-64803428D01*
X109735901Y-64803428D02*
X109878759Y-64732000D01*
X109878759Y-64732000D02*
X109950187Y-64660571D01*
X109950187Y-64660571D02*
X110021616Y-64517714D01*
X110021616Y-64517714D02*
X110021616Y-64374857D01*
X110021616Y-64374857D02*
X109950187Y-64232000D01*
X109950187Y-64232000D02*
X109878759Y-64160571D01*
X109878759Y-64160571D02*
X109735901Y-64089142D01*
X109735901Y-64089142D02*
X109450187Y-64017714D01*
X109450187Y-64017714D02*
X109307330Y-63946285D01*
X109307330Y-63946285D02*
X109235901Y-63874857D01*
X109235901Y-63874857D02*
X109164473Y-63732000D01*
X109164473Y-63732000D02*
X109164473Y-63589142D01*
X109164473Y-63589142D02*
X109235901Y-63446285D01*
X109235901Y-63446285D02*
X109307330Y-63374857D01*
X109307330Y-63374857D02*
X109450187Y-63303428D01*
X109450187Y-63303428D02*
X109807330Y-63303428D01*
X109807330Y-63303428D02*
X110021616Y-63374857D01*
X110664472Y-64803428D02*
X110664472Y-63303428D01*
X110664472Y-63303428D02*
X111235901Y-63303428D01*
X111235901Y-63303428D02*
X111378758Y-63374857D01*
X111378758Y-63374857D02*
X111450187Y-63446285D01*
X111450187Y-63446285D02*
X111521615Y-63589142D01*
X111521615Y-63589142D02*
X111521615Y-63803428D01*
X111521615Y-63803428D02*
X111450187Y-63946285D01*
X111450187Y-63946285D02*
X111378758Y-64017714D01*
X111378758Y-64017714D02*
X111235901Y-64089142D01*
X111235901Y-64089142D02*
X110664472Y-64089142D01*
X78121241Y-52477000D02*
X75835527Y-52477000D01*
X96121241Y-52477000D02*
X93835527Y-52477000D01*
X132803428Y-92621241D02*
X132089142Y-93121241D01*
X132803428Y-93478384D02*
X131303428Y-93478384D01*
X131303428Y-93478384D02*
X131303428Y-92906955D01*
X131303428Y-92906955D02*
X131374857Y-92764098D01*
X131374857Y-92764098D02*
X131446285Y-92692669D01*
X131446285Y-92692669D02*
X131589142Y-92621241D01*
X131589142Y-92621241D02*
X131803428Y-92621241D01*
X131803428Y-92621241D02*
X131946285Y-92692669D01*
X131946285Y-92692669D02*
X132017714Y-92764098D01*
X132017714Y-92764098D02*
X132089142Y-92906955D01*
X132089142Y-92906955D02*
X132089142Y-93478384D01*
X132732000Y-91406955D02*
X132803428Y-91549812D01*
X132803428Y-91549812D02*
X132803428Y-91835527D01*
X132803428Y-91835527D02*
X132732000Y-91978384D01*
X132732000Y-91978384D02*
X132589142Y-92049812D01*
X132589142Y-92049812D02*
X132017714Y-92049812D01*
X132017714Y-92049812D02*
X131874857Y-91978384D01*
X131874857Y-91978384D02*
X131803428Y-91835527D01*
X131803428Y-91835527D02*
X131803428Y-91549812D01*
X131803428Y-91549812D02*
X131874857Y-91406955D01*
X131874857Y-91406955D02*
X132017714Y-91335527D01*
X132017714Y-91335527D02*
X132160571Y-91335527D01*
X132160571Y-91335527D02*
X132303428Y-92049812D01*
X132803428Y-90049813D02*
X131303428Y-90049813D01*
X132732000Y-90049813D02*
X132803428Y-90192670D01*
X132803428Y-90192670D02*
X132803428Y-90478384D01*
X132803428Y-90478384D02*
X132732000Y-90621241D01*
X132732000Y-90621241D02*
X132660571Y-90692670D01*
X132660571Y-90692670D02*
X132517714Y-90764098D01*
X132517714Y-90764098D02*
X132089142Y-90764098D01*
X132089142Y-90764098D02*
X131946285Y-90692670D01*
X131946285Y-90692670D02*
X131874857Y-90621241D01*
X131874857Y-90621241D02*
X131803428Y-90478384D01*
X131803428Y-90478384D02*
X131803428Y-90192670D01*
X131803428Y-90192670D02*
X131874857Y-90049813D01*
X144878758Y-96523000D02*
X147164473Y-96523000D01*
X146021615Y-95380142D02*
X146021615Y-97665857D01*
X128121241Y-52477000D02*
X125835527Y-52477000D01*
X69759711Y-96681047D02*
X69759711Y-94181047D01*
X69759711Y-95371523D02*
X71188282Y-95371523D01*
X71188282Y-96681047D02*
X71188282Y-94181047D01*
X72378759Y-96681047D02*
X72378759Y-94181047D01*
X72378759Y-94181047D02*
X73331140Y-94181047D01*
X73331140Y-94181047D02*
X73569235Y-94300095D01*
X73569235Y-94300095D02*
X73688282Y-94419142D01*
X73688282Y-94419142D02*
X73807330Y-94657238D01*
X73807330Y-94657238D02*
X73807330Y-95014380D01*
X73807330Y-95014380D02*
X73688282Y-95252476D01*
X73688282Y-95252476D02*
X73569235Y-95371523D01*
X73569235Y-95371523D02*
X73331140Y-95490571D01*
X73331140Y-95490571D02*
X72378759Y-95490571D01*
X74878759Y-96681047D02*
X74878759Y-94181047D01*
X74878759Y-94181047D02*
X75712092Y-95966761D01*
X75712092Y-95966761D02*
X76545425Y-94181047D01*
X76545425Y-94181047D02*
X76545425Y-96681047D01*
X77616854Y-96562000D02*
X77973997Y-96681047D01*
X77973997Y-96681047D02*
X78569235Y-96681047D01*
X78569235Y-96681047D02*
X78807330Y-96562000D01*
X78807330Y-96562000D02*
X78926378Y-96442952D01*
X78926378Y-96442952D02*
X79045425Y-96204857D01*
X79045425Y-96204857D02*
X79045425Y-95966761D01*
X79045425Y-95966761D02*
X78926378Y-95728666D01*
X78926378Y-95728666D02*
X78807330Y-95609619D01*
X78807330Y-95609619D02*
X78569235Y-95490571D01*
X78569235Y-95490571D02*
X78093044Y-95371523D01*
X78093044Y-95371523D02*
X77854949Y-95252476D01*
X77854949Y-95252476D02*
X77735902Y-95133428D01*
X77735902Y-95133428D02*
X77616854Y-94895333D01*
X77616854Y-94895333D02*
X77616854Y-94657238D01*
X77616854Y-94657238D02*
X77735902Y-94419142D01*
X77735902Y-94419142D02*
X77854949Y-94300095D01*
X77854949Y-94300095D02*
X78093044Y-94181047D01*
X78093044Y-94181047D02*
X78688283Y-94181047D01*
X78688283Y-94181047D02*
X79045425Y-94300095D01*
X100017714Y-64978384D02*
X100017714Y-65478384D01*
X100803428Y-65478384D02*
X99303428Y-65478384D01*
X99303428Y-65478384D02*
X99303428Y-64764098D01*
X100803428Y-63549813D02*
X100017714Y-63549813D01*
X100017714Y-63549813D02*
X99874857Y-63621241D01*
X99874857Y-63621241D02*
X99803428Y-63764098D01*
X99803428Y-63764098D02*
X99803428Y-64049813D01*
X99803428Y-64049813D02*
X99874857Y-64192670D01*
X100732000Y-63549813D02*
X100803428Y-63692670D01*
X100803428Y-63692670D02*
X100803428Y-64049813D01*
X100803428Y-64049813D02*
X100732000Y-64192670D01*
X100732000Y-64192670D02*
X100589142Y-64264098D01*
X100589142Y-64264098D02*
X100446285Y-64264098D01*
X100446285Y-64264098D02*
X100303428Y-64192670D01*
X100303428Y-64192670D02*
X100232000Y-64049813D01*
X100232000Y-64049813D02*
X100232000Y-63692670D01*
X100232000Y-63692670D02*
X100160571Y-63549813D01*
X99803428Y-62835527D02*
X100803428Y-62835527D01*
X99946285Y-62835527D02*
X99874857Y-62764098D01*
X99874857Y-62764098D02*
X99803428Y-62621241D01*
X99803428Y-62621241D02*
X99803428Y-62406955D01*
X99803428Y-62406955D02*
X99874857Y-62264098D01*
X99874857Y-62264098D02*
X100017714Y-62192670D01*
X100017714Y-62192670D02*
X100803428Y-62192670D01*
X64803428Y-63621241D02*
X64089142Y-64121241D01*
X64803428Y-64478384D02*
X63303428Y-64478384D01*
X63303428Y-64478384D02*
X63303428Y-63906955D01*
X63303428Y-63906955D02*
X63374857Y-63764098D01*
X63374857Y-63764098D02*
X63446285Y-63692669D01*
X63446285Y-63692669D02*
X63589142Y-63621241D01*
X63589142Y-63621241D02*
X63803428Y-63621241D01*
X63803428Y-63621241D02*
X63946285Y-63692669D01*
X63946285Y-63692669D02*
X64017714Y-63764098D01*
X64017714Y-63764098D02*
X64089142Y-63906955D01*
X64089142Y-63906955D02*
X64089142Y-64478384D01*
X63303428Y-63121241D02*
X64803428Y-62121241D01*
X63303428Y-62121241D02*
X64803428Y-63121241D01*
X151803428Y-65478384D02*
X150303428Y-65478384D01*
X150303428Y-65478384D02*
X150303428Y-64906955D01*
X150303428Y-64906955D02*
X150374857Y-64764098D01*
X150374857Y-64764098D02*
X150446285Y-64692669D01*
X150446285Y-64692669D02*
X150589142Y-64621241D01*
X150589142Y-64621241D02*
X150803428Y-64621241D01*
X150803428Y-64621241D02*
X150946285Y-64692669D01*
X150946285Y-64692669D02*
X151017714Y-64764098D01*
X151017714Y-64764098D02*
X151089142Y-64906955D01*
X151089142Y-64906955D02*
X151089142Y-65478384D01*
X151803428Y-63335527D02*
X151017714Y-63335527D01*
X151017714Y-63335527D02*
X150874857Y-63406955D01*
X150874857Y-63406955D02*
X150803428Y-63549812D01*
X150803428Y-63549812D02*
X150803428Y-63835527D01*
X150803428Y-63835527D02*
X150874857Y-63978384D01*
X151732000Y-63335527D02*
X151803428Y-63478384D01*
X151803428Y-63478384D02*
X151803428Y-63835527D01*
X151803428Y-63835527D02*
X151732000Y-63978384D01*
X151732000Y-63978384D02*
X151589142Y-64049812D01*
X151589142Y-64049812D02*
X151446285Y-64049812D01*
X151446285Y-64049812D02*
X151303428Y-63978384D01*
X151303428Y-63978384D02*
X151232000Y-63835527D01*
X151232000Y-63835527D02*
X151232000Y-63478384D01*
X151232000Y-63478384D02*
X151160571Y-63335527D01*
X150803428Y-62621241D02*
X151803428Y-62621241D01*
X150946285Y-62621241D02*
X150874857Y-62549812D01*
X150874857Y-62549812D02*
X150803428Y-62406955D01*
X150803428Y-62406955D02*
X150803428Y-62192669D01*
X150803428Y-62192669D02*
X150874857Y-62049812D01*
X150874857Y-62049812D02*
X151017714Y-61978384D01*
X151017714Y-61978384D02*
X151803428Y-61978384D01*
X151732000Y-60692669D02*
X151803428Y-60835526D01*
X151803428Y-60835526D02*
X151803428Y-61121241D01*
X151803428Y-61121241D02*
X151732000Y-61264098D01*
X151732000Y-61264098D02*
X151589142Y-61335526D01*
X151589142Y-61335526D02*
X151017714Y-61335526D01*
X151017714Y-61335526D02*
X150874857Y-61264098D01*
X150874857Y-61264098D02*
X150803428Y-61121241D01*
X150803428Y-61121241D02*
X150803428Y-60835526D01*
X150803428Y-60835526D02*
X150874857Y-60692669D01*
X150874857Y-60692669D02*
X151017714Y-60621241D01*
X151017714Y-60621241D02*
X151160571Y-60621241D01*
X151160571Y-60621241D02*
X151303428Y-61335526D01*
X151803428Y-59764098D02*
X151732000Y-59906955D01*
X151732000Y-59906955D02*
X151589142Y-59978384D01*
X151589142Y-59978384D02*
X150303428Y-59978384D01*
X144121241Y-52477000D02*
X141835527Y-52477000D01*
X142978384Y-53619857D02*
X142978384Y-51334142D01*
D11*
X71833333Y-74359580D02*
X71785714Y-74407200D01*
X71785714Y-74407200D02*
X71642857Y-74454819D01*
X71642857Y-74454819D02*
X71547619Y-74454819D01*
X71547619Y-74454819D02*
X71404762Y-74407200D01*
X71404762Y-74407200D02*
X71309524Y-74311961D01*
X71309524Y-74311961D02*
X71261905Y-74216723D01*
X71261905Y-74216723D02*
X71214286Y-74026247D01*
X71214286Y-74026247D02*
X71214286Y-73883390D01*
X71214286Y-73883390D02*
X71261905Y-73692914D01*
X71261905Y-73692914D02*
X71309524Y-73597676D01*
X71309524Y-73597676D02*
X71404762Y-73502438D01*
X71404762Y-73502438D02*
X71547619Y-73454819D01*
X71547619Y-73454819D02*
X71642857Y-73454819D01*
X71642857Y-73454819D02*
X71785714Y-73502438D01*
X71785714Y-73502438D02*
X71833333Y-73550057D01*
X72785714Y-74454819D02*
X72214286Y-74454819D01*
X72500000Y-74454819D02*
X72500000Y-73454819D01*
X72500000Y-73454819D02*
X72404762Y-73597676D01*
X72404762Y-73597676D02*
X72309524Y-73692914D01*
X72309524Y-73692914D02*
X72214286Y-73740533D01*
D10*
X147000000Y-81860928D02*
X147000000Y-82932357D01*
X147000000Y-82932357D02*
X146928571Y-83146642D01*
X146928571Y-83146642D02*
X146785714Y-83289500D01*
X146785714Y-83289500D02*
X146571428Y-83360928D01*
X146571428Y-83360928D02*
X146428571Y-83360928D01*
X148357143Y-81860928D02*
X148071428Y-81860928D01*
X148071428Y-81860928D02*
X147928571Y-81932357D01*
X147928571Y-81932357D02*
X147857143Y-82003785D01*
X147857143Y-82003785D02*
X147714285Y-82218071D01*
X147714285Y-82218071D02*
X147642857Y-82503785D01*
X147642857Y-82503785D02*
X147642857Y-83075214D01*
X147642857Y-83075214D02*
X147714285Y-83218071D01*
X147714285Y-83218071D02*
X147785714Y-83289500D01*
X147785714Y-83289500D02*
X147928571Y-83360928D01*
X147928571Y-83360928D02*
X148214285Y-83360928D01*
X148214285Y-83360928D02*
X148357143Y-83289500D01*
X148357143Y-83289500D02*
X148428571Y-83218071D01*
X148428571Y-83218071D02*
X148500000Y-83075214D01*
X148500000Y-83075214D02*
X148500000Y-82718071D01*
X148500000Y-82718071D02*
X148428571Y-82575214D01*
X148428571Y-82575214D02*
X148357143Y-82503785D01*
X148357143Y-82503785D02*
X148214285Y-82432357D01*
X148214285Y-82432357D02*
X147928571Y-82432357D01*
X147928571Y-82432357D02*
X147785714Y-82503785D01*
X147785714Y-82503785D02*
X147714285Y-82575214D01*
X147714285Y-82575214D02*
X147642857Y-82718071D01*
X128500000Y-66680928D02*
X128500000Y-67752357D01*
X128500000Y-67752357D02*
X128428571Y-67966642D01*
X128428571Y-67966642D02*
X128285714Y-68109500D01*
X128285714Y-68109500D02*
X128071428Y-68180928D01*
X128071428Y-68180928D02*
X127928571Y-68180928D01*
X129857143Y-67180928D02*
X129857143Y-68180928D01*
X129500000Y-66609500D02*
X129142857Y-67680928D01*
X129142857Y-67680928D02*
X130071428Y-67680928D01*
D11*
X125357142Y-78454819D02*
X125023809Y-77978628D01*
X124785714Y-78454819D02*
X124785714Y-77454819D01*
X124785714Y-77454819D02*
X125166666Y-77454819D01*
X125166666Y-77454819D02*
X125261904Y-77502438D01*
X125261904Y-77502438D02*
X125309523Y-77550057D01*
X125309523Y-77550057D02*
X125357142Y-77645295D01*
X125357142Y-77645295D02*
X125357142Y-77788152D01*
X125357142Y-77788152D02*
X125309523Y-77883390D01*
X125309523Y-77883390D02*
X125261904Y-77931009D01*
X125261904Y-77931009D02*
X125166666Y-77978628D01*
X125166666Y-77978628D02*
X124785714Y-77978628D01*
X126309523Y-78454819D02*
X125738095Y-78454819D01*
X126023809Y-78454819D02*
X126023809Y-77454819D01*
X126023809Y-77454819D02*
X125928571Y-77597676D01*
X125928571Y-77597676D02*
X125833333Y-77692914D01*
X125833333Y-77692914D02*
X125738095Y-77740533D01*
X127214285Y-77454819D02*
X126738095Y-77454819D01*
X126738095Y-77454819D02*
X126690476Y-77931009D01*
X126690476Y-77931009D02*
X126738095Y-77883390D01*
X126738095Y-77883390D02*
X126833333Y-77835771D01*
X126833333Y-77835771D02*
X127071428Y-77835771D01*
X127071428Y-77835771D02*
X127166666Y-77883390D01*
X127166666Y-77883390D02*
X127214285Y-77931009D01*
X127214285Y-77931009D02*
X127261904Y-78026247D01*
X127261904Y-78026247D02*
X127261904Y-78264342D01*
X127261904Y-78264342D02*
X127214285Y-78359580D01*
X127214285Y-78359580D02*
X127166666Y-78407200D01*
X127166666Y-78407200D02*
X127071428Y-78454819D01*
X127071428Y-78454819D02*
X126833333Y-78454819D01*
X126833333Y-78454819D02*
X126738095Y-78407200D01*
X126738095Y-78407200D02*
X126690476Y-78359580D01*
X92238095Y-91454819D02*
X92238095Y-92264342D01*
X92238095Y-92264342D02*
X92285714Y-92359580D01*
X92285714Y-92359580D02*
X92333333Y-92407200D01*
X92333333Y-92407200D02*
X92428571Y-92454819D01*
X92428571Y-92454819D02*
X92619047Y-92454819D01*
X92619047Y-92454819D02*
X92714285Y-92407200D01*
X92714285Y-92407200D02*
X92761904Y-92359580D01*
X92761904Y-92359580D02*
X92809523Y-92264342D01*
X92809523Y-92264342D02*
X92809523Y-91454819D01*
X93238095Y-91550057D02*
X93285714Y-91502438D01*
X93285714Y-91502438D02*
X93380952Y-91454819D01*
X93380952Y-91454819D02*
X93619047Y-91454819D01*
X93619047Y-91454819D02*
X93714285Y-91502438D01*
X93714285Y-91502438D02*
X93761904Y-91550057D01*
X93761904Y-91550057D02*
X93809523Y-91645295D01*
X93809523Y-91645295D02*
X93809523Y-91740533D01*
X93809523Y-91740533D02*
X93761904Y-91883390D01*
X93761904Y-91883390D02*
X93190476Y-92454819D01*
X93190476Y-92454819D02*
X93809523Y-92454819D01*
X94982445Y-74471572D02*
X94887207Y-74423953D01*
X94887207Y-74423953D02*
X94791969Y-74328715D01*
X94791969Y-74328715D02*
X94649112Y-74185857D01*
X94649112Y-74185857D02*
X94553874Y-74138238D01*
X94553874Y-74138238D02*
X94458636Y-74138238D01*
X94506255Y-74376334D02*
X94411017Y-74328715D01*
X94411017Y-74328715D02*
X94315779Y-74233476D01*
X94315779Y-74233476D02*
X94268160Y-74043000D01*
X94268160Y-74043000D02*
X94268160Y-73709667D01*
X94268160Y-73709667D02*
X94315779Y-73519191D01*
X94315779Y-73519191D02*
X94411017Y-73423953D01*
X94411017Y-73423953D02*
X94506255Y-73376334D01*
X94506255Y-73376334D02*
X94696731Y-73376334D01*
X94696731Y-73376334D02*
X94791969Y-73423953D01*
X94791969Y-73423953D02*
X94887207Y-73519191D01*
X94887207Y-73519191D02*
X94934826Y-73709667D01*
X94934826Y-73709667D02*
X94934826Y-74043000D01*
X94934826Y-74043000D02*
X94887207Y-74233476D01*
X94887207Y-74233476D02*
X94791969Y-74328715D01*
X94791969Y-74328715D02*
X94696731Y-74376334D01*
X94696731Y-74376334D02*
X94506255Y-74376334D01*
X95887207Y-74376334D02*
X95315779Y-74376334D01*
X95601493Y-74376334D02*
X95601493Y-73376334D01*
X95601493Y-73376334D02*
X95506255Y-73519191D01*
X95506255Y-73519191D02*
X95411017Y-73614429D01*
X95411017Y-73614429D02*
X95315779Y-73662048D01*
D10*
X129000000Y-81860928D02*
X129000000Y-82932357D01*
X129000000Y-82932357D02*
X128928571Y-83146642D01*
X128928571Y-83146642D02*
X128785714Y-83289500D01*
X128785714Y-83289500D02*
X128571428Y-83360928D01*
X128571428Y-83360928D02*
X128428571Y-83360928D01*
X129571428Y-81860928D02*
X130571428Y-81860928D01*
X130571428Y-81860928D02*
X129928571Y-83360928D01*
D11*
X149333333Y-73454819D02*
X149000000Y-72978628D01*
X148761905Y-73454819D02*
X148761905Y-72454819D01*
X148761905Y-72454819D02*
X149142857Y-72454819D01*
X149142857Y-72454819D02*
X149238095Y-72502438D01*
X149238095Y-72502438D02*
X149285714Y-72550057D01*
X149285714Y-72550057D02*
X149333333Y-72645295D01*
X149333333Y-72645295D02*
X149333333Y-72788152D01*
X149333333Y-72788152D02*
X149285714Y-72883390D01*
X149285714Y-72883390D02*
X149238095Y-72931009D01*
X149238095Y-72931009D02*
X149142857Y-72978628D01*
X149142857Y-72978628D02*
X148761905Y-72978628D01*
X149809524Y-73454819D02*
X150000000Y-73454819D01*
X150000000Y-73454819D02*
X150095238Y-73407200D01*
X150095238Y-73407200D02*
X150142857Y-73359580D01*
X150142857Y-73359580D02*
X150238095Y-73216723D01*
X150238095Y-73216723D02*
X150285714Y-73026247D01*
X150285714Y-73026247D02*
X150285714Y-72645295D01*
X150285714Y-72645295D02*
X150238095Y-72550057D01*
X150238095Y-72550057D02*
X150190476Y-72502438D01*
X150190476Y-72502438D02*
X150095238Y-72454819D01*
X150095238Y-72454819D02*
X149904762Y-72454819D01*
X149904762Y-72454819D02*
X149809524Y-72502438D01*
X149809524Y-72502438D02*
X149761905Y-72550057D01*
X149761905Y-72550057D02*
X149714286Y-72645295D01*
X149714286Y-72645295D02*
X149714286Y-72883390D01*
X149714286Y-72883390D02*
X149761905Y-72978628D01*
X149761905Y-72978628D02*
X149809524Y-73026247D01*
X149809524Y-73026247D02*
X149904762Y-73073866D01*
X149904762Y-73073866D02*
X150095238Y-73073866D01*
X150095238Y-73073866D02*
X150190476Y-73026247D01*
X150190476Y-73026247D02*
X150238095Y-72978628D01*
X150238095Y-72978628D02*
X150285714Y-72883390D01*
X73111095Y-86454819D02*
X73111095Y-87264342D01*
X73111095Y-87264342D02*
X73158714Y-87359580D01*
X73158714Y-87359580D02*
X73206333Y-87407200D01*
X73206333Y-87407200D02*
X73301571Y-87454819D01*
X73301571Y-87454819D02*
X73492047Y-87454819D01*
X73492047Y-87454819D02*
X73587285Y-87407200D01*
X73587285Y-87407200D02*
X73634904Y-87359580D01*
X73634904Y-87359580D02*
X73682523Y-87264342D01*
X73682523Y-87264342D02*
X73682523Y-86454819D01*
X74063476Y-86454819D02*
X74682523Y-86454819D01*
X74682523Y-86454819D02*
X74349190Y-86835771D01*
X74349190Y-86835771D02*
X74492047Y-86835771D01*
X74492047Y-86835771D02*
X74587285Y-86883390D01*
X74587285Y-86883390D02*
X74634904Y-86931009D01*
X74634904Y-86931009D02*
X74682523Y-87026247D01*
X74682523Y-87026247D02*
X74682523Y-87264342D01*
X74682523Y-87264342D02*
X74634904Y-87359580D01*
X74634904Y-87359580D02*
X74587285Y-87407200D01*
X74587285Y-87407200D02*
X74492047Y-87454819D01*
X74492047Y-87454819D02*
X74206333Y-87454819D01*
X74206333Y-87454819D02*
X74111095Y-87407200D01*
X74111095Y-87407200D02*
X74063476Y-87359580D01*
X90359580Y-76142857D02*
X90407200Y-76190476D01*
X90407200Y-76190476D02*
X90454819Y-76333333D01*
X90454819Y-76333333D02*
X90454819Y-76428571D01*
X90454819Y-76428571D02*
X90407200Y-76571428D01*
X90407200Y-76571428D02*
X90311961Y-76666666D01*
X90311961Y-76666666D02*
X90216723Y-76714285D01*
X90216723Y-76714285D02*
X90026247Y-76761904D01*
X90026247Y-76761904D02*
X89883390Y-76761904D01*
X89883390Y-76761904D02*
X89692914Y-76714285D01*
X89692914Y-76714285D02*
X89597676Y-76666666D01*
X89597676Y-76666666D02*
X89502438Y-76571428D01*
X89502438Y-76571428D02*
X89454819Y-76428571D01*
X89454819Y-76428571D02*
X89454819Y-76333333D01*
X89454819Y-76333333D02*
X89502438Y-76190476D01*
X89502438Y-76190476D02*
X89550057Y-76142857D01*
X90454819Y-75190476D02*
X90454819Y-75761904D01*
X90454819Y-75476190D02*
X89454819Y-75476190D01*
X89454819Y-75476190D02*
X89597676Y-75571428D01*
X89597676Y-75571428D02*
X89692914Y-75666666D01*
X89692914Y-75666666D02*
X89740533Y-75761904D01*
X89454819Y-74571428D02*
X89454819Y-74476190D01*
X89454819Y-74476190D02*
X89502438Y-74380952D01*
X89502438Y-74380952D02*
X89550057Y-74333333D01*
X89550057Y-74333333D02*
X89645295Y-74285714D01*
X89645295Y-74285714D02*
X89835771Y-74238095D01*
X89835771Y-74238095D02*
X90073866Y-74238095D01*
X90073866Y-74238095D02*
X90264342Y-74285714D01*
X90264342Y-74285714D02*
X90359580Y-74333333D01*
X90359580Y-74333333D02*
X90407200Y-74380952D01*
X90407200Y-74380952D02*
X90454819Y-74476190D01*
X90454819Y-74476190D02*
X90454819Y-74571428D01*
X90454819Y-74571428D02*
X90407200Y-74666666D01*
X90407200Y-74666666D02*
X90359580Y-74714285D01*
X90359580Y-74714285D02*
X90264342Y-74761904D01*
X90264342Y-74761904D02*
X90073866Y-74809523D01*
X90073866Y-74809523D02*
X89835771Y-74809523D01*
X89835771Y-74809523D02*
X89645295Y-74761904D01*
X89645295Y-74761904D02*
X89550057Y-74714285D01*
X89550057Y-74714285D02*
X89502438Y-74666666D01*
X89502438Y-74666666D02*
X89454819Y-74571428D01*
D10*
X96500000Y-66180928D02*
X96500000Y-67252357D01*
X96500000Y-67252357D02*
X96428571Y-67466642D01*
X96428571Y-67466642D02*
X96285714Y-67609500D01*
X96285714Y-67609500D02*
X96071428Y-67680928D01*
X96071428Y-67680928D02*
X95928571Y-67680928D01*
X97071428Y-66180928D02*
X98000000Y-66180928D01*
X98000000Y-66180928D02*
X97500000Y-66752357D01*
X97500000Y-66752357D02*
X97714285Y-66752357D01*
X97714285Y-66752357D02*
X97857143Y-66823785D01*
X97857143Y-66823785D02*
X97928571Y-66895214D01*
X97928571Y-66895214D02*
X98000000Y-67038071D01*
X98000000Y-67038071D02*
X98000000Y-67395214D01*
X98000000Y-67395214D02*
X97928571Y-67538071D01*
X97928571Y-67538071D02*
X97857143Y-67609500D01*
X97857143Y-67609500D02*
X97714285Y-67680928D01*
X97714285Y-67680928D02*
X97285714Y-67680928D01*
X97285714Y-67680928D02*
X97142857Y-67609500D01*
X97142857Y-67609500D02*
X97071428Y-67538071D01*
D11*
X123050057Y-71095238D02*
X123002438Y-71190476D01*
X123002438Y-71190476D02*
X122907200Y-71285714D01*
X122907200Y-71285714D02*
X122764342Y-71428571D01*
X122764342Y-71428571D02*
X122716723Y-71523809D01*
X122716723Y-71523809D02*
X122716723Y-71619047D01*
X122954819Y-71571428D02*
X122907200Y-71666666D01*
X122907200Y-71666666D02*
X122811961Y-71761904D01*
X122811961Y-71761904D02*
X122621485Y-71809523D01*
X122621485Y-71809523D02*
X122288152Y-71809523D01*
X122288152Y-71809523D02*
X122097676Y-71761904D01*
X122097676Y-71761904D02*
X122002438Y-71666666D01*
X122002438Y-71666666D02*
X121954819Y-71571428D01*
X121954819Y-71571428D02*
X121954819Y-71380952D01*
X121954819Y-71380952D02*
X122002438Y-71285714D01*
X122002438Y-71285714D02*
X122097676Y-71190476D01*
X122097676Y-71190476D02*
X122288152Y-71142857D01*
X122288152Y-71142857D02*
X122621485Y-71142857D01*
X122621485Y-71142857D02*
X122811961Y-71190476D01*
X122811961Y-71190476D02*
X122907200Y-71285714D01*
X122907200Y-71285714D02*
X122954819Y-71380952D01*
X122954819Y-71380952D02*
X122954819Y-71571428D01*
X122050057Y-70761904D02*
X122002438Y-70714285D01*
X122002438Y-70714285D02*
X121954819Y-70619047D01*
X121954819Y-70619047D02*
X121954819Y-70380952D01*
X121954819Y-70380952D02*
X122002438Y-70285714D01*
X122002438Y-70285714D02*
X122050057Y-70238095D01*
X122050057Y-70238095D02*
X122145295Y-70190476D01*
X122145295Y-70190476D02*
X122240533Y-70190476D01*
X122240533Y-70190476D02*
X122383390Y-70238095D01*
X122383390Y-70238095D02*
X122954819Y-70809523D01*
X122954819Y-70809523D02*
X122954819Y-70190476D01*
X70261905Y-70454819D02*
X70261905Y-69454819D01*
X70261905Y-69454819D02*
X70500000Y-69454819D01*
X70500000Y-69454819D02*
X70642857Y-69502438D01*
X70642857Y-69502438D02*
X70738095Y-69597676D01*
X70738095Y-69597676D02*
X70785714Y-69692914D01*
X70785714Y-69692914D02*
X70833333Y-69883390D01*
X70833333Y-69883390D02*
X70833333Y-70026247D01*
X70833333Y-70026247D02*
X70785714Y-70216723D01*
X70785714Y-70216723D02*
X70738095Y-70311961D01*
X70738095Y-70311961D02*
X70642857Y-70407200D01*
X70642857Y-70407200D02*
X70500000Y-70454819D01*
X70500000Y-70454819D02*
X70261905Y-70454819D01*
X71785714Y-70454819D02*
X71214286Y-70454819D01*
X71500000Y-70454819D02*
X71500000Y-69454819D01*
X71500000Y-69454819D02*
X71404762Y-69597676D01*
X71404762Y-69597676D02*
X71309524Y-69692914D01*
X71309524Y-69692914D02*
X71214286Y-69740533D01*
X131333333Y-70454819D02*
X131000000Y-69978628D01*
X130761905Y-70454819D02*
X130761905Y-69454819D01*
X130761905Y-69454819D02*
X131142857Y-69454819D01*
X131142857Y-69454819D02*
X131238095Y-69502438D01*
X131238095Y-69502438D02*
X131285714Y-69550057D01*
X131285714Y-69550057D02*
X131333333Y-69645295D01*
X131333333Y-69645295D02*
X131333333Y-69788152D01*
X131333333Y-69788152D02*
X131285714Y-69883390D01*
X131285714Y-69883390D02*
X131238095Y-69931009D01*
X131238095Y-69931009D02*
X131142857Y-69978628D01*
X131142857Y-69978628D02*
X130761905Y-69978628D01*
X131904762Y-69883390D02*
X131809524Y-69835771D01*
X131809524Y-69835771D02*
X131761905Y-69788152D01*
X131761905Y-69788152D02*
X131714286Y-69692914D01*
X131714286Y-69692914D02*
X131714286Y-69645295D01*
X131714286Y-69645295D02*
X131761905Y-69550057D01*
X131761905Y-69550057D02*
X131809524Y-69502438D01*
X131809524Y-69502438D02*
X131904762Y-69454819D01*
X131904762Y-69454819D02*
X132095238Y-69454819D01*
X132095238Y-69454819D02*
X132190476Y-69502438D01*
X132190476Y-69502438D02*
X132238095Y-69550057D01*
X132238095Y-69550057D02*
X132285714Y-69645295D01*
X132285714Y-69645295D02*
X132285714Y-69692914D01*
X132285714Y-69692914D02*
X132238095Y-69788152D01*
X132238095Y-69788152D02*
X132190476Y-69835771D01*
X132190476Y-69835771D02*
X132095238Y-69883390D01*
X132095238Y-69883390D02*
X131904762Y-69883390D01*
X131904762Y-69883390D02*
X131809524Y-69931009D01*
X131809524Y-69931009D02*
X131761905Y-69978628D01*
X131761905Y-69978628D02*
X131714286Y-70073866D01*
X131714286Y-70073866D02*
X131714286Y-70264342D01*
X131714286Y-70264342D02*
X131761905Y-70359580D01*
X131761905Y-70359580D02*
X131809524Y-70407200D01*
X131809524Y-70407200D02*
X131904762Y-70454819D01*
X131904762Y-70454819D02*
X132095238Y-70454819D01*
X132095238Y-70454819D02*
X132190476Y-70407200D01*
X132190476Y-70407200D02*
X132238095Y-70359580D01*
X132238095Y-70359580D02*
X132285714Y-70264342D01*
X132285714Y-70264342D02*
X132285714Y-70073866D01*
X132285714Y-70073866D02*
X132238095Y-69978628D01*
X132238095Y-69978628D02*
X132190476Y-69931009D01*
X132190476Y-69931009D02*
X132095238Y-69883390D01*
X143357142Y-78454819D02*
X143023809Y-77978628D01*
X142785714Y-78454819D02*
X142785714Y-77454819D01*
X142785714Y-77454819D02*
X143166666Y-77454819D01*
X143166666Y-77454819D02*
X143261904Y-77502438D01*
X143261904Y-77502438D02*
X143309523Y-77550057D01*
X143309523Y-77550057D02*
X143357142Y-77645295D01*
X143357142Y-77645295D02*
X143357142Y-77788152D01*
X143357142Y-77788152D02*
X143309523Y-77883390D01*
X143309523Y-77883390D02*
X143261904Y-77931009D01*
X143261904Y-77931009D02*
X143166666Y-77978628D01*
X143166666Y-77978628D02*
X142785714Y-77978628D01*
X144309523Y-78454819D02*
X143738095Y-78454819D01*
X144023809Y-78454819D02*
X144023809Y-77454819D01*
X144023809Y-77454819D02*
X143928571Y-77597676D01*
X143928571Y-77597676D02*
X143833333Y-77692914D01*
X143833333Y-77692914D02*
X143738095Y-77740533D01*
X145166666Y-77788152D02*
X145166666Y-78454819D01*
X144928571Y-77407200D02*
X144690476Y-78121485D01*
X144690476Y-78121485D02*
X145309523Y-78121485D01*
X140050057Y-71095238D02*
X140002438Y-71190476D01*
X140002438Y-71190476D02*
X139907200Y-71285714D01*
X139907200Y-71285714D02*
X139764342Y-71428571D01*
X139764342Y-71428571D02*
X139716723Y-71523809D01*
X139716723Y-71523809D02*
X139716723Y-71619047D01*
X139954819Y-71571428D02*
X139907200Y-71666666D01*
X139907200Y-71666666D02*
X139811961Y-71761904D01*
X139811961Y-71761904D02*
X139621485Y-71809523D01*
X139621485Y-71809523D02*
X139288152Y-71809523D01*
X139288152Y-71809523D02*
X139097676Y-71761904D01*
X139097676Y-71761904D02*
X139002438Y-71666666D01*
X139002438Y-71666666D02*
X138954819Y-71571428D01*
X138954819Y-71571428D02*
X138954819Y-71380952D01*
X138954819Y-71380952D02*
X139002438Y-71285714D01*
X139002438Y-71285714D02*
X139097676Y-71190476D01*
X139097676Y-71190476D02*
X139288152Y-71142857D01*
X139288152Y-71142857D02*
X139621485Y-71142857D01*
X139621485Y-71142857D02*
X139811961Y-71190476D01*
X139811961Y-71190476D02*
X139907200Y-71285714D01*
X139907200Y-71285714D02*
X139954819Y-71380952D01*
X139954819Y-71380952D02*
X139954819Y-71571428D01*
X138954819Y-70809523D02*
X138954819Y-70190476D01*
X138954819Y-70190476D02*
X139335771Y-70523809D01*
X139335771Y-70523809D02*
X139335771Y-70380952D01*
X139335771Y-70380952D02*
X139383390Y-70285714D01*
X139383390Y-70285714D02*
X139431009Y-70238095D01*
X139431009Y-70238095D02*
X139526247Y-70190476D01*
X139526247Y-70190476D02*
X139764342Y-70190476D01*
X139764342Y-70190476D02*
X139859580Y-70238095D01*
X139859580Y-70238095D02*
X139907200Y-70285714D01*
X139907200Y-70285714D02*
X139954819Y-70380952D01*
X139954819Y-70380952D02*
X139954819Y-70666666D01*
X139954819Y-70666666D02*
X139907200Y-70761904D01*
X139907200Y-70761904D02*
X139859580Y-70809523D01*
D10*
X147500000Y-66180928D02*
X147500000Y-67252357D01*
X147500000Y-67252357D02*
X147428571Y-67466642D01*
X147428571Y-67466642D02*
X147285714Y-67609500D01*
X147285714Y-67609500D02*
X147071428Y-67680928D01*
X147071428Y-67680928D02*
X146928571Y-67680928D01*
X148928571Y-66180928D02*
X148214285Y-66180928D01*
X148214285Y-66180928D02*
X148142857Y-66895214D01*
X148142857Y-66895214D02*
X148214285Y-66823785D01*
X148214285Y-66823785D02*
X148357143Y-66752357D01*
X148357143Y-66752357D02*
X148714285Y-66752357D01*
X148714285Y-66752357D02*
X148857143Y-66823785D01*
X148857143Y-66823785D02*
X148928571Y-66895214D01*
X148928571Y-66895214D02*
X149000000Y-67038071D01*
X149000000Y-67038071D02*
X149000000Y-67395214D01*
X149000000Y-67395214D02*
X148928571Y-67538071D01*
X148928571Y-67538071D02*
X148857143Y-67609500D01*
X148857143Y-67609500D02*
X148714285Y-67680928D01*
X148714285Y-67680928D02*
X148357143Y-67680928D01*
X148357143Y-67680928D02*
X148214285Y-67609500D01*
X148214285Y-67609500D02*
X148142857Y-67538071D01*
D11*
X90454819Y-71483094D02*
X89454819Y-71483094D01*
X89454819Y-71483094D02*
X89454819Y-71244999D01*
X89454819Y-71244999D02*
X89502438Y-71102142D01*
X89502438Y-71102142D02*
X89597676Y-71006904D01*
X89597676Y-71006904D02*
X89692914Y-70959285D01*
X89692914Y-70959285D02*
X89883390Y-70911666D01*
X89883390Y-70911666D02*
X90026247Y-70911666D01*
X90026247Y-70911666D02*
X90216723Y-70959285D01*
X90216723Y-70959285D02*
X90311961Y-71006904D01*
X90311961Y-71006904D02*
X90407200Y-71102142D01*
X90407200Y-71102142D02*
X90454819Y-71244999D01*
X90454819Y-71244999D02*
X90454819Y-71483094D01*
X89550057Y-70530713D02*
X89502438Y-70483094D01*
X89502438Y-70483094D02*
X89454819Y-70387856D01*
X89454819Y-70387856D02*
X89454819Y-70149761D01*
X89454819Y-70149761D02*
X89502438Y-70054523D01*
X89502438Y-70054523D02*
X89550057Y-70006904D01*
X89550057Y-70006904D02*
X89645295Y-69959285D01*
X89645295Y-69959285D02*
X89740533Y-69959285D01*
X89740533Y-69959285D02*
X89883390Y-70006904D01*
X89883390Y-70006904D02*
X90454819Y-70578332D01*
X90454819Y-70578332D02*
X90454819Y-69959285D01*
X101833333Y-70199819D02*
X101500000Y-69723628D01*
X101261905Y-70199819D02*
X101261905Y-69199819D01*
X101261905Y-69199819D02*
X101642857Y-69199819D01*
X101642857Y-69199819D02*
X101738095Y-69247438D01*
X101738095Y-69247438D02*
X101785714Y-69295057D01*
X101785714Y-69295057D02*
X101833333Y-69390295D01*
X101833333Y-69390295D02*
X101833333Y-69533152D01*
X101833333Y-69533152D02*
X101785714Y-69628390D01*
X101785714Y-69628390D02*
X101738095Y-69676009D01*
X101738095Y-69676009D02*
X101642857Y-69723628D01*
X101642857Y-69723628D02*
X101261905Y-69723628D01*
X102738095Y-69199819D02*
X102261905Y-69199819D01*
X102261905Y-69199819D02*
X102214286Y-69676009D01*
X102214286Y-69676009D02*
X102261905Y-69628390D01*
X102261905Y-69628390D02*
X102357143Y-69580771D01*
X102357143Y-69580771D02*
X102595238Y-69580771D01*
X102595238Y-69580771D02*
X102690476Y-69628390D01*
X102690476Y-69628390D02*
X102738095Y-69676009D01*
X102738095Y-69676009D02*
X102785714Y-69771247D01*
X102785714Y-69771247D02*
X102785714Y-70009342D01*
X102785714Y-70009342D02*
X102738095Y-70104580D01*
X102738095Y-70104580D02*
X102690476Y-70152200D01*
X102690476Y-70152200D02*
X102595238Y-70199819D01*
X102595238Y-70199819D02*
X102357143Y-70199819D01*
X102357143Y-70199819D02*
X102261905Y-70152200D01*
X102261905Y-70152200D02*
X102214286Y-70104580D01*
X84359580Y-76166666D02*
X84407200Y-76214285D01*
X84407200Y-76214285D02*
X84454819Y-76357142D01*
X84454819Y-76357142D02*
X84454819Y-76452380D01*
X84454819Y-76452380D02*
X84407200Y-76595237D01*
X84407200Y-76595237D02*
X84311961Y-76690475D01*
X84311961Y-76690475D02*
X84216723Y-76738094D01*
X84216723Y-76738094D02*
X84026247Y-76785713D01*
X84026247Y-76785713D02*
X83883390Y-76785713D01*
X83883390Y-76785713D02*
X83692914Y-76738094D01*
X83692914Y-76738094D02*
X83597676Y-76690475D01*
X83597676Y-76690475D02*
X83502438Y-76595237D01*
X83502438Y-76595237D02*
X83454819Y-76452380D01*
X83454819Y-76452380D02*
X83454819Y-76357142D01*
X83454819Y-76357142D02*
X83502438Y-76214285D01*
X83502438Y-76214285D02*
X83550057Y-76166666D01*
X83550057Y-75785713D02*
X83502438Y-75738094D01*
X83502438Y-75738094D02*
X83454819Y-75642856D01*
X83454819Y-75642856D02*
X83454819Y-75404761D01*
X83454819Y-75404761D02*
X83502438Y-75309523D01*
X83502438Y-75309523D02*
X83550057Y-75261904D01*
X83550057Y-75261904D02*
X83645295Y-75214285D01*
X83645295Y-75214285D02*
X83740533Y-75214285D01*
X83740533Y-75214285D02*
X83883390Y-75261904D01*
X83883390Y-75261904D02*
X84454819Y-75833332D01*
X84454819Y-75833332D02*
X84454819Y-75214285D01*
X63238095Y-70454819D02*
X63238095Y-71264342D01*
X63238095Y-71264342D02*
X63285714Y-71359580D01*
X63285714Y-71359580D02*
X63333333Y-71407200D01*
X63333333Y-71407200D02*
X63428571Y-71454819D01*
X63428571Y-71454819D02*
X63619047Y-71454819D01*
X63619047Y-71454819D02*
X63714285Y-71407200D01*
X63714285Y-71407200D02*
X63761904Y-71359580D01*
X63761904Y-71359580D02*
X63809523Y-71264342D01*
X63809523Y-71264342D02*
X63809523Y-70454819D01*
X64714285Y-70454819D02*
X64523809Y-70454819D01*
X64523809Y-70454819D02*
X64428571Y-70502438D01*
X64428571Y-70502438D02*
X64380952Y-70550057D01*
X64380952Y-70550057D02*
X64285714Y-70692914D01*
X64285714Y-70692914D02*
X64238095Y-70883390D01*
X64238095Y-70883390D02*
X64238095Y-71264342D01*
X64238095Y-71264342D02*
X64285714Y-71359580D01*
X64285714Y-71359580D02*
X64333333Y-71407200D01*
X64333333Y-71407200D02*
X64428571Y-71454819D01*
X64428571Y-71454819D02*
X64619047Y-71454819D01*
X64619047Y-71454819D02*
X64714285Y-71407200D01*
X64714285Y-71407200D02*
X64761904Y-71359580D01*
X64761904Y-71359580D02*
X64809523Y-71264342D01*
X64809523Y-71264342D02*
X64809523Y-71026247D01*
X64809523Y-71026247D02*
X64761904Y-70931009D01*
X64761904Y-70931009D02*
X64714285Y-70883390D01*
X64714285Y-70883390D02*
X64619047Y-70835771D01*
X64619047Y-70835771D02*
X64428571Y-70835771D01*
X64428571Y-70835771D02*
X64333333Y-70883390D01*
X64333333Y-70883390D02*
X64285714Y-70931009D01*
X64285714Y-70931009D02*
X64238095Y-71026247D01*
D10*
X78500000Y-66180928D02*
X78500000Y-67252357D01*
X78500000Y-67252357D02*
X78428571Y-67466642D01*
X78428571Y-67466642D02*
X78285714Y-67609500D01*
X78285714Y-67609500D02*
X78071428Y-67680928D01*
X78071428Y-67680928D02*
X77928571Y-67680928D01*
X80000000Y-67680928D02*
X79142857Y-67680928D01*
X79571428Y-67680928D02*
X79571428Y-66180928D01*
X79571428Y-66180928D02*
X79428571Y-66395214D01*
X79428571Y-66395214D02*
X79285714Y-66538071D01*
X79285714Y-66538071D02*
X79142857Y-66609500D01*
D11*
X101687742Y-79412951D02*
X102068695Y-79412951D01*
X101268695Y-79679618D02*
X101687742Y-79412951D01*
X101687742Y-79412951D02*
X101268695Y-79146285D01*
X102068695Y-78460571D02*
X102068695Y-78917714D01*
X102068695Y-78689142D02*
X101268695Y-78689142D01*
X101268695Y-78689142D02*
X101382980Y-78765333D01*
X101382980Y-78765333D02*
X101459171Y-78841523D01*
X101459171Y-78841523D02*
X101497266Y-78917714D01*
X54261904Y-71931009D02*
X53928571Y-71931009D01*
X53928571Y-72454819D02*
X53928571Y-71454819D01*
X53928571Y-71454819D02*
X54404761Y-71454819D01*
X55261904Y-72454819D02*
X54785714Y-72454819D01*
X54785714Y-72454819D02*
X54785714Y-71454819D01*
X56119047Y-72454819D02*
X55547619Y-72454819D01*
X55833333Y-72454819D02*
X55833333Y-71454819D01*
X55833333Y-71454819D02*
X55738095Y-71597676D01*
X55738095Y-71597676D02*
X55642857Y-71692914D01*
X55642857Y-71692914D02*
X55547619Y-71740533D01*
X131133333Y-73454819D02*
X130800000Y-72978628D01*
X130561905Y-73454819D02*
X130561905Y-72454819D01*
X130561905Y-72454819D02*
X130942857Y-72454819D01*
X130942857Y-72454819D02*
X131038095Y-72502438D01*
X131038095Y-72502438D02*
X131085714Y-72550057D01*
X131085714Y-72550057D02*
X131133333Y-72645295D01*
X131133333Y-72645295D02*
X131133333Y-72788152D01*
X131133333Y-72788152D02*
X131085714Y-72883390D01*
X131085714Y-72883390D02*
X131038095Y-72931009D01*
X131038095Y-72931009D02*
X130942857Y-72978628D01*
X130942857Y-72978628D02*
X130561905Y-72978628D01*
X131466667Y-72454819D02*
X132133333Y-72454819D01*
X132133333Y-72454819D02*
X131704762Y-73454819D01*
X77238095Y-83454819D02*
X77238095Y-84264342D01*
X77238095Y-84264342D02*
X77285714Y-84359580D01*
X77285714Y-84359580D02*
X77333333Y-84407200D01*
X77333333Y-84407200D02*
X77428571Y-84454819D01*
X77428571Y-84454819D02*
X77619047Y-84454819D01*
X77619047Y-84454819D02*
X77714285Y-84407200D01*
X77714285Y-84407200D02*
X77761904Y-84359580D01*
X77761904Y-84359580D02*
X77809523Y-84264342D01*
X77809523Y-84264342D02*
X77809523Y-83454819D01*
X78761904Y-83454819D02*
X78285714Y-83454819D01*
X78285714Y-83454819D02*
X78238095Y-83931009D01*
X78238095Y-83931009D02*
X78285714Y-83883390D01*
X78285714Y-83883390D02*
X78380952Y-83835771D01*
X78380952Y-83835771D02*
X78619047Y-83835771D01*
X78619047Y-83835771D02*
X78714285Y-83883390D01*
X78714285Y-83883390D02*
X78761904Y-83931009D01*
X78761904Y-83931009D02*
X78809523Y-84026247D01*
X78809523Y-84026247D02*
X78809523Y-84264342D01*
X78809523Y-84264342D02*
X78761904Y-84359580D01*
X78761904Y-84359580D02*
X78714285Y-84407200D01*
X78714285Y-84407200D02*
X78619047Y-84454819D01*
X78619047Y-84454819D02*
X78380952Y-84454819D01*
X78380952Y-84454819D02*
X78285714Y-84407200D01*
X78285714Y-84407200D02*
X78238095Y-84359580D01*
X148857142Y-70454819D02*
X148523809Y-69978628D01*
X148285714Y-70454819D02*
X148285714Y-69454819D01*
X148285714Y-69454819D02*
X148666666Y-69454819D01*
X148666666Y-69454819D02*
X148761904Y-69502438D01*
X148761904Y-69502438D02*
X148809523Y-69550057D01*
X148809523Y-69550057D02*
X148857142Y-69645295D01*
X148857142Y-69645295D02*
X148857142Y-69788152D01*
X148857142Y-69788152D02*
X148809523Y-69883390D01*
X148809523Y-69883390D02*
X148761904Y-69931009D01*
X148761904Y-69931009D02*
X148666666Y-69978628D01*
X148666666Y-69978628D02*
X148285714Y-69978628D01*
X149809523Y-70454819D02*
X149238095Y-70454819D01*
X149523809Y-70454819D02*
X149523809Y-69454819D01*
X149523809Y-69454819D02*
X149428571Y-69597676D01*
X149428571Y-69597676D02*
X149333333Y-69692914D01*
X149333333Y-69692914D02*
X149238095Y-69740533D01*
X150428571Y-69454819D02*
X150523809Y-69454819D01*
X150523809Y-69454819D02*
X150619047Y-69502438D01*
X150619047Y-69502438D02*
X150666666Y-69550057D01*
X150666666Y-69550057D02*
X150714285Y-69645295D01*
X150714285Y-69645295D02*
X150761904Y-69835771D01*
X150761904Y-69835771D02*
X150761904Y-70073866D01*
X150761904Y-70073866D02*
X150714285Y-70264342D01*
X150714285Y-70264342D02*
X150666666Y-70359580D01*
X150666666Y-70359580D02*
X150619047Y-70407200D01*
X150619047Y-70407200D02*
X150523809Y-70454819D01*
X150523809Y-70454819D02*
X150428571Y-70454819D01*
X150428571Y-70454819D02*
X150333333Y-70407200D01*
X150333333Y-70407200D02*
X150285714Y-70359580D01*
X150285714Y-70359580D02*
X150238095Y-70264342D01*
X150238095Y-70264342D02*
X150190476Y-70073866D01*
X150190476Y-70073866D02*
X150190476Y-69835771D01*
X150190476Y-69835771D02*
X150238095Y-69645295D01*
X150238095Y-69645295D02*
X150285714Y-69550057D01*
X150285714Y-69550057D02*
X150333333Y-69502438D01*
X150333333Y-69502438D02*
X150428571Y-69454819D01*
X101833333Y-72199819D02*
X101500000Y-71723628D01*
X101261905Y-72199819D02*
X101261905Y-71199819D01*
X101261905Y-71199819D02*
X101642857Y-71199819D01*
X101642857Y-71199819D02*
X101738095Y-71247438D01*
X101738095Y-71247438D02*
X101785714Y-71295057D01*
X101785714Y-71295057D02*
X101833333Y-71390295D01*
X101833333Y-71390295D02*
X101833333Y-71533152D01*
X101833333Y-71533152D02*
X101785714Y-71628390D01*
X101785714Y-71628390D02*
X101738095Y-71676009D01*
X101738095Y-71676009D02*
X101642857Y-71723628D01*
X101642857Y-71723628D02*
X101261905Y-71723628D01*
X102690476Y-71533152D02*
X102690476Y-72199819D01*
X102452381Y-71152200D02*
X102214286Y-71866485D01*
X102214286Y-71866485D02*
X102833333Y-71866485D01*
D12*
%TO.C,C1*%
X74400000Y-73020000D02*
X77600000Y-73020000D01*
X74400000Y-74980000D02*
X77600000Y-74980000D01*
D13*
X73350000Y-74000000D02*
G75*
G02*
X73150000Y-74000000I-100000J0D01*
G01*
X73150000Y-74000000D02*
G75*
G02*
X73350000Y-74000000I100000J0D01*
G01*
D12*
%TO.C,J6*%
X139175000Y-83700000D02*
X141390000Y-83700000D01*
X139175000Y-93600000D02*
X139175000Y-83700000D01*
X145150000Y-82616000D02*
X145950000Y-82616000D01*
X145550000Y-83416000D02*
X145150000Y-82616000D01*
X145950000Y-82616000D02*
X145550000Y-83416000D01*
X148825000Y-83700000D02*
X146610000Y-83700000D01*
X148825000Y-93600000D02*
X139175000Y-93600000D01*
X148825000Y-93600000D02*
X148825000Y-83700000D01*
%TO.C,J4*%
X120675000Y-56080000D02*
X120675000Y-65980000D01*
X120675000Y-56080000D02*
X130325000Y-56080000D01*
X120675000Y-65980000D02*
X122890000Y-65980000D01*
X123550000Y-67064000D02*
X123950000Y-66264000D01*
X123950000Y-66264000D02*
X124350000Y-67064000D01*
X124350000Y-67064000D02*
X123550000Y-67064000D01*
X130325000Y-56080000D02*
X130325000Y-65980000D01*
X130325000Y-65980000D02*
X128110000Y-65980000D01*
D13*
%TO.C,D4*%
X63500000Y-67100000D02*
X63500000Y-66900000D01*
D14*
X63860000Y-66890000D02*
X64150000Y-66890000D01*
X64000000Y-67130000D02*
X63860000Y-66890000D01*
X64150000Y-66890000D02*
X64000000Y-67130000D01*
D13*
X64500000Y-66900000D02*
X64500000Y-67100000D01*
D15*
%TO.C,R15*%
X125873000Y-80482600D02*
X126127000Y-80482600D01*
X126127000Y-79517400D02*
X125873000Y-79517400D01*
D13*
%TO.C,D3*%
X58500000Y-67100000D02*
X58500000Y-66900000D01*
D14*
X58860000Y-66890000D02*
X59150000Y-66890000D01*
X59000000Y-67130000D02*
X58860000Y-66890000D01*
X59150000Y-66890000D02*
X59000000Y-67130000D01*
D13*
X59500000Y-66900000D02*
X59500000Y-67100000D01*
D12*
%TO.C,U2*%
X91180000Y-89301000D02*
G75*
G02*
X91080000Y-89301000I-50000J0D01*
G01*
X91080000Y-89301000D02*
G75*
G02*
X91180000Y-89301000I50000J0D01*
G01*
%TO.C,J8*%
X105940000Y-57460000D02*
X114060000Y-57460000D01*
X105940000Y-62540000D02*
X105940000Y-57460000D01*
X114060000Y-57460000D02*
X114060000Y-62540000D01*
X114060000Y-62540000D02*
X105940000Y-62540000D01*
D13*
X114799000Y-61270000D02*
G75*
G02*
X114599000Y-61270000I-100000J0D01*
G01*
X114599000Y-61270000D02*
G75*
G02*
X114799000Y-61270000I100000J0D01*
G01*
D12*
%TO.C,J2*%
X50300000Y-74250000D02*
X50300000Y-76005000D01*
X50300000Y-81750000D02*
X50300000Y-79995000D01*
X53000000Y-74250000D02*
X50300000Y-74250000D01*
X53000000Y-81750000D02*
X50300000Y-81750000D01*
D13*
X56500000Y-76700000D02*
G75*
G02*
X56300000Y-76700000I-100000J0D01*
G01*
X56300000Y-76700000D02*
G75*
G02*
X56500000Y-76700000I100000J0D01*
G01*
D12*
%TO.C,Q1*%
X93500000Y-70100000D02*
X93500000Y-71900000D01*
X96600000Y-71900000D02*
X96600000Y-70100000D01*
D13*
X96100000Y-68690000D02*
G75*
G02*
X95900000Y-68690000I-100000J0D01*
G01*
X95900000Y-68690000D02*
G75*
G02*
X96100000Y-68690000I100000J0D01*
G01*
D16*
%TO.C,U1*%
X92390000Y-77390000D02*
X92390000Y-77865000D01*
X92390000Y-82610000D02*
X92390000Y-82135000D01*
X92865000Y-77390000D02*
X92390000Y-77390000D01*
X92865000Y-82610000D02*
X92390000Y-82610000D01*
X97135000Y-77390000D02*
X97610000Y-77390000D01*
X97135000Y-82610000D02*
X97310000Y-82610000D01*
X97610000Y-77390000D02*
X97610000Y-77865000D01*
X97610000Y-82135000D02*
X97610000Y-82370000D01*
X97850000Y-82940000D02*
X97370000Y-82940000D01*
X97610000Y-82610000D01*
X97850000Y-82940000D01*
G36*
X97850000Y-82940000D02*
G01*
X97370000Y-82940000D01*
X97610000Y-82610000D01*
X97850000Y-82940000D01*
G37*
D12*
%TO.C,J7*%
X121175000Y-83700000D02*
X123390000Y-83700000D01*
X121175000Y-93600000D02*
X121175000Y-83700000D01*
X127150000Y-82616000D02*
X127950000Y-82616000D01*
X127550000Y-83416000D02*
X127150000Y-82616000D01*
X127950000Y-82616000D02*
X127550000Y-83416000D01*
X130825000Y-83700000D02*
X128610000Y-83700000D01*
X130825000Y-93600000D02*
X121175000Y-93600000D01*
X130825000Y-93600000D02*
X130825000Y-83700000D01*
%TO.C,U3*%
X72400000Y-87900000D02*
X75600000Y-87900000D01*
X72400000Y-88500000D02*
X72400000Y-87900000D01*
X72400000Y-92100000D02*
X72400000Y-91500000D01*
X75600000Y-87900000D02*
X75600000Y-88500000D01*
X75600000Y-91500000D02*
X75600000Y-92100000D01*
X75600000Y-92100000D02*
X72400000Y-92100000D01*
D13*
X76350000Y-91000000D02*
G75*
G02*
X76150000Y-91000000I-100000J0D01*
G01*
X76150000Y-91000000D02*
G75*
G02*
X76350000Y-91000000I100000J0D01*
G01*
D12*
%TO.C,C10*%
X89020000Y-78400000D02*
X89020000Y-81600000D01*
X90980000Y-78400000D02*
X90980000Y-81600000D01*
D13*
X90100000Y-77250000D02*
G75*
G02*
X89900000Y-77250000I-100000J0D01*
G01*
X89900000Y-77250000D02*
G75*
G02*
X90100000Y-77250000I100000J0D01*
G01*
D12*
%TO.C,J3*%
X88675000Y-56080000D02*
X88675000Y-65980000D01*
X88675000Y-56080000D02*
X98325000Y-56080000D01*
X88675000Y-65980000D02*
X90890000Y-65980000D01*
X91550000Y-67064000D02*
X91950000Y-66264000D01*
X91950000Y-66264000D02*
X92350000Y-67064000D01*
X92350000Y-67064000D02*
X91550000Y-67064000D01*
X98325000Y-56080000D02*
X98325000Y-65980000D01*
X98325000Y-65980000D02*
X96110000Y-65980000D01*
%TO.C,C7*%
X62400000Y-81020000D02*
X65600000Y-81020000D01*
X62400000Y-82980000D02*
X65600000Y-82980000D01*
D13*
X61350000Y-82000000D02*
G75*
G02*
X61150000Y-82000000I-100000J0D01*
G01*
X61150000Y-82000000D02*
G75*
G02*
X61350000Y-82000000I100000J0D01*
G01*
D12*
%TO.C,Q2*%
X124600000Y-72550000D02*
X126400000Y-72550000D01*
X126400000Y-69450000D02*
X124600000Y-69450000D01*
D13*
X127910000Y-71950000D02*
G75*
G02*
X127710000Y-71950000I-100000J0D01*
G01*
X127710000Y-71950000D02*
G75*
G02*
X127910000Y-71950000I100000J0D01*
G01*
D16*
%TO.C,D1*%
X72490000Y-68350000D02*
X72490000Y-71650000D01*
X72490000Y-68350000D02*
X78000000Y-68350000D01*
X72490000Y-71650000D02*
X78000000Y-71650000D01*
D12*
%TO.C,R14*%
X144110000Y-79550000D02*
X143890000Y-79550000D01*
X144110000Y-80450000D02*
X143890000Y-80450000D01*
%TO.C,Q3*%
X141600000Y-72550000D02*
X143400000Y-72550000D01*
X143400000Y-69450000D02*
X141600000Y-69450000D01*
D13*
X144910000Y-71950000D02*
G75*
G02*
X144710000Y-71950000I-100000J0D01*
G01*
X144710000Y-71950000D02*
G75*
G02*
X144910000Y-71950000I100000J0D01*
G01*
D12*
%TO.C,J5*%
X139675000Y-56080000D02*
X139675000Y-65980000D01*
X139675000Y-56080000D02*
X149325000Y-56080000D01*
X139675000Y-65980000D02*
X141890000Y-65980000D01*
X142550000Y-67064000D02*
X142950000Y-66264000D01*
X142950000Y-66264000D02*
X143350000Y-67064000D01*
X143350000Y-67064000D02*
X142550000Y-67064000D01*
X149325000Y-56080000D02*
X149325000Y-65980000D01*
X149325000Y-65980000D02*
X147110000Y-65980000D01*
%TO.C,D2*%
X91375000Y-69895000D02*
X91430000Y-69895000D01*
X91375000Y-71595000D02*
X91375000Y-69895000D01*
X91375000Y-71595000D02*
X91430000Y-71595000D01*
X92570000Y-69895000D02*
X92625000Y-69895000D01*
X92625000Y-69895000D02*
X92625000Y-71595000D01*
X92625000Y-71595000D02*
X92570000Y-71595000D01*
D13*
X92100000Y-68445000D02*
G75*
G02*
X91900000Y-68445000I-100000J0D01*
G01*
X91900000Y-68445000D02*
G75*
G02*
X92100000Y-68445000I100000J0D01*
G01*
D12*
%TO.C,C2*%
X83020000Y-78400000D02*
X83020000Y-81600000D01*
X84980000Y-78400000D02*
X84980000Y-81600000D01*
D13*
X84100000Y-77250000D02*
G75*
G02*
X83900000Y-77250000I-100000J0D01*
G01*
X83900000Y-77250000D02*
G75*
G02*
X84100000Y-77250000I100000J0D01*
G01*
D12*
%TO.C,U6*%
X59675000Y-77950000D02*
X59675000Y-74050000D01*
X68325000Y-74050000D02*
X68325000Y-77950000D01*
D13*
X66965000Y-72010000D02*
G75*
G02*
X66765000Y-72010000I-100000J0D01*
G01*
X66765000Y-72010000D02*
G75*
G02*
X66965000Y-72010000I100000J0D01*
G01*
D12*
%TO.C,J1*%
X70675000Y-56080000D02*
X70675000Y-65980000D01*
X70675000Y-56080000D02*
X80325000Y-56080000D01*
X70675000Y-65980000D02*
X72890000Y-65980000D01*
X73550000Y-67064000D02*
X73950000Y-66264000D01*
X73950000Y-66264000D02*
X74350000Y-67064000D01*
X74350000Y-67064000D02*
X73550000Y-67064000D01*
X80325000Y-56080000D02*
X80325000Y-65980000D01*
X80325000Y-65980000D02*
X78110000Y-65980000D01*
%TO.C,Y1*%
X100650000Y-77280000D02*
X99350000Y-77280000D01*
X100650000Y-80720000D02*
X99350000Y-80720000D01*
D13*
X100100000Y-76780000D02*
G75*
G02*
X99900000Y-76780000I-100000J0D01*
G01*
X99900000Y-76780000D02*
G75*
G02*
X100100000Y-76780000I100000J0D01*
G01*
D16*
%TO.C,U5*%
X72150000Y-76075000D02*
X78570000Y-76075000D01*
X72150000Y-82975000D02*
X78570000Y-82975000D01*
X78570000Y-76075000D02*
X78570000Y-76345000D01*
X78570000Y-82975000D02*
X78570000Y-82705000D01*
X80225000Y-83015000D02*
X79745000Y-83015000D01*
X79985000Y-82685000D01*
X80225000Y-83015000D01*
G36*
X80225000Y-83015000D02*
G01*
X79745000Y-83015000D01*
X79985000Y-82685000D01*
X80225000Y-83015000D01*
G37*
%TD*%
M02*
