%TF.GenerationSoftware,KiCad,Pcbnew,8.0.4*%
%TF.CreationDate,2024-11-13T20:22:53-08:00*%
%TF.ProjectId,Butterfly_v0,42757474-6572-4666-9c79-5f76302e6b69,rev?*%
%TF.SameCoordinates,Original*%
%TF.FileFunction,Drillmap*%
%TF.FilePolarity,Positive*%
%FSLAX45Y45*%
G04 Gerber Fmt 4.5, Leading zero omitted, Abs format (unit mm)*
G04 Created by KiCad (PCBNEW 8.0.4) date 2024-11-13 20:22:53*
%MOMM*%
%LPD*%
G01*
G04 APERTURE LIST*
%ADD10C,0.050000*%
%ADD11C,0.200000*%
%ADD12C,0.100000*%
G04 APERTURE END LIST*
D10*
X5000000Y-5000000D02*
X17000000Y-5000000D01*
X17000000Y-10000000D01*
X5000000Y-10000000D01*
X5000000Y-5000000D01*
D11*
D12*
X5160000Y-7688750D02*
X5190000Y-7718750D01*
X5190000Y-7688750D02*
X5160000Y-7718750D01*
X5160000Y-7881250D02*
X5190000Y-7911250D01*
X5190000Y-7881250D02*
X5160000Y-7911250D01*
X5785000Y-7385000D02*
X5815000Y-7415000D01*
X5815000Y-7385000D02*
X5785000Y-7415000D01*
X5985000Y-8085000D02*
X6015000Y-8115000D01*
X6015000Y-8085000D02*
X5985000Y-8115000D01*
X6385000Y-7585000D02*
X6415000Y-7615000D01*
X6415000Y-7585000D02*
X6385000Y-7615000D01*
X6785000Y-8185000D02*
X6815000Y-8215000D01*
X6815000Y-8185000D02*
X6785000Y-8215000D01*
X7385000Y-8985000D02*
X7415000Y-9015000D01*
X7415000Y-8985000D02*
X7385000Y-9015000D01*
X7985000Y-7385000D02*
X8015000Y-7415000D01*
X8015000Y-7385000D02*
X7985000Y-7415000D01*
X8085000Y-8385000D02*
X8115000Y-8415000D01*
X8115000Y-8385000D02*
X8085000Y-8415000D01*
X8385000Y-8285000D02*
X8415000Y-8315000D01*
X8415000Y-8285000D02*
X8385000Y-8315000D01*
X8785000Y-8185000D02*
X8815000Y-8215000D01*
X8815000Y-8185000D02*
X8785000Y-8215000D01*
X9285000Y-8685000D02*
X9315000Y-8715000D01*
X9315000Y-8685000D02*
X9285000Y-8715000D01*
X9385000Y-6785000D02*
X9415000Y-6815000D01*
X9415000Y-6785000D02*
X9385000Y-6815000D01*
X9385000Y-7885000D02*
X9415000Y-7915000D01*
X9415000Y-7885000D02*
X9385000Y-7915000D01*
X9385000Y-7985000D02*
X9415000Y-8015000D01*
X9415000Y-7985000D02*
X9385000Y-8015000D01*
X9385000Y-8085000D02*
X9415000Y-8115000D01*
X9415000Y-8085000D02*
X9385000Y-8115000D01*
X9485000Y-7885000D02*
X9515000Y-7915000D01*
X9515000Y-7885000D02*
X9485000Y-7915000D01*
X9485000Y-7985000D02*
X9515000Y-8015000D01*
X9515000Y-7985000D02*
X9485000Y-8015000D01*
X9485000Y-8085000D02*
X9515000Y-8115000D01*
X9515000Y-8085000D02*
X9485000Y-8115000D01*
X9585000Y-7885000D02*
X9615000Y-7915000D01*
X9615000Y-7885000D02*
X9585000Y-7915000D01*
X9585000Y-7985000D02*
X9615000Y-8015000D01*
X9615000Y-7985000D02*
X9585000Y-8015000D01*
X9585000Y-8085000D02*
X9615000Y-8115000D01*
X9615000Y-8085000D02*
X9585000Y-8115000D01*
X9885000Y-8585000D02*
X9915000Y-8615000D01*
X9915000Y-8585000D02*
X9885000Y-8615000D01*
X9985000Y-6785000D02*
X10015000Y-6815000D01*
X10015000Y-6785000D02*
X9985000Y-6815000D01*
X10285000Y-7885000D02*
X10315000Y-7915000D01*
X10315000Y-7885000D02*
X10285000Y-7915000D01*
X12785000Y-6885000D02*
X12815000Y-6915000D01*
X12815000Y-6885000D02*
X12785000Y-6915000D01*
X14485000Y-6885000D02*
X14515000Y-6915000D01*
X14515000Y-6885000D02*
X14485000Y-6915000D01*
D11*
X5258277Y-10313984D02*
X5258277Y-10113984D01*
X5258277Y-10113984D02*
X5305896Y-10113984D01*
X5305896Y-10113984D02*
X5334467Y-10123508D01*
X5334467Y-10123508D02*
X5353515Y-10142555D01*
X5353515Y-10142555D02*
X5363039Y-10161603D01*
X5363039Y-10161603D02*
X5372563Y-10199698D01*
X5372563Y-10199698D02*
X5372563Y-10228270D01*
X5372563Y-10228270D02*
X5363039Y-10266365D01*
X5363039Y-10266365D02*
X5353515Y-10285412D01*
X5353515Y-10285412D02*
X5334467Y-10304460D01*
X5334467Y-10304460D02*
X5305896Y-10313984D01*
X5305896Y-10313984D02*
X5258277Y-10313984D01*
X5458277Y-10313984D02*
X5458277Y-10180650D01*
X5458277Y-10218746D02*
X5467801Y-10199698D01*
X5467801Y-10199698D02*
X5477324Y-10190174D01*
X5477324Y-10190174D02*
X5496372Y-10180650D01*
X5496372Y-10180650D02*
X5515420Y-10180650D01*
X5582086Y-10313984D02*
X5582086Y-10180650D01*
X5582086Y-10113984D02*
X5572563Y-10123508D01*
X5572563Y-10123508D02*
X5582086Y-10133031D01*
X5582086Y-10133031D02*
X5591610Y-10123508D01*
X5591610Y-10123508D02*
X5582086Y-10113984D01*
X5582086Y-10113984D02*
X5582086Y-10133031D01*
X5705896Y-10313984D02*
X5686848Y-10304460D01*
X5686848Y-10304460D02*
X5677324Y-10285412D01*
X5677324Y-10285412D02*
X5677324Y-10113984D01*
X5810658Y-10313984D02*
X5791610Y-10304460D01*
X5791610Y-10304460D02*
X5782086Y-10285412D01*
X5782086Y-10285412D02*
X5782086Y-10113984D01*
X6039229Y-10313984D02*
X6039229Y-10113984D01*
X6039229Y-10113984D02*
X6105896Y-10256841D01*
X6105896Y-10256841D02*
X6172562Y-10113984D01*
X6172562Y-10113984D02*
X6172562Y-10313984D01*
X6353515Y-10313984D02*
X6353515Y-10209222D01*
X6353515Y-10209222D02*
X6343991Y-10190174D01*
X6343991Y-10190174D02*
X6324943Y-10180650D01*
X6324943Y-10180650D02*
X6286848Y-10180650D01*
X6286848Y-10180650D02*
X6267801Y-10190174D01*
X6353515Y-10304460D02*
X6334467Y-10313984D01*
X6334467Y-10313984D02*
X6286848Y-10313984D01*
X6286848Y-10313984D02*
X6267801Y-10304460D01*
X6267801Y-10304460D02*
X6258277Y-10285412D01*
X6258277Y-10285412D02*
X6258277Y-10266365D01*
X6258277Y-10266365D02*
X6267801Y-10247317D01*
X6267801Y-10247317D02*
X6286848Y-10237793D01*
X6286848Y-10237793D02*
X6334467Y-10237793D01*
X6334467Y-10237793D02*
X6353515Y-10228270D01*
X6448753Y-10180650D02*
X6448753Y-10380650D01*
X6448753Y-10190174D02*
X6467801Y-10180650D01*
X6467801Y-10180650D02*
X6505896Y-10180650D01*
X6505896Y-10180650D02*
X6524943Y-10190174D01*
X6524943Y-10190174D02*
X6534467Y-10199698D01*
X6534467Y-10199698D02*
X6543991Y-10218746D01*
X6543991Y-10218746D02*
X6543991Y-10275889D01*
X6543991Y-10275889D02*
X6534467Y-10294936D01*
X6534467Y-10294936D02*
X6524943Y-10304460D01*
X6524943Y-10304460D02*
X6505896Y-10313984D01*
X6505896Y-10313984D02*
X6467801Y-10313984D01*
X6467801Y-10313984D02*
X6448753Y-10304460D01*
X6629705Y-10294936D02*
X6639229Y-10304460D01*
X6639229Y-10304460D02*
X6629705Y-10313984D01*
X6629705Y-10313984D02*
X6620182Y-10304460D01*
X6620182Y-10304460D02*
X6629705Y-10294936D01*
X6629705Y-10294936D02*
X6629705Y-10313984D01*
X6629705Y-10190174D02*
X6639229Y-10199698D01*
X6639229Y-10199698D02*
X6629705Y-10209222D01*
X6629705Y-10209222D02*
X6620182Y-10199698D01*
X6620182Y-10199698D02*
X6629705Y-10190174D01*
X6629705Y-10190174D02*
X6629705Y-10209222D01*
D12*
X4967500Y-10627500D02*
X4997500Y-10657500D01*
X4997500Y-10627500D02*
X4967500Y-10657500D01*
D11*
X5296372Y-10533984D02*
X5315420Y-10533984D01*
X5315420Y-10533984D02*
X5334467Y-10543508D01*
X5334467Y-10543508D02*
X5343991Y-10553031D01*
X5343991Y-10553031D02*
X5353515Y-10572079D01*
X5353515Y-10572079D02*
X5363039Y-10610174D01*
X5363039Y-10610174D02*
X5363039Y-10657793D01*
X5363039Y-10657793D02*
X5353515Y-10695889D01*
X5353515Y-10695889D02*
X5343991Y-10714936D01*
X5343991Y-10714936D02*
X5334467Y-10724460D01*
X5334467Y-10724460D02*
X5315420Y-10733984D01*
X5315420Y-10733984D02*
X5296372Y-10733984D01*
X5296372Y-10733984D02*
X5277324Y-10724460D01*
X5277324Y-10724460D02*
X5267801Y-10714936D01*
X5267801Y-10714936D02*
X5258277Y-10695889D01*
X5258277Y-10695889D02*
X5248753Y-10657793D01*
X5248753Y-10657793D02*
X5248753Y-10610174D01*
X5248753Y-10610174D02*
X5258277Y-10572079D01*
X5258277Y-10572079D02*
X5267801Y-10553031D01*
X5267801Y-10553031D02*
X5277324Y-10543508D01*
X5277324Y-10543508D02*
X5296372Y-10533984D01*
X5448753Y-10714936D02*
X5458277Y-10724460D01*
X5458277Y-10724460D02*
X5448753Y-10733984D01*
X5448753Y-10733984D02*
X5439229Y-10724460D01*
X5439229Y-10724460D02*
X5448753Y-10714936D01*
X5448753Y-10714936D02*
X5448753Y-10733984D01*
X5524944Y-10533984D02*
X5648753Y-10533984D01*
X5648753Y-10533984D02*
X5582086Y-10610174D01*
X5582086Y-10610174D02*
X5610658Y-10610174D01*
X5610658Y-10610174D02*
X5629705Y-10619698D01*
X5629705Y-10619698D02*
X5639229Y-10629222D01*
X5639229Y-10629222D02*
X5648753Y-10648270D01*
X5648753Y-10648270D02*
X5648753Y-10695889D01*
X5648753Y-10695889D02*
X5639229Y-10714936D01*
X5639229Y-10714936D02*
X5629705Y-10724460D01*
X5629705Y-10724460D02*
X5610658Y-10733984D01*
X5610658Y-10733984D02*
X5553515Y-10733984D01*
X5553515Y-10733984D02*
X5534467Y-10724460D01*
X5534467Y-10724460D02*
X5524944Y-10714936D01*
X5772562Y-10533984D02*
X5791610Y-10533984D01*
X5791610Y-10533984D02*
X5810658Y-10543508D01*
X5810658Y-10543508D02*
X5820182Y-10553031D01*
X5820182Y-10553031D02*
X5829705Y-10572079D01*
X5829705Y-10572079D02*
X5839229Y-10610174D01*
X5839229Y-10610174D02*
X5839229Y-10657793D01*
X5839229Y-10657793D02*
X5829705Y-10695889D01*
X5829705Y-10695889D02*
X5820182Y-10714936D01*
X5820182Y-10714936D02*
X5810658Y-10724460D01*
X5810658Y-10724460D02*
X5791610Y-10733984D01*
X5791610Y-10733984D02*
X5772562Y-10733984D01*
X5772562Y-10733984D02*
X5753515Y-10724460D01*
X5753515Y-10724460D02*
X5743991Y-10714936D01*
X5743991Y-10714936D02*
X5734467Y-10695889D01*
X5734467Y-10695889D02*
X5724943Y-10657793D01*
X5724943Y-10657793D02*
X5724943Y-10610174D01*
X5724943Y-10610174D02*
X5734467Y-10572079D01*
X5734467Y-10572079D02*
X5743991Y-10553031D01*
X5743991Y-10553031D02*
X5753515Y-10543508D01*
X5753515Y-10543508D02*
X5772562Y-10533984D01*
X5963039Y-10533984D02*
X5982086Y-10533984D01*
X5982086Y-10533984D02*
X6001134Y-10543508D01*
X6001134Y-10543508D02*
X6010658Y-10553031D01*
X6010658Y-10553031D02*
X6020182Y-10572079D01*
X6020182Y-10572079D02*
X6029705Y-10610174D01*
X6029705Y-10610174D02*
X6029705Y-10657793D01*
X6029705Y-10657793D02*
X6020182Y-10695889D01*
X6020182Y-10695889D02*
X6010658Y-10714936D01*
X6010658Y-10714936D02*
X6001134Y-10724460D01*
X6001134Y-10724460D02*
X5982086Y-10733984D01*
X5982086Y-10733984D02*
X5963039Y-10733984D01*
X5963039Y-10733984D02*
X5943991Y-10724460D01*
X5943991Y-10724460D02*
X5934467Y-10714936D01*
X5934467Y-10714936D02*
X5924943Y-10695889D01*
X5924943Y-10695889D02*
X5915420Y-10657793D01*
X5915420Y-10657793D02*
X5915420Y-10610174D01*
X5915420Y-10610174D02*
X5924943Y-10572079D01*
X5924943Y-10572079D02*
X5934467Y-10553031D01*
X5934467Y-10553031D02*
X5943991Y-10543508D01*
X5943991Y-10543508D02*
X5963039Y-10533984D01*
X6115420Y-10733984D02*
X6115420Y-10600650D01*
X6115420Y-10619698D02*
X6124943Y-10610174D01*
X6124943Y-10610174D02*
X6143991Y-10600650D01*
X6143991Y-10600650D02*
X6172563Y-10600650D01*
X6172563Y-10600650D02*
X6191610Y-10610174D01*
X6191610Y-10610174D02*
X6201134Y-10629222D01*
X6201134Y-10629222D02*
X6201134Y-10733984D01*
X6201134Y-10629222D02*
X6210658Y-10610174D01*
X6210658Y-10610174D02*
X6229705Y-10600650D01*
X6229705Y-10600650D02*
X6258277Y-10600650D01*
X6258277Y-10600650D02*
X6277324Y-10610174D01*
X6277324Y-10610174D02*
X6286848Y-10629222D01*
X6286848Y-10629222D02*
X6286848Y-10733984D01*
X6382086Y-10733984D02*
X6382086Y-10600650D01*
X6382086Y-10619698D02*
X6391610Y-10610174D01*
X6391610Y-10610174D02*
X6410658Y-10600650D01*
X6410658Y-10600650D02*
X6439229Y-10600650D01*
X6439229Y-10600650D02*
X6458277Y-10610174D01*
X6458277Y-10610174D02*
X6467801Y-10629222D01*
X6467801Y-10629222D02*
X6467801Y-10733984D01*
X6467801Y-10629222D02*
X6477324Y-10610174D01*
X6477324Y-10610174D02*
X6496372Y-10600650D01*
X6496372Y-10600650D02*
X6524943Y-10600650D01*
X6524943Y-10600650D02*
X6543991Y-10610174D01*
X6543991Y-10610174D02*
X6553515Y-10629222D01*
X6553515Y-10629222D02*
X6553515Y-10733984D01*
X6943991Y-10524460D02*
X6772563Y-10781603D01*
X7201134Y-10533984D02*
X7220182Y-10533984D01*
X7220182Y-10533984D02*
X7239229Y-10543508D01*
X7239229Y-10543508D02*
X7248753Y-10553031D01*
X7248753Y-10553031D02*
X7258277Y-10572079D01*
X7258277Y-10572079D02*
X7267801Y-10610174D01*
X7267801Y-10610174D02*
X7267801Y-10657793D01*
X7267801Y-10657793D02*
X7258277Y-10695889D01*
X7258277Y-10695889D02*
X7248753Y-10714936D01*
X7248753Y-10714936D02*
X7239229Y-10724460D01*
X7239229Y-10724460D02*
X7220182Y-10733984D01*
X7220182Y-10733984D02*
X7201134Y-10733984D01*
X7201134Y-10733984D02*
X7182086Y-10724460D01*
X7182086Y-10724460D02*
X7172563Y-10714936D01*
X7172563Y-10714936D02*
X7163039Y-10695889D01*
X7163039Y-10695889D02*
X7153515Y-10657793D01*
X7153515Y-10657793D02*
X7153515Y-10610174D01*
X7153515Y-10610174D02*
X7163039Y-10572079D01*
X7163039Y-10572079D02*
X7172563Y-10553031D01*
X7172563Y-10553031D02*
X7182086Y-10543508D01*
X7182086Y-10543508D02*
X7201134Y-10533984D01*
X7353515Y-10714936D02*
X7363039Y-10724460D01*
X7363039Y-10724460D02*
X7353515Y-10733984D01*
X7353515Y-10733984D02*
X7343991Y-10724460D01*
X7343991Y-10724460D02*
X7353515Y-10714936D01*
X7353515Y-10714936D02*
X7353515Y-10733984D01*
X7486848Y-10533984D02*
X7505896Y-10533984D01*
X7505896Y-10533984D02*
X7524944Y-10543508D01*
X7524944Y-10543508D02*
X7534467Y-10553031D01*
X7534467Y-10553031D02*
X7543991Y-10572079D01*
X7543991Y-10572079D02*
X7553515Y-10610174D01*
X7553515Y-10610174D02*
X7553515Y-10657793D01*
X7553515Y-10657793D02*
X7543991Y-10695889D01*
X7543991Y-10695889D02*
X7534467Y-10714936D01*
X7534467Y-10714936D02*
X7524944Y-10724460D01*
X7524944Y-10724460D02*
X7505896Y-10733984D01*
X7505896Y-10733984D02*
X7486848Y-10733984D01*
X7486848Y-10733984D02*
X7467801Y-10724460D01*
X7467801Y-10724460D02*
X7458277Y-10714936D01*
X7458277Y-10714936D02*
X7448753Y-10695889D01*
X7448753Y-10695889D02*
X7439229Y-10657793D01*
X7439229Y-10657793D02*
X7439229Y-10610174D01*
X7439229Y-10610174D02*
X7448753Y-10572079D01*
X7448753Y-10572079D02*
X7458277Y-10553031D01*
X7458277Y-10553031D02*
X7467801Y-10543508D01*
X7467801Y-10543508D02*
X7486848Y-10533984D01*
X7743991Y-10733984D02*
X7629706Y-10733984D01*
X7686848Y-10733984D02*
X7686848Y-10533984D01*
X7686848Y-10533984D02*
X7667801Y-10562555D01*
X7667801Y-10562555D02*
X7648753Y-10581603D01*
X7648753Y-10581603D02*
X7629706Y-10591127D01*
X7934467Y-10733984D02*
X7820182Y-10733984D01*
X7877325Y-10733984D02*
X7877325Y-10533984D01*
X7877325Y-10533984D02*
X7858277Y-10562555D01*
X7858277Y-10562555D02*
X7839229Y-10581603D01*
X7839229Y-10581603D02*
X7820182Y-10591127D01*
X8048753Y-10619698D02*
X8029706Y-10610174D01*
X8029706Y-10610174D02*
X8020182Y-10600650D01*
X8020182Y-10600650D02*
X8010658Y-10581603D01*
X8010658Y-10581603D02*
X8010658Y-10572079D01*
X8010658Y-10572079D02*
X8020182Y-10553031D01*
X8020182Y-10553031D02*
X8029706Y-10543508D01*
X8029706Y-10543508D02*
X8048753Y-10533984D01*
X8048753Y-10533984D02*
X8086848Y-10533984D01*
X8086848Y-10533984D02*
X8105896Y-10543508D01*
X8105896Y-10543508D02*
X8115420Y-10553031D01*
X8115420Y-10553031D02*
X8124944Y-10572079D01*
X8124944Y-10572079D02*
X8124944Y-10581603D01*
X8124944Y-10581603D02*
X8115420Y-10600650D01*
X8115420Y-10600650D02*
X8105896Y-10610174D01*
X8105896Y-10610174D02*
X8086848Y-10619698D01*
X8086848Y-10619698D02*
X8048753Y-10619698D01*
X8048753Y-10619698D02*
X8029706Y-10629222D01*
X8029706Y-10629222D02*
X8020182Y-10638746D01*
X8020182Y-10638746D02*
X8010658Y-10657793D01*
X8010658Y-10657793D02*
X8010658Y-10695889D01*
X8010658Y-10695889D02*
X8020182Y-10714936D01*
X8020182Y-10714936D02*
X8029706Y-10724460D01*
X8029706Y-10724460D02*
X8048753Y-10733984D01*
X8048753Y-10733984D02*
X8086848Y-10733984D01*
X8086848Y-10733984D02*
X8105896Y-10724460D01*
X8105896Y-10724460D02*
X8115420Y-10714936D01*
X8115420Y-10714936D02*
X8124944Y-10695889D01*
X8124944Y-10695889D02*
X8124944Y-10657793D01*
X8124944Y-10657793D02*
X8115420Y-10638746D01*
X8115420Y-10638746D02*
X8105896Y-10629222D01*
X8105896Y-10629222D02*
X8086848Y-10619698D01*
X8201134Y-10533984D02*
X8201134Y-10572079D01*
X8277325Y-10533984D02*
X8277325Y-10572079D01*
X8572563Y-10810174D02*
X8563039Y-10800650D01*
X8563039Y-10800650D02*
X8543991Y-10772079D01*
X8543991Y-10772079D02*
X8534468Y-10753031D01*
X8534468Y-10753031D02*
X8524944Y-10724460D01*
X8524944Y-10724460D02*
X8515420Y-10676841D01*
X8515420Y-10676841D02*
X8515420Y-10638746D01*
X8515420Y-10638746D02*
X8524944Y-10591127D01*
X8524944Y-10591127D02*
X8534468Y-10562555D01*
X8534468Y-10562555D02*
X8543991Y-10543508D01*
X8543991Y-10543508D02*
X8563039Y-10514936D01*
X8563039Y-10514936D02*
X8572563Y-10505412D01*
X8639230Y-10553031D02*
X8648753Y-10543508D01*
X8648753Y-10543508D02*
X8667801Y-10533984D01*
X8667801Y-10533984D02*
X8715420Y-10533984D01*
X8715420Y-10533984D02*
X8734468Y-10543508D01*
X8734468Y-10543508D02*
X8743991Y-10553031D01*
X8743991Y-10553031D02*
X8753515Y-10572079D01*
X8753515Y-10572079D02*
X8753515Y-10591127D01*
X8753515Y-10591127D02*
X8743991Y-10619698D01*
X8743991Y-10619698D02*
X8629706Y-10733984D01*
X8629706Y-10733984D02*
X8753515Y-10733984D01*
X8820182Y-10533984D02*
X8953515Y-10533984D01*
X8953515Y-10533984D02*
X8867801Y-10733984D01*
X9182087Y-10733984D02*
X9182087Y-10533984D01*
X9267801Y-10733984D02*
X9267801Y-10629222D01*
X9267801Y-10629222D02*
X9258277Y-10610174D01*
X9258277Y-10610174D02*
X9239230Y-10600650D01*
X9239230Y-10600650D02*
X9210658Y-10600650D01*
X9210658Y-10600650D02*
X9191611Y-10610174D01*
X9191611Y-10610174D02*
X9182087Y-10619698D01*
X9391611Y-10733984D02*
X9372563Y-10724460D01*
X9372563Y-10724460D02*
X9363039Y-10714936D01*
X9363039Y-10714936D02*
X9353515Y-10695889D01*
X9353515Y-10695889D02*
X9353515Y-10638746D01*
X9353515Y-10638746D02*
X9363039Y-10619698D01*
X9363039Y-10619698D02*
X9372563Y-10610174D01*
X9372563Y-10610174D02*
X9391611Y-10600650D01*
X9391611Y-10600650D02*
X9420182Y-10600650D01*
X9420182Y-10600650D02*
X9439230Y-10610174D01*
X9439230Y-10610174D02*
X9448753Y-10619698D01*
X9448753Y-10619698D02*
X9458277Y-10638746D01*
X9458277Y-10638746D02*
X9458277Y-10695889D01*
X9458277Y-10695889D02*
X9448753Y-10714936D01*
X9448753Y-10714936D02*
X9439230Y-10724460D01*
X9439230Y-10724460D02*
X9420182Y-10733984D01*
X9420182Y-10733984D02*
X9391611Y-10733984D01*
X9572563Y-10733984D02*
X9553515Y-10724460D01*
X9553515Y-10724460D02*
X9543992Y-10705412D01*
X9543992Y-10705412D02*
X9543992Y-10533984D01*
X9724944Y-10724460D02*
X9705896Y-10733984D01*
X9705896Y-10733984D02*
X9667801Y-10733984D01*
X9667801Y-10733984D02*
X9648753Y-10724460D01*
X9648753Y-10724460D02*
X9639230Y-10705412D01*
X9639230Y-10705412D02*
X9639230Y-10629222D01*
X9639230Y-10629222D02*
X9648753Y-10610174D01*
X9648753Y-10610174D02*
X9667801Y-10600650D01*
X9667801Y-10600650D02*
X9705896Y-10600650D01*
X9705896Y-10600650D02*
X9724944Y-10610174D01*
X9724944Y-10610174D02*
X9734468Y-10629222D01*
X9734468Y-10629222D02*
X9734468Y-10648270D01*
X9734468Y-10648270D02*
X9639230Y-10667317D01*
X9810658Y-10724460D02*
X9829706Y-10733984D01*
X9829706Y-10733984D02*
X9867801Y-10733984D01*
X9867801Y-10733984D02*
X9886849Y-10724460D01*
X9886849Y-10724460D02*
X9896373Y-10705412D01*
X9896373Y-10705412D02*
X9896373Y-10695889D01*
X9896373Y-10695889D02*
X9886849Y-10676841D01*
X9886849Y-10676841D02*
X9867801Y-10667317D01*
X9867801Y-10667317D02*
X9839230Y-10667317D01*
X9839230Y-10667317D02*
X9820182Y-10657793D01*
X9820182Y-10657793D02*
X9810658Y-10638746D01*
X9810658Y-10638746D02*
X9810658Y-10629222D01*
X9810658Y-10629222D02*
X9820182Y-10610174D01*
X9820182Y-10610174D02*
X9839230Y-10600650D01*
X9839230Y-10600650D02*
X9867801Y-10600650D01*
X9867801Y-10600650D02*
X9886849Y-10610174D01*
X9963039Y-10810174D02*
X9972563Y-10800650D01*
X9972563Y-10800650D02*
X9991611Y-10772079D01*
X9991611Y-10772079D02*
X10001134Y-10753031D01*
X10001134Y-10753031D02*
X10010658Y-10724460D01*
X10010658Y-10724460D02*
X10020182Y-10676841D01*
X10020182Y-10676841D02*
X10020182Y-10638746D01*
X10020182Y-10638746D02*
X10010658Y-10591127D01*
X10010658Y-10591127D02*
X10001134Y-10562555D01*
X10001134Y-10562555D02*
X9991611Y-10543508D01*
X9991611Y-10543508D02*
X9972563Y-10514936D01*
X9972563Y-10514936D02*
X9963039Y-10505412D01*
M02*
