%TF.GenerationSoftware,KiCad,Pcbnew,8.0.4*%
%TF.CreationDate,2024-11-13T20:22:53-08:00*%
%TF.ProjectId,Butterfly_v0,42757474-6572-4666-9c79-5f76302e6b69,rev?*%
%TF.SameCoordinates,Original*%
%TF.FileFunction,Drillmap*%
%TF.FilePolarity,Positive*%
%FSLAX45Y45*%
G04 Gerber Fmt 4.5, Leading zero omitted, Abs format (unit mm)*
G04 Created by KiCad (PCBNEW 8.0.4) date 2024-11-13 20:22:53*
%MOMM*%
%LPD*%
G01*
G04 APERTURE LIST*
%ADD10C,0.050000*%
%ADD11C,0.200000*%
%ADD12C,0.100000*%
%ADD13C,0.102000*%
%ADD14C,0.107000*%
%ADD15C,0.530000*%
G04 APERTURE END LIST*
D10*
X5000000Y-5000000D02*
X17000000Y-5000000D01*
X17000000Y-10000000D01*
X5000000Y-10000000D01*
X5000000Y-5000000D01*
D11*
D12*
X6185000Y-6685000D02*
X6215000Y-6715000D01*
X6215000Y-6685000D02*
X6185000Y-6715000D01*
X6285000Y-8385000D02*
X6315000Y-8415000D01*
X6315000Y-8385000D02*
X6285000Y-8415000D01*
X6485000Y-7085000D02*
X6515000Y-7115000D01*
X6515000Y-7085000D02*
X6485000Y-7115000D01*
X6685000Y-6685000D02*
X6715000Y-6715000D01*
X6715000Y-6685000D02*
X6685000Y-6715000D01*
X6685000Y-7085000D02*
X6715000Y-7115000D01*
X6715000Y-7085000D02*
X6685000Y-7115000D01*
X6685000Y-7585000D02*
X6715000Y-7615000D01*
X6715000Y-7585000D02*
X6685000Y-7615000D01*
X6885000Y-7085000D02*
X6915000Y-7115000D01*
X6915000Y-7085000D02*
X6885000Y-7115000D01*
X7185000Y-6985000D02*
X7215000Y-7015000D01*
X7215000Y-6985000D02*
X7185000Y-7015000D01*
X7185000Y-7385000D02*
X7215000Y-7415000D01*
X7215000Y-7385000D02*
X7185000Y-7415000D01*
X7185000Y-7785000D02*
X7215000Y-7815000D01*
X7215000Y-7785000D02*
X7185000Y-7815000D01*
X7185000Y-8085000D02*
X7215000Y-8115000D01*
X7215000Y-8085000D02*
X7185000Y-8115000D01*
X7185000Y-8785000D02*
X7215000Y-8815000D01*
X7215000Y-8785000D02*
X7185000Y-8815000D01*
X7385000Y-7785000D02*
X7415000Y-7815000D01*
X7415000Y-7785000D02*
X7385000Y-7815000D01*
X7385000Y-8085000D02*
X7415000Y-8115000D01*
X7415000Y-8085000D02*
X7385000Y-8115000D01*
X7585000Y-7785000D02*
X7615000Y-7815000D01*
X7615000Y-7785000D02*
X7585000Y-7815000D01*
X7585000Y-8085000D02*
X7615000Y-8115000D01*
X7615000Y-8085000D02*
X7585000Y-8115000D01*
X7785000Y-7985000D02*
X7815000Y-8015000D01*
X7815000Y-7985000D02*
X7785000Y-8015000D01*
X7785000Y-8885000D02*
X7815000Y-8915000D01*
X7815000Y-8885000D02*
X7785000Y-8915000D01*
X7885000Y-9085000D02*
X7915000Y-9115000D01*
X7915000Y-9085000D02*
X7885000Y-9115000D01*
X7885000Y-9085000D02*
X7915000Y-9115000D01*
X7915000Y-9085000D02*
X7885000Y-9115000D01*
X7885000Y-9085000D02*
X7915000Y-9115000D01*
X7915000Y-9085000D02*
X7885000Y-9115000D01*
X8185000Y-7385000D02*
X8215000Y-7415000D01*
X8215000Y-7385000D02*
X8185000Y-7415000D01*
X8535000Y-8335000D02*
X8565000Y-8365000D01*
X8565000Y-8335000D02*
X8535000Y-8365000D01*
X8685000Y-7585000D02*
X8715000Y-7615000D01*
X8715000Y-7585000D02*
X8685000Y-7615000D01*
X8685000Y-8185000D02*
X8715000Y-8215000D01*
X8715000Y-8185000D02*
X8685000Y-8215000D01*
X8785000Y-7785000D02*
X8815000Y-7815000D01*
X8815000Y-7785000D02*
X8785000Y-7815000D01*
X8885000Y-8985000D02*
X8915000Y-9015000D01*
X8915000Y-8985000D02*
X8885000Y-9015000D01*
X8946741Y-8341743D02*
X8976741Y-8371743D01*
X8976741Y-8341743D02*
X8946741Y-8371743D01*
X9085000Y-9085000D02*
X9115000Y-9115000D01*
X9115000Y-9085000D02*
X9085000Y-9115000D01*
X9185000Y-7385000D02*
X9215000Y-7415000D01*
X9215000Y-7385000D02*
X9185000Y-7415000D01*
X9185000Y-8585000D02*
X9215000Y-8615000D01*
X9215000Y-8585000D02*
X9185000Y-8615000D01*
X9285000Y-7485000D02*
X9315000Y-7515000D01*
X9315000Y-7485000D02*
X9285000Y-7515000D01*
X9478441Y-8791559D02*
X9508441Y-8821559D01*
X9508441Y-8791559D02*
X9478441Y-8821559D01*
X9485000Y-8885000D02*
X9515000Y-8915000D01*
X9515000Y-8885000D02*
X9485000Y-8915000D01*
X9485000Y-9085000D02*
X9515000Y-9115000D01*
X9515000Y-9085000D02*
X9485000Y-9115000D01*
X9492709Y-8577291D02*
X9522709Y-8607291D01*
X9522709Y-8577291D02*
X9492709Y-8607291D01*
X9585000Y-8385000D02*
X9615000Y-8415000D01*
X9615000Y-8385000D02*
X9585000Y-8415000D01*
X9685000Y-7585000D02*
X9715000Y-7615000D01*
X9715000Y-7585000D02*
X9685000Y-7615000D01*
X9685000Y-8385000D02*
X9715000Y-8415000D01*
X9715000Y-8385000D02*
X9685000Y-8415000D01*
X9685000Y-8985000D02*
X9715000Y-9015000D01*
X9715000Y-8985000D02*
X9685000Y-9015000D01*
X9822500Y-8052500D02*
X9852500Y-8082500D01*
X9852500Y-8052500D02*
X9822500Y-8082500D01*
X9885000Y-7385000D02*
X9915000Y-7415000D01*
X9915000Y-7385000D02*
X9885000Y-7415000D01*
X9885000Y-7385000D02*
X9915000Y-7415000D01*
X9915000Y-7385000D02*
X9885000Y-7415000D01*
X9885000Y-7385000D02*
X9915000Y-7415000D01*
X9915000Y-7385000D02*
X9885000Y-7415000D01*
X9885000Y-7585000D02*
X9915000Y-7615000D01*
X9915000Y-7585000D02*
X9885000Y-7615000D01*
X9885000Y-7585000D02*
X9915000Y-7615000D01*
X9915000Y-7585000D02*
X9885000Y-7615000D01*
X9885000Y-7585000D02*
X9915000Y-7615000D01*
X9915000Y-7585000D02*
X9885000Y-7615000D01*
X9985000Y-8585000D02*
X10015000Y-8615000D01*
X10015000Y-8585000D02*
X9985000Y-8615000D01*
X9985000Y-8785000D02*
X10015000Y-8815000D01*
X10015000Y-8785000D02*
X9985000Y-8815000D01*
X10085000Y-7585000D02*
X10115000Y-7615000D01*
X10115000Y-7585000D02*
X10085000Y-7615000D01*
X10185000Y-8185000D02*
X10215000Y-8215000D01*
X10215000Y-8185000D02*
X10185000Y-8215000D01*
X10385000Y-7285000D02*
X10415000Y-7315000D01*
X10415000Y-7285000D02*
X10385000Y-7315000D01*
X10385000Y-8285000D02*
X10415000Y-8315000D01*
X10415000Y-8285000D02*
X10385000Y-8315000D01*
X10585000Y-6885000D02*
X10615000Y-6915000D01*
X10615000Y-6885000D02*
X10585000Y-6915000D01*
X10585000Y-7985000D02*
X10615000Y-8015000D01*
X10615000Y-7985000D02*
X10585000Y-8015000D01*
X11385000Y-7285000D02*
X11415000Y-7315000D01*
X11415000Y-7285000D02*
X11385000Y-7315000D01*
X12685000Y-7385000D02*
X12715000Y-7415000D01*
X12715000Y-7385000D02*
X12685000Y-7415000D01*
X12685000Y-7585000D02*
X12715000Y-7615000D01*
X12715000Y-7585000D02*
X12685000Y-7615000D01*
X5535500Y-7557500D02*
G75*
G02*
X5470500Y-7557500I-32500J0D01*
G01*
X5470500Y-7557500D02*
G75*
G02*
X5535500Y-7557500I32500J0D01*
G01*
X5523000Y-7525000D02*
X5483000Y-7525000D01*
X5483000Y-7590000D02*
G75*
G02*
X5483000Y-7525000I0J32500D01*
G01*
X5483000Y-7590000D02*
X5523000Y-7590000D01*
X5523000Y-7590000D02*
G75*
G03*
X5523000Y-7525000I0J32500D01*
G01*
X5535500Y-8042500D02*
G75*
G02*
X5470500Y-8042500I-32500J0D01*
G01*
X5470500Y-8042500D02*
G75*
G02*
X5535500Y-8042500I32500J0D01*
G01*
X5523000Y-8010000D02*
X5483000Y-8010000D01*
X5483000Y-8075000D02*
G75*
G02*
X5483000Y-8010000I0J32500D01*
G01*
X5483000Y-8075000D02*
X5523000Y-8075000D01*
X5523000Y-8075000D02*
G75*
G03*
X5523000Y-8010000I0J32500D01*
G01*
X5200000Y-7492500D02*
X5200000Y-7562500D01*
X5165000Y-7527500D02*
X5235000Y-7527500D01*
X5225000Y-7492500D02*
X5175000Y-7492500D01*
X5175000Y-7562500D02*
G75*
G02*
X5175000Y-7492500I0J35000D01*
G01*
X5175000Y-7562500D02*
X5225000Y-7562500D01*
X5225000Y-7562500D02*
G75*
G03*
X5225000Y-7492500I0J35000D01*
G01*
X5200000Y-8037500D02*
X5200000Y-8107500D01*
X5165000Y-8072500D02*
X5235000Y-8072500D01*
X5225000Y-8037500D02*
X5175000Y-8037500D01*
X5175000Y-8107500D02*
G75*
G02*
X5175000Y-8037500I0J35000D01*
G01*
X5175000Y-8107500D02*
X5225000Y-8107500D01*
X5225000Y-8107500D02*
G75*
G03*
X5225000Y-8037500I0J35000D01*
G01*
D13*
X7436063Y-6536063D02*
X7436063Y-6463937D01*
X7363937Y-6463937D01*
X7363937Y-6536063D01*
X7436063Y-6536063D01*
X7736063Y-6536063D02*
X7736063Y-6463937D01*
X7663937Y-6463937D01*
X7663937Y-6536063D01*
X7736063Y-6536063D01*
X9236063Y-6536063D02*
X9236063Y-6463937D01*
X9163937Y-6463937D01*
X9163937Y-6536063D01*
X9236063Y-6536063D01*
X9536063Y-6536063D02*
X9536063Y-6463937D01*
X9463937Y-6463937D01*
X9463937Y-6536063D01*
X9536063Y-6536063D01*
X12436063Y-6536063D02*
X12436063Y-6463937D01*
X12363937Y-6463937D01*
X12363937Y-6536063D01*
X12436063Y-6536063D01*
X12486063Y-8504063D02*
X12486063Y-8431937D01*
X12413937Y-8431937D01*
X12413937Y-8504063D01*
X12486063Y-8504063D01*
X12736063Y-6536063D02*
X12736063Y-6463937D01*
X12663937Y-6463937D01*
X12663937Y-6536063D01*
X12736063Y-6536063D01*
X12786063Y-8504063D02*
X12786063Y-8431937D01*
X12713937Y-8431937D01*
X12713937Y-8504063D01*
X12786063Y-8504063D01*
X14286063Y-8504063D02*
X14286063Y-8431937D01*
X14213937Y-8431937D01*
X14213937Y-8504063D01*
X14286063Y-8504063D01*
X14336063Y-6536063D02*
X14336063Y-6463937D01*
X14263937Y-6463937D01*
X14263937Y-6536063D01*
X14336063Y-6536063D01*
X14586063Y-8504063D02*
X14586063Y-8431937D01*
X14513937Y-8431937D01*
X14513937Y-8504063D01*
X14586063Y-8504063D01*
X14636063Y-6536063D02*
X14636063Y-6463937D01*
X14563937Y-6463937D01*
X14563937Y-6536063D01*
X14636063Y-6536063D01*
D14*
X10746000Y-5926500D02*
X10799500Y-5873000D01*
X10746000Y-5819500D01*
X10692500Y-5873000D01*
X10746000Y-5926500D01*
X10746000Y-6180500D02*
X10799500Y-6127000D01*
X10746000Y-6073500D01*
X10692500Y-6127000D01*
X10746000Y-6180500D01*
X11000000Y-5926500D02*
X11053500Y-5873000D01*
X11000000Y-5819500D01*
X10946500Y-5873000D01*
X11000000Y-5926500D01*
X11000000Y-6180500D02*
X11053500Y-6127000D01*
X11000000Y-6073500D01*
X10946500Y-6127000D01*
X11000000Y-6180500D01*
X11254000Y-5926500D02*
X11307500Y-5873000D01*
X11254000Y-5819500D01*
X11200500Y-5873000D01*
X11254000Y-5926500D01*
X11254000Y-6180500D02*
X11307500Y-6127000D01*
X11254000Y-6073500D01*
X11200500Y-6127000D01*
X11254000Y-6180500D01*
D15*
X5435000Y-5435000D02*
X5965000Y-5965000D01*
X5965000Y-5435000D02*
X5435000Y-5965000D01*
X5965000Y-5700000D02*
G75*
G02*
X5435000Y-5700000I-265000J0D01*
G01*
X5435000Y-5700000D02*
G75*
G02*
X5965000Y-5700000I265000J0D01*
G01*
X5435000Y-9035000D02*
X5965000Y-9565000D01*
X5965000Y-9035000D02*
X5435000Y-9565000D01*
X5965000Y-9300000D02*
G75*
G02*
X5435000Y-9300000I-265000J0D01*
G01*
X5435000Y-9300000D02*
G75*
G02*
X5965000Y-9300000I265000J0D01*
G01*
X16035000Y-5435000D02*
X16565000Y-5965000D01*
X16565000Y-5435000D02*
X16035000Y-5965000D01*
X16565000Y-5700000D02*
G75*
G02*
X16035000Y-5700000I-265000J0D01*
G01*
X16035000Y-5700000D02*
G75*
G02*
X16565000Y-5700000I265000J0D01*
G01*
X16035000Y-9035000D02*
X16565000Y-9565000D01*
X16565000Y-9035000D02*
X16035000Y-9565000D01*
X16565000Y-9300000D02*
G75*
G02*
X16035000Y-9300000I-265000J0D01*
G01*
X16035000Y-9300000D02*
G75*
G02*
X16565000Y-9300000I265000J0D01*
G01*
D11*
X5258277Y-10313984D02*
X5258277Y-10113984D01*
X5258277Y-10113984D02*
X5305896Y-10113984D01*
X5305896Y-10113984D02*
X5334467Y-10123508D01*
X5334467Y-10123508D02*
X5353515Y-10142555D01*
X5353515Y-10142555D02*
X5363039Y-10161603D01*
X5363039Y-10161603D02*
X5372563Y-10199698D01*
X5372563Y-10199698D02*
X5372563Y-10228270D01*
X5372563Y-10228270D02*
X5363039Y-10266365D01*
X5363039Y-10266365D02*
X5353515Y-10285412D01*
X5353515Y-10285412D02*
X5334467Y-10304460D01*
X5334467Y-10304460D02*
X5305896Y-10313984D01*
X5305896Y-10313984D02*
X5258277Y-10313984D01*
X5458277Y-10313984D02*
X5458277Y-10180650D01*
X5458277Y-10218746D02*
X5467801Y-10199698D01*
X5467801Y-10199698D02*
X5477324Y-10190174D01*
X5477324Y-10190174D02*
X5496372Y-10180650D01*
X5496372Y-10180650D02*
X5515420Y-10180650D01*
X5582086Y-10313984D02*
X5582086Y-10180650D01*
X5582086Y-10113984D02*
X5572563Y-10123508D01*
X5572563Y-10123508D02*
X5582086Y-10133031D01*
X5582086Y-10133031D02*
X5591610Y-10123508D01*
X5591610Y-10123508D02*
X5582086Y-10113984D01*
X5582086Y-10113984D02*
X5582086Y-10133031D01*
X5705896Y-10313984D02*
X5686848Y-10304460D01*
X5686848Y-10304460D02*
X5677324Y-10285412D01*
X5677324Y-10285412D02*
X5677324Y-10113984D01*
X5810658Y-10313984D02*
X5791610Y-10304460D01*
X5791610Y-10304460D02*
X5782086Y-10285412D01*
X5782086Y-10285412D02*
X5782086Y-10113984D01*
X6039229Y-10313984D02*
X6039229Y-10113984D01*
X6039229Y-10113984D02*
X6105896Y-10256841D01*
X6105896Y-10256841D02*
X6172562Y-10113984D01*
X6172562Y-10113984D02*
X6172562Y-10313984D01*
X6353515Y-10313984D02*
X6353515Y-10209222D01*
X6353515Y-10209222D02*
X6343991Y-10190174D01*
X6343991Y-10190174D02*
X6324943Y-10180650D01*
X6324943Y-10180650D02*
X6286848Y-10180650D01*
X6286848Y-10180650D02*
X6267801Y-10190174D01*
X6353515Y-10304460D02*
X6334467Y-10313984D01*
X6334467Y-10313984D02*
X6286848Y-10313984D01*
X6286848Y-10313984D02*
X6267801Y-10304460D01*
X6267801Y-10304460D02*
X6258277Y-10285412D01*
X6258277Y-10285412D02*
X6258277Y-10266365D01*
X6258277Y-10266365D02*
X6267801Y-10247317D01*
X6267801Y-10247317D02*
X6286848Y-10237793D01*
X6286848Y-10237793D02*
X6334467Y-10237793D01*
X6334467Y-10237793D02*
X6353515Y-10228270D01*
X6448753Y-10180650D02*
X6448753Y-10380650D01*
X6448753Y-10190174D02*
X6467801Y-10180650D01*
X6467801Y-10180650D02*
X6505896Y-10180650D01*
X6505896Y-10180650D02*
X6524943Y-10190174D01*
X6524943Y-10190174D02*
X6534467Y-10199698D01*
X6534467Y-10199698D02*
X6543991Y-10218746D01*
X6543991Y-10218746D02*
X6543991Y-10275889D01*
X6543991Y-10275889D02*
X6534467Y-10294936D01*
X6534467Y-10294936D02*
X6524943Y-10304460D01*
X6524943Y-10304460D02*
X6505896Y-10313984D01*
X6505896Y-10313984D02*
X6467801Y-10313984D01*
X6467801Y-10313984D02*
X6448753Y-10304460D01*
X6629705Y-10294936D02*
X6639229Y-10304460D01*
X6639229Y-10304460D02*
X6629705Y-10313984D01*
X6629705Y-10313984D02*
X6620182Y-10304460D01*
X6620182Y-10304460D02*
X6629705Y-10294936D01*
X6629705Y-10294936D02*
X6629705Y-10313984D01*
X6629705Y-10190174D02*
X6639229Y-10199698D01*
X6639229Y-10199698D02*
X6629705Y-10209222D01*
X6629705Y-10209222D02*
X6620182Y-10199698D01*
X6620182Y-10199698D02*
X6629705Y-10190174D01*
X6629705Y-10190174D02*
X6629705Y-10209222D01*
D12*
X4967500Y-10627500D02*
X4997500Y-10657500D01*
X4997500Y-10627500D02*
X4967500Y-10657500D01*
D11*
X5296372Y-10533984D02*
X5315420Y-10533984D01*
X5315420Y-10533984D02*
X5334467Y-10543508D01*
X5334467Y-10543508D02*
X5343991Y-10553031D01*
X5343991Y-10553031D02*
X5353515Y-10572079D01*
X5353515Y-10572079D02*
X5363039Y-10610174D01*
X5363039Y-10610174D02*
X5363039Y-10657793D01*
X5363039Y-10657793D02*
X5353515Y-10695889D01*
X5353515Y-10695889D02*
X5343991Y-10714936D01*
X5343991Y-10714936D02*
X5334467Y-10724460D01*
X5334467Y-10724460D02*
X5315420Y-10733984D01*
X5315420Y-10733984D02*
X5296372Y-10733984D01*
X5296372Y-10733984D02*
X5277324Y-10724460D01*
X5277324Y-10724460D02*
X5267801Y-10714936D01*
X5267801Y-10714936D02*
X5258277Y-10695889D01*
X5258277Y-10695889D02*
X5248753Y-10657793D01*
X5248753Y-10657793D02*
X5248753Y-10610174D01*
X5248753Y-10610174D02*
X5258277Y-10572079D01*
X5258277Y-10572079D02*
X5267801Y-10553031D01*
X5267801Y-10553031D02*
X5277324Y-10543508D01*
X5277324Y-10543508D02*
X5296372Y-10533984D01*
X5448753Y-10714936D02*
X5458277Y-10724460D01*
X5458277Y-10724460D02*
X5448753Y-10733984D01*
X5448753Y-10733984D02*
X5439229Y-10724460D01*
X5439229Y-10724460D02*
X5448753Y-10714936D01*
X5448753Y-10714936D02*
X5448753Y-10733984D01*
X5524944Y-10533984D02*
X5648753Y-10533984D01*
X5648753Y-10533984D02*
X5582086Y-10610174D01*
X5582086Y-10610174D02*
X5610658Y-10610174D01*
X5610658Y-10610174D02*
X5629705Y-10619698D01*
X5629705Y-10619698D02*
X5639229Y-10629222D01*
X5639229Y-10629222D02*
X5648753Y-10648270D01*
X5648753Y-10648270D02*
X5648753Y-10695889D01*
X5648753Y-10695889D02*
X5639229Y-10714936D01*
X5639229Y-10714936D02*
X5629705Y-10724460D01*
X5629705Y-10724460D02*
X5610658Y-10733984D01*
X5610658Y-10733984D02*
X5553515Y-10733984D01*
X5553515Y-10733984D02*
X5534467Y-10724460D01*
X5534467Y-10724460D02*
X5524944Y-10714936D01*
X5772562Y-10533984D02*
X5791610Y-10533984D01*
X5791610Y-10533984D02*
X5810658Y-10543508D01*
X5810658Y-10543508D02*
X5820182Y-10553031D01*
X5820182Y-10553031D02*
X5829705Y-10572079D01*
X5829705Y-10572079D02*
X5839229Y-10610174D01*
X5839229Y-10610174D02*
X5839229Y-10657793D01*
X5839229Y-10657793D02*
X5829705Y-10695889D01*
X5829705Y-10695889D02*
X5820182Y-10714936D01*
X5820182Y-10714936D02*
X5810658Y-10724460D01*
X5810658Y-10724460D02*
X5791610Y-10733984D01*
X5791610Y-10733984D02*
X5772562Y-10733984D01*
X5772562Y-10733984D02*
X5753515Y-10724460D01*
X5753515Y-10724460D02*
X5743991Y-10714936D01*
X5743991Y-10714936D02*
X5734467Y-10695889D01*
X5734467Y-10695889D02*
X5724943Y-10657793D01*
X5724943Y-10657793D02*
X5724943Y-10610174D01*
X5724943Y-10610174D02*
X5734467Y-10572079D01*
X5734467Y-10572079D02*
X5743991Y-10553031D01*
X5743991Y-10553031D02*
X5753515Y-10543508D01*
X5753515Y-10543508D02*
X5772562Y-10533984D01*
X5963039Y-10533984D02*
X5982086Y-10533984D01*
X5982086Y-10533984D02*
X6001134Y-10543508D01*
X6001134Y-10543508D02*
X6010658Y-10553031D01*
X6010658Y-10553031D02*
X6020182Y-10572079D01*
X6020182Y-10572079D02*
X6029705Y-10610174D01*
X6029705Y-10610174D02*
X6029705Y-10657793D01*
X6029705Y-10657793D02*
X6020182Y-10695889D01*
X6020182Y-10695889D02*
X6010658Y-10714936D01*
X6010658Y-10714936D02*
X6001134Y-10724460D01*
X6001134Y-10724460D02*
X5982086Y-10733984D01*
X5982086Y-10733984D02*
X5963039Y-10733984D01*
X5963039Y-10733984D02*
X5943991Y-10724460D01*
X5943991Y-10724460D02*
X5934467Y-10714936D01*
X5934467Y-10714936D02*
X5924943Y-10695889D01*
X5924943Y-10695889D02*
X5915420Y-10657793D01*
X5915420Y-10657793D02*
X5915420Y-10610174D01*
X5915420Y-10610174D02*
X5924943Y-10572079D01*
X5924943Y-10572079D02*
X5934467Y-10553031D01*
X5934467Y-10553031D02*
X5943991Y-10543508D01*
X5943991Y-10543508D02*
X5963039Y-10533984D01*
X6115420Y-10733984D02*
X6115420Y-10600650D01*
X6115420Y-10619698D02*
X6124943Y-10610174D01*
X6124943Y-10610174D02*
X6143991Y-10600650D01*
X6143991Y-10600650D02*
X6172563Y-10600650D01*
X6172563Y-10600650D02*
X6191610Y-10610174D01*
X6191610Y-10610174D02*
X6201134Y-10629222D01*
X6201134Y-10629222D02*
X6201134Y-10733984D01*
X6201134Y-10629222D02*
X6210658Y-10610174D01*
X6210658Y-10610174D02*
X6229705Y-10600650D01*
X6229705Y-10600650D02*
X6258277Y-10600650D01*
X6258277Y-10600650D02*
X6277324Y-10610174D01*
X6277324Y-10610174D02*
X6286848Y-10629222D01*
X6286848Y-10629222D02*
X6286848Y-10733984D01*
X6382086Y-10733984D02*
X6382086Y-10600650D01*
X6382086Y-10619698D02*
X6391610Y-10610174D01*
X6391610Y-10610174D02*
X6410658Y-10600650D01*
X6410658Y-10600650D02*
X6439229Y-10600650D01*
X6439229Y-10600650D02*
X6458277Y-10610174D01*
X6458277Y-10610174D02*
X6467801Y-10629222D01*
X6467801Y-10629222D02*
X6467801Y-10733984D01*
X6467801Y-10629222D02*
X6477324Y-10610174D01*
X6477324Y-10610174D02*
X6496372Y-10600650D01*
X6496372Y-10600650D02*
X6524943Y-10600650D01*
X6524943Y-10600650D02*
X6543991Y-10610174D01*
X6543991Y-10610174D02*
X6553515Y-10629222D01*
X6553515Y-10629222D02*
X6553515Y-10733984D01*
X6943991Y-10524460D02*
X6772563Y-10781603D01*
X7201134Y-10533984D02*
X7220182Y-10533984D01*
X7220182Y-10533984D02*
X7239229Y-10543508D01*
X7239229Y-10543508D02*
X7248753Y-10553031D01*
X7248753Y-10553031D02*
X7258277Y-10572079D01*
X7258277Y-10572079D02*
X7267801Y-10610174D01*
X7267801Y-10610174D02*
X7267801Y-10657793D01*
X7267801Y-10657793D02*
X7258277Y-10695889D01*
X7258277Y-10695889D02*
X7248753Y-10714936D01*
X7248753Y-10714936D02*
X7239229Y-10724460D01*
X7239229Y-10724460D02*
X7220182Y-10733984D01*
X7220182Y-10733984D02*
X7201134Y-10733984D01*
X7201134Y-10733984D02*
X7182086Y-10724460D01*
X7182086Y-10724460D02*
X7172563Y-10714936D01*
X7172563Y-10714936D02*
X7163039Y-10695889D01*
X7163039Y-10695889D02*
X7153515Y-10657793D01*
X7153515Y-10657793D02*
X7153515Y-10610174D01*
X7153515Y-10610174D02*
X7163039Y-10572079D01*
X7163039Y-10572079D02*
X7172563Y-10553031D01*
X7172563Y-10553031D02*
X7182086Y-10543508D01*
X7182086Y-10543508D02*
X7201134Y-10533984D01*
X7353515Y-10714936D02*
X7363039Y-10724460D01*
X7363039Y-10724460D02*
X7353515Y-10733984D01*
X7353515Y-10733984D02*
X7343991Y-10724460D01*
X7343991Y-10724460D02*
X7353515Y-10714936D01*
X7353515Y-10714936D02*
X7353515Y-10733984D01*
X7486848Y-10533984D02*
X7505896Y-10533984D01*
X7505896Y-10533984D02*
X7524944Y-10543508D01*
X7524944Y-10543508D02*
X7534467Y-10553031D01*
X7534467Y-10553031D02*
X7543991Y-10572079D01*
X7543991Y-10572079D02*
X7553515Y-10610174D01*
X7553515Y-10610174D02*
X7553515Y-10657793D01*
X7553515Y-10657793D02*
X7543991Y-10695889D01*
X7543991Y-10695889D02*
X7534467Y-10714936D01*
X7534467Y-10714936D02*
X7524944Y-10724460D01*
X7524944Y-10724460D02*
X7505896Y-10733984D01*
X7505896Y-10733984D02*
X7486848Y-10733984D01*
X7486848Y-10733984D02*
X7467801Y-10724460D01*
X7467801Y-10724460D02*
X7458277Y-10714936D01*
X7458277Y-10714936D02*
X7448753Y-10695889D01*
X7448753Y-10695889D02*
X7439229Y-10657793D01*
X7439229Y-10657793D02*
X7439229Y-10610174D01*
X7439229Y-10610174D02*
X7448753Y-10572079D01*
X7448753Y-10572079D02*
X7458277Y-10553031D01*
X7458277Y-10553031D02*
X7467801Y-10543508D01*
X7467801Y-10543508D02*
X7486848Y-10533984D01*
X7743991Y-10733984D02*
X7629706Y-10733984D01*
X7686848Y-10733984D02*
X7686848Y-10533984D01*
X7686848Y-10533984D02*
X7667801Y-10562555D01*
X7667801Y-10562555D02*
X7648753Y-10581603D01*
X7648753Y-10581603D02*
X7629706Y-10591127D01*
X7934467Y-10733984D02*
X7820182Y-10733984D01*
X7877325Y-10733984D02*
X7877325Y-10533984D01*
X7877325Y-10533984D02*
X7858277Y-10562555D01*
X7858277Y-10562555D02*
X7839229Y-10581603D01*
X7839229Y-10581603D02*
X7820182Y-10591127D01*
X8048753Y-10619698D02*
X8029706Y-10610174D01*
X8029706Y-10610174D02*
X8020182Y-10600650D01*
X8020182Y-10600650D02*
X8010658Y-10581603D01*
X8010658Y-10581603D02*
X8010658Y-10572079D01*
X8010658Y-10572079D02*
X8020182Y-10553031D01*
X8020182Y-10553031D02*
X8029706Y-10543508D01*
X8029706Y-10543508D02*
X8048753Y-10533984D01*
X8048753Y-10533984D02*
X8086848Y-10533984D01*
X8086848Y-10533984D02*
X8105896Y-10543508D01*
X8105896Y-10543508D02*
X8115420Y-10553031D01*
X8115420Y-10553031D02*
X8124944Y-10572079D01*
X8124944Y-10572079D02*
X8124944Y-10581603D01*
X8124944Y-10581603D02*
X8115420Y-10600650D01*
X8115420Y-10600650D02*
X8105896Y-10610174D01*
X8105896Y-10610174D02*
X8086848Y-10619698D01*
X8086848Y-10619698D02*
X8048753Y-10619698D01*
X8048753Y-10619698D02*
X8029706Y-10629222D01*
X8029706Y-10629222D02*
X8020182Y-10638746D01*
X8020182Y-10638746D02*
X8010658Y-10657793D01*
X8010658Y-10657793D02*
X8010658Y-10695889D01*
X8010658Y-10695889D02*
X8020182Y-10714936D01*
X8020182Y-10714936D02*
X8029706Y-10724460D01*
X8029706Y-10724460D02*
X8048753Y-10733984D01*
X8048753Y-10733984D02*
X8086848Y-10733984D01*
X8086848Y-10733984D02*
X8105896Y-10724460D01*
X8105896Y-10724460D02*
X8115420Y-10714936D01*
X8115420Y-10714936D02*
X8124944Y-10695889D01*
X8124944Y-10695889D02*
X8124944Y-10657793D01*
X8124944Y-10657793D02*
X8115420Y-10638746D01*
X8115420Y-10638746D02*
X8105896Y-10629222D01*
X8105896Y-10629222D02*
X8086848Y-10619698D01*
X8201134Y-10533984D02*
X8201134Y-10572079D01*
X8277325Y-10533984D02*
X8277325Y-10572079D01*
X8572563Y-10810174D02*
X8563039Y-10800650D01*
X8563039Y-10800650D02*
X8543991Y-10772079D01*
X8543991Y-10772079D02*
X8534468Y-10753031D01*
X8534468Y-10753031D02*
X8524944Y-10724460D01*
X8524944Y-10724460D02*
X8515420Y-10676841D01*
X8515420Y-10676841D02*
X8515420Y-10638746D01*
X8515420Y-10638746D02*
X8524944Y-10591127D01*
X8524944Y-10591127D02*
X8534468Y-10562555D01*
X8534468Y-10562555D02*
X8543991Y-10543508D01*
X8543991Y-10543508D02*
X8563039Y-10514936D01*
X8563039Y-10514936D02*
X8572563Y-10505412D01*
X8743991Y-10533984D02*
X8648753Y-10533984D01*
X8648753Y-10533984D02*
X8639230Y-10629222D01*
X8639230Y-10629222D02*
X8648753Y-10619698D01*
X8648753Y-10619698D02*
X8667801Y-10610174D01*
X8667801Y-10610174D02*
X8715420Y-10610174D01*
X8715420Y-10610174D02*
X8734468Y-10619698D01*
X8734468Y-10619698D02*
X8743991Y-10629222D01*
X8743991Y-10629222D02*
X8753515Y-10648270D01*
X8753515Y-10648270D02*
X8753515Y-10695889D01*
X8753515Y-10695889D02*
X8743991Y-10714936D01*
X8743991Y-10714936D02*
X8734468Y-10724460D01*
X8734468Y-10724460D02*
X8715420Y-10733984D01*
X8715420Y-10733984D02*
X8667801Y-10733984D01*
X8667801Y-10733984D02*
X8648753Y-10724460D01*
X8648753Y-10724460D02*
X8639230Y-10714936D01*
X8867801Y-10619698D02*
X8848753Y-10610174D01*
X8848753Y-10610174D02*
X8839230Y-10600650D01*
X8839230Y-10600650D02*
X8829706Y-10581603D01*
X8829706Y-10581603D02*
X8829706Y-10572079D01*
X8829706Y-10572079D02*
X8839230Y-10553031D01*
X8839230Y-10553031D02*
X8848753Y-10543508D01*
X8848753Y-10543508D02*
X8867801Y-10533984D01*
X8867801Y-10533984D02*
X8905896Y-10533984D01*
X8905896Y-10533984D02*
X8924944Y-10543508D01*
X8924944Y-10543508D02*
X8934468Y-10553031D01*
X8934468Y-10553031D02*
X8943991Y-10572079D01*
X8943991Y-10572079D02*
X8943991Y-10581603D01*
X8943991Y-10581603D02*
X8934468Y-10600650D01*
X8934468Y-10600650D02*
X8924944Y-10610174D01*
X8924944Y-10610174D02*
X8905896Y-10619698D01*
X8905896Y-10619698D02*
X8867801Y-10619698D01*
X8867801Y-10619698D02*
X8848753Y-10629222D01*
X8848753Y-10629222D02*
X8839230Y-10638746D01*
X8839230Y-10638746D02*
X8829706Y-10657793D01*
X8829706Y-10657793D02*
X8829706Y-10695889D01*
X8829706Y-10695889D02*
X8839230Y-10714936D01*
X8839230Y-10714936D02*
X8848753Y-10724460D01*
X8848753Y-10724460D02*
X8867801Y-10733984D01*
X8867801Y-10733984D02*
X8905896Y-10733984D01*
X8905896Y-10733984D02*
X8924944Y-10724460D01*
X8924944Y-10724460D02*
X8934468Y-10714936D01*
X8934468Y-10714936D02*
X8943991Y-10695889D01*
X8943991Y-10695889D02*
X8943991Y-10657793D01*
X8943991Y-10657793D02*
X8934468Y-10638746D01*
X8934468Y-10638746D02*
X8924944Y-10629222D01*
X8924944Y-10629222D02*
X8905896Y-10619698D01*
X9182087Y-10733984D02*
X9182087Y-10533984D01*
X9267801Y-10733984D02*
X9267801Y-10629222D01*
X9267801Y-10629222D02*
X9258277Y-10610174D01*
X9258277Y-10610174D02*
X9239230Y-10600650D01*
X9239230Y-10600650D02*
X9210658Y-10600650D01*
X9210658Y-10600650D02*
X9191611Y-10610174D01*
X9191611Y-10610174D02*
X9182087Y-10619698D01*
X9391611Y-10733984D02*
X9372563Y-10724460D01*
X9372563Y-10724460D02*
X9363039Y-10714936D01*
X9363039Y-10714936D02*
X9353515Y-10695889D01*
X9353515Y-10695889D02*
X9353515Y-10638746D01*
X9353515Y-10638746D02*
X9363039Y-10619698D01*
X9363039Y-10619698D02*
X9372563Y-10610174D01*
X9372563Y-10610174D02*
X9391611Y-10600650D01*
X9391611Y-10600650D02*
X9420182Y-10600650D01*
X9420182Y-10600650D02*
X9439230Y-10610174D01*
X9439230Y-10610174D02*
X9448753Y-10619698D01*
X9448753Y-10619698D02*
X9458277Y-10638746D01*
X9458277Y-10638746D02*
X9458277Y-10695889D01*
X9458277Y-10695889D02*
X9448753Y-10714936D01*
X9448753Y-10714936D02*
X9439230Y-10724460D01*
X9439230Y-10724460D02*
X9420182Y-10733984D01*
X9420182Y-10733984D02*
X9391611Y-10733984D01*
X9572563Y-10733984D02*
X9553515Y-10724460D01*
X9553515Y-10724460D02*
X9543992Y-10705412D01*
X9543992Y-10705412D02*
X9543992Y-10533984D01*
X9724944Y-10724460D02*
X9705896Y-10733984D01*
X9705896Y-10733984D02*
X9667801Y-10733984D01*
X9667801Y-10733984D02*
X9648753Y-10724460D01*
X9648753Y-10724460D02*
X9639230Y-10705412D01*
X9639230Y-10705412D02*
X9639230Y-10629222D01*
X9639230Y-10629222D02*
X9648753Y-10610174D01*
X9648753Y-10610174D02*
X9667801Y-10600650D01*
X9667801Y-10600650D02*
X9705896Y-10600650D01*
X9705896Y-10600650D02*
X9724944Y-10610174D01*
X9724944Y-10610174D02*
X9734468Y-10629222D01*
X9734468Y-10629222D02*
X9734468Y-10648270D01*
X9734468Y-10648270D02*
X9639230Y-10667317D01*
X9810658Y-10724460D02*
X9829706Y-10733984D01*
X9829706Y-10733984D02*
X9867801Y-10733984D01*
X9867801Y-10733984D02*
X9886849Y-10724460D01*
X9886849Y-10724460D02*
X9896373Y-10705412D01*
X9896373Y-10705412D02*
X9896373Y-10695889D01*
X9896373Y-10695889D02*
X9886849Y-10676841D01*
X9886849Y-10676841D02*
X9867801Y-10667317D01*
X9867801Y-10667317D02*
X9839230Y-10667317D01*
X9839230Y-10667317D02*
X9820182Y-10657793D01*
X9820182Y-10657793D02*
X9810658Y-10638746D01*
X9810658Y-10638746D02*
X9810658Y-10629222D01*
X9810658Y-10629222D02*
X9820182Y-10610174D01*
X9820182Y-10610174D02*
X9839230Y-10600650D01*
X9839230Y-10600650D02*
X9867801Y-10600650D01*
X9867801Y-10600650D02*
X9886849Y-10610174D01*
X9963039Y-10810174D02*
X9972563Y-10800650D01*
X9972563Y-10800650D02*
X9991611Y-10772079D01*
X9991611Y-10772079D02*
X10001134Y-10753031D01*
X10001134Y-10753031D02*
X10010658Y-10724460D01*
X10010658Y-10724460D02*
X10020182Y-10676841D01*
X10020182Y-10676841D02*
X10020182Y-10638746D01*
X10020182Y-10638746D02*
X10010658Y-10591127D01*
X10010658Y-10591127D02*
X10001134Y-10562555D01*
X10001134Y-10562555D02*
X9991611Y-10543508D01*
X9991611Y-10543508D02*
X9972563Y-10514936D01*
X9972563Y-10514936D02*
X9963039Y-10505412D01*
D12*
X4997500Y-10906500D02*
G75*
G02*
X4932500Y-10906500I-32500J0D01*
G01*
X4932500Y-10906500D02*
G75*
G02*
X4997500Y-10906500I32500J0D01*
G01*
D11*
X5296372Y-10797984D02*
X5315420Y-10797984D01*
X5315420Y-10797984D02*
X5334467Y-10807508D01*
X5334467Y-10807508D02*
X5343991Y-10817031D01*
X5343991Y-10817031D02*
X5353515Y-10836079D01*
X5353515Y-10836079D02*
X5363039Y-10874174D01*
X5363039Y-10874174D02*
X5363039Y-10921793D01*
X5363039Y-10921793D02*
X5353515Y-10959889D01*
X5353515Y-10959889D02*
X5343991Y-10978936D01*
X5343991Y-10978936D02*
X5334467Y-10988460D01*
X5334467Y-10988460D02*
X5315420Y-10997984D01*
X5315420Y-10997984D02*
X5296372Y-10997984D01*
X5296372Y-10997984D02*
X5277324Y-10988460D01*
X5277324Y-10988460D02*
X5267801Y-10978936D01*
X5267801Y-10978936D02*
X5258277Y-10959889D01*
X5258277Y-10959889D02*
X5248753Y-10921793D01*
X5248753Y-10921793D02*
X5248753Y-10874174D01*
X5248753Y-10874174D02*
X5258277Y-10836079D01*
X5258277Y-10836079D02*
X5267801Y-10817031D01*
X5267801Y-10817031D02*
X5277324Y-10807508D01*
X5277324Y-10807508D02*
X5296372Y-10797984D01*
X5448753Y-10978936D02*
X5458277Y-10988460D01*
X5458277Y-10988460D02*
X5448753Y-10997984D01*
X5448753Y-10997984D02*
X5439229Y-10988460D01*
X5439229Y-10988460D02*
X5448753Y-10978936D01*
X5448753Y-10978936D02*
X5448753Y-10997984D01*
X5629705Y-10797984D02*
X5591610Y-10797984D01*
X5591610Y-10797984D02*
X5572563Y-10807508D01*
X5572563Y-10807508D02*
X5563039Y-10817031D01*
X5563039Y-10817031D02*
X5543991Y-10845603D01*
X5543991Y-10845603D02*
X5534467Y-10883698D01*
X5534467Y-10883698D02*
X5534467Y-10959889D01*
X5534467Y-10959889D02*
X5543991Y-10978936D01*
X5543991Y-10978936D02*
X5553515Y-10988460D01*
X5553515Y-10988460D02*
X5572563Y-10997984D01*
X5572563Y-10997984D02*
X5610658Y-10997984D01*
X5610658Y-10997984D02*
X5629705Y-10988460D01*
X5629705Y-10988460D02*
X5639229Y-10978936D01*
X5639229Y-10978936D02*
X5648753Y-10959889D01*
X5648753Y-10959889D02*
X5648753Y-10912270D01*
X5648753Y-10912270D02*
X5639229Y-10893222D01*
X5639229Y-10893222D02*
X5629705Y-10883698D01*
X5629705Y-10883698D02*
X5610658Y-10874174D01*
X5610658Y-10874174D02*
X5572563Y-10874174D01*
X5572563Y-10874174D02*
X5553515Y-10883698D01*
X5553515Y-10883698D02*
X5543991Y-10893222D01*
X5543991Y-10893222D02*
X5534467Y-10912270D01*
X5829705Y-10797984D02*
X5734467Y-10797984D01*
X5734467Y-10797984D02*
X5724943Y-10893222D01*
X5724943Y-10893222D02*
X5734467Y-10883698D01*
X5734467Y-10883698D02*
X5753515Y-10874174D01*
X5753515Y-10874174D02*
X5801134Y-10874174D01*
X5801134Y-10874174D02*
X5820182Y-10883698D01*
X5820182Y-10883698D02*
X5829705Y-10893222D01*
X5829705Y-10893222D02*
X5839229Y-10912270D01*
X5839229Y-10912270D02*
X5839229Y-10959889D01*
X5839229Y-10959889D02*
X5829705Y-10978936D01*
X5829705Y-10978936D02*
X5820182Y-10988460D01*
X5820182Y-10988460D02*
X5801134Y-10997984D01*
X5801134Y-10997984D02*
X5753515Y-10997984D01*
X5753515Y-10997984D02*
X5734467Y-10988460D01*
X5734467Y-10988460D02*
X5724943Y-10978936D01*
X5963039Y-10797984D02*
X5982086Y-10797984D01*
X5982086Y-10797984D02*
X6001134Y-10807508D01*
X6001134Y-10807508D02*
X6010658Y-10817031D01*
X6010658Y-10817031D02*
X6020182Y-10836079D01*
X6020182Y-10836079D02*
X6029705Y-10874174D01*
X6029705Y-10874174D02*
X6029705Y-10921793D01*
X6029705Y-10921793D02*
X6020182Y-10959889D01*
X6020182Y-10959889D02*
X6010658Y-10978936D01*
X6010658Y-10978936D02*
X6001134Y-10988460D01*
X6001134Y-10988460D02*
X5982086Y-10997984D01*
X5982086Y-10997984D02*
X5963039Y-10997984D01*
X5963039Y-10997984D02*
X5943991Y-10988460D01*
X5943991Y-10988460D02*
X5934467Y-10978936D01*
X5934467Y-10978936D02*
X5924943Y-10959889D01*
X5924943Y-10959889D02*
X5915420Y-10921793D01*
X5915420Y-10921793D02*
X5915420Y-10874174D01*
X5915420Y-10874174D02*
X5924943Y-10836079D01*
X5924943Y-10836079D02*
X5934467Y-10817031D01*
X5934467Y-10817031D02*
X5943991Y-10807508D01*
X5943991Y-10807508D02*
X5963039Y-10797984D01*
X6115420Y-10997984D02*
X6115420Y-10864650D01*
X6115420Y-10883698D02*
X6124943Y-10874174D01*
X6124943Y-10874174D02*
X6143991Y-10864650D01*
X6143991Y-10864650D02*
X6172563Y-10864650D01*
X6172563Y-10864650D02*
X6191610Y-10874174D01*
X6191610Y-10874174D02*
X6201134Y-10893222D01*
X6201134Y-10893222D02*
X6201134Y-10997984D01*
X6201134Y-10893222D02*
X6210658Y-10874174D01*
X6210658Y-10874174D02*
X6229705Y-10864650D01*
X6229705Y-10864650D02*
X6258277Y-10864650D01*
X6258277Y-10864650D02*
X6277324Y-10874174D01*
X6277324Y-10874174D02*
X6286848Y-10893222D01*
X6286848Y-10893222D02*
X6286848Y-10997984D01*
X6382086Y-10997984D02*
X6382086Y-10864650D01*
X6382086Y-10883698D02*
X6391610Y-10874174D01*
X6391610Y-10874174D02*
X6410658Y-10864650D01*
X6410658Y-10864650D02*
X6439229Y-10864650D01*
X6439229Y-10864650D02*
X6458277Y-10874174D01*
X6458277Y-10874174D02*
X6467801Y-10893222D01*
X6467801Y-10893222D02*
X6467801Y-10997984D01*
X6467801Y-10893222D02*
X6477324Y-10874174D01*
X6477324Y-10874174D02*
X6496372Y-10864650D01*
X6496372Y-10864650D02*
X6524943Y-10864650D01*
X6524943Y-10864650D02*
X6543991Y-10874174D01*
X6543991Y-10874174D02*
X6553515Y-10893222D01*
X6553515Y-10893222D02*
X6553515Y-10997984D01*
X6943991Y-10788460D02*
X6772563Y-11045603D01*
X7201134Y-10797984D02*
X7220182Y-10797984D01*
X7220182Y-10797984D02*
X7239229Y-10807508D01*
X7239229Y-10807508D02*
X7248753Y-10817031D01*
X7248753Y-10817031D02*
X7258277Y-10836079D01*
X7258277Y-10836079D02*
X7267801Y-10874174D01*
X7267801Y-10874174D02*
X7267801Y-10921793D01*
X7267801Y-10921793D02*
X7258277Y-10959889D01*
X7258277Y-10959889D02*
X7248753Y-10978936D01*
X7248753Y-10978936D02*
X7239229Y-10988460D01*
X7239229Y-10988460D02*
X7220182Y-10997984D01*
X7220182Y-10997984D02*
X7201134Y-10997984D01*
X7201134Y-10997984D02*
X7182086Y-10988460D01*
X7182086Y-10988460D02*
X7172563Y-10978936D01*
X7172563Y-10978936D02*
X7163039Y-10959889D01*
X7163039Y-10959889D02*
X7153515Y-10921793D01*
X7153515Y-10921793D02*
X7153515Y-10874174D01*
X7153515Y-10874174D02*
X7163039Y-10836079D01*
X7163039Y-10836079D02*
X7172563Y-10817031D01*
X7172563Y-10817031D02*
X7182086Y-10807508D01*
X7182086Y-10807508D02*
X7201134Y-10797984D01*
X7353515Y-10978936D02*
X7363039Y-10988460D01*
X7363039Y-10988460D02*
X7353515Y-10997984D01*
X7353515Y-10997984D02*
X7343991Y-10988460D01*
X7343991Y-10988460D02*
X7353515Y-10978936D01*
X7353515Y-10978936D02*
X7353515Y-10997984D01*
X7486848Y-10797984D02*
X7505896Y-10797984D01*
X7505896Y-10797984D02*
X7524944Y-10807508D01*
X7524944Y-10807508D02*
X7534467Y-10817031D01*
X7534467Y-10817031D02*
X7543991Y-10836079D01*
X7543991Y-10836079D02*
X7553515Y-10874174D01*
X7553515Y-10874174D02*
X7553515Y-10921793D01*
X7553515Y-10921793D02*
X7543991Y-10959889D01*
X7543991Y-10959889D02*
X7534467Y-10978936D01*
X7534467Y-10978936D02*
X7524944Y-10988460D01*
X7524944Y-10988460D02*
X7505896Y-10997984D01*
X7505896Y-10997984D02*
X7486848Y-10997984D01*
X7486848Y-10997984D02*
X7467801Y-10988460D01*
X7467801Y-10988460D02*
X7458277Y-10978936D01*
X7458277Y-10978936D02*
X7448753Y-10959889D01*
X7448753Y-10959889D02*
X7439229Y-10921793D01*
X7439229Y-10921793D02*
X7439229Y-10874174D01*
X7439229Y-10874174D02*
X7448753Y-10836079D01*
X7448753Y-10836079D02*
X7458277Y-10817031D01*
X7458277Y-10817031D02*
X7467801Y-10807508D01*
X7467801Y-10807508D02*
X7486848Y-10797984D01*
X7629706Y-10817031D02*
X7639229Y-10807508D01*
X7639229Y-10807508D02*
X7658277Y-10797984D01*
X7658277Y-10797984D02*
X7705896Y-10797984D01*
X7705896Y-10797984D02*
X7724944Y-10807508D01*
X7724944Y-10807508D02*
X7734467Y-10817031D01*
X7734467Y-10817031D02*
X7743991Y-10836079D01*
X7743991Y-10836079D02*
X7743991Y-10855127D01*
X7743991Y-10855127D02*
X7734467Y-10883698D01*
X7734467Y-10883698D02*
X7620182Y-10997984D01*
X7620182Y-10997984D02*
X7743991Y-10997984D01*
X7924944Y-10797984D02*
X7829706Y-10797984D01*
X7829706Y-10797984D02*
X7820182Y-10893222D01*
X7820182Y-10893222D02*
X7829706Y-10883698D01*
X7829706Y-10883698D02*
X7848753Y-10874174D01*
X7848753Y-10874174D02*
X7896372Y-10874174D01*
X7896372Y-10874174D02*
X7915420Y-10883698D01*
X7915420Y-10883698D02*
X7924944Y-10893222D01*
X7924944Y-10893222D02*
X7934467Y-10912270D01*
X7934467Y-10912270D02*
X7934467Y-10959889D01*
X7934467Y-10959889D02*
X7924944Y-10978936D01*
X7924944Y-10978936D02*
X7915420Y-10988460D01*
X7915420Y-10988460D02*
X7896372Y-10997984D01*
X7896372Y-10997984D02*
X7848753Y-10997984D01*
X7848753Y-10997984D02*
X7829706Y-10988460D01*
X7829706Y-10988460D02*
X7820182Y-10978936D01*
X8105896Y-10797984D02*
X8067801Y-10797984D01*
X8067801Y-10797984D02*
X8048753Y-10807508D01*
X8048753Y-10807508D02*
X8039229Y-10817031D01*
X8039229Y-10817031D02*
X8020182Y-10845603D01*
X8020182Y-10845603D02*
X8010658Y-10883698D01*
X8010658Y-10883698D02*
X8010658Y-10959889D01*
X8010658Y-10959889D02*
X8020182Y-10978936D01*
X8020182Y-10978936D02*
X8029706Y-10988460D01*
X8029706Y-10988460D02*
X8048753Y-10997984D01*
X8048753Y-10997984D02*
X8086848Y-10997984D01*
X8086848Y-10997984D02*
X8105896Y-10988460D01*
X8105896Y-10988460D02*
X8115420Y-10978936D01*
X8115420Y-10978936D02*
X8124944Y-10959889D01*
X8124944Y-10959889D02*
X8124944Y-10912270D01*
X8124944Y-10912270D02*
X8115420Y-10893222D01*
X8115420Y-10893222D02*
X8105896Y-10883698D01*
X8105896Y-10883698D02*
X8086848Y-10874174D01*
X8086848Y-10874174D02*
X8048753Y-10874174D01*
X8048753Y-10874174D02*
X8029706Y-10883698D01*
X8029706Y-10883698D02*
X8020182Y-10893222D01*
X8020182Y-10893222D02*
X8010658Y-10912270D01*
X8201134Y-10797984D02*
X8201134Y-10836079D01*
X8277325Y-10797984D02*
X8277325Y-10836079D01*
X8572563Y-11074174D02*
X8563039Y-11064650D01*
X8563039Y-11064650D02*
X8543991Y-11036079D01*
X8543991Y-11036079D02*
X8534468Y-11017031D01*
X8534468Y-11017031D02*
X8524944Y-10988460D01*
X8524944Y-10988460D02*
X8515420Y-10940841D01*
X8515420Y-10940841D02*
X8515420Y-10902746D01*
X8515420Y-10902746D02*
X8524944Y-10855127D01*
X8524944Y-10855127D02*
X8534468Y-10826555D01*
X8534468Y-10826555D02*
X8543991Y-10807508D01*
X8543991Y-10807508D02*
X8563039Y-10778936D01*
X8563039Y-10778936D02*
X8572563Y-10769412D01*
X8686849Y-10797984D02*
X8705896Y-10797984D01*
X8705896Y-10797984D02*
X8724944Y-10807508D01*
X8724944Y-10807508D02*
X8734468Y-10817031D01*
X8734468Y-10817031D02*
X8743991Y-10836079D01*
X8743991Y-10836079D02*
X8753515Y-10874174D01*
X8753515Y-10874174D02*
X8753515Y-10921793D01*
X8753515Y-10921793D02*
X8743991Y-10959889D01*
X8743991Y-10959889D02*
X8734468Y-10978936D01*
X8734468Y-10978936D02*
X8724944Y-10988460D01*
X8724944Y-10988460D02*
X8705896Y-10997984D01*
X8705896Y-10997984D02*
X8686849Y-10997984D01*
X8686849Y-10997984D02*
X8667801Y-10988460D01*
X8667801Y-10988460D02*
X8658277Y-10978936D01*
X8658277Y-10978936D02*
X8648753Y-10959889D01*
X8648753Y-10959889D02*
X8639230Y-10921793D01*
X8639230Y-10921793D02*
X8639230Y-10874174D01*
X8639230Y-10874174D02*
X8648753Y-10836079D01*
X8648753Y-10836079D02*
X8658277Y-10817031D01*
X8658277Y-10817031D02*
X8667801Y-10807508D01*
X8667801Y-10807508D02*
X8686849Y-10797984D01*
X8991611Y-10997984D02*
X8991611Y-10797984D01*
X9077325Y-10997984D02*
X9077325Y-10893222D01*
X9077325Y-10893222D02*
X9067801Y-10874174D01*
X9067801Y-10874174D02*
X9048753Y-10864650D01*
X9048753Y-10864650D02*
X9020182Y-10864650D01*
X9020182Y-10864650D02*
X9001134Y-10874174D01*
X9001134Y-10874174D02*
X8991611Y-10883698D01*
X9201134Y-10997984D02*
X9182087Y-10988460D01*
X9182087Y-10988460D02*
X9172563Y-10978936D01*
X9172563Y-10978936D02*
X9163039Y-10959889D01*
X9163039Y-10959889D02*
X9163039Y-10902746D01*
X9163039Y-10902746D02*
X9172563Y-10883698D01*
X9172563Y-10883698D02*
X9182087Y-10874174D01*
X9182087Y-10874174D02*
X9201134Y-10864650D01*
X9201134Y-10864650D02*
X9229706Y-10864650D01*
X9229706Y-10864650D02*
X9248753Y-10874174D01*
X9248753Y-10874174D02*
X9258277Y-10883698D01*
X9258277Y-10883698D02*
X9267801Y-10902746D01*
X9267801Y-10902746D02*
X9267801Y-10959889D01*
X9267801Y-10959889D02*
X9258277Y-10978936D01*
X9258277Y-10978936D02*
X9248753Y-10988460D01*
X9248753Y-10988460D02*
X9229706Y-10997984D01*
X9229706Y-10997984D02*
X9201134Y-10997984D01*
X9382087Y-10997984D02*
X9363039Y-10988460D01*
X9363039Y-10988460D02*
X9353515Y-10969412D01*
X9353515Y-10969412D02*
X9353515Y-10797984D01*
X9534468Y-10988460D02*
X9515420Y-10997984D01*
X9515420Y-10997984D02*
X9477325Y-10997984D01*
X9477325Y-10997984D02*
X9458277Y-10988460D01*
X9458277Y-10988460D02*
X9448753Y-10969412D01*
X9448753Y-10969412D02*
X9448753Y-10893222D01*
X9448753Y-10893222D02*
X9458277Y-10874174D01*
X9458277Y-10874174D02*
X9477325Y-10864650D01*
X9477325Y-10864650D02*
X9515420Y-10864650D01*
X9515420Y-10864650D02*
X9534468Y-10874174D01*
X9534468Y-10874174D02*
X9543992Y-10893222D01*
X9543992Y-10893222D02*
X9543992Y-10912270D01*
X9543992Y-10912270D02*
X9448753Y-10931317D01*
X9620182Y-10988460D02*
X9639230Y-10997984D01*
X9639230Y-10997984D02*
X9677325Y-10997984D01*
X9677325Y-10997984D02*
X9696373Y-10988460D01*
X9696373Y-10988460D02*
X9705896Y-10969412D01*
X9705896Y-10969412D02*
X9705896Y-10959889D01*
X9705896Y-10959889D02*
X9696373Y-10940841D01*
X9696373Y-10940841D02*
X9677325Y-10931317D01*
X9677325Y-10931317D02*
X9648753Y-10931317D01*
X9648753Y-10931317D02*
X9629706Y-10921793D01*
X9629706Y-10921793D02*
X9620182Y-10902746D01*
X9620182Y-10902746D02*
X9620182Y-10893222D01*
X9620182Y-10893222D02*
X9629706Y-10874174D01*
X9629706Y-10874174D02*
X9648753Y-10864650D01*
X9648753Y-10864650D02*
X9677325Y-10864650D01*
X9677325Y-10864650D02*
X9696373Y-10874174D01*
X9943992Y-10921793D02*
X10096373Y-10921793D01*
X10020182Y-10997984D02*
X10020182Y-10845603D01*
X10334468Y-10817031D02*
X10343992Y-10807508D01*
X10343992Y-10807508D02*
X10363039Y-10797984D01*
X10363039Y-10797984D02*
X10410658Y-10797984D01*
X10410658Y-10797984D02*
X10429706Y-10807508D01*
X10429706Y-10807508D02*
X10439230Y-10817031D01*
X10439230Y-10817031D02*
X10448754Y-10836079D01*
X10448754Y-10836079D02*
X10448754Y-10855127D01*
X10448754Y-10855127D02*
X10439230Y-10883698D01*
X10439230Y-10883698D02*
X10324944Y-10997984D01*
X10324944Y-10997984D02*
X10448754Y-10997984D01*
X10677325Y-10988460D02*
X10696373Y-10997984D01*
X10696373Y-10997984D02*
X10734468Y-10997984D01*
X10734468Y-10997984D02*
X10753516Y-10988460D01*
X10753516Y-10988460D02*
X10763039Y-10969412D01*
X10763039Y-10969412D02*
X10763039Y-10959889D01*
X10763039Y-10959889D02*
X10753516Y-10940841D01*
X10753516Y-10940841D02*
X10734468Y-10931317D01*
X10734468Y-10931317D02*
X10705896Y-10931317D01*
X10705896Y-10931317D02*
X10686849Y-10921793D01*
X10686849Y-10921793D02*
X10677325Y-10902746D01*
X10677325Y-10902746D02*
X10677325Y-10893222D01*
X10677325Y-10893222D02*
X10686849Y-10874174D01*
X10686849Y-10874174D02*
X10705896Y-10864650D01*
X10705896Y-10864650D02*
X10734468Y-10864650D01*
X10734468Y-10864650D02*
X10753516Y-10874174D01*
X10877325Y-10997984D02*
X10858277Y-10988460D01*
X10858277Y-10988460D02*
X10848754Y-10969412D01*
X10848754Y-10969412D02*
X10848754Y-10797984D01*
X10982087Y-10997984D02*
X10963039Y-10988460D01*
X10963039Y-10988460D02*
X10953516Y-10978936D01*
X10953516Y-10978936D02*
X10943992Y-10959889D01*
X10943992Y-10959889D02*
X10943992Y-10902746D01*
X10943992Y-10902746D02*
X10953516Y-10883698D01*
X10953516Y-10883698D02*
X10963039Y-10874174D01*
X10963039Y-10874174D02*
X10982087Y-10864650D01*
X10982087Y-10864650D02*
X11010658Y-10864650D01*
X11010658Y-10864650D02*
X11029706Y-10874174D01*
X11029706Y-10874174D02*
X11039230Y-10883698D01*
X11039230Y-10883698D02*
X11048754Y-10902746D01*
X11048754Y-10902746D02*
X11048754Y-10959889D01*
X11048754Y-10959889D02*
X11039230Y-10978936D01*
X11039230Y-10978936D02*
X11029706Y-10988460D01*
X11029706Y-10988460D02*
X11010658Y-10997984D01*
X11010658Y-10997984D02*
X10982087Y-10997984D01*
X11105897Y-10864650D02*
X11182087Y-10864650D01*
X11134468Y-10797984D02*
X11134468Y-10969412D01*
X11134468Y-10969412D02*
X11143992Y-10988460D01*
X11143992Y-10988460D02*
X11163039Y-10997984D01*
X11163039Y-10997984D02*
X11182087Y-10997984D01*
X11239230Y-10988460D02*
X11258277Y-10997984D01*
X11258277Y-10997984D02*
X11296373Y-10997984D01*
X11296373Y-10997984D02*
X11315420Y-10988460D01*
X11315420Y-10988460D02*
X11324944Y-10969412D01*
X11324944Y-10969412D02*
X11324944Y-10959889D01*
X11324944Y-10959889D02*
X11315420Y-10940841D01*
X11315420Y-10940841D02*
X11296373Y-10931317D01*
X11296373Y-10931317D02*
X11267801Y-10931317D01*
X11267801Y-10931317D02*
X11248754Y-10921793D01*
X11248754Y-10921793D02*
X11239230Y-10902746D01*
X11239230Y-10902746D02*
X11239230Y-10893222D01*
X11239230Y-10893222D02*
X11248754Y-10874174D01*
X11248754Y-10874174D02*
X11267801Y-10864650D01*
X11267801Y-10864650D02*
X11296373Y-10864650D01*
X11296373Y-10864650D02*
X11315420Y-10874174D01*
X11391611Y-11074174D02*
X11401135Y-11064650D01*
X11401135Y-11064650D02*
X11420182Y-11036079D01*
X11420182Y-11036079D02*
X11429706Y-11017031D01*
X11429706Y-11017031D02*
X11439230Y-10988460D01*
X11439230Y-10988460D02*
X11448754Y-10940841D01*
X11448754Y-10940841D02*
X11448754Y-10902746D01*
X11448754Y-10902746D02*
X11439230Y-10855127D01*
X11439230Y-10855127D02*
X11429706Y-10826555D01*
X11429706Y-10826555D02*
X11420182Y-10807508D01*
X11420182Y-10807508D02*
X11401135Y-10778936D01*
X11401135Y-10778936D02*
X11391611Y-10769412D01*
D12*
X4962500Y-11135500D02*
X4962500Y-11205500D01*
X4927500Y-11170500D02*
X4997500Y-11170500D01*
D11*
X5296372Y-11061984D02*
X5315420Y-11061984D01*
X5315420Y-11061984D02*
X5334467Y-11071508D01*
X5334467Y-11071508D02*
X5343991Y-11081031D01*
X5343991Y-11081031D02*
X5353515Y-11100079D01*
X5353515Y-11100079D02*
X5363039Y-11138174D01*
X5363039Y-11138174D02*
X5363039Y-11185793D01*
X5363039Y-11185793D02*
X5353515Y-11223888D01*
X5353515Y-11223888D02*
X5343991Y-11242936D01*
X5343991Y-11242936D02*
X5334467Y-11252460D01*
X5334467Y-11252460D02*
X5315420Y-11261984D01*
X5315420Y-11261984D02*
X5296372Y-11261984D01*
X5296372Y-11261984D02*
X5277324Y-11252460D01*
X5277324Y-11252460D02*
X5267801Y-11242936D01*
X5267801Y-11242936D02*
X5258277Y-11223888D01*
X5258277Y-11223888D02*
X5248753Y-11185793D01*
X5248753Y-11185793D02*
X5248753Y-11138174D01*
X5248753Y-11138174D02*
X5258277Y-11100079D01*
X5258277Y-11100079D02*
X5267801Y-11081031D01*
X5267801Y-11081031D02*
X5277324Y-11071508D01*
X5277324Y-11071508D02*
X5296372Y-11061984D01*
X5448753Y-11242936D02*
X5458277Y-11252460D01*
X5458277Y-11252460D02*
X5448753Y-11261984D01*
X5448753Y-11261984D02*
X5439229Y-11252460D01*
X5439229Y-11252460D02*
X5448753Y-11242936D01*
X5448753Y-11242936D02*
X5448753Y-11261984D01*
X5524944Y-11061984D02*
X5658277Y-11061984D01*
X5658277Y-11061984D02*
X5572563Y-11261984D01*
X5772562Y-11061984D02*
X5791610Y-11061984D01*
X5791610Y-11061984D02*
X5810658Y-11071508D01*
X5810658Y-11071508D02*
X5820182Y-11081031D01*
X5820182Y-11081031D02*
X5829705Y-11100079D01*
X5829705Y-11100079D02*
X5839229Y-11138174D01*
X5839229Y-11138174D02*
X5839229Y-11185793D01*
X5839229Y-11185793D02*
X5829705Y-11223888D01*
X5829705Y-11223888D02*
X5820182Y-11242936D01*
X5820182Y-11242936D02*
X5810658Y-11252460D01*
X5810658Y-11252460D02*
X5791610Y-11261984D01*
X5791610Y-11261984D02*
X5772562Y-11261984D01*
X5772562Y-11261984D02*
X5753515Y-11252460D01*
X5753515Y-11252460D02*
X5743991Y-11242936D01*
X5743991Y-11242936D02*
X5734467Y-11223888D01*
X5734467Y-11223888D02*
X5724943Y-11185793D01*
X5724943Y-11185793D02*
X5724943Y-11138174D01*
X5724943Y-11138174D02*
X5734467Y-11100079D01*
X5734467Y-11100079D02*
X5743991Y-11081031D01*
X5743991Y-11081031D02*
X5753515Y-11071508D01*
X5753515Y-11071508D02*
X5772562Y-11061984D01*
X5963039Y-11061984D02*
X5982086Y-11061984D01*
X5982086Y-11061984D02*
X6001134Y-11071508D01*
X6001134Y-11071508D02*
X6010658Y-11081031D01*
X6010658Y-11081031D02*
X6020182Y-11100079D01*
X6020182Y-11100079D02*
X6029705Y-11138174D01*
X6029705Y-11138174D02*
X6029705Y-11185793D01*
X6029705Y-11185793D02*
X6020182Y-11223888D01*
X6020182Y-11223888D02*
X6010658Y-11242936D01*
X6010658Y-11242936D02*
X6001134Y-11252460D01*
X6001134Y-11252460D02*
X5982086Y-11261984D01*
X5982086Y-11261984D02*
X5963039Y-11261984D01*
X5963039Y-11261984D02*
X5943991Y-11252460D01*
X5943991Y-11252460D02*
X5934467Y-11242936D01*
X5934467Y-11242936D02*
X5924943Y-11223888D01*
X5924943Y-11223888D02*
X5915420Y-11185793D01*
X5915420Y-11185793D02*
X5915420Y-11138174D01*
X5915420Y-11138174D02*
X5924943Y-11100079D01*
X5924943Y-11100079D02*
X5934467Y-11081031D01*
X5934467Y-11081031D02*
X5943991Y-11071508D01*
X5943991Y-11071508D02*
X5963039Y-11061984D01*
X6115420Y-11261984D02*
X6115420Y-11128650D01*
X6115420Y-11147698D02*
X6124943Y-11138174D01*
X6124943Y-11138174D02*
X6143991Y-11128650D01*
X6143991Y-11128650D02*
X6172563Y-11128650D01*
X6172563Y-11128650D02*
X6191610Y-11138174D01*
X6191610Y-11138174D02*
X6201134Y-11157222D01*
X6201134Y-11157222D02*
X6201134Y-11261984D01*
X6201134Y-11157222D02*
X6210658Y-11138174D01*
X6210658Y-11138174D02*
X6229705Y-11128650D01*
X6229705Y-11128650D02*
X6258277Y-11128650D01*
X6258277Y-11128650D02*
X6277324Y-11138174D01*
X6277324Y-11138174D02*
X6286848Y-11157222D01*
X6286848Y-11157222D02*
X6286848Y-11261984D01*
X6382086Y-11261984D02*
X6382086Y-11128650D01*
X6382086Y-11147698D02*
X6391610Y-11138174D01*
X6391610Y-11138174D02*
X6410658Y-11128650D01*
X6410658Y-11128650D02*
X6439229Y-11128650D01*
X6439229Y-11128650D02*
X6458277Y-11138174D01*
X6458277Y-11138174D02*
X6467801Y-11157222D01*
X6467801Y-11157222D02*
X6467801Y-11261984D01*
X6467801Y-11157222D02*
X6477324Y-11138174D01*
X6477324Y-11138174D02*
X6496372Y-11128650D01*
X6496372Y-11128650D02*
X6524943Y-11128650D01*
X6524943Y-11128650D02*
X6543991Y-11138174D01*
X6543991Y-11138174D02*
X6553515Y-11157222D01*
X6553515Y-11157222D02*
X6553515Y-11261984D01*
X6943991Y-11052460D02*
X6772563Y-11309603D01*
X7201134Y-11061984D02*
X7220182Y-11061984D01*
X7220182Y-11061984D02*
X7239229Y-11071508D01*
X7239229Y-11071508D02*
X7248753Y-11081031D01*
X7248753Y-11081031D02*
X7258277Y-11100079D01*
X7258277Y-11100079D02*
X7267801Y-11138174D01*
X7267801Y-11138174D02*
X7267801Y-11185793D01*
X7267801Y-11185793D02*
X7258277Y-11223888D01*
X7258277Y-11223888D02*
X7248753Y-11242936D01*
X7248753Y-11242936D02*
X7239229Y-11252460D01*
X7239229Y-11252460D02*
X7220182Y-11261984D01*
X7220182Y-11261984D02*
X7201134Y-11261984D01*
X7201134Y-11261984D02*
X7182086Y-11252460D01*
X7182086Y-11252460D02*
X7172563Y-11242936D01*
X7172563Y-11242936D02*
X7163039Y-11223888D01*
X7163039Y-11223888D02*
X7153515Y-11185793D01*
X7153515Y-11185793D02*
X7153515Y-11138174D01*
X7153515Y-11138174D02*
X7163039Y-11100079D01*
X7163039Y-11100079D02*
X7172563Y-11081031D01*
X7172563Y-11081031D02*
X7182086Y-11071508D01*
X7182086Y-11071508D02*
X7201134Y-11061984D01*
X7353515Y-11242936D02*
X7363039Y-11252460D01*
X7363039Y-11252460D02*
X7353515Y-11261984D01*
X7353515Y-11261984D02*
X7343991Y-11252460D01*
X7343991Y-11252460D02*
X7353515Y-11242936D01*
X7353515Y-11242936D02*
X7353515Y-11261984D01*
X7486848Y-11061984D02*
X7505896Y-11061984D01*
X7505896Y-11061984D02*
X7524944Y-11071508D01*
X7524944Y-11071508D02*
X7534467Y-11081031D01*
X7534467Y-11081031D02*
X7543991Y-11100079D01*
X7543991Y-11100079D02*
X7553515Y-11138174D01*
X7553515Y-11138174D02*
X7553515Y-11185793D01*
X7553515Y-11185793D02*
X7543991Y-11223888D01*
X7543991Y-11223888D02*
X7534467Y-11242936D01*
X7534467Y-11242936D02*
X7524944Y-11252460D01*
X7524944Y-11252460D02*
X7505896Y-11261984D01*
X7505896Y-11261984D02*
X7486848Y-11261984D01*
X7486848Y-11261984D02*
X7467801Y-11252460D01*
X7467801Y-11252460D02*
X7458277Y-11242936D01*
X7458277Y-11242936D02*
X7448753Y-11223888D01*
X7448753Y-11223888D02*
X7439229Y-11185793D01*
X7439229Y-11185793D02*
X7439229Y-11138174D01*
X7439229Y-11138174D02*
X7448753Y-11100079D01*
X7448753Y-11100079D02*
X7458277Y-11081031D01*
X7458277Y-11081031D02*
X7467801Y-11071508D01*
X7467801Y-11071508D02*
X7486848Y-11061984D01*
X7629706Y-11081031D02*
X7639229Y-11071508D01*
X7639229Y-11071508D02*
X7658277Y-11061984D01*
X7658277Y-11061984D02*
X7705896Y-11061984D01*
X7705896Y-11061984D02*
X7724944Y-11071508D01*
X7724944Y-11071508D02*
X7734467Y-11081031D01*
X7734467Y-11081031D02*
X7743991Y-11100079D01*
X7743991Y-11100079D02*
X7743991Y-11119127D01*
X7743991Y-11119127D02*
X7734467Y-11147698D01*
X7734467Y-11147698D02*
X7620182Y-11261984D01*
X7620182Y-11261984D02*
X7743991Y-11261984D01*
X7810658Y-11061984D02*
X7943991Y-11061984D01*
X7943991Y-11061984D02*
X7858277Y-11261984D01*
X8105896Y-11061984D02*
X8067801Y-11061984D01*
X8067801Y-11061984D02*
X8048753Y-11071508D01*
X8048753Y-11071508D02*
X8039229Y-11081031D01*
X8039229Y-11081031D02*
X8020182Y-11109603D01*
X8020182Y-11109603D02*
X8010658Y-11147698D01*
X8010658Y-11147698D02*
X8010658Y-11223888D01*
X8010658Y-11223888D02*
X8020182Y-11242936D01*
X8020182Y-11242936D02*
X8029706Y-11252460D01*
X8029706Y-11252460D02*
X8048753Y-11261984D01*
X8048753Y-11261984D02*
X8086848Y-11261984D01*
X8086848Y-11261984D02*
X8105896Y-11252460D01*
X8105896Y-11252460D02*
X8115420Y-11242936D01*
X8115420Y-11242936D02*
X8124944Y-11223888D01*
X8124944Y-11223888D02*
X8124944Y-11176270D01*
X8124944Y-11176270D02*
X8115420Y-11157222D01*
X8115420Y-11157222D02*
X8105896Y-11147698D01*
X8105896Y-11147698D02*
X8086848Y-11138174D01*
X8086848Y-11138174D02*
X8048753Y-11138174D01*
X8048753Y-11138174D02*
X8029706Y-11147698D01*
X8029706Y-11147698D02*
X8020182Y-11157222D01*
X8020182Y-11157222D02*
X8010658Y-11176270D01*
X8201134Y-11061984D02*
X8201134Y-11100079D01*
X8277325Y-11061984D02*
X8277325Y-11100079D01*
X8572563Y-11338174D02*
X8563039Y-11328650D01*
X8563039Y-11328650D02*
X8543991Y-11300079D01*
X8543991Y-11300079D02*
X8534468Y-11281031D01*
X8534468Y-11281031D02*
X8524944Y-11252460D01*
X8524944Y-11252460D02*
X8515420Y-11204841D01*
X8515420Y-11204841D02*
X8515420Y-11166746D01*
X8515420Y-11166746D02*
X8524944Y-11119127D01*
X8524944Y-11119127D02*
X8534468Y-11090555D01*
X8534468Y-11090555D02*
X8543991Y-11071508D01*
X8543991Y-11071508D02*
X8563039Y-11042936D01*
X8563039Y-11042936D02*
X8572563Y-11033412D01*
X8686849Y-11061984D02*
X8705896Y-11061984D01*
X8705896Y-11061984D02*
X8724944Y-11071508D01*
X8724944Y-11071508D02*
X8734468Y-11081031D01*
X8734468Y-11081031D02*
X8743991Y-11100079D01*
X8743991Y-11100079D02*
X8753515Y-11138174D01*
X8753515Y-11138174D02*
X8753515Y-11185793D01*
X8753515Y-11185793D02*
X8743991Y-11223888D01*
X8743991Y-11223888D02*
X8734468Y-11242936D01*
X8734468Y-11242936D02*
X8724944Y-11252460D01*
X8724944Y-11252460D02*
X8705896Y-11261984D01*
X8705896Y-11261984D02*
X8686849Y-11261984D01*
X8686849Y-11261984D02*
X8667801Y-11252460D01*
X8667801Y-11252460D02*
X8658277Y-11242936D01*
X8658277Y-11242936D02*
X8648753Y-11223888D01*
X8648753Y-11223888D02*
X8639230Y-11185793D01*
X8639230Y-11185793D02*
X8639230Y-11138174D01*
X8639230Y-11138174D02*
X8648753Y-11100079D01*
X8648753Y-11100079D02*
X8658277Y-11081031D01*
X8658277Y-11081031D02*
X8667801Y-11071508D01*
X8667801Y-11071508D02*
X8686849Y-11061984D01*
X8991611Y-11261984D02*
X8991611Y-11061984D01*
X9077325Y-11261984D02*
X9077325Y-11157222D01*
X9077325Y-11157222D02*
X9067801Y-11138174D01*
X9067801Y-11138174D02*
X9048753Y-11128650D01*
X9048753Y-11128650D02*
X9020182Y-11128650D01*
X9020182Y-11128650D02*
X9001134Y-11138174D01*
X9001134Y-11138174D02*
X8991611Y-11147698D01*
X9201134Y-11261984D02*
X9182087Y-11252460D01*
X9182087Y-11252460D02*
X9172563Y-11242936D01*
X9172563Y-11242936D02*
X9163039Y-11223888D01*
X9163039Y-11223888D02*
X9163039Y-11166746D01*
X9163039Y-11166746D02*
X9172563Y-11147698D01*
X9172563Y-11147698D02*
X9182087Y-11138174D01*
X9182087Y-11138174D02*
X9201134Y-11128650D01*
X9201134Y-11128650D02*
X9229706Y-11128650D01*
X9229706Y-11128650D02*
X9248753Y-11138174D01*
X9248753Y-11138174D02*
X9258277Y-11147698D01*
X9258277Y-11147698D02*
X9267801Y-11166746D01*
X9267801Y-11166746D02*
X9267801Y-11223888D01*
X9267801Y-11223888D02*
X9258277Y-11242936D01*
X9258277Y-11242936D02*
X9248753Y-11252460D01*
X9248753Y-11252460D02*
X9229706Y-11261984D01*
X9229706Y-11261984D02*
X9201134Y-11261984D01*
X9382087Y-11261984D02*
X9363039Y-11252460D01*
X9363039Y-11252460D02*
X9353515Y-11233412D01*
X9353515Y-11233412D02*
X9353515Y-11061984D01*
X9534468Y-11252460D02*
X9515420Y-11261984D01*
X9515420Y-11261984D02*
X9477325Y-11261984D01*
X9477325Y-11261984D02*
X9458277Y-11252460D01*
X9458277Y-11252460D02*
X9448753Y-11233412D01*
X9448753Y-11233412D02*
X9448753Y-11157222D01*
X9448753Y-11157222D02*
X9458277Y-11138174D01*
X9458277Y-11138174D02*
X9477325Y-11128650D01*
X9477325Y-11128650D02*
X9515420Y-11128650D01*
X9515420Y-11128650D02*
X9534468Y-11138174D01*
X9534468Y-11138174D02*
X9543992Y-11157222D01*
X9543992Y-11157222D02*
X9543992Y-11176270D01*
X9543992Y-11176270D02*
X9448753Y-11195317D01*
X9620182Y-11252460D02*
X9639230Y-11261984D01*
X9639230Y-11261984D02*
X9677325Y-11261984D01*
X9677325Y-11261984D02*
X9696373Y-11252460D01*
X9696373Y-11252460D02*
X9705896Y-11233412D01*
X9705896Y-11233412D02*
X9705896Y-11223888D01*
X9705896Y-11223888D02*
X9696373Y-11204841D01*
X9696373Y-11204841D02*
X9677325Y-11195317D01*
X9677325Y-11195317D02*
X9648753Y-11195317D01*
X9648753Y-11195317D02*
X9629706Y-11185793D01*
X9629706Y-11185793D02*
X9620182Y-11166746D01*
X9620182Y-11166746D02*
X9620182Y-11157222D01*
X9620182Y-11157222D02*
X9629706Y-11138174D01*
X9629706Y-11138174D02*
X9648753Y-11128650D01*
X9648753Y-11128650D02*
X9677325Y-11128650D01*
X9677325Y-11128650D02*
X9696373Y-11138174D01*
X9943992Y-11185793D02*
X10096373Y-11185793D01*
X10020182Y-11261984D02*
X10020182Y-11109603D01*
X10334468Y-11081031D02*
X10343992Y-11071508D01*
X10343992Y-11071508D02*
X10363039Y-11061984D01*
X10363039Y-11061984D02*
X10410658Y-11061984D01*
X10410658Y-11061984D02*
X10429706Y-11071508D01*
X10429706Y-11071508D02*
X10439230Y-11081031D01*
X10439230Y-11081031D02*
X10448754Y-11100079D01*
X10448754Y-11100079D02*
X10448754Y-11119127D01*
X10448754Y-11119127D02*
X10439230Y-11147698D01*
X10439230Y-11147698D02*
X10324944Y-11261984D01*
X10324944Y-11261984D02*
X10448754Y-11261984D01*
X10677325Y-11252460D02*
X10696373Y-11261984D01*
X10696373Y-11261984D02*
X10734468Y-11261984D01*
X10734468Y-11261984D02*
X10753516Y-11252460D01*
X10753516Y-11252460D02*
X10763039Y-11233412D01*
X10763039Y-11233412D02*
X10763039Y-11223888D01*
X10763039Y-11223888D02*
X10753516Y-11204841D01*
X10753516Y-11204841D02*
X10734468Y-11195317D01*
X10734468Y-11195317D02*
X10705896Y-11195317D01*
X10705896Y-11195317D02*
X10686849Y-11185793D01*
X10686849Y-11185793D02*
X10677325Y-11166746D01*
X10677325Y-11166746D02*
X10677325Y-11157222D01*
X10677325Y-11157222D02*
X10686849Y-11138174D01*
X10686849Y-11138174D02*
X10705896Y-11128650D01*
X10705896Y-11128650D02*
X10734468Y-11128650D01*
X10734468Y-11128650D02*
X10753516Y-11138174D01*
X10877325Y-11261984D02*
X10858277Y-11252460D01*
X10858277Y-11252460D02*
X10848754Y-11233412D01*
X10848754Y-11233412D02*
X10848754Y-11061984D01*
X10982087Y-11261984D02*
X10963039Y-11252460D01*
X10963039Y-11252460D02*
X10953516Y-11242936D01*
X10953516Y-11242936D02*
X10943992Y-11223888D01*
X10943992Y-11223888D02*
X10943992Y-11166746D01*
X10943992Y-11166746D02*
X10953516Y-11147698D01*
X10953516Y-11147698D02*
X10963039Y-11138174D01*
X10963039Y-11138174D02*
X10982087Y-11128650D01*
X10982087Y-11128650D02*
X11010658Y-11128650D01*
X11010658Y-11128650D02*
X11029706Y-11138174D01*
X11029706Y-11138174D02*
X11039230Y-11147698D01*
X11039230Y-11147698D02*
X11048754Y-11166746D01*
X11048754Y-11166746D02*
X11048754Y-11223888D01*
X11048754Y-11223888D02*
X11039230Y-11242936D01*
X11039230Y-11242936D02*
X11029706Y-11252460D01*
X11029706Y-11252460D02*
X11010658Y-11261984D01*
X11010658Y-11261984D02*
X10982087Y-11261984D01*
X11105897Y-11128650D02*
X11182087Y-11128650D01*
X11134468Y-11061984D02*
X11134468Y-11233412D01*
X11134468Y-11233412D02*
X11143992Y-11252460D01*
X11143992Y-11252460D02*
X11163039Y-11261984D01*
X11163039Y-11261984D02*
X11182087Y-11261984D01*
X11239230Y-11252460D02*
X11258277Y-11261984D01*
X11258277Y-11261984D02*
X11296373Y-11261984D01*
X11296373Y-11261984D02*
X11315420Y-11252460D01*
X11315420Y-11252460D02*
X11324944Y-11233412D01*
X11324944Y-11233412D02*
X11324944Y-11223888D01*
X11324944Y-11223888D02*
X11315420Y-11204841D01*
X11315420Y-11204841D02*
X11296373Y-11195317D01*
X11296373Y-11195317D02*
X11267801Y-11195317D01*
X11267801Y-11195317D02*
X11248754Y-11185793D01*
X11248754Y-11185793D02*
X11239230Y-11166746D01*
X11239230Y-11166746D02*
X11239230Y-11157222D01*
X11239230Y-11157222D02*
X11248754Y-11138174D01*
X11248754Y-11138174D02*
X11267801Y-11128650D01*
X11267801Y-11128650D02*
X11296373Y-11128650D01*
X11296373Y-11128650D02*
X11315420Y-11138174D01*
X11391611Y-11338174D02*
X11401135Y-11328650D01*
X11401135Y-11328650D02*
X11420182Y-11300079D01*
X11420182Y-11300079D02*
X11429706Y-11281031D01*
X11429706Y-11281031D02*
X11439230Y-11252460D01*
X11439230Y-11252460D02*
X11448754Y-11204841D01*
X11448754Y-11204841D02*
X11448754Y-11166746D01*
X11448754Y-11166746D02*
X11439230Y-11119127D01*
X11439230Y-11119127D02*
X11429706Y-11090555D01*
X11429706Y-11090555D02*
X11420182Y-11071508D01*
X11420182Y-11071508D02*
X11401135Y-11042936D01*
X11401135Y-11042936D02*
X11391611Y-11033412D01*
D13*
X4982563Y-11470563D02*
X4982563Y-11398437D01*
X4910437Y-11398437D01*
X4910437Y-11470563D01*
X4982563Y-11470563D01*
D11*
X5363039Y-11525984D02*
X5248753Y-11525984D01*
X5305896Y-11525984D02*
X5305896Y-11325984D01*
X5305896Y-11325984D02*
X5286848Y-11354555D01*
X5286848Y-11354555D02*
X5267801Y-11373603D01*
X5267801Y-11373603D02*
X5248753Y-11383127D01*
X5448753Y-11506936D02*
X5458277Y-11516460D01*
X5458277Y-11516460D02*
X5448753Y-11525984D01*
X5448753Y-11525984D02*
X5439229Y-11516460D01*
X5439229Y-11516460D02*
X5448753Y-11506936D01*
X5448753Y-11506936D02*
X5448753Y-11525984D01*
X5582086Y-11325984D02*
X5601134Y-11325984D01*
X5601134Y-11325984D02*
X5620182Y-11335508D01*
X5620182Y-11335508D02*
X5629705Y-11345031D01*
X5629705Y-11345031D02*
X5639229Y-11364079D01*
X5639229Y-11364079D02*
X5648753Y-11402174D01*
X5648753Y-11402174D02*
X5648753Y-11449793D01*
X5648753Y-11449793D02*
X5639229Y-11487888D01*
X5639229Y-11487888D02*
X5629705Y-11506936D01*
X5629705Y-11506936D02*
X5620182Y-11516460D01*
X5620182Y-11516460D02*
X5601134Y-11525984D01*
X5601134Y-11525984D02*
X5582086Y-11525984D01*
X5582086Y-11525984D02*
X5563039Y-11516460D01*
X5563039Y-11516460D02*
X5553515Y-11506936D01*
X5553515Y-11506936D02*
X5543991Y-11487888D01*
X5543991Y-11487888D02*
X5534467Y-11449793D01*
X5534467Y-11449793D02*
X5534467Y-11402174D01*
X5534467Y-11402174D02*
X5543991Y-11364079D01*
X5543991Y-11364079D02*
X5553515Y-11345031D01*
X5553515Y-11345031D02*
X5563039Y-11335508D01*
X5563039Y-11335508D02*
X5582086Y-11325984D01*
X5724943Y-11345031D02*
X5734467Y-11335508D01*
X5734467Y-11335508D02*
X5753515Y-11325984D01*
X5753515Y-11325984D02*
X5801134Y-11325984D01*
X5801134Y-11325984D02*
X5820182Y-11335508D01*
X5820182Y-11335508D02*
X5829705Y-11345031D01*
X5829705Y-11345031D02*
X5839229Y-11364079D01*
X5839229Y-11364079D02*
X5839229Y-11383127D01*
X5839229Y-11383127D02*
X5829705Y-11411698D01*
X5829705Y-11411698D02*
X5715420Y-11525984D01*
X5715420Y-11525984D02*
X5839229Y-11525984D01*
X5963039Y-11325984D02*
X5982086Y-11325984D01*
X5982086Y-11325984D02*
X6001134Y-11335508D01*
X6001134Y-11335508D02*
X6010658Y-11345031D01*
X6010658Y-11345031D02*
X6020182Y-11364079D01*
X6020182Y-11364079D02*
X6029705Y-11402174D01*
X6029705Y-11402174D02*
X6029705Y-11449793D01*
X6029705Y-11449793D02*
X6020182Y-11487888D01*
X6020182Y-11487888D02*
X6010658Y-11506936D01*
X6010658Y-11506936D02*
X6001134Y-11516460D01*
X6001134Y-11516460D02*
X5982086Y-11525984D01*
X5982086Y-11525984D02*
X5963039Y-11525984D01*
X5963039Y-11525984D02*
X5943991Y-11516460D01*
X5943991Y-11516460D02*
X5934467Y-11506936D01*
X5934467Y-11506936D02*
X5924943Y-11487888D01*
X5924943Y-11487888D02*
X5915420Y-11449793D01*
X5915420Y-11449793D02*
X5915420Y-11402174D01*
X5915420Y-11402174D02*
X5924943Y-11364079D01*
X5924943Y-11364079D02*
X5934467Y-11345031D01*
X5934467Y-11345031D02*
X5943991Y-11335508D01*
X5943991Y-11335508D02*
X5963039Y-11325984D01*
X6115420Y-11525984D02*
X6115420Y-11392650D01*
X6115420Y-11411698D02*
X6124943Y-11402174D01*
X6124943Y-11402174D02*
X6143991Y-11392650D01*
X6143991Y-11392650D02*
X6172563Y-11392650D01*
X6172563Y-11392650D02*
X6191610Y-11402174D01*
X6191610Y-11402174D02*
X6201134Y-11421222D01*
X6201134Y-11421222D02*
X6201134Y-11525984D01*
X6201134Y-11421222D02*
X6210658Y-11402174D01*
X6210658Y-11402174D02*
X6229705Y-11392650D01*
X6229705Y-11392650D02*
X6258277Y-11392650D01*
X6258277Y-11392650D02*
X6277324Y-11402174D01*
X6277324Y-11402174D02*
X6286848Y-11421222D01*
X6286848Y-11421222D02*
X6286848Y-11525984D01*
X6382086Y-11525984D02*
X6382086Y-11392650D01*
X6382086Y-11411698D02*
X6391610Y-11402174D01*
X6391610Y-11402174D02*
X6410658Y-11392650D01*
X6410658Y-11392650D02*
X6439229Y-11392650D01*
X6439229Y-11392650D02*
X6458277Y-11402174D01*
X6458277Y-11402174D02*
X6467801Y-11421222D01*
X6467801Y-11421222D02*
X6467801Y-11525984D01*
X6467801Y-11421222D02*
X6477324Y-11402174D01*
X6477324Y-11402174D02*
X6496372Y-11392650D01*
X6496372Y-11392650D02*
X6524943Y-11392650D01*
X6524943Y-11392650D02*
X6543991Y-11402174D01*
X6543991Y-11402174D02*
X6553515Y-11421222D01*
X6553515Y-11421222D02*
X6553515Y-11525984D01*
X6943991Y-11316460D02*
X6772563Y-11573603D01*
X7201134Y-11325984D02*
X7220182Y-11325984D01*
X7220182Y-11325984D02*
X7239229Y-11335508D01*
X7239229Y-11335508D02*
X7248753Y-11345031D01*
X7248753Y-11345031D02*
X7258277Y-11364079D01*
X7258277Y-11364079D02*
X7267801Y-11402174D01*
X7267801Y-11402174D02*
X7267801Y-11449793D01*
X7267801Y-11449793D02*
X7258277Y-11487888D01*
X7258277Y-11487888D02*
X7248753Y-11506936D01*
X7248753Y-11506936D02*
X7239229Y-11516460D01*
X7239229Y-11516460D02*
X7220182Y-11525984D01*
X7220182Y-11525984D02*
X7201134Y-11525984D01*
X7201134Y-11525984D02*
X7182086Y-11516460D01*
X7182086Y-11516460D02*
X7172563Y-11506936D01*
X7172563Y-11506936D02*
X7163039Y-11487888D01*
X7163039Y-11487888D02*
X7153515Y-11449793D01*
X7153515Y-11449793D02*
X7153515Y-11402174D01*
X7153515Y-11402174D02*
X7163039Y-11364079D01*
X7163039Y-11364079D02*
X7172563Y-11345031D01*
X7172563Y-11345031D02*
X7182086Y-11335508D01*
X7182086Y-11335508D02*
X7201134Y-11325984D01*
X7353515Y-11506936D02*
X7363039Y-11516460D01*
X7363039Y-11516460D02*
X7353515Y-11525984D01*
X7353515Y-11525984D02*
X7343991Y-11516460D01*
X7343991Y-11516460D02*
X7353515Y-11506936D01*
X7353515Y-11506936D02*
X7353515Y-11525984D01*
X7486848Y-11325984D02*
X7505896Y-11325984D01*
X7505896Y-11325984D02*
X7524944Y-11335508D01*
X7524944Y-11335508D02*
X7534467Y-11345031D01*
X7534467Y-11345031D02*
X7543991Y-11364079D01*
X7543991Y-11364079D02*
X7553515Y-11402174D01*
X7553515Y-11402174D02*
X7553515Y-11449793D01*
X7553515Y-11449793D02*
X7543991Y-11487888D01*
X7543991Y-11487888D02*
X7534467Y-11506936D01*
X7534467Y-11506936D02*
X7524944Y-11516460D01*
X7524944Y-11516460D02*
X7505896Y-11525984D01*
X7505896Y-11525984D02*
X7486848Y-11525984D01*
X7486848Y-11525984D02*
X7467801Y-11516460D01*
X7467801Y-11516460D02*
X7458277Y-11506936D01*
X7458277Y-11506936D02*
X7448753Y-11487888D01*
X7448753Y-11487888D02*
X7439229Y-11449793D01*
X7439229Y-11449793D02*
X7439229Y-11402174D01*
X7439229Y-11402174D02*
X7448753Y-11364079D01*
X7448753Y-11364079D02*
X7458277Y-11345031D01*
X7458277Y-11345031D02*
X7467801Y-11335508D01*
X7467801Y-11335508D02*
X7486848Y-11325984D01*
X7724944Y-11392650D02*
X7724944Y-11525984D01*
X7677325Y-11316460D02*
X7629706Y-11459317D01*
X7629706Y-11459317D02*
X7753515Y-11459317D01*
X7867801Y-11325984D02*
X7886848Y-11325984D01*
X7886848Y-11325984D02*
X7905896Y-11335508D01*
X7905896Y-11335508D02*
X7915420Y-11345031D01*
X7915420Y-11345031D02*
X7924944Y-11364079D01*
X7924944Y-11364079D02*
X7934467Y-11402174D01*
X7934467Y-11402174D02*
X7934467Y-11449793D01*
X7934467Y-11449793D02*
X7924944Y-11487888D01*
X7924944Y-11487888D02*
X7915420Y-11506936D01*
X7915420Y-11506936D02*
X7905896Y-11516460D01*
X7905896Y-11516460D02*
X7886848Y-11525984D01*
X7886848Y-11525984D02*
X7867801Y-11525984D01*
X7867801Y-11525984D02*
X7848753Y-11516460D01*
X7848753Y-11516460D02*
X7839229Y-11506936D01*
X7839229Y-11506936D02*
X7829706Y-11487888D01*
X7829706Y-11487888D02*
X7820182Y-11449793D01*
X7820182Y-11449793D02*
X7820182Y-11402174D01*
X7820182Y-11402174D02*
X7829706Y-11364079D01*
X7829706Y-11364079D02*
X7839229Y-11345031D01*
X7839229Y-11345031D02*
X7848753Y-11335508D01*
X7848753Y-11335508D02*
X7867801Y-11325984D01*
X8010658Y-11345031D02*
X8020182Y-11335508D01*
X8020182Y-11335508D02*
X8039229Y-11325984D01*
X8039229Y-11325984D02*
X8086848Y-11325984D01*
X8086848Y-11325984D02*
X8105896Y-11335508D01*
X8105896Y-11335508D02*
X8115420Y-11345031D01*
X8115420Y-11345031D02*
X8124944Y-11364079D01*
X8124944Y-11364079D02*
X8124944Y-11383127D01*
X8124944Y-11383127D02*
X8115420Y-11411698D01*
X8115420Y-11411698D02*
X8001134Y-11525984D01*
X8001134Y-11525984D02*
X8124944Y-11525984D01*
X8201134Y-11325984D02*
X8201134Y-11364079D01*
X8277325Y-11325984D02*
X8277325Y-11364079D01*
X8572563Y-11602174D02*
X8563039Y-11592650D01*
X8563039Y-11592650D02*
X8543991Y-11564079D01*
X8543991Y-11564079D02*
X8534468Y-11545031D01*
X8534468Y-11545031D02*
X8524944Y-11516460D01*
X8524944Y-11516460D02*
X8515420Y-11468841D01*
X8515420Y-11468841D02*
X8515420Y-11430746D01*
X8515420Y-11430746D02*
X8524944Y-11383127D01*
X8524944Y-11383127D02*
X8534468Y-11354555D01*
X8534468Y-11354555D02*
X8543991Y-11335508D01*
X8543991Y-11335508D02*
X8563039Y-11306936D01*
X8563039Y-11306936D02*
X8572563Y-11297412D01*
X8753515Y-11525984D02*
X8639230Y-11525984D01*
X8696372Y-11525984D02*
X8696372Y-11325984D01*
X8696372Y-11325984D02*
X8677325Y-11354555D01*
X8677325Y-11354555D02*
X8658277Y-11373603D01*
X8658277Y-11373603D02*
X8639230Y-11383127D01*
X8829706Y-11345031D02*
X8839230Y-11335508D01*
X8839230Y-11335508D02*
X8858277Y-11325984D01*
X8858277Y-11325984D02*
X8905896Y-11325984D01*
X8905896Y-11325984D02*
X8924944Y-11335508D01*
X8924944Y-11335508D02*
X8934468Y-11345031D01*
X8934468Y-11345031D02*
X8943991Y-11364079D01*
X8943991Y-11364079D02*
X8943991Y-11383127D01*
X8943991Y-11383127D02*
X8934468Y-11411698D01*
X8934468Y-11411698D02*
X8820182Y-11525984D01*
X8820182Y-11525984D02*
X8943991Y-11525984D01*
X9182087Y-11525984D02*
X9182087Y-11325984D01*
X9267801Y-11525984D02*
X9267801Y-11421222D01*
X9267801Y-11421222D02*
X9258277Y-11402174D01*
X9258277Y-11402174D02*
X9239230Y-11392650D01*
X9239230Y-11392650D02*
X9210658Y-11392650D01*
X9210658Y-11392650D02*
X9191611Y-11402174D01*
X9191611Y-11402174D02*
X9182087Y-11411698D01*
X9391611Y-11525984D02*
X9372563Y-11516460D01*
X9372563Y-11516460D02*
X9363039Y-11506936D01*
X9363039Y-11506936D02*
X9353515Y-11487888D01*
X9353515Y-11487888D02*
X9353515Y-11430746D01*
X9353515Y-11430746D02*
X9363039Y-11411698D01*
X9363039Y-11411698D02*
X9372563Y-11402174D01*
X9372563Y-11402174D02*
X9391611Y-11392650D01*
X9391611Y-11392650D02*
X9420182Y-11392650D01*
X9420182Y-11392650D02*
X9439230Y-11402174D01*
X9439230Y-11402174D02*
X9448753Y-11411698D01*
X9448753Y-11411698D02*
X9458277Y-11430746D01*
X9458277Y-11430746D02*
X9458277Y-11487888D01*
X9458277Y-11487888D02*
X9448753Y-11506936D01*
X9448753Y-11506936D02*
X9439230Y-11516460D01*
X9439230Y-11516460D02*
X9420182Y-11525984D01*
X9420182Y-11525984D02*
X9391611Y-11525984D01*
X9572563Y-11525984D02*
X9553515Y-11516460D01*
X9553515Y-11516460D02*
X9543992Y-11497412D01*
X9543992Y-11497412D02*
X9543992Y-11325984D01*
X9724944Y-11516460D02*
X9705896Y-11525984D01*
X9705896Y-11525984D02*
X9667801Y-11525984D01*
X9667801Y-11525984D02*
X9648753Y-11516460D01*
X9648753Y-11516460D02*
X9639230Y-11497412D01*
X9639230Y-11497412D02*
X9639230Y-11421222D01*
X9639230Y-11421222D02*
X9648753Y-11402174D01*
X9648753Y-11402174D02*
X9667801Y-11392650D01*
X9667801Y-11392650D02*
X9705896Y-11392650D01*
X9705896Y-11392650D02*
X9724944Y-11402174D01*
X9724944Y-11402174D02*
X9734468Y-11421222D01*
X9734468Y-11421222D02*
X9734468Y-11440269D01*
X9734468Y-11440269D02*
X9639230Y-11459317D01*
X9810658Y-11516460D02*
X9829706Y-11525984D01*
X9829706Y-11525984D02*
X9867801Y-11525984D01*
X9867801Y-11525984D02*
X9886849Y-11516460D01*
X9886849Y-11516460D02*
X9896373Y-11497412D01*
X9896373Y-11497412D02*
X9896373Y-11487888D01*
X9896373Y-11487888D02*
X9886849Y-11468841D01*
X9886849Y-11468841D02*
X9867801Y-11459317D01*
X9867801Y-11459317D02*
X9839230Y-11459317D01*
X9839230Y-11459317D02*
X9820182Y-11449793D01*
X9820182Y-11449793D02*
X9810658Y-11430746D01*
X9810658Y-11430746D02*
X9810658Y-11421222D01*
X9810658Y-11421222D02*
X9820182Y-11402174D01*
X9820182Y-11402174D02*
X9839230Y-11392650D01*
X9839230Y-11392650D02*
X9867801Y-11392650D01*
X9867801Y-11392650D02*
X9886849Y-11402174D01*
X9963039Y-11602174D02*
X9972563Y-11592650D01*
X9972563Y-11592650D02*
X9991611Y-11564079D01*
X9991611Y-11564079D02*
X10001134Y-11545031D01*
X10001134Y-11545031D02*
X10010658Y-11516460D01*
X10010658Y-11516460D02*
X10020182Y-11468841D01*
X10020182Y-11468841D02*
X10020182Y-11430746D01*
X10020182Y-11430746D02*
X10010658Y-11383127D01*
X10010658Y-11383127D02*
X10001134Y-11354555D01*
X10001134Y-11354555D02*
X9991611Y-11335508D01*
X9991611Y-11335508D02*
X9972563Y-11306936D01*
X9972563Y-11306936D02*
X9963039Y-11297412D01*
D14*
X4944000Y-11752000D02*
X4997500Y-11698500D01*
X4944000Y-11645000D01*
X4890500Y-11698500D01*
X4944000Y-11752000D01*
D11*
X5363039Y-11789984D02*
X5248753Y-11789984D01*
X5305896Y-11789984D02*
X5305896Y-11589984D01*
X5305896Y-11589984D02*
X5286848Y-11618555D01*
X5286848Y-11618555D02*
X5267801Y-11637603D01*
X5267801Y-11637603D02*
X5248753Y-11647127D01*
X5448753Y-11770936D02*
X5458277Y-11780460D01*
X5458277Y-11780460D02*
X5448753Y-11789984D01*
X5448753Y-11789984D02*
X5439229Y-11780460D01*
X5439229Y-11780460D02*
X5448753Y-11770936D01*
X5448753Y-11770936D02*
X5448753Y-11789984D01*
X5582086Y-11589984D02*
X5601134Y-11589984D01*
X5601134Y-11589984D02*
X5620182Y-11599508D01*
X5620182Y-11599508D02*
X5629705Y-11609031D01*
X5629705Y-11609031D02*
X5639229Y-11628079D01*
X5639229Y-11628079D02*
X5648753Y-11666174D01*
X5648753Y-11666174D02*
X5648753Y-11713793D01*
X5648753Y-11713793D02*
X5639229Y-11751888D01*
X5639229Y-11751888D02*
X5629705Y-11770936D01*
X5629705Y-11770936D02*
X5620182Y-11780460D01*
X5620182Y-11780460D02*
X5601134Y-11789984D01*
X5601134Y-11789984D02*
X5582086Y-11789984D01*
X5582086Y-11789984D02*
X5563039Y-11780460D01*
X5563039Y-11780460D02*
X5553515Y-11770936D01*
X5553515Y-11770936D02*
X5543991Y-11751888D01*
X5543991Y-11751888D02*
X5534467Y-11713793D01*
X5534467Y-11713793D02*
X5534467Y-11666174D01*
X5534467Y-11666174D02*
X5543991Y-11628079D01*
X5543991Y-11628079D02*
X5553515Y-11609031D01*
X5553515Y-11609031D02*
X5563039Y-11599508D01*
X5563039Y-11599508D02*
X5582086Y-11589984D01*
X5715420Y-11589984D02*
X5848753Y-11589984D01*
X5848753Y-11589984D02*
X5763039Y-11789984D01*
X5963039Y-11589984D02*
X5982086Y-11589984D01*
X5982086Y-11589984D02*
X6001134Y-11599508D01*
X6001134Y-11599508D02*
X6010658Y-11609031D01*
X6010658Y-11609031D02*
X6020182Y-11628079D01*
X6020182Y-11628079D02*
X6029705Y-11666174D01*
X6029705Y-11666174D02*
X6029705Y-11713793D01*
X6029705Y-11713793D02*
X6020182Y-11751888D01*
X6020182Y-11751888D02*
X6010658Y-11770936D01*
X6010658Y-11770936D02*
X6001134Y-11780460D01*
X6001134Y-11780460D02*
X5982086Y-11789984D01*
X5982086Y-11789984D02*
X5963039Y-11789984D01*
X5963039Y-11789984D02*
X5943991Y-11780460D01*
X5943991Y-11780460D02*
X5934467Y-11770936D01*
X5934467Y-11770936D02*
X5924943Y-11751888D01*
X5924943Y-11751888D02*
X5915420Y-11713793D01*
X5915420Y-11713793D02*
X5915420Y-11666174D01*
X5915420Y-11666174D02*
X5924943Y-11628079D01*
X5924943Y-11628079D02*
X5934467Y-11609031D01*
X5934467Y-11609031D02*
X5943991Y-11599508D01*
X5943991Y-11599508D02*
X5963039Y-11589984D01*
X6115420Y-11789984D02*
X6115420Y-11656650D01*
X6115420Y-11675698D02*
X6124943Y-11666174D01*
X6124943Y-11666174D02*
X6143991Y-11656650D01*
X6143991Y-11656650D02*
X6172563Y-11656650D01*
X6172563Y-11656650D02*
X6191610Y-11666174D01*
X6191610Y-11666174D02*
X6201134Y-11685222D01*
X6201134Y-11685222D02*
X6201134Y-11789984D01*
X6201134Y-11685222D02*
X6210658Y-11666174D01*
X6210658Y-11666174D02*
X6229705Y-11656650D01*
X6229705Y-11656650D02*
X6258277Y-11656650D01*
X6258277Y-11656650D02*
X6277324Y-11666174D01*
X6277324Y-11666174D02*
X6286848Y-11685222D01*
X6286848Y-11685222D02*
X6286848Y-11789984D01*
X6382086Y-11789984D02*
X6382086Y-11656650D01*
X6382086Y-11675698D02*
X6391610Y-11666174D01*
X6391610Y-11666174D02*
X6410658Y-11656650D01*
X6410658Y-11656650D02*
X6439229Y-11656650D01*
X6439229Y-11656650D02*
X6458277Y-11666174D01*
X6458277Y-11666174D02*
X6467801Y-11685222D01*
X6467801Y-11685222D02*
X6467801Y-11789984D01*
X6467801Y-11685222D02*
X6477324Y-11666174D01*
X6477324Y-11666174D02*
X6496372Y-11656650D01*
X6496372Y-11656650D02*
X6524943Y-11656650D01*
X6524943Y-11656650D02*
X6543991Y-11666174D01*
X6543991Y-11666174D02*
X6553515Y-11685222D01*
X6553515Y-11685222D02*
X6553515Y-11789984D01*
X6943991Y-11580460D02*
X6772563Y-11837603D01*
X7201134Y-11589984D02*
X7220182Y-11589984D01*
X7220182Y-11589984D02*
X7239229Y-11599508D01*
X7239229Y-11599508D02*
X7248753Y-11609031D01*
X7248753Y-11609031D02*
X7258277Y-11628079D01*
X7258277Y-11628079D02*
X7267801Y-11666174D01*
X7267801Y-11666174D02*
X7267801Y-11713793D01*
X7267801Y-11713793D02*
X7258277Y-11751888D01*
X7258277Y-11751888D02*
X7248753Y-11770936D01*
X7248753Y-11770936D02*
X7239229Y-11780460D01*
X7239229Y-11780460D02*
X7220182Y-11789984D01*
X7220182Y-11789984D02*
X7201134Y-11789984D01*
X7201134Y-11789984D02*
X7182086Y-11780460D01*
X7182086Y-11780460D02*
X7172563Y-11770936D01*
X7172563Y-11770936D02*
X7163039Y-11751888D01*
X7163039Y-11751888D02*
X7153515Y-11713793D01*
X7153515Y-11713793D02*
X7153515Y-11666174D01*
X7153515Y-11666174D02*
X7163039Y-11628079D01*
X7163039Y-11628079D02*
X7172563Y-11609031D01*
X7172563Y-11609031D02*
X7182086Y-11599508D01*
X7182086Y-11599508D02*
X7201134Y-11589984D01*
X7353515Y-11770936D02*
X7363039Y-11780460D01*
X7363039Y-11780460D02*
X7353515Y-11789984D01*
X7353515Y-11789984D02*
X7343991Y-11780460D01*
X7343991Y-11780460D02*
X7353515Y-11770936D01*
X7353515Y-11770936D02*
X7353515Y-11789984D01*
X7486848Y-11589984D02*
X7505896Y-11589984D01*
X7505896Y-11589984D02*
X7524944Y-11599508D01*
X7524944Y-11599508D02*
X7534467Y-11609031D01*
X7534467Y-11609031D02*
X7543991Y-11628079D01*
X7543991Y-11628079D02*
X7553515Y-11666174D01*
X7553515Y-11666174D02*
X7553515Y-11713793D01*
X7553515Y-11713793D02*
X7543991Y-11751888D01*
X7543991Y-11751888D02*
X7534467Y-11770936D01*
X7534467Y-11770936D02*
X7524944Y-11780460D01*
X7524944Y-11780460D02*
X7505896Y-11789984D01*
X7505896Y-11789984D02*
X7486848Y-11789984D01*
X7486848Y-11789984D02*
X7467801Y-11780460D01*
X7467801Y-11780460D02*
X7458277Y-11770936D01*
X7458277Y-11770936D02*
X7448753Y-11751888D01*
X7448753Y-11751888D02*
X7439229Y-11713793D01*
X7439229Y-11713793D02*
X7439229Y-11666174D01*
X7439229Y-11666174D02*
X7448753Y-11628079D01*
X7448753Y-11628079D02*
X7458277Y-11609031D01*
X7458277Y-11609031D02*
X7467801Y-11599508D01*
X7467801Y-11599508D02*
X7486848Y-11589984D01*
X7724944Y-11656650D02*
X7724944Y-11789984D01*
X7677325Y-11580460D02*
X7629706Y-11723317D01*
X7629706Y-11723317D02*
X7753515Y-11723317D01*
X7820182Y-11609031D02*
X7829706Y-11599508D01*
X7829706Y-11599508D02*
X7848753Y-11589984D01*
X7848753Y-11589984D02*
X7896372Y-11589984D01*
X7896372Y-11589984D02*
X7915420Y-11599508D01*
X7915420Y-11599508D02*
X7924944Y-11609031D01*
X7924944Y-11609031D02*
X7934467Y-11628079D01*
X7934467Y-11628079D02*
X7934467Y-11647127D01*
X7934467Y-11647127D02*
X7924944Y-11675698D01*
X7924944Y-11675698D02*
X7810658Y-11789984D01*
X7810658Y-11789984D02*
X7934467Y-11789984D01*
X8124944Y-11789984D02*
X8010658Y-11789984D01*
X8067801Y-11789984D02*
X8067801Y-11589984D01*
X8067801Y-11589984D02*
X8048753Y-11618555D01*
X8048753Y-11618555D02*
X8029706Y-11637603D01*
X8029706Y-11637603D02*
X8010658Y-11647127D01*
X8201134Y-11589984D02*
X8201134Y-11628079D01*
X8277325Y-11589984D02*
X8277325Y-11628079D01*
X8572563Y-11866174D02*
X8563039Y-11856650D01*
X8563039Y-11856650D02*
X8543991Y-11828079D01*
X8543991Y-11828079D02*
X8534468Y-11809031D01*
X8534468Y-11809031D02*
X8524944Y-11780460D01*
X8524944Y-11780460D02*
X8515420Y-11732841D01*
X8515420Y-11732841D02*
X8515420Y-11694746D01*
X8515420Y-11694746D02*
X8524944Y-11647127D01*
X8524944Y-11647127D02*
X8534468Y-11618555D01*
X8534468Y-11618555D02*
X8543991Y-11599508D01*
X8543991Y-11599508D02*
X8563039Y-11570936D01*
X8563039Y-11570936D02*
X8572563Y-11561412D01*
X8734468Y-11589984D02*
X8696372Y-11589984D01*
X8696372Y-11589984D02*
X8677325Y-11599508D01*
X8677325Y-11599508D02*
X8667801Y-11609031D01*
X8667801Y-11609031D02*
X8648753Y-11637603D01*
X8648753Y-11637603D02*
X8639230Y-11675698D01*
X8639230Y-11675698D02*
X8639230Y-11751888D01*
X8639230Y-11751888D02*
X8648753Y-11770936D01*
X8648753Y-11770936D02*
X8658277Y-11780460D01*
X8658277Y-11780460D02*
X8677325Y-11789984D01*
X8677325Y-11789984D02*
X8715420Y-11789984D01*
X8715420Y-11789984D02*
X8734468Y-11780460D01*
X8734468Y-11780460D02*
X8743991Y-11770936D01*
X8743991Y-11770936D02*
X8753515Y-11751888D01*
X8753515Y-11751888D02*
X8753515Y-11704269D01*
X8753515Y-11704269D02*
X8743991Y-11685222D01*
X8743991Y-11685222D02*
X8734468Y-11675698D01*
X8734468Y-11675698D02*
X8715420Y-11666174D01*
X8715420Y-11666174D02*
X8677325Y-11666174D01*
X8677325Y-11666174D02*
X8658277Y-11675698D01*
X8658277Y-11675698D02*
X8648753Y-11685222D01*
X8648753Y-11685222D02*
X8639230Y-11704269D01*
X8991611Y-11789984D02*
X8991611Y-11589984D01*
X9077325Y-11789984D02*
X9077325Y-11685222D01*
X9077325Y-11685222D02*
X9067801Y-11666174D01*
X9067801Y-11666174D02*
X9048753Y-11656650D01*
X9048753Y-11656650D02*
X9020182Y-11656650D01*
X9020182Y-11656650D02*
X9001134Y-11666174D01*
X9001134Y-11666174D02*
X8991611Y-11675698D01*
X9201134Y-11789984D02*
X9182087Y-11780460D01*
X9182087Y-11780460D02*
X9172563Y-11770936D01*
X9172563Y-11770936D02*
X9163039Y-11751888D01*
X9163039Y-11751888D02*
X9163039Y-11694746D01*
X9163039Y-11694746D02*
X9172563Y-11675698D01*
X9172563Y-11675698D02*
X9182087Y-11666174D01*
X9182087Y-11666174D02*
X9201134Y-11656650D01*
X9201134Y-11656650D02*
X9229706Y-11656650D01*
X9229706Y-11656650D02*
X9248753Y-11666174D01*
X9248753Y-11666174D02*
X9258277Y-11675698D01*
X9258277Y-11675698D02*
X9267801Y-11694746D01*
X9267801Y-11694746D02*
X9267801Y-11751888D01*
X9267801Y-11751888D02*
X9258277Y-11770936D01*
X9258277Y-11770936D02*
X9248753Y-11780460D01*
X9248753Y-11780460D02*
X9229706Y-11789984D01*
X9229706Y-11789984D02*
X9201134Y-11789984D01*
X9382087Y-11789984D02*
X9363039Y-11780460D01*
X9363039Y-11780460D02*
X9353515Y-11761412D01*
X9353515Y-11761412D02*
X9353515Y-11589984D01*
X9534468Y-11780460D02*
X9515420Y-11789984D01*
X9515420Y-11789984D02*
X9477325Y-11789984D01*
X9477325Y-11789984D02*
X9458277Y-11780460D01*
X9458277Y-11780460D02*
X9448753Y-11761412D01*
X9448753Y-11761412D02*
X9448753Y-11685222D01*
X9448753Y-11685222D02*
X9458277Y-11666174D01*
X9458277Y-11666174D02*
X9477325Y-11656650D01*
X9477325Y-11656650D02*
X9515420Y-11656650D01*
X9515420Y-11656650D02*
X9534468Y-11666174D01*
X9534468Y-11666174D02*
X9543992Y-11685222D01*
X9543992Y-11685222D02*
X9543992Y-11704269D01*
X9543992Y-11704269D02*
X9448753Y-11723317D01*
X9620182Y-11780460D02*
X9639230Y-11789984D01*
X9639230Y-11789984D02*
X9677325Y-11789984D01*
X9677325Y-11789984D02*
X9696373Y-11780460D01*
X9696373Y-11780460D02*
X9705896Y-11761412D01*
X9705896Y-11761412D02*
X9705896Y-11751888D01*
X9705896Y-11751888D02*
X9696373Y-11732841D01*
X9696373Y-11732841D02*
X9677325Y-11723317D01*
X9677325Y-11723317D02*
X9648753Y-11723317D01*
X9648753Y-11723317D02*
X9629706Y-11713793D01*
X9629706Y-11713793D02*
X9620182Y-11694746D01*
X9620182Y-11694746D02*
X9620182Y-11685222D01*
X9620182Y-11685222D02*
X9629706Y-11666174D01*
X9629706Y-11666174D02*
X9648753Y-11656650D01*
X9648753Y-11656650D02*
X9677325Y-11656650D01*
X9677325Y-11656650D02*
X9696373Y-11666174D01*
X9772563Y-11866174D02*
X9782087Y-11856650D01*
X9782087Y-11856650D02*
X9801134Y-11828079D01*
X9801134Y-11828079D02*
X9810658Y-11809031D01*
X9810658Y-11809031D02*
X9820182Y-11780460D01*
X9820182Y-11780460D02*
X9829706Y-11732841D01*
X9829706Y-11732841D02*
X9829706Y-11694746D01*
X9829706Y-11694746D02*
X9820182Y-11647127D01*
X9820182Y-11647127D02*
X9810658Y-11618555D01*
X9810658Y-11618555D02*
X9801134Y-11599508D01*
X9801134Y-11599508D02*
X9782087Y-11570936D01*
X9782087Y-11570936D02*
X9772563Y-11561412D01*
X4797500Y-11862500D02*
X4997500Y-12062500D01*
X4997500Y-11862500D02*
X4797500Y-12062500D01*
X4997500Y-11962500D02*
G75*
G02*
X4797500Y-11962500I-100000J0D01*
G01*
X4797500Y-11962500D02*
G75*
G02*
X4997500Y-11962500I100000J0D01*
G01*
X5353515Y-11853984D02*
X5258277Y-11853984D01*
X5258277Y-11853984D02*
X5248753Y-11949222D01*
X5248753Y-11949222D02*
X5258277Y-11939698D01*
X5258277Y-11939698D02*
X5277324Y-11930174D01*
X5277324Y-11930174D02*
X5324944Y-11930174D01*
X5324944Y-11930174D02*
X5343991Y-11939698D01*
X5343991Y-11939698D02*
X5353515Y-11949222D01*
X5353515Y-11949222D02*
X5363039Y-11968269D01*
X5363039Y-11968269D02*
X5363039Y-12015888D01*
X5363039Y-12015888D02*
X5353515Y-12034936D01*
X5353515Y-12034936D02*
X5343991Y-12044460D01*
X5343991Y-12044460D02*
X5324944Y-12053984D01*
X5324944Y-12053984D02*
X5277324Y-12053984D01*
X5277324Y-12053984D02*
X5258277Y-12044460D01*
X5258277Y-12044460D02*
X5248753Y-12034936D01*
X5448753Y-12034936D02*
X5458277Y-12044460D01*
X5458277Y-12044460D02*
X5448753Y-12053984D01*
X5448753Y-12053984D02*
X5439229Y-12044460D01*
X5439229Y-12044460D02*
X5448753Y-12034936D01*
X5448753Y-12034936D02*
X5448753Y-12053984D01*
X5524944Y-11853984D02*
X5648753Y-11853984D01*
X5648753Y-11853984D02*
X5582086Y-11930174D01*
X5582086Y-11930174D02*
X5610658Y-11930174D01*
X5610658Y-11930174D02*
X5629705Y-11939698D01*
X5629705Y-11939698D02*
X5639229Y-11949222D01*
X5639229Y-11949222D02*
X5648753Y-11968269D01*
X5648753Y-11968269D02*
X5648753Y-12015888D01*
X5648753Y-12015888D02*
X5639229Y-12034936D01*
X5639229Y-12034936D02*
X5629705Y-12044460D01*
X5629705Y-12044460D02*
X5610658Y-12053984D01*
X5610658Y-12053984D02*
X5553515Y-12053984D01*
X5553515Y-12053984D02*
X5534467Y-12044460D01*
X5534467Y-12044460D02*
X5524944Y-12034936D01*
X5772562Y-11853984D02*
X5791610Y-11853984D01*
X5791610Y-11853984D02*
X5810658Y-11863508D01*
X5810658Y-11863508D02*
X5820182Y-11873031D01*
X5820182Y-11873031D02*
X5829705Y-11892079D01*
X5829705Y-11892079D02*
X5839229Y-11930174D01*
X5839229Y-11930174D02*
X5839229Y-11977793D01*
X5839229Y-11977793D02*
X5829705Y-12015888D01*
X5829705Y-12015888D02*
X5820182Y-12034936D01*
X5820182Y-12034936D02*
X5810658Y-12044460D01*
X5810658Y-12044460D02*
X5791610Y-12053984D01*
X5791610Y-12053984D02*
X5772562Y-12053984D01*
X5772562Y-12053984D02*
X5753515Y-12044460D01*
X5753515Y-12044460D02*
X5743991Y-12034936D01*
X5743991Y-12034936D02*
X5734467Y-12015888D01*
X5734467Y-12015888D02*
X5724943Y-11977793D01*
X5724943Y-11977793D02*
X5724943Y-11930174D01*
X5724943Y-11930174D02*
X5734467Y-11892079D01*
X5734467Y-11892079D02*
X5743991Y-11873031D01*
X5743991Y-11873031D02*
X5753515Y-11863508D01*
X5753515Y-11863508D02*
X5772562Y-11853984D01*
X5963039Y-11853984D02*
X5982086Y-11853984D01*
X5982086Y-11853984D02*
X6001134Y-11863508D01*
X6001134Y-11863508D02*
X6010658Y-11873031D01*
X6010658Y-11873031D02*
X6020182Y-11892079D01*
X6020182Y-11892079D02*
X6029705Y-11930174D01*
X6029705Y-11930174D02*
X6029705Y-11977793D01*
X6029705Y-11977793D02*
X6020182Y-12015888D01*
X6020182Y-12015888D02*
X6010658Y-12034936D01*
X6010658Y-12034936D02*
X6001134Y-12044460D01*
X6001134Y-12044460D02*
X5982086Y-12053984D01*
X5982086Y-12053984D02*
X5963039Y-12053984D01*
X5963039Y-12053984D02*
X5943991Y-12044460D01*
X5943991Y-12044460D02*
X5934467Y-12034936D01*
X5934467Y-12034936D02*
X5924943Y-12015888D01*
X5924943Y-12015888D02*
X5915420Y-11977793D01*
X5915420Y-11977793D02*
X5915420Y-11930174D01*
X5915420Y-11930174D02*
X5924943Y-11892079D01*
X5924943Y-11892079D02*
X5934467Y-11873031D01*
X5934467Y-11873031D02*
X5943991Y-11863508D01*
X5943991Y-11863508D02*
X5963039Y-11853984D01*
X6115420Y-12053984D02*
X6115420Y-11920650D01*
X6115420Y-11939698D02*
X6124943Y-11930174D01*
X6124943Y-11930174D02*
X6143991Y-11920650D01*
X6143991Y-11920650D02*
X6172563Y-11920650D01*
X6172563Y-11920650D02*
X6191610Y-11930174D01*
X6191610Y-11930174D02*
X6201134Y-11949222D01*
X6201134Y-11949222D02*
X6201134Y-12053984D01*
X6201134Y-11949222D02*
X6210658Y-11930174D01*
X6210658Y-11930174D02*
X6229705Y-11920650D01*
X6229705Y-11920650D02*
X6258277Y-11920650D01*
X6258277Y-11920650D02*
X6277324Y-11930174D01*
X6277324Y-11930174D02*
X6286848Y-11949222D01*
X6286848Y-11949222D02*
X6286848Y-12053984D01*
X6382086Y-12053984D02*
X6382086Y-11920650D01*
X6382086Y-11939698D02*
X6391610Y-11930174D01*
X6391610Y-11930174D02*
X6410658Y-11920650D01*
X6410658Y-11920650D02*
X6439229Y-11920650D01*
X6439229Y-11920650D02*
X6458277Y-11930174D01*
X6458277Y-11930174D02*
X6467801Y-11949222D01*
X6467801Y-11949222D02*
X6467801Y-12053984D01*
X6467801Y-11949222D02*
X6477324Y-11930174D01*
X6477324Y-11930174D02*
X6496372Y-11920650D01*
X6496372Y-11920650D02*
X6524943Y-11920650D01*
X6524943Y-11920650D02*
X6543991Y-11930174D01*
X6543991Y-11930174D02*
X6553515Y-11949222D01*
X6553515Y-11949222D02*
X6553515Y-12053984D01*
X6943991Y-11844460D02*
X6772563Y-12101603D01*
X7201134Y-11853984D02*
X7220182Y-11853984D01*
X7220182Y-11853984D02*
X7239229Y-11863508D01*
X7239229Y-11863508D02*
X7248753Y-11873031D01*
X7248753Y-11873031D02*
X7258277Y-11892079D01*
X7258277Y-11892079D02*
X7267801Y-11930174D01*
X7267801Y-11930174D02*
X7267801Y-11977793D01*
X7267801Y-11977793D02*
X7258277Y-12015888D01*
X7258277Y-12015888D02*
X7248753Y-12034936D01*
X7248753Y-12034936D02*
X7239229Y-12044460D01*
X7239229Y-12044460D02*
X7220182Y-12053984D01*
X7220182Y-12053984D02*
X7201134Y-12053984D01*
X7201134Y-12053984D02*
X7182086Y-12044460D01*
X7182086Y-12044460D02*
X7172563Y-12034936D01*
X7172563Y-12034936D02*
X7163039Y-12015888D01*
X7163039Y-12015888D02*
X7153515Y-11977793D01*
X7153515Y-11977793D02*
X7153515Y-11930174D01*
X7153515Y-11930174D02*
X7163039Y-11892079D01*
X7163039Y-11892079D02*
X7172563Y-11873031D01*
X7172563Y-11873031D02*
X7182086Y-11863508D01*
X7182086Y-11863508D02*
X7201134Y-11853984D01*
X7353515Y-12034936D02*
X7363039Y-12044460D01*
X7363039Y-12044460D02*
X7353515Y-12053984D01*
X7353515Y-12053984D02*
X7343991Y-12044460D01*
X7343991Y-12044460D02*
X7353515Y-12034936D01*
X7353515Y-12034936D02*
X7353515Y-12053984D01*
X7439229Y-11873031D02*
X7448753Y-11863508D01*
X7448753Y-11863508D02*
X7467801Y-11853984D01*
X7467801Y-11853984D02*
X7515420Y-11853984D01*
X7515420Y-11853984D02*
X7534467Y-11863508D01*
X7534467Y-11863508D02*
X7543991Y-11873031D01*
X7543991Y-11873031D02*
X7553515Y-11892079D01*
X7553515Y-11892079D02*
X7553515Y-11911127D01*
X7553515Y-11911127D02*
X7543991Y-11939698D01*
X7543991Y-11939698D02*
X7429706Y-12053984D01*
X7429706Y-12053984D02*
X7553515Y-12053984D01*
X7677325Y-11853984D02*
X7696372Y-11853984D01*
X7696372Y-11853984D02*
X7715420Y-11863508D01*
X7715420Y-11863508D02*
X7724944Y-11873031D01*
X7724944Y-11873031D02*
X7734467Y-11892079D01*
X7734467Y-11892079D02*
X7743991Y-11930174D01*
X7743991Y-11930174D02*
X7743991Y-11977793D01*
X7743991Y-11977793D02*
X7734467Y-12015888D01*
X7734467Y-12015888D02*
X7724944Y-12034936D01*
X7724944Y-12034936D02*
X7715420Y-12044460D01*
X7715420Y-12044460D02*
X7696372Y-12053984D01*
X7696372Y-12053984D02*
X7677325Y-12053984D01*
X7677325Y-12053984D02*
X7658277Y-12044460D01*
X7658277Y-12044460D02*
X7648753Y-12034936D01*
X7648753Y-12034936D02*
X7639229Y-12015888D01*
X7639229Y-12015888D02*
X7629706Y-11977793D01*
X7629706Y-11977793D02*
X7629706Y-11930174D01*
X7629706Y-11930174D02*
X7639229Y-11892079D01*
X7639229Y-11892079D02*
X7648753Y-11873031D01*
X7648753Y-11873031D02*
X7658277Y-11863508D01*
X7658277Y-11863508D02*
X7677325Y-11853984D01*
X7858277Y-11939698D02*
X7839229Y-11930174D01*
X7839229Y-11930174D02*
X7829706Y-11920650D01*
X7829706Y-11920650D02*
X7820182Y-11901603D01*
X7820182Y-11901603D02*
X7820182Y-11892079D01*
X7820182Y-11892079D02*
X7829706Y-11873031D01*
X7829706Y-11873031D02*
X7839229Y-11863508D01*
X7839229Y-11863508D02*
X7858277Y-11853984D01*
X7858277Y-11853984D02*
X7896372Y-11853984D01*
X7896372Y-11853984D02*
X7915420Y-11863508D01*
X7915420Y-11863508D02*
X7924944Y-11873031D01*
X7924944Y-11873031D02*
X7934467Y-11892079D01*
X7934467Y-11892079D02*
X7934467Y-11901603D01*
X7934467Y-11901603D02*
X7924944Y-11920650D01*
X7924944Y-11920650D02*
X7915420Y-11930174D01*
X7915420Y-11930174D02*
X7896372Y-11939698D01*
X7896372Y-11939698D02*
X7858277Y-11939698D01*
X7858277Y-11939698D02*
X7839229Y-11949222D01*
X7839229Y-11949222D02*
X7829706Y-11958746D01*
X7829706Y-11958746D02*
X7820182Y-11977793D01*
X7820182Y-11977793D02*
X7820182Y-12015888D01*
X7820182Y-12015888D02*
X7829706Y-12034936D01*
X7829706Y-12034936D02*
X7839229Y-12044460D01*
X7839229Y-12044460D02*
X7858277Y-12053984D01*
X7858277Y-12053984D02*
X7896372Y-12053984D01*
X7896372Y-12053984D02*
X7915420Y-12044460D01*
X7915420Y-12044460D02*
X7924944Y-12034936D01*
X7924944Y-12034936D02*
X7934467Y-12015888D01*
X7934467Y-12015888D02*
X7934467Y-11977793D01*
X7934467Y-11977793D02*
X7924944Y-11958746D01*
X7924944Y-11958746D02*
X7915420Y-11949222D01*
X7915420Y-11949222D02*
X7896372Y-11939698D01*
X8001134Y-11853984D02*
X8134467Y-11853984D01*
X8134467Y-11853984D02*
X8048753Y-12053984D01*
X8201134Y-11853984D02*
X8201134Y-11892079D01*
X8277325Y-11853984D02*
X8277325Y-11892079D01*
X8572563Y-12130174D02*
X8563039Y-12120650D01*
X8563039Y-12120650D02*
X8543991Y-12092079D01*
X8543991Y-12092079D02*
X8534468Y-12073031D01*
X8534468Y-12073031D02*
X8524944Y-12044460D01*
X8524944Y-12044460D02*
X8515420Y-11996841D01*
X8515420Y-11996841D02*
X8515420Y-11958746D01*
X8515420Y-11958746D02*
X8524944Y-11911127D01*
X8524944Y-11911127D02*
X8534468Y-11882555D01*
X8534468Y-11882555D02*
X8543991Y-11863508D01*
X8543991Y-11863508D02*
X8563039Y-11834936D01*
X8563039Y-11834936D02*
X8572563Y-11825412D01*
X8734468Y-11920650D02*
X8734468Y-12053984D01*
X8686849Y-11844460D02*
X8639230Y-11987317D01*
X8639230Y-11987317D02*
X8763039Y-11987317D01*
X8991611Y-12053984D02*
X8991611Y-11853984D01*
X9077325Y-12053984D02*
X9077325Y-11949222D01*
X9077325Y-11949222D02*
X9067801Y-11930174D01*
X9067801Y-11930174D02*
X9048753Y-11920650D01*
X9048753Y-11920650D02*
X9020182Y-11920650D01*
X9020182Y-11920650D02*
X9001134Y-11930174D01*
X9001134Y-11930174D02*
X8991611Y-11939698D01*
X9201134Y-12053984D02*
X9182087Y-12044460D01*
X9182087Y-12044460D02*
X9172563Y-12034936D01*
X9172563Y-12034936D02*
X9163039Y-12015888D01*
X9163039Y-12015888D02*
X9163039Y-11958746D01*
X9163039Y-11958746D02*
X9172563Y-11939698D01*
X9172563Y-11939698D02*
X9182087Y-11930174D01*
X9182087Y-11930174D02*
X9201134Y-11920650D01*
X9201134Y-11920650D02*
X9229706Y-11920650D01*
X9229706Y-11920650D02*
X9248753Y-11930174D01*
X9248753Y-11930174D02*
X9258277Y-11939698D01*
X9258277Y-11939698D02*
X9267801Y-11958746D01*
X9267801Y-11958746D02*
X9267801Y-12015888D01*
X9267801Y-12015888D02*
X9258277Y-12034936D01*
X9258277Y-12034936D02*
X9248753Y-12044460D01*
X9248753Y-12044460D02*
X9229706Y-12053984D01*
X9229706Y-12053984D02*
X9201134Y-12053984D01*
X9382087Y-12053984D02*
X9363039Y-12044460D01*
X9363039Y-12044460D02*
X9353515Y-12025412D01*
X9353515Y-12025412D02*
X9353515Y-11853984D01*
X9534468Y-12044460D02*
X9515420Y-12053984D01*
X9515420Y-12053984D02*
X9477325Y-12053984D01*
X9477325Y-12053984D02*
X9458277Y-12044460D01*
X9458277Y-12044460D02*
X9448753Y-12025412D01*
X9448753Y-12025412D02*
X9448753Y-11949222D01*
X9448753Y-11949222D02*
X9458277Y-11930174D01*
X9458277Y-11930174D02*
X9477325Y-11920650D01*
X9477325Y-11920650D02*
X9515420Y-11920650D01*
X9515420Y-11920650D02*
X9534468Y-11930174D01*
X9534468Y-11930174D02*
X9543992Y-11949222D01*
X9543992Y-11949222D02*
X9543992Y-11968269D01*
X9543992Y-11968269D02*
X9448753Y-11987317D01*
X9620182Y-12044460D02*
X9639230Y-12053984D01*
X9639230Y-12053984D02*
X9677325Y-12053984D01*
X9677325Y-12053984D02*
X9696373Y-12044460D01*
X9696373Y-12044460D02*
X9705896Y-12025412D01*
X9705896Y-12025412D02*
X9705896Y-12015888D01*
X9705896Y-12015888D02*
X9696373Y-11996841D01*
X9696373Y-11996841D02*
X9677325Y-11987317D01*
X9677325Y-11987317D02*
X9648753Y-11987317D01*
X9648753Y-11987317D02*
X9629706Y-11977793D01*
X9629706Y-11977793D02*
X9620182Y-11958746D01*
X9620182Y-11958746D02*
X9620182Y-11949222D01*
X9620182Y-11949222D02*
X9629706Y-11930174D01*
X9629706Y-11930174D02*
X9648753Y-11920650D01*
X9648753Y-11920650D02*
X9677325Y-11920650D01*
X9677325Y-11920650D02*
X9696373Y-11930174D01*
X9772563Y-12130174D02*
X9782087Y-12120650D01*
X9782087Y-12120650D02*
X9801134Y-12092079D01*
X9801134Y-12092079D02*
X9810658Y-12073031D01*
X9810658Y-12073031D02*
X9820182Y-12044460D01*
X9820182Y-12044460D02*
X9829706Y-11996841D01*
X9829706Y-11996841D02*
X9829706Y-11958746D01*
X9829706Y-11958746D02*
X9820182Y-11911127D01*
X9820182Y-11911127D02*
X9810658Y-11882555D01*
X9810658Y-11882555D02*
X9801134Y-11863508D01*
X9801134Y-11863508D02*
X9782087Y-11834936D01*
X9782087Y-11834936D02*
X9772563Y-11825412D01*
M02*
