%TF.GenerationSoftware,KiCad,Pcbnew,8.0.4*%
%TF.CreationDate,2024-11-13T20:23:26-08:00*%
%TF.ProjectId,Butterfly_v0,42757474-6572-4666-9c79-5f76302e6b69,rev?*%
%TF.SameCoordinates,Original*%
%TF.FileFunction,Copper,L1,Top*%
%TF.FilePolarity,Positive*%
%FSLAX46Y46*%
G04 Gerber Fmt 4.6, Leading zero omitted, Abs format (unit mm)*
G04 Created by KiCad (PCBNEW 8.0.4) date 2024-11-13 20:23:26*
%MOMM*%
%LPD*%
G01*
G04 APERTURE LIST*
G04 Aperture macros list*
%AMRoundRect*
0 Rectangle with rounded corners*
0 $1 Rounding radius*
0 $2 $3 $4 $5 $6 $7 $8 $9 X,Y pos of 4 corners*
0 Add a 4 corners polygon primitive as box body*
4,1,4,$2,$3,$4,$5,$6,$7,$8,$9,$2,$3,0*
0 Add four circle primitives for the rounded corners*
1,1,$1+$1,$2,$3*
1,1,$1+$1,$4,$5*
1,1,$1+$1,$6,$7*
1,1,$1+$1,$8,$9*
0 Add four rect primitives between the rounded corners*
20,1,$1+$1,$2,$3,$4,$5,0*
20,1,$1+$1,$4,$5,$6,$7,0*
20,1,$1+$1,$6,$7,$8,$9,0*
20,1,$1+$1,$8,$9,$2,$3,0*%
G04 Aperture macros list end*
%TA.AperFunction,EtchedComponent*%
%ADD10C,0.010000*%
%TD*%
%TA.AperFunction,SMDPad,CuDef*%
%ADD11R,0.475000X0.500000*%
%TD*%
%TA.AperFunction,SMDPad,CuDef*%
%ADD12RoundRect,0.165000X-0.740000X-0.495000X0.740000X-0.495000X0.740000X0.495000X-0.740000X0.495000X0*%
%TD*%
%TA.AperFunction,ComponentPad*%
%ADD13C,1.520000*%
%TD*%
%TA.AperFunction,ComponentPad*%
%ADD14R,1.520000X1.520000*%
%TD*%
%TA.AperFunction,SMDPad,CuDef*%
%ADD15R,0.800000X0.800000*%
%TD*%
%TA.AperFunction,SMDPad,CuDef*%
%ADD16R,0.762000X0.939800*%
%TD*%
%TA.AperFunction,SMDPad,CuDef*%
%ADD17R,0.550000X0.300000*%
%TD*%
%TA.AperFunction,SMDPad,CuDef*%
%ADD18R,0.540000X0.600000*%
%TD*%
%TA.AperFunction,SMDPad,CuDef*%
%ADD19R,2.500000X1.425000*%
%TD*%
%TA.AperFunction,ComponentPad*%
%ADD20O,2.400000X1.200000*%
%TD*%
%TA.AperFunction,ComponentPad*%
%ADD21O,1.460000X0.730000*%
%TD*%
%TA.AperFunction,SMDPad,CuDef*%
%ADD22R,1.750000X0.400000*%
%TD*%
%TA.AperFunction,SMDPad,CuDef*%
%ADD23RoundRect,0.147500X-0.147500X0.457500X-0.147500X-0.457500X0.147500X-0.457500X0.147500X0.457500X0*%
%TD*%
%TA.AperFunction,HeatsinkPad*%
%ADD24R,3.100000X3.100000*%
%TD*%
%TA.AperFunction,SMDPad,CuDef*%
%ADD25RoundRect,0.062500X0.062500X0.375000X-0.062500X0.375000X-0.062500X-0.375000X0.062500X-0.375000X0*%
%TD*%
%TA.AperFunction,SMDPad,CuDef*%
%ADD26RoundRect,0.062500X0.375000X0.062500X-0.375000X0.062500X-0.375000X-0.062500X0.375000X-0.062500X0*%
%TD*%
%TA.AperFunction,SMDPad,CuDef*%
%ADD27R,0.600000X0.540000*%
%TD*%
%TA.AperFunction,SMDPad,CuDef*%
%ADD28R,0.900000X0.700000*%
%TD*%
%TA.AperFunction,SMDPad,CuDef*%
%ADD29R,0.450000X0.350000*%
%TD*%
%TA.AperFunction,SMDPad,CuDef*%
%ADD30RoundRect,0.165000X-0.495000X0.740000X-0.495000X-0.740000X0.495000X-0.740000X0.495000X0.740000X0*%
%TD*%
%TA.AperFunction,SMDPad,CuDef*%
%ADD31R,0.420000X0.460000*%
%TD*%
%TA.AperFunction,SMDPad,CuDef*%
%ADD32RoundRect,0.147500X0.457500X0.147500X-0.457500X0.147500X-0.457500X-0.147500X0.457500X-0.147500X0*%
%TD*%
%TA.AperFunction,SMDPad,CuDef*%
%ADD33R,0.460000X0.420000*%
%TD*%
%TA.AperFunction,SMDPad,CuDef*%
%ADD34RoundRect,0.250000X-1.000000X-0.650000X1.000000X-0.650000X1.000000X0.650000X-1.000000X0.650000X0*%
%TD*%
%TA.AperFunction,SMDPad,CuDef*%
%ADD35R,0.790000X0.930000*%
%TD*%
%TA.AperFunction,ComponentPad*%
%ADD36C,9.200000*%
%TD*%
%TA.AperFunction,SMDPad,CuDef*%
%ADD37R,0.500000X1.050000*%
%TD*%
%TA.AperFunction,SMDPad,CuDef*%
%ADD38RoundRect,0.020500X-0.184500X0.964500X-0.184500X-0.964500X0.184500X-0.964500X0.184500X0.964500X0*%
%TD*%
%TA.AperFunction,SMDPad,CuDef*%
%ADD39R,1.900000X0.400000*%
%TD*%
%TA.AperFunction,SMDPad,CuDef*%
%ADD40R,1.140000X1.470000*%
%TD*%
%TA.AperFunction,SMDPad,CuDef*%
%ADD41RoundRect,0.250000X0.850000X0.350000X-0.850000X0.350000X-0.850000X-0.350000X0.850000X-0.350000X0*%
%TD*%
%TA.AperFunction,SMDPad,CuDef*%
%ADD42RoundRect,0.250000X1.275000X1.125000X-1.275000X1.125000X-1.275000X-1.125000X1.275000X-1.125000X0*%
%TD*%
%TA.AperFunction,SMDPad,CuDef*%
%ADD43RoundRect,0.249997X2.950003X2.650003X-2.950003X2.650003X-2.950003X-2.650003X2.950003X-2.650003X0*%
%TD*%
%TA.AperFunction,SMDPad,CuDef*%
%ADD44R,0.700000X0.900000*%
%TD*%
%TA.AperFunction,ComponentPad*%
%ADD45R,1.605000X1.605000*%
%TD*%
%TA.AperFunction,ComponentPad*%
%ADD46C,1.605000*%
%TD*%
%TA.AperFunction,ViaPad*%
%ADD47C,0.600000*%
%TD*%
%TA.AperFunction,Conductor*%
%ADD48C,0.150000*%
%TD*%
%TA.AperFunction,Conductor*%
%ADD49C,0.250000*%
%TD*%
%TA.AperFunction,Conductor*%
%ADD50C,0.200000*%
%TD*%
G04 APERTURE END LIST*
D10*
%TO.C,J2*%
X54050000Y-81900000D02*
X53350000Y-81900000D01*
X53350000Y-81375000D01*
X51200000Y-81375000D01*
X51179000Y-81374000D01*
X51158000Y-81373000D01*
X51137000Y-81370000D01*
X51117000Y-81366000D01*
X51096000Y-81361000D01*
X51076000Y-81355000D01*
X51057000Y-81348000D01*
X51037000Y-81340000D01*
X51018000Y-81331000D01*
X51000000Y-81321000D01*
X50982000Y-81310000D01*
X50965000Y-81299000D01*
X50948000Y-81286000D01*
X50932000Y-81272000D01*
X50917000Y-81258000D01*
X50903000Y-81243000D01*
X50889000Y-81227000D01*
X50876000Y-81210000D01*
X50865000Y-81193000D01*
X50854000Y-81175000D01*
X50844000Y-81157000D01*
X50835000Y-81138000D01*
X50827000Y-81118000D01*
X50820000Y-81099000D01*
X50814000Y-81079000D01*
X50809000Y-81058000D01*
X50805000Y-81038000D01*
X50802000Y-81017000D01*
X50801000Y-80996000D01*
X50800000Y-80975000D01*
X50800000Y-80475000D01*
X50801000Y-80454000D01*
X50802000Y-80433000D01*
X50805000Y-80412000D01*
X50809000Y-80392000D01*
X50814000Y-80371000D01*
X50820000Y-80351000D01*
X50827000Y-80332000D01*
X50835000Y-80312000D01*
X50844000Y-80293000D01*
X50854000Y-80275000D01*
X50865000Y-80257000D01*
X50876000Y-80240000D01*
X50889000Y-80223000D01*
X50903000Y-80207000D01*
X50917000Y-80192000D01*
X50932000Y-80178000D01*
X50948000Y-80164000D01*
X50965000Y-80151000D01*
X50982000Y-80140000D01*
X51000000Y-80129000D01*
X51018000Y-80119000D01*
X51037000Y-80110000D01*
X51057000Y-80102000D01*
X51076000Y-80095000D01*
X51096000Y-80089000D01*
X51117000Y-80084000D01*
X51137000Y-80080000D01*
X51158000Y-80077000D01*
X51179000Y-80076000D01*
X51200000Y-80075000D01*
X54050000Y-80075000D01*
X54050000Y-81900000D01*
%TA.AperFunction,EtchedComponent*%
G36*
X54050000Y-81900000D02*
G01*
X53350000Y-81900000D01*
X53350000Y-81375000D01*
X51200000Y-81375000D01*
X51179000Y-81374000D01*
X51158000Y-81373000D01*
X51137000Y-81370000D01*
X51117000Y-81366000D01*
X51096000Y-81361000D01*
X51076000Y-81355000D01*
X51057000Y-81348000D01*
X51037000Y-81340000D01*
X51018000Y-81331000D01*
X51000000Y-81321000D01*
X50982000Y-81310000D01*
X50965000Y-81299000D01*
X50948000Y-81286000D01*
X50932000Y-81272000D01*
X50917000Y-81258000D01*
X50903000Y-81243000D01*
X50889000Y-81227000D01*
X50876000Y-81210000D01*
X50865000Y-81193000D01*
X50854000Y-81175000D01*
X50844000Y-81157000D01*
X50835000Y-81138000D01*
X50827000Y-81118000D01*
X50820000Y-81099000D01*
X50814000Y-81079000D01*
X50809000Y-81058000D01*
X50805000Y-81038000D01*
X50802000Y-81017000D01*
X50801000Y-80996000D01*
X50800000Y-80975000D01*
X50800000Y-80475000D01*
X50801000Y-80454000D01*
X50802000Y-80433000D01*
X50805000Y-80412000D01*
X50809000Y-80392000D01*
X50814000Y-80371000D01*
X50820000Y-80351000D01*
X50827000Y-80332000D01*
X50835000Y-80312000D01*
X50844000Y-80293000D01*
X50854000Y-80275000D01*
X50865000Y-80257000D01*
X50876000Y-80240000D01*
X50889000Y-80223000D01*
X50903000Y-80207000D01*
X50917000Y-80192000D01*
X50932000Y-80178000D01*
X50948000Y-80164000D01*
X50965000Y-80151000D01*
X50982000Y-80140000D01*
X51000000Y-80129000D01*
X51018000Y-80119000D01*
X51037000Y-80110000D01*
X51057000Y-80102000D01*
X51076000Y-80095000D01*
X51096000Y-80089000D01*
X51117000Y-80084000D01*
X51137000Y-80080000D01*
X51158000Y-80077000D01*
X51179000Y-80076000D01*
X51200000Y-80075000D01*
X54050000Y-80075000D01*
X54050000Y-81900000D01*
G37*
%TD.AperFunction*%
X54050000Y-75925000D02*
X51200000Y-75925000D01*
X51179000Y-75924000D01*
X51158000Y-75923000D01*
X51137000Y-75920000D01*
X51117000Y-75916000D01*
X51096000Y-75911000D01*
X51076000Y-75905000D01*
X51057000Y-75898000D01*
X51037000Y-75890000D01*
X51018000Y-75881000D01*
X51000000Y-75871000D01*
X50982000Y-75860000D01*
X50965000Y-75849000D01*
X50948000Y-75836000D01*
X50932000Y-75822000D01*
X50917000Y-75808000D01*
X50903000Y-75793000D01*
X50889000Y-75777000D01*
X50876000Y-75760000D01*
X50865000Y-75743000D01*
X50854000Y-75725000D01*
X50844000Y-75707000D01*
X50835000Y-75688000D01*
X50827000Y-75668000D01*
X50820000Y-75649000D01*
X50814000Y-75629000D01*
X50809000Y-75608000D01*
X50805000Y-75588000D01*
X50802000Y-75567000D01*
X50801000Y-75546000D01*
X50800000Y-75525000D01*
X50800000Y-75025000D01*
X50801000Y-75004000D01*
X50802000Y-74983000D01*
X50805000Y-74962000D01*
X50809000Y-74942000D01*
X50814000Y-74921000D01*
X50820000Y-74901000D01*
X50827000Y-74882000D01*
X50835000Y-74862000D01*
X50844000Y-74843000D01*
X50854000Y-74825000D01*
X50865000Y-74807000D01*
X50876000Y-74790000D01*
X50889000Y-74773000D01*
X50903000Y-74757000D01*
X50917000Y-74742000D01*
X50932000Y-74728000D01*
X50948000Y-74714000D01*
X50965000Y-74701000D01*
X50982000Y-74690000D01*
X51000000Y-74679000D01*
X51018000Y-74669000D01*
X51037000Y-74660000D01*
X51057000Y-74652000D01*
X51076000Y-74645000D01*
X51096000Y-74639000D01*
X51117000Y-74634000D01*
X51137000Y-74630000D01*
X51158000Y-74627000D01*
X51179000Y-74626000D01*
X51200000Y-74625000D01*
X53350000Y-74625000D01*
X53350000Y-74100000D01*
X54050000Y-74100000D01*
X54050000Y-75925000D01*
%TA.AperFunction,EtchedComponent*%
G36*
X54050000Y-75925000D02*
G01*
X51200000Y-75925000D01*
X51179000Y-75924000D01*
X51158000Y-75923000D01*
X51137000Y-75920000D01*
X51117000Y-75916000D01*
X51096000Y-75911000D01*
X51076000Y-75905000D01*
X51057000Y-75898000D01*
X51037000Y-75890000D01*
X51018000Y-75881000D01*
X51000000Y-75871000D01*
X50982000Y-75860000D01*
X50965000Y-75849000D01*
X50948000Y-75836000D01*
X50932000Y-75822000D01*
X50917000Y-75808000D01*
X50903000Y-75793000D01*
X50889000Y-75777000D01*
X50876000Y-75760000D01*
X50865000Y-75743000D01*
X50854000Y-75725000D01*
X50844000Y-75707000D01*
X50835000Y-75688000D01*
X50827000Y-75668000D01*
X50820000Y-75649000D01*
X50814000Y-75629000D01*
X50809000Y-75608000D01*
X50805000Y-75588000D01*
X50802000Y-75567000D01*
X50801000Y-75546000D01*
X50800000Y-75525000D01*
X50800000Y-75025000D01*
X50801000Y-75004000D01*
X50802000Y-74983000D01*
X50805000Y-74962000D01*
X50809000Y-74942000D01*
X50814000Y-74921000D01*
X50820000Y-74901000D01*
X50827000Y-74882000D01*
X50835000Y-74862000D01*
X50844000Y-74843000D01*
X50854000Y-74825000D01*
X50865000Y-74807000D01*
X50876000Y-74790000D01*
X50889000Y-74773000D01*
X50903000Y-74757000D01*
X50917000Y-74742000D01*
X50932000Y-74728000D01*
X50948000Y-74714000D01*
X50965000Y-74701000D01*
X50982000Y-74690000D01*
X51000000Y-74679000D01*
X51018000Y-74669000D01*
X51037000Y-74660000D01*
X51057000Y-74652000D01*
X51076000Y-74645000D01*
X51096000Y-74639000D01*
X51117000Y-74634000D01*
X51137000Y-74630000D01*
X51158000Y-74627000D01*
X51179000Y-74626000D01*
X51200000Y-74625000D01*
X53350000Y-74625000D01*
X53350000Y-74100000D01*
X54050000Y-74100000D01*
X54050000Y-75925000D01*
G37*
%TD.AperFunction*%
X55760000Y-81900000D02*
X54300000Y-81900000D01*
X54300000Y-79900000D01*
X55760000Y-79900000D01*
X55760000Y-81900000D01*
%TA.AperFunction,EtchedComponent*%
G36*
X55760000Y-81900000D02*
G01*
X54300000Y-81900000D01*
X54300000Y-79900000D01*
X55760000Y-79900000D01*
X55760000Y-81900000D01*
G37*
%TD.AperFunction*%
X55760000Y-76100000D02*
X54300000Y-76100000D01*
X54300000Y-74100000D01*
X55760000Y-74100000D01*
X55760000Y-76100000D01*
%TA.AperFunction,EtchedComponent*%
G36*
X55760000Y-76100000D02*
G01*
X54300000Y-76100000D01*
X54300000Y-74100000D01*
X55760000Y-74100000D01*
X55760000Y-76100000D01*
G37*
%TD.AperFunction*%
%TD*%
D11*
%TO.P,R17,2*%
%TO.N,Net-(U6-USBDM)*%
X58512000Y-77000000D03*
%TO.P,R17,1*%
%TO.N,USB_N*%
X57488000Y-77000000D03*
%TD*%
%TO.P,R18,2*%
%TO.N,Net-(U6-USBDP)*%
X58512000Y-79000000D03*
%TO.P,R18,1*%
%TO.N,USB_P*%
X57488000Y-79000000D03*
%TD*%
D12*
%TO.P,C1,1*%
%TO.N,+12V*%
X74700000Y-74000000D03*
%TO.P,C1,2*%
%TO.N,GND*%
X77300000Y-74000000D03*
%TD*%
D13*
%TO.P,J6,2,2*%
%TO.N,GND*%
X142500000Y-84680000D03*
D14*
%TO.P,J6,1,1*%
%TO.N,Net-(J6-Pad1)*%
X145500000Y-84680000D03*
%TD*%
%TO.P,J4,1,1*%
%TO.N,+12V*%
X124000000Y-65000000D03*
D13*
%TO.P,J4,2,2*%
%TO.N,Net-(J4-Pad2)*%
X127000000Y-65000000D03*
%TD*%
D15*
%TO.P,D4,1*%
%TO.N,RX-I*%
X64000000Y-67800000D03*
%TO.P,D4,2*%
%TO.N,Net-(D4-Pad2)*%
X64000000Y-66200000D03*
%TD*%
D16*
%TO.P,R15,1*%
%TO.N,PD4*%
X125161800Y-80000000D03*
%TO.P,R15,2*%
%TO.N,Net-(J7-Pad1)*%
X126838200Y-80000000D03*
%TD*%
D15*
%TO.P,D3,1*%
%TO.N,TX-O*%
X59000000Y-67800000D03*
%TO.P,D3,2*%
%TO.N,Net-(D3-Pad2)*%
X59000000Y-66200000D03*
%TD*%
D17*
%TO.P,U2,6*%
%TO.N,+3.3V*%
X93875000Y-89350000D03*
%TO.P,U2,5*%
%TO.N,SCL*%
X93875000Y-90000000D03*
%TO.P,U2,4*%
%TO.N,+3.3V*%
X93875000Y-90650000D03*
%TO.P,U2,3*%
X92125000Y-90650000D03*
%TO.P,U2,2*%
%TO.N,SDA*%
X92125000Y-90000000D03*
%TO.P,U2,1*%
%TO.N,GND*%
X92125000Y-89350000D03*
%TD*%
D18*
%TO.P,C8,2*%
%TO.N,USB_N*%
X57568000Y-75000000D03*
%TO.P,C8,1*%
%TO.N,GND*%
X58432000Y-75000000D03*
%TD*%
D19*
%TO.P,J2,S2,SHIELD*%
%TO.N,GND*%
X51750000Y-78962500D03*
%TO.P,J2,S1,SHIELD*%
X51750000Y-77037500D03*
D20*
%TO.P,J2,9,SHIELD*%
X52000000Y-80725000D03*
%TO.P,J2,8,SHIELD*%
X52000000Y-75275000D03*
D21*
%TO.P,J2,7,SHIELD*%
X55030000Y-80425000D03*
%TO.P,J2,6,SHIELD*%
X55030000Y-75575000D03*
D22*
%TO.P,J2,5,GND*%
X54825000Y-79300000D03*
%TO.P,J2,4,ID*%
%TO.N,unconnected-(J2-ID-Pad4)*%
X54825000Y-78650000D03*
%TO.P,J2,3,D+*%
%TO.N,USB_P*%
X54825000Y-78000000D03*
%TO.P,J2,2,D-*%
%TO.N,USB_N*%
X54825000Y-77350000D03*
%TO.P,J2,1,VCC*%
%TO.N,Net-(J2-VCC)*%
X54825000Y-76700000D03*
%TD*%
D23*
%TO.P,Q1,3*%
%TO.N,Net-(D2-PadA)*%
X95050000Y-72255000D03*
%TO.P,Q1,2*%
%TO.N,GND*%
X94100000Y-69745000D03*
%TO.P,Q1,1*%
%TO.N,Net-(Q1-Pad1)*%
X96000000Y-69745000D03*
%TD*%
D24*
%TO.P,U1,33,GND*%
%TO.N,GND*%
X95000000Y-80000000D03*
D25*
%TO.P,U1,32,PD2*%
%TO.N,unconnected-(U1-PD2-Pad32)*%
X96750000Y-82437500D03*
%TO.P,U1,31,PD1*%
%TO.N,TX-O*%
X96250000Y-82437500D03*
%TO.P,U1,30,PD0*%
%TO.N,RX-I*%
X95750000Y-82437500D03*
%TO.P,U1,29,~{RESET}/PC6*%
%TO.N,RESET*%
X95250000Y-82437500D03*
%TO.P,U1,28,PC5*%
%TO.N,SCL*%
X94750000Y-82437500D03*
%TO.P,U1,27,PC4*%
%TO.N,SDA*%
X94250000Y-82437500D03*
%TO.P,U1,26,PC3*%
%TO.N,unconnected-(U1-PC3-Pad26)*%
X93750000Y-82437500D03*
%TO.P,U1,25,PC2*%
%TO.N,unconnected-(U1-PC2-Pad25)*%
X93250000Y-82437500D03*
D26*
%TO.P,U1,24,PC1*%
%TO.N,unconnected-(U1-PC1-Pad24)*%
X92562500Y-81750000D03*
%TO.P,U1,23,PC0*%
%TO.N,unconnected-(U1-PC0-Pad23)*%
X92562500Y-81250000D03*
%TO.P,U1,22,ADC7*%
%TO.N,unconnected-(U1-ADC7-Pad22)*%
X92562500Y-80750000D03*
%TO.P,U1,21,GND*%
%TO.N,GND*%
X92562500Y-80250000D03*
%TO.P,U1,20,AREF*%
%TO.N,unconnected-(U1-AREF-Pad20)*%
X92562500Y-79750000D03*
%TO.P,U1,19,ADC6*%
%TO.N,unconnected-(U1-ADC6-Pad19)*%
X92562500Y-79250000D03*
%TO.P,U1,18,AVCC*%
%TO.N,+3.3V*%
X92562500Y-78750000D03*
%TO.P,U1,17,PB5*%
%TO.N,SCK*%
X92562500Y-78250000D03*
D25*
%TO.P,U1,16,PB4*%
%TO.N,MISO*%
X93250000Y-77562500D03*
%TO.P,U1,15,PB3*%
%TO.N,MOSI*%
X93750000Y-77562500D03*
%TO.P,U1,14,PB2*%
%TO.N,unconnected-(U1-PB2-Pad14)*%
X94250000Y-77562500D03*
%TO.P,U1,13,PB1*%
%TO.N,unconnected-(U1-PB1-Pad13)*%
X94750000Y-77562500D03*
%TO.P,U1,12,PB0*%
%TO.N,unconnected-(U1-PB0-Pad12)*%
X95250000Y-77562500D03*
%TO.P,U1,11,PD7*%
%TO.N,PD7*%
X95750000Y-77562500D03*
%TO.P,U1,10,PD6*%
%TO.N,PD6*%
X96250000Y-77562500D03*
%TO.P,U1,9,PD5*%
%TO.N,PD5*%
X96750000Y-77562500D03*
D26*
%TO.P,U1,8,XTAL2/PB7*%
%TO.N,Net-(U1-XTAL2{slash}PB7)*%
X97437500Y-78250000D03*
%TO.P,U1,7,XTAL1/PB6*%
%TO.N,Net-(U1-XTAL1{slash}PB6)*%
X97437500Y-78750000D03*
%TO.P,U1,6,VCC*%
%TO.N,+3.3V*%
X97437500Y-79250000D03*
%TO.P,U1,5,GND*%
%TO.N,GND*%
X97437500Y-79750000D03*
%TO.P,U1,4,VCC*%
%TO.N,+3.3V*%
X97437500Y-80250000D03*
%TO.P,U1,3,GND*%
%TO.N,GND*%
X97437500Y-80750000D03*
%TO.P,U1,2,PD4*%
%TO.N,PD4*%
X97437500Y-81250000D03*
%TO.P,U1,1,PD3*%
%TO.N,PD3*%
X97437500Y-81750000D03*
%TD*%
D27*
%TO.P,R6,1*%
%TO.N,Net-(D4-Pad2)*%
X66000000Y-66568000D03*
%TO.P,R6,2*%
%TO.N,+3.3V*%
X66000000Y-67432000D03*
%TD*%
D14*
%TO.P,J7,1,1*%
%TO.N,Net-(J7-Pad1)*%
X127500000Y-84680000D03*
D13*
%TO.P,J7,2,2*%
%TO.N,GND*%
X124500000Y-84680000D03*
%TD*%
D28*
%TO.P,R9,1*%
%TO.N,Net-(Q3-Pad1)*%
X146500000Y-72350000D03*
%TO.P,R9,2*%
%TO.N,PD7*%
X146500000Y-73650000D03*
%TD*%
D29*
%TO.P,U3,1,SCL/SPC*%
%TO.N,SCL*%
X75275000Y-91000000D03*
%TO.P,U3,2,RES*%
%TO.N,unconnected-(U3-RES-Pad2)*%
X75275000Y-90500000D03*
%TO.P,U3,3,CS*%
%TO.N,CS*%
X75275000Y-90000000D03*
%TO.P,U3,4,SDA/SDI/O*%
%TO.N,SDA*%
X75275000Y-89500000D03*
%TO.P,U3,5,NC*%
%TO.N,unconnected-(U3-NC-Pad5)*%
X75275000Y-89000000D03*
%TO.P,U3,6,VDD*%
%TO.N,+3.3V*%
X72725000Y-89000000D03*
%TO.P,U3,7,GND*%
%TO.N,GND*%
X72725000Y-89500000D03*
%TO.P,U3,8,GND*%
X72725000Y-90000000D03*
%TO.P,U3,9,VDD*%
%TO.N,+3.3V*%
X72725000Y-90500000D03*
%TO.P,U3,10,INT*%
%TO.N,unconnected-(U3-INT-Pad10)*%
X72725000Y-91000000D03*
%TD*%
D30*
%TO.P,C10,1*%
%TO.N,+3.3V*%
X90000000Y-78700000D03*
%TO.P,C10,2*%
%TO.N,GND*%
X90000000Y-81300000D03*
%TD*%
D14*
%TO.P,J3,1,1*%
%TO.N,+12V*%
X92000000Y-65000000D03*
D13*
%TO.P,J3,2,2*%
%TO.N,Net-(D2-PadA)*%
X95000000Y-65000000D03*
%TD*%
D12*
%TO.P,C7,1*%
%TO.N,+3.3V*%
X62700000Y-82000000D03*
%TO.P,C7,2*%
%TO.N,GND*%
X65300000Y-82000000D03*
%TD*%
D31*
%TO.P,C3,1*%
%TO.N,GND*%
X88000000Y-80330000D03*
%TO.P,C3,2*%
%TO.N,+3.3V*%
X88000000Y-79670000D03*
%TD*%
D32*
%TO.P,Q2,3*%
%TO.N,Net-(J4-Pad2)*%
X124245000Y-71000000D03*
%TO.P,Q2,2*%
%TO.N,GND*%
X126755000Y-70050000D03*
%TO.P,Q2,1*%
%TO.N,Net-(Q2-Pad1)*%
X126755000Y-71950000D03*
%TD*%
D33*
%TO.P,C5,1*%
%TO.N,GND*%
X92670000Y-88000000D03*
%TO.P,C5,2*%
%TO.N,+3.3V*%
X93330000Y-88000000D03*
%TD*%
%TO.P,C11,1*%
%TO.N,Net-(U6-~{DTR}#)*%
X69670000Y-72000000D03*
%TO.P,C11,2*%
%TO.N,RESET*%
X70330000Y-72000000D03*
%TD*%
D34*
%TO.P,D1,1,K*%
%TO.N,+12V*%
X74000000Y-70000000D03*
%TO.P,D1,2,A*%
%TO.N,Net-(D1-A)*%
X78000000Y-70000000D03*
%TD*%
D18*
%TO.P,R8,2*%
%TO.N,GND*%
X129932000Y-70000000D03*
%TO.P,R8,1*%
%TO.N,Net-(Q2-Pad1)*%
X129068000Y-70000000D03*
%TD*%
D35*
%TO.P,R14,1*%
%TO.N,Net-(J6-Pad1)*%
X144820000Y-80000000D03*
%TO.P,R14,2*%
%TO.N,PD3*%
X143180000Y-80000000D03*
%TD*%
D36*
%TO.P,H3,1,1*%
%TO.N,GND*%
X163000000Y-93000000D03*
%TD*%
D27*
%TO.P,R16,1*%
%TO.N,Net-(D3-Pad2)*%
X61000000Y-66568000D03*
%TO.P,R16,2*%
%TO.N,+3.3V*%
X61000000Y-67432000D03*
%TD*%
D32*
%TO.P,Q3,1*%
%TO.N,Net-(Q3-Pad1)*%
X143755000Y-71950000D03*
%TO.P,Q3,2*%
%TO.N,GND*%
X143755000Y-70050000D03*
%TO.P,Q3,3*%
%TO.N,Net-(J5-Pad2)*%
X141245000Y-71000000D03*
%TD*%
D13*
%TO.P,J5,2,2*%
%TO.N,Net-(J5-Pad2)*%
X146000000Y-65000000D03*
D14*
%TO.P,J5,1,1*%
%TO.N,+12V*%
X143000000Y-65000000D03*
%TD*%
D36*
%TO.P,H2,1,1*%
%TO.N,GND*%
X57000000Y-93000000D03*
%TD*%
D37*
%TO.P,D2,A*%
%TO.N,Net-(D2-PadA)*%
X92000000Y-71930000D03*
%TO.P,D2,C*%
%TO.N,+12V*%
X92000000Y-69560000D03*
%TD*%
D18*
%TO.P,R5,1*%
%TO.N,Net-(Q1-Pad1)*%
X99000000Y-69745000D03*
%TO.P,R5,2*%
%TO.N,GND*%
X99864000Y-69745000D03*
%TD*%
%TO.P,R1,1*%
%TO.N,+3.3V*%
X99432000Y-84000000D03*
%TO.P,R1,2*%
%TO.N,RESET*%
X98568000Y-84000000D03*
%TD*%
D30*
%TO.P,C2,1*%
%TO.N,+3.3V*%
X84000000Y-78700000D03*
%TO.P,C2,2*%
%TO.N,GND*%
X84000000Y-81300000D03*
%TD*%
D18*
%TO.P,R11,1*%
%TO.N,+3.3V*%
X77432000Y-90000000D03*
%TO.P,R11,2*%
%TO.N,CS*%
X76568000Y-90000000D03*
%TD*%
D38*
%TO.P,U6,1,~{DTR}#*%
%TO.N,Net-(U6-~{DTR}#)*%
X66857500Y-73525000D03*
%TO.P,U6,2,~{RTS}#*%
%TO.N,unconnected-(U6-~{RTS}#-Pad2)*%
X66222500Y-73525000D03*
%TO.P,U6,3,VCCIO*%
%TO.N,+3.3V*%
X65587500Y-73525000D03*
%TO.P,U6,4,RXD*%
%TO.N,TX-O*%
X64952500Y-73525000D03*
%TO.P,U6,5,~{RI}#*%
%TO.N,unconnected-(U6-~{RI}#-Pad5)*%
X64317500Y-73525000D03*
%TO.P,U6,6,GND*%
%TO.N,GND*%
X63682500Y-73525000D03*
%TO.P,U6,7,~{DSR}#*%
%TO.N,unconnected-(U6-~{DSR}#-Pad7)*%
X63047500Y-73525000D03*
%TO.P,U6,8,~{DCD}#*%
%TO.N,unconnected-(U6-~{DCD}#-Pad8)*%
X62412500Y-73525000D03*
%TO.P,U6,9,~{CTS}#*%
%TO.N,unconnected-(U6-~{CTS}#-Pad9)*%
X61777500Y-73525000D03*
%TO.P,U6,10,CBUS2*%
%TO.N,unconnected-(U6-CBUS2-Pad10)*%
X61142500Y-73525000D03*
%TO.P,U6,11,USBDP*%
%TO.N,Net-(U6-USBDP)*%
X61142500Y-78475000D03*
%TO.P,U6,12,USBDM*%
%TO.N,Net-(U6-USBDM)*%
X61777500Y-78475000D03*
%TO.P,U6,13,3V3OUT*%
%TO.N,+3.3V*%
X62412500Y-78475000D03*
%TO.P,U6,14,~{RESET}#*%
%TO.N,unconnected-(U6-~{RESET}#-Pad14)*%
X63047500Y-78475000D03*
%TO.P,U6,15,VCC*%
%TO.N,USBVCC*%
X63682500Y-78475000D03*
%TO.P,U6,16,GND*%
%TO.N,GND*%
X64317500Y-78475000D03*
%TO.P,U6,17,CBUS1*%
%TO.N,unconnected-(U6-CBUS1-Pad17)*%
X64952500Y-78475000D03*
%TO.P,U6,18,CBUS0*%
%TO.N,unconnected-(U6-CBUS0-Pad18)*%
X65587500Y-78475000D03*
%TO.P,U6,19,CBUS3*%
%TO.N,unconnected-(U6-CBUS3-Pad19)*%
X66222500Y-78475000D03*
%TO.P,U6,20,TXD*%
%TO.N,RX-I*%
X66857500Y-78475000D03*
%TD*%
D18*
%TO.P,C9,1*%
%TO.N,GND*%
X58432000Y-81000000D03*
%TO.P,C9,2*%
%TO.N,USB_P*%
X57568000Y-81000000D03*
%TD*%
D13*
%TO.P,J1,2,2*%
%TO.N,GND*%
X77000000Y-65000000D03*
D14*
%TO.P,J1,1,1*%
%TO.N,Net-(D1-A)*%
X74000000Y-65000000D03*
%TD*%
D39*
%TO.P,Y1,1*%
%TO.N,Net-(U1-XTAL2{slash}PB7)*%
X100000000Y-77800000D03*
%TO.P,Y1,2*%
%TO.N,GND*%
X100000000Y-79000000D03*
%TO.P,Y1,3*%
%TO.N,Net-(U1-XTAL1{slash}PB6)*%
X100000000Y-80200000D03*
%TD*%
D40*
%TO.P,FL1,1*%
%TO.N,Net-(J2-VCC)*%
X57110000Y-72000000D03*
%TO.P,FL1,2*%
%TO.N,USBVCC*%
X58890000Y-72000000D03*
%TD*%
D28*
%TO.P,R7,1*%
%TO.N,Net-(Q2-Pad1)*%
X129000000Y-72000000D03*
%TO.P,R7,2*%
%TO.N,PD6*%
X129000000Y-73300000D03*
%TD*%
D27*
%TO.P,R2,1*%
%TO.N,SDA*%
X90000000Y-89568000D03*
%TO.P,R2,2*%
%TO.N,+3.3V*%
X90000000Y-90432000D03*
%TD*%
D41*
%TO.P,U5,1,GND*%
%TO.N,GND*%
X80300000Y-81805000D03*
%TO.P,U5,2,VO*%
%TO.N,+3.3V*%
X80300000Y-79525000D03*
D42*
X75675000Y-81050000D03*
X75675000Y-78000000D03*
D43*
X74000000Y-79525000D03*
D42*
X72325000Y-81050000D03*
X72325000Y-78000000D03*
D41*
%TO.P,U5,3,VI*%
%TO.N,+12V*%
X80300000Y-77245000D03*
%TD*%
D33*
%TO.P,C4,1*%
%TO.N,GND*%
X99330000Y-85000000D03*
%TO.P,C4,2*%
%TO.N,RESET*%
X98670000Y-85000000D03*
%TD*%
D36*
%TO.P,H4,1,1*%
%TO.N,GND*%
X163000000Y-57000000D03*
%TD*%
%TO.P,H1,1,1*%
%TO.N,GND*%
X57000000Y-57000000D03*
%TD*%
D27*
%TO.P,R3,1*%
%TO.N,SCL*%
X96000000Y-89568000D03*
%TO.P,R3,2*%
%TO.N,+3.3V*%
X96000000Y-90432000D03*
%TD*%
D18*
%TO.P,R10,1*%
%TO.N,Net-(Q3-Pad1)*%
X146932000Y-70000000D03*
%TO.P,R10,2*%
%TO.N,GND*%
X146068000Y-70000000D03*
%TD*%
D33*
%TO.P,C6,1*%
%TO.N,+3.3V*%
X70670000Y-90000000D03*
%TO.P,C6,2*%
%TO.N,GND*%
X71330000Y-90000000D03*
%TD*%
D44*
%TO.P,R4,1*%
%TO.N,Net-(Q1-Pad1)*%
X98700000Y-71745000D03*
%TO.P,R4,2*%
%TO.N,PD5*%
X100000000Y-71745000D03*
%TD*%
D45*
%TO.P,J8,1,1*%
%TO.N,MISO*%
X112540000Y-61270000D03*
D46*
%TO.P,J8,2,2*%
%TO.N,+3.3V*%
X112540000Y-58730000D03*
%TO.P,J8,3,3*%
%TO.N,SCK*%
X110000000Y-61270000D03*
%TO.P,J8,4,4*%
%TO.N,MOSI*%
X110000000Y-58730000D03*
%TO.P,J8,5,5*%
%TO.N,RESET*%
X107460000Y-61270000D03*
%TO.P,J8,6,6*%
%TO.N,GND*%
X107460000Y-58730000D03*
%TD*%
D47*
%TO.N,+3.3V*%
X100000000Y-88000000D03*
X94934413Y-88065587D03*
X95000000Y-89000000D03*
X95000000Y-91000000D03*
X91000000Y-91000000D03*
X89000000Y-90000000D03*
X97000000Y-90000000D03*
X100000000Y-86000000D03*
X98374999Y-80675000D03*
X78000000Y-80000000D03*
X88000000Y-78000000D03*
X78000000Y-89000000D03*
X72000000Y-88000000D03*
X72000000Y-81000000D03*
X74000000Y-81000000D03*
X76000000Y-81000000D03*
X76000000Y-78000000D03*
X74000000Y-78000000D03*
X72000000Y-78000000D03*
X63000000Y-84000000D03*
X65000000Y-71000000D03*
X67000000Y-67000000D03*
X62000000Y-67000000D03*
%TO.N,+12V*%
X82000000Y-74000000D03*
X72000000Y-74000000D03*
X72000000Y-70000000D03*
%TO.N,SCK*%
X92000000Y-74000000D03*
X106000000Y-69000000D03*
%TO.N,RESET*%
X85500000Y-83500000D03*
X87000000Y-82000000D03*
X95077087Y-85922913D03*
X87000000Y-76000000D03*
%TO.N,Net-(U6-~{DTR}#)*%
X67000000Y-71000000D03*
X69000000Y-71000000D03*
%TO.N,TX-O*%
X97000000Y-84000000D03*
%TO.N,RX-I*%
X96000000Y-84000000D03*
X89617408Y-83567429D03*
%TO.N,GND*%
X103000000Y-79000000D03*
%TO.N,TX-O*%
X67000000Y-76000000D03*
%TO.N,GND*%
X51750000Y-78962500D03*
X51750000Y-77037500D03*
X99000000Y-86000000D03*
X93000000Y-87000000D03*
X80000000Y-74000000D03*
X100000000Y-68000000D03*
X94000000Y-68000000D03*
X84000000Y-83000000D03*
X88000000Y-82000000D03*
X96000000Y-81000000D03*
X95000000Y-81000000D03*
X94000000Y-81000000D03*
X94000000Y-80000000D03*
X95000000Y-80000000D03*
X96000000Y-80000000D03*
X96000000Y-79000000D03*
X95000000Y-79000000D03*
X94000000Y-79000000D03*
X81000000Y-84000000D03*
X128000000Y-69000000D03*
X145000000Y-69000000D03*
X58000000Y-74000000D03*
X64000000Y-76000000D03*
X60000000Y-81000000D03*
X68000000Y-82000000D03*
X74000000Y-90000000D03*
%TO.N,RESET*%
X104000000Y-83000000D03*
X114000000Y-73000000D03*
%TO.N,MISO*%
X93000000Y-75000000D03*
X104000000Y-73000000D03*
%TO.N,PD6*%
X127000000Y-74000000D03*
X127000000Y-76000000D03*
%TO.N,PD3*%
X102000000Y-82000000D03*
X106000000Y-80000000D03*
%TO.N,PD6*%
X97000000Y-76000000D03*
X101000000Y-76000000D03*
%TO.N,PD5*%
X99000000Y-76000000D03*
X99000000Y-76000000D03*
X99000000Y-76000000D03*
X99000000Y-74000000D03*
X99000000Y-74000000D03*
X99000000Y-74000000D03*
%TO.N,SCL*%
X79000000Y-91000000D03*
X79000000Y-91000000D03*
X79000000Y-91000000D03*
X92000000Y-86000000D03*
%TD*%
D48*
%TO.N,RESET*%
X95077087Y-85922913D02*
X95077087Y-83037860D01*
X95077087Y-83037860D02*
X95250000Y-82864947D01*
X96645087Y-85922913D02*
X98568000Y-84000000D01*
X95250000Y-82864947D02*
X95250000Y-82437500D01*
X95077087Y-85922913D02*
X96645087Y-85922913D01*
%TO.N,SCL*%
X94000000Y-86000000D02*
X92000000Y-86000000D01*
%TO.N,RX-I*%
X89617408Y-83567429D02*
X88609837Y-84575000D01*
X72700610Y-84575000D02*
X68000000Y-79874390D01*
X88609837Y-84575000D02*
X72700610Y-84575000D01*
X68000000Y-79874390D02*
X68000000Y-77332500D01*
X96000000Y-84000000D02*
X95750000Y-83750000D01*
X95750000Y-83750000D02*
X95750000Y-82437500D01*
%TO.N,TX-O*%
X96250000Y-82437500D02*
X96350000Y-82537500D01*
X96350000Y-82537500D02*
X96350000Y-83350000D01*
X96350000Y-83350000D02*
X97000000Y-84000000D01*
%TO.N,+3.3V*%
X97437500Y-79250000D02*
X97874999Y-79250000D01*
X97874999Y-79250000D02*
X98374999Y-79750000D01*
X98374999Y-79750000D02*
X98374999Y-80675000D01*
%TO.N,SCL*%
X94000000Y-86000000D02*
X94341000Y-86000000D01*
X94341000Y-86000000D02*
X96000000Y-87659000D01*
X96000000Y-87659000D02*
X96000000Y-89568000D01*
%TO.N,+3.3V*%
X93330000Y-88000000D02*
X95000000Y-88000000D01*
X95000000Y-88000000D02*
X94934413Y-88065587D01*
X94650000Y-89350000D02*
X95000000Y-89000000D01*
X93875000Y-89350000D02*
X94650000Y-89350000D01*
X94650000Y-90650000D02*
X95000000Y-91000000D01*
X93875000Y-90650000D02*
X94650000Y-90650000D01*
X91350000Y-90650000D02*
X91000000Y-91000000D01*
X92125000Y-90650000D02*
X91350000Y-90650000D01*
X89432000Y-90432000D02*
X89000000Y-90000000D01*
X90000000Y-90432000D02*
X89432000Y-90432000D01*
X96568000Y-90432000D02*
X97000000Y-90000000D01*
X96000000Y-90432000D02*
X96568000Y-90432000D01*
X100000000Y-84568000D02*
X100000000Y-86000000D01*
X99432000Y-84000000D02*
X100000000Y-84568000D01*
%TO.N,RESET*%
X98568000Y-84000000D02*
X98568000Y-83744000D01*
X98568000Y-83744000D02*
X99312000Y-83000000D01*
X99312000Y-83000000D02*
X104000000Y-83000000D01*
%TO.N,GND*%
X99000000Y-86000000D02*
X99330000Y-85670000D01*
X99330000Y-85670000D02*
X99330000Y-85000000D01*
%TO.N,+3.3V*%
X97949999Y-80250000D02*
X98374999Y-80675000D01*
X97437500Y-80250000D02*
X97949999Y-80250000D01*
D49*
X78475000Y-79525000D02*
X78000000Y-80000000D01*
X80300000Y-79525000D02*
X78475000Y-79525000D01*
X87300000Y-78700000D02*
X88000000Y-78000000D01*
X84000000Y-78700000D02*
X87300000Y-78700000D01*
D48*
X78000000Y-89432000D02*
X78000000Y-89000000D01*
X77432000Y-90000000D02*
X78000000Y-89432000D01*
D49*
X72725000Y-88725000D02*
X72000000Y-88000000D01*
X72725000Y-89000000D02*
X72725000Y-88725000D01*
D50*
X62700000Y-83700000D02*
X63000000Y-84000000D01*
X62700000Y-82000000D02*
X62700000Y-83700000D01*
D48*
X65587500Y-71587500D02*
X65000000Y-71000000D01*
X65587500Y-73525000D02*
X65587500Y-71587500D01*
X66568000Y-67432000D02*
X67000000Y-67000000D01*
X66000000Y-67432000D02*
X66568000Y-67432000D01*
X61568000Y-67432000D02*
X62000000Y-67000000D01*
X61000000Y-67432000D02*
X61568000Y-67432000D01*
%TO.N,+12V*%
X82000000Y-75545000D02*
X82000000Y-74000000D01*
X80300000Y-77245000D02*
X82000000Y-75545000D01*
X74700000Y-74000000D02*
X72000000Y-74000000D01*
X74000000Y-70000000D02*
X72000000Y-70000000D01*
%TO.N,SCK*%
X92000000Y-74000000D02*
X92000000Y-77687500D01*
X92000000Y-77687500D02*
X92562500Y-78250000D01*
X110000000Y-61270000D02*
X110000000Y-65000000D01*
X110000000Y-65000000D02*
X106000000Y-69000000D01*
%TO.N,SDA*%
X75275000Y-89500000D02*
X75725000Y-89500000D01*
X75725000Y-89500000D02*
X80225000Y-85000000D01*
X80225000Y-85000000D02*
X92124999Y-85000000D01*
%TO.N,RESET*%
X87000000Y-82000000D02*
X86000000Y-82000000D01*
X85500000Y-82500000D02*
X85500000Y-83500000D01*
X86000000Y-82000000D02*
X85500000Y-82500000D01*
D49*
%TO.N,GND*%
X90000000Y-81300000D02*
X88700000Y-81300000D01*
X88700000Y-81300000D02*
X88000000Y-82000000D01*
D48*
%TO.N,RESET*%
X70330000Y-72000000D02*
X83000000Y-72000000D01*
X83000000Y-72000000D02*
X87000000Y-76000000D01*
%TO.N,Net-(U6-~{DTR}#)*%
X69670000Y-72000000D02*
X69000000Y-71330000D01*
X69000000Y-71330000D02*
X69000000Y-71000000D01*
%TO.N,USBVCC*%
X58890000Y-72000000D02*
X58890000Y-73890000D01*
X58890000Y-73890000D02*
X61000000Y-76000000D01*
X61000000Y-76000000D02*
X63000000Y-76000000D01*
X63000000Y-76000000D02*
X63682500Y-76682500D01*
X63682500Y-76682500D02*
X63682500Y-78475000D01*
%TO.N,RX-I*%
X64000000Y-67800000D02*
X64800000Y-67800000D01*
X64800000Y-67800000D02*
X68000000Y-71000000D01*
X68000000Y-71000000D02*
X68000000Y-77332500D01*
%TO.N,Net-(U6-~{DTR}#)*%
X67000000Y-71000000D02*
X67000000Y-72000000D01*
X67000000Y-72000000D02*
X66857500Y-72142500D01*
X66857500Y-72142500D02*
X66857500Y-73525000D01*
%TO.N,RESET*%
X98568000Y-84000000D02*
X98568000Y-84898000D01*
X98568000Y-84898000D02*
X98670000Y-85000000D01*
%TO.N,SCL*%
X94750000Y-82437500D02*
X94750000Y-82869973D01*
X94000000Y-83619973D02*
X94000000Y-86000000D01*
X94750000Y-82869973D02*
X94000000Y-83619973D01*
%TO.N,GND*%
X100000000Y-79000000D02*
X103000000Y-79000000D01*
%TO.N,RX-I*%
X68000000Y-77332500D02*
X66857500Y-78475000D01*
%TO.N,TX-O*%
X64952500Y-74509999D02*
X66442501Y-76000000D01*
X66442501Y-76000000D02*
X67000000Y-76000000D01*
X64952500Y-73525000D02*
X64952500Y-74509999D01*
%TO.N,GND*%
X51750000Y-78962500D02*
X51750000Y-77037500D01*
D49*
X92670000Y-87330000D02*
X93000000Y-87000000D01*
X92670000Y-88000000D02*
X92670000Y-87330000D01*
X92125000Y-89350000D02*
X92125000Y-88545000D01*
X92125000Y-88545000D02*
X92670000Y-88000000D01*
%TO.N,Net-(J4-Pad2)*%
X124245000Y-71000000D02*
X125000000Y-70245000D01*
X125000000Y-70245000D02*
X125000000Y-67000000D01*
X125000000Y-67000000D02*
X127000000Y-65000000D01*
%TO.N,Net-(D1-A)*%
X74000000Y-65000000D02*
X78000000Y-69000000D01*
X78000000Y-69000000D02*
X78000000Y-70000000D01*
%TO.N,GND*%
X77300000Y-74000000D02*
X80000000Y-74000000D01*
X99864000Y-68136000D02*
X100000000Y-68000000D01*
X99864000Y-69745000D02*
X99864000Y-68136000D01*
X94100000Y-68100000D02*
X94000000Y-68000000D01*
X94100000Y-69745000D02*
X94100000Y-68100000D01*
X84000000Y-81300000D02*
X84000000Y-83000000D01*
X97437500Y-80750000D02*
X96250000Y-80750000D01*
X96250000Y-80750000D02*
X96000000Y-81000000D01*
X95750000Y-79750000D02*
X95250000Y-79750000D01*
X96000000Y-80000000D02*
X95750000Y-79750000D01*
X96250000Y-79750000D02*
X96000000Y-80000000D01*
X80300000Y-83300000D02*
X81000000Y-84000000D01*
X80300000Y-81805000D02*
X80300000Y-83300000D01*
X126755000Y-70050000D02*
X126950000Y-70050000D01*
X126950000Y-70050000D02*
X128000000Y-69000000D01*
X129482000Y-69000000D02*
X128000000Y-69000000D01*
X129932000Y-69450000D02*
X129482000Y-69000000D01*
X129932000Y-70000000D02*
X129932000Y-69450000D01*
X143950000Y-70050000D02*
X145000000Y-69000000D01*
X143755000Y-70050000D02*
X143950000Y-70050000D01*
X143755000Y-70050000D02*
X146018000Y-70050000D01*
X146018000Y-70050000D02*
X146068000Y-70000000D01*
X54825000Y-79300000D02*
X55950000Y-79300000D01*
X55950000Y-79300000D02*
X56973000Y-80323000D01*
X56973000Y-80323000D02*
X56973000Y-81625000D01*
X56973000Y-81625000D02*
X57348000Y-82000000D01*
X57348000Y-82000000D02*
X58000000Y-82000000D01*
X58000000Y-82000000D02*
X58432000Y-81568000D01*
X58432000Y-81568000D02*
X58432000Y-81000000D01*
X58432000Y-74432000D02*
X58000000Y-74000000D01*
X58432000Y-75000000D02*
X58432000Y-74432000D01*
X64317500Y-78475000D02*
X64317500Y-76317500D01*
X64317500Y-76317500D02*
X64000000Y-76000000D01*
X64000000Y-76000000D02*
X63682500Y-75682500D01*
X63682500Y-73525000D02*
X63682500Y-75682500D01*
X58432000Y-81000000D02*
X60000000Y-81000000D01*
X65300000Y-82000000D02*
X68000000Y-82000000D01*
X72725000Y-90000000D02*
X74000000Y-90000000D01*
%TO.N,+3.3V*%
X62700000Y-82000000D02*
X62412500Y-81712500D01*
X62412500Y-81712500D02*
X62412500Y-78475000D01*
%TO.N,GND*%
X65300000Y-82000000D02*
X64317500Y-81017500D01*
X64317500Y-81017500D02*
X64317500Y-78475000D01*
D48*
%TO.N,PD4*%
X125161800Y-80000000D02*
X108000000Y-80000000D01*
X108000000Y-80000000D02*
X106750000Y-81250000D01*
X106750000Y-81250000D02*
X97437500Y-81250000D01*
%TO.N,RESET*%
X108537500Y-60192500D02*
X113617500Y-60192500D01*
X113617500Y-60192500D02*
X114000000Y-60575000D01*
X107460000Y-61270000D02*
X108537500Y-60192500D01*
X114000000Y-60575000D02*
X114000000Y-73000000D01*
%TO.N,MOSI*%
X109000000Y-56000000D02*
X110000000Y-57000000D01*
X110000000Y-57000000D02*
X110000000Y-58730000D01*
X109000000Y-56000000D02*
X105000000Y-56000000D01*
X104000000Y-57000000D02*
X104000000Y-70000000D01*
X104000000Y-70000000D02*
X99350000Y-74650000D01*
X99350000Y-74650000D02*
X95350000Y-74650000D01*
X105000000Y-56000000D02*
X104000000Y-57000000D01*
X95350000Y-74650000D02*
X93750000Y-76250000D01*
X93750000Y-76250000D02*
X93750000Y-77562500D01*
%TO.N,MISO*%
X112540000Y-61270000D02*
X112540000Y-64460000D01*
X112540000Y-64460000D02*
X104000000Y-73000000D01*
X93000000Y-75000000D02*
X93000000Y-76000000D01*
X93000000Y-76000000D02*
X93250000Y-76250000D01*
X93250000Y-76250000D02*
X93250000Y-77562500D01*
D49*
%TO.N,Net-(J7-Pad1)*%
X126838200Y-80000000D02*
X126838200Y-84018200D01*
X126838200Y-84018200D02*
X127500000Y-84680000D01*
%TO.N,Net-(J6-Pad1)*%
X144820000Y-80000000D02*
X145000000Y-80180000D01*
X145000000Y-80180000D02*
X145000000Y-84180000D01*
X145000000Y-84180000D02*
X145500000Y-84680000D01*
%TO.N,Net-(Q3-Pad1)*%
X143755000Y-71950000D02*
X145532000Y-71950000D01*
X145532000Y-71950000D02*
X146932000Y-70550000D01*
X146932000Y-70550000D02*
X146932000Y-70000000D01*
X143755000Y-71950000D02*
X146100000Y-71950000D01*
X146100000Y-71950000D02*
X146500000Y-72350000D01*
%TO.N,Net-(J5-Pad2)*%
X141245000Y-71000000D02*
X141000000Y-71000000D01*
X141000000Y-71000000D02*
X141000000Y-70000000D01*
X141000000Y-70000000D02*
X146000000Y-65000000D01*
%TO.N,Net-(Q2-Pad1)*%
X126755000Y-71950000D02*
X128950000Y-71950000D01*
X128950000Y-71950000D02*
X129000000Y-72000000D01*
X126755000Y-71950000D02*
X128705000Y-70000000D01*
X128705000Y-70000000D02*
X129068000Y-70000000D01*
D48*
X129000000Y-72000000D02*
X129068000Y-71932000D01*
X129068000Y-71932000D02*
X129068000Y-70000000D01*
D49*
X128813000Y-69745000D02*
X129068000Y-70000000D01*
%TO.N,+12V*%
X92000000Y-69560000D02*
X92000000Y-65000000D01*
%TO.N,Net-(D2-PadA)*%
X92000000Y-71930000D02*
X94725000Y-71930000D01*
X94725000Y-71930000D02*
X95050000Y-72255000D01*
X95050000Y-72255000D02*
X95050000Y-65050000D01*
X95050000Y-65050000D02*
X95000000Y-65000000D01*
%TO.N,Net-(Q1-Pad1)*%
X96000000Y-69745000D02*
X99000000Y-69745000D01*
X98700000Y-71745000D02*
X98700000Y-70045000D01*
X98700000Y-70045000D02*
X99000000Y-69745000D01*
%TO.N,GND*%
X97437500Y-79750000D02*
X96250000Y-79750000D01*
X95250000Y-79750000D02*
X95000000Y-80000000D01*
%TO.N,+3.3V*%
X84000000Y-78700000D02*
X81125000Y-78700000D01*
X81125000Y-78700000D02*
X80300000Y-79525000D01*
%TO.N,GND*%
X80300000Y-81805000D02*
X83495000Y-81805000D01*
X83495000Y-81805000D02*
X84000000Y-81300000D01*
X88000000Y-80330000D02*
X84970000Y-80330000D01*
X84970000Y-80330000D02*
X84000000Y-81300000D01*
%TO.N,+3.3V*%
X88000000Y-79670000D02*
X84970000Y-79670000D01*
X84970000Y-79670000D02*
X84000000Y-78700000D01*
X88000000Y-79670000D02*
X89030000Y-79670000D01*
X89030000Y-79670000D02*
X90000000Y-78700000D01*
%TO.N,GND*%
X88000000Y-80330000D02*
X89030000Y-80330000D01*
X89030000Y-80330000D02*
X90000000Y-81300000D01*
X92562500Y-80250000D02*
X91050000Y-80250000D01*
X91050000Y-80250000D02*
X90000000Y-81300000D01*
%TO.N,+3.3V*%
X92562500Y-78750000D02*
X90050000Y-78750000D01*
X90050000Y-78750000D02*
X90000000Y-78700000D01*
X72725000Y-90500000D02*
X71885000Y-90500000D01*
X70775000Y-90535000D02*
X70670000Y-90430000D01*
X70670000Y-90430000D02*
X70670000Y-90000000D01*
X71885000Y-90500000D02*
X71850000Y-90535000D01*
X71850000Y-90535000D02*
X70775000Y-90535000D01*
%TO.N,GND*%
X72725000Y-89500000D02*
X71830000Y-89500000D01*
X71830000Y-89500000D02*
X71330000Y-90000000D01*
X72725000Y-90000000D02*
X71330000Y-90000000D01*
%TO.N,+3.3V*%
X72725000Y-89000000D02*
X71210000Y-89000000D01*
X71210000Y-89000000D02*
X70670000Y-89540000D01*
X70670000Y-89540000D02*
X70670000Y-90000000D01*
D48*
%TO.N,PD6*%
X101000000Y-76000000D02*
X127000000Y-76000000D01*
X127700000Y-73300000D02*
X129000000Y-73300000D01*
X127000000Y-74000000D02*
X127700000Y-73300000D01*
%TO.N,PD3*%
X102000000Y-82000000D02*
X97687500Y-82000000D01*
X97687500Y-82000000D02*
X97437500Y-81750000D01*
X130000000Y-77000000D02*
X109000000Y-77000000D01*
X109000000Y-77000000D02*
X106000000Y-80000000D01*
X133000000Y-80000000D02*
X130000000Y-77000000D01*
X143180000Y-80000000D02*
X133000000Y-80000000D01*
%TO.N,PD6*%
X97000000Y-76000000D02*
X96250000Y-76750000D01*
X96250000Y-76750000D02*
X96250000Y-77562500D01*
%TO.N,PD5*%
X99000000Y-76000000D02*
X97437500Y-77562500D01*
X97437500Y-77562500D02*
X96750000Y-77562500D01*
%TO.N,PD7*%
X146500000Y-73650000D02*
X145150000Y-75000000D01*
X145150000Y-75000000D02*
X96000000Y-75000000D01*
X95750000Y-75250000D02*
X95750000Y-77562500D01*
X96000000Y-75000000D02*
X95750000Y-75250000D01*
%TO.N,PD5*%
X100000000Y-73000000D02*
X99000000Y-74000000D01*
X100000000Y-71745000D02*
X100000000Y-73000000D01*
%TO.N,SCL*%
X79000000Y-91000000D02*
X75275000Y-91000000D01*
%TO.N,SDA*%
X92124999Y-85000000D02*
X90000000Y-87124999D01*
X90000000Y-87124999D02*
X90000000Y-89568000D01*
X94250000Y-82874999D02*
X94250000Y-82437500D01*
X92124999Y-85000000D02*
X94250000Y-82874999D01*
%TO.N,TX-O*%
X59000000Y-67800000D02*
X60212499Y-67800000D01*
X60212499Y-67800000D02*
X64952500Y-72540001D01*
X64952500Y-72540001D02*
X64952500Y-73525000D01*
%TO.N,Net-(D3-Pad2)*%
X59000000Y-66200000D02*
X60632000Y-66200000D01*
X60632000Y-66200000D02*
X61000000Y-66568000D01*
%TO.N,Net-(D4-Pad2)*%
X64000000Y-66200000D02*
X65632000Y-66200000D01*
X65632000Y-66200000D02*
X66000000Y-66568000D01*
%TO.N,Net-(U1-XTAL1{slash}PB6)*%
X100000000Y-80200000D02*
X99504030Y-80200000D01*
X99504030Y-80200000D02*
X98054030Y-78750000D01*
X98054030Y-78750000D02*
X97437500Y-78750000D01*
%TO.N,Net-(U1-XTAL2{slash}PB7)*%
X100000000Y-77800000D02*
X97887500Y-77800000D01*
X97887500Y-77800000D02*
X97437500Y-78250000D01*
%TO.N,SCL*%
X96000000Y-89568000D02*
X95550000Y-89568000D01*
X95550000Y-89568000D02*
X95118000Y-90000000D01*
X95118000Y-90000000D02*
X93875000Y-90000000D01*
%TO.N,SDA*%
X90000000Y-89568000D02*
X90450000Y-89568000D01*
X90882000Y-90000000D02*
X92125000Y-90000000D01*
X90450000Y-89568000D02*
X90882000Y-90000000D01*
%TO.N,CS*%
X75275000Y-90000000D02*
X76568000Y-90000000D01*
%TO.N,Net-(J2-VCC)*%
X57110000Y-72000000D02*
X57000000Y-72000000D01*
X57000000Y-72000000D02*
X57000000Y-75550000D01*
X57000000Y-75550000D02*
X55850000Y-76700000D01*
X55850000Y-76700000D02*
X54825000Y-76700000D01*
D50*
%TO.N,+3.3V*%
X62700000Y-82000000D02*
X63000000Y-82000000D01*
X63000000Y-82000000D02*
X62412500Y-81412500D01*
%TO.N,Net-(U6-USBDP)*%
X58512000Y-79000000D02*
X60617500Y-79000000D01*
X60617500Y-79000000D02*
X61142500Y-78475000D01*
%TO.N,USB_N*%
X57568000Y-75000000D02*
X57568000Y-76920000D01*
X57568000Y-76920000D02*
X57488000Y-77000000D01*
%TO.N,USB_P*%
X57488000Y-79000000D02*
X57488000Y-79488000D01*
X57488000Y-79488000D02*
X57568000Y-79568000D01*
X57568000Y-79568000D02*
X57568000Y-81000000D01*
%TO.N,Net-(U6-USBDM)*%
X58512000Y-77000000D02*
X61287499Y-77000000D01*
X61287499Y-77000000D02*
X61777500Y-77490001D01*
X61777500Y-77490001D02*
X61777500Y-78475000D01*
%TO.N,USB_P*%
X54825000Y-78000000D02*
X54838603Y-78000000D01*
X54988603Y-78150000D02*
X56262999Y-78150000D01*
X54838603Y-78000000D02*
X54988603Y-78150000D01*
X56262999Y-78150000D02*
X57112999Y-79000000D01*
X57112999Y-79000000D02*
X57488000Y-79000000D01*
%TO.N,USB_N*%
X54975000Y-77500000D02*
X56000000Y-77500000D01*
X54825000Y-77350000D02*
X54975000Y-77500000D01*
X56000000Y-77500000D02*
X56000000Y-77700020D01*
X56000000Y-77700020D02*
X56412979Y-77700020D01*
X56412979Y-77700020D02*
X57112999Y-77000000D01*
X57112999Y-77000000D02*
X57488000Y-77000000D01*
%TD*%
M02*
