%TF.GenerationSoftware,KiCad,Pcbnew,8.0.4*%
%TF.CreationDate,2024-11-12T21:14:04-08:00*%
%TF.ProjectId,Butterfly_v0,42757474-6572-4666-9c79-5f76302e6b69,rev?*%
%TF.SameCoordinates,Original*%
%TF.FileFunction,Paste,Top*%
%TF.FilePolarity,Positive*%
%FSLAX46Y46*%
G04 Gerber Fmt 4.6, Leading zero omitted, Abs format (unit mm)*
G04 Created by KiCad (PCBNEW 8.0.4) date 2024-11-12 21:14:04*
%MOMM*%
%LPD*%
G01*
G04 APERTURE LIST*
G04 Aperture macros list*
%AMRoundRect*
0 Rectangle with rounded corners*
0 $1 Rounding radius*
0 $2 $3 $4 $5 $6 $7 $8 $9 X,Y pos of 4 corners*
0 Add a 4 corners polygon primitive as box body*
4,1,4,$2,$3,$4,$5,$6,$7,$8,$9,$2,$3,0*
0 Add four circle primitives for the rounded corners*
1,1,$1+$1,$2,$3*
1,1,$1+$1,$4,$5*
1,1,$1+$1,$6,$7*
1,1,$1+$1,$8,$9*
0 Add four rect primitives between the rounded corners*
20,1,$1+$1,$2,$3,$4,$5,0*
20,1,$1+$1,$4,$5,$6,$7,0*
20,1,$1+$1,$6,$7,$8,$9,0*
20,1,$1+$1,$8,$9,$2,$3,0*%
G04 Aperture macros list end*
%ADD10C,0.010000*%
%ADD11R,0.475000X0.500000*%
%ADD12RoundRect,0.165000X-0.740000X-0.495000X0.740000X-0.495000X0.740000X0.495000X-0.740000X0.495000X0*%
%ADD13R,0.800000X0.800000*%
%ADD14R,0.762000X0.939800*%
%ADD15R,0.550000X0.300000*%
%ADD16R,0.540000X0.600000*%
%ADD17R,2.500000X1.425000*%
%ADD18R,1.750000X0.400000*%
%ADD19RoundRect,0.147500X-0.147500X0.457500X-0.147500X-0.457500X0.147500X-0.457500X0.147500X0.457500X0*%
%ADD20RoundRect,0.062500X0.062500X0.375000X-0.062500X0.375000X-0.062500X-0.375000X0.062500X-0.375000X0*%
%ADD21RoundRect,0.062500X0.375000X0.062500X-0.375000X0.062500X-0.375000X-0.062500X0.375000X-0.062500X0*%
%ADD22RoundRect,0.207500X0.207500X0.207500X-0.207500X0.207500X-0.207500X-0.207500X0.207500X-0.207500X0*%
%ADD23R,0.600000X0.540000*%
%ADD24R,0.900000X0.700000*%
%ADD25RoundRect,0.165000X-0.495000X0.740000X-0.495000X-0.740000X0.495000X-0.740000X0.495000X0.740000X0*%
%ADD26R,0.420000X0.460000*%
%ADD27RoundRect,0.147500X0.457500X0.147500X-0.457500X0.147500X-0.457500X-0.147500X0.457500X-0.147500X0*%
%ADD28R,0.460000X0.420000*%
%ADD29RoundRect,0.250000X-1.000000X-0.650000X1.000000X-0.650000X1.000000X0.650000X-1.000000X0.650000X0*%
%ADD30R,0.790000X0.930000*%
%ADD31R,0.500000X1.050000*%
%ADD32RoundRect,0.020500X-0.184500X0.964500X-0.184500X-0.964500X0.184500X-0.964500X0.184500X0.964500X0*%
%ADD33R,1.900000X0.400000*%
%ADD34R,1.140000X1.470000*%
%ADD35RoundRect,0.250000X0.850000X0.350000X-0.850000X0.350000X-0.850000X-0.350000X0.850000X-0.350000X0*%
%ADD36RoundRect,0.250000X1.275000X1.125000X-1.275000X1.125000X-1.275000X-1.125000X1.275000X-1.125000X0*%
%ADD37R,0.700000X0.900000*%
G04 APERTURE END LIST*
D10*
%TO.C,U3*%
X75477500Y-91157500D02*
X75072500Y-91157500D01*
X75072500Y-90842500D01*
X75477500Y-90842500D01*
X75477500Y-91157500D01*
G36*
X75477500Y-91157500D02*
G01*
X75072500Y-91157500D01*
X75072500Y-90842500D01*
X75477500Y-90842500D01*
X75477500Y-91157500D01*
G37*
X75477500Y-90657500D02*
X75072500Y-90657500D01*
X75072500Y-90342500D01*
X75477500Y-90342500D01*
X75477500Y-90657500D01*
G36*
X75477500Y-90657500D02*
G01*
X75072500Y-90657500D01*
X75072500Y-90342500D01*
X75477500Y-90342500D01*
X75477500Y-90657500D01*
G37*
X75477500Y-90157500D02*
X75072500Y-90157500D01*
X75072500Y-89842500D01*
X75477500Y-89842500D01*
X75477500Y-90157500D01*
G36*
X75477500Y-90157500D02*
G01*
X75072500Y-90157500D01*
X75072500Y-89842500D01*
X75477500Y-89842500D01*
X75477500Y-90157500D01*
G37*
X75477500Y-89657500D02*
X75072500Y-89657500D01*
X75072500Y-89342500D01*
X75477500Y-89342500D01*
X75477500Y-89657500D01*
G36*
X75477500Y-89657500D02*
G01*
X75072500Y-89657500D01*
X75072500Y-89342500D01*
X75477500Y-89342500D01*
X75477500Y-89657500D01*
G37*
X75477500Y-89157500D02*
X75072500Y-89157500D01*
X75072500Y-88842500D01*
X75477500Y-88842500D01*
X75477500Y-89157500D01*
G36*
X75477500Y-89157500D02*
G01*
X75072500Y-89157500D01*
X75072500Y-88842500D01*
X75477500Y-88842500D01*
X75477500Y-89157500D01*
G37*
X72927500Y-91157500D02*
X72522500Y-91157500D01*
X72522500Y-90842500D01*
X72927500Y-90842500D01*
X72927500Y-91157500D01*
G36*
X72927500Y-91157500D02*
G01*
X72522500Y-91157500D01*
X72522500Y-90842500D01*
X72927500Y-90842500D01*
X72927500Y-91157500D01*
G37*
X72927500Y-90657500D02*
X72522500Y-90657500D01*
X72522500Y-90342500D01*
X72927500Y-90342500D01*
X72927500Y-90657500D01*
G36*
X72927500Y-90657500D02*
G01*
X72522500Y-90657500D01*
X72522500Y-90342500D01*
X72927500Y-90342500D01*
X72927500Y-90657500D01*
G37*
X72927500Y-90157500D02*
X72522500Y-90157500D01*
X72522500Y-89842500D01*
X72927500Y-89842500D01*
X72927500Y-90157500D01*
G36*
X72927500Y-90157500D02*
G01*
X72522500Y-90157500D01*
X72522500Y-89842500D01*
X72927500Y-89842500D01*
X72927500Y-90157500D01*
G37*
X72927500Y-89657500D02*
X72522500Y-89657500D01*
X72522500Y-89342500D01*
X72927500Y-89342500D01*
X72927500Y-89657500D01*
G36*
X72927500Y-89657500D02*
G01*
X72522500Y-89657500D01*
X72522500Y-89342500D01*
X72927500Y-89342500D01*
X72927500Y-89657500D01*
G37*
X72927500Y-89157500D02*
X72522500Y-89157500D01*
X72522500Y-88842500D01*
X72927500Y-88842500D01*
X72927500Y-89157500D01*
G36*
X72927500Y-89157500D02*
G01*
X72522500Y-89157500D01*
X72522500Y-88842500D01*
X72927500Y-88842500D01*
X72927500Y-89157500D01*
G37*
%TD*%
D11*
%TO.C,R17*%
X58512000Y-77000000D03*
X57488000Y-77000000D03*
%TD*%
%TO.C,R18*%
X58512000Y-79000000D03*
X57488000Y-79000000D03*
%TD*%
D12*
%TO.C,C1*%
X74700000Y-74000000D03*
X77300000Y-74000000D03*
%TD*%
D13*
%TO.C,D4*%
X64000000Y-67800000D03*
X64000000Y-66200000D03*
%TD*%
D14*
%TO.C,R15*%
X125161800Y-80000000D03*
X126838200Y-80000000D03*
%TD*%
D13*
%TO.C,D3*%
X59000000Y-67800000D03*
X59000000Y-66200000D03*
%TD*%
D15*
%TO.C,U2*%
X93875000Y-89350000D03*
X93875000Y-90000000D03*
X93875000Y-90650000D03*
X92125000Y-90650000D03*
X92125000Y-90000000D03*
X92125000Y-89350000D03*
%TD*%
D16*
%TO.C,C8*%
X57568000Y-75000000D03*
X58432000Y-75000000D03*
%TD*%
D17*
%TO.C,J2*%
X51750000Y-78962500D03*
X51750000Y-77037500D03*
D18*
X54825000Y-79300000D03*
X54825000Y-78650000D03*
X54825000Y-78000000D03*
X54825000Y-77350000D03*
X54825000Y-76700000D03*
%TD*%
D19*
%TO.C,Q1*%
X95050000Y-72255000D03*
X94100000Y-69745000D03*
X96000000Y-69745000D03*
%TD*%
D20*
%TO.C,U1*%
X96750000Y-82437500D03*
X96250000Y-82437500D03*
X95750000Y-82437500D03*
X95250000Y-82437500D03*
X94750000Y-82437500D03*
X94250000Y-82437500D03*
X93750000Y-82437500D03*
X93250000Y-82437500D03*
D21*
X92562500Y-81750000D03*
X92562500Y-81250000D03*
X92562500Y-80750000D03*
X92562500Y-80250000D03*
X92562500Y-79750000D03*
X92562500Y-79250000D03*
X92562500Y-78750000D03*
X92562500Y-78250000D03*
D20*
X93250000Y-77562500D03*
X93750000Y-77562500D03*
X94250000Y-77562500D03*
X94750000Y-77562500D03*
X95250000Y-77562500D03*
X95750000Y-77562500D03*
X96250000Y-77562500D03*
X96750000Y-77562500D03*
D21*
X97437500Y-78250000D03*
X97437500Y-78750000D03*
X97437500Y-79250000D03*
X97437500Y-79750000D03*
X97437500Y-80250000D03*
X97437500Y-80750000D03*
X97437500Y-81250000D03*
X97437500Y-81750000D03*
D22*
X93970000Y-78970000D03*
X93970000Y-80000000D03*
X93970000Y-81030000D03*
X95000000Y-78970000D03*
X95000000Y-80000000D03*
X95000000Y-81030000D03*
X96030000Y-78970000D03*
X96030000Y-80000000D03*
X96030000Y-81030000D03*
%TD*%
D23*
%TO.C,R6*%
X66000000Y-66568000D03*
X66000000Y-67432000D03*
%TD*%
D24*
%TO.C,R9*%
X146500000Y-72350000D03*
X146500000Y-73650000D03*
%TD*%
D25*
%TO.C,C10*%
X90000000Y-78700000D03*
X90000000Y-81300000D03*
%TD*%
D12*
%TO.C,C7*%
X62700000Y-82000000D03*
X65300000Y-82000000D03*
%TD*%
D26*
%TO.C,C3*%
X88000000Y-80330000D03*
X88000000Y-79670000D03*
%TD*%
D27*
%TO.C,Q2*%
X124245000Y-71000000D03*
X126755000Y-70050000D03*
X126755000Y-71950000D03*
%TD*%
D28*
%TO.C,C5*%
X92670000Y-88000000D03*
X93330000Y-88000000D03*
%TD*%
%TO.C,C11*%
X69670000Y-72000000D03*
X70330000Y-72000000D03*
%TD*%
D29*
%TO.C,D1*%
X74000000Y-70000000D03*
X78000000Y-70000000D03*
%TD*%
D16*
%TO.C,R8*%
X129932000Y-70000000D03*
X129068000Y-70000000D03*
%TD*%
D30*
%TO.C,R14*%
X144820000Y-80000000D03*
X143180000Y-80000000D03*
%TD*%
D23*
%TO.C,R16*%
X61000000Y-66568000D03*
X61000000Y-67432000D03*
%TD*%
D27*
%TO.C,Q3*%
X143755000Y-71950000D03*
X143755000Y-70050000D03*
X141245000Y-71000000D03*
%TD*%
D31*
%TO.C,D2*%
X92000000Y-71930000D03*
X92000000Y-69560000D03*
%TD*%
D16*
%TO.C,R5*%
X99000000Y-69745000D03*
X99864000Y-69745000D03*
%TD*%
%TO.C,R1*%
X99432000Y-84000000D03*
X98568000Y-84000000D03*
%TD*%
D25*
%TO.C,C2*%
X84000000Y-78700000D03*
X84000000Y-81300000D03*
%TD*%
D16*
%TO.C,R11*%
X77432000Y-90000000D03*
X76568000Y-90000000D03*
%TD*%
D32*
%TO.C,U6*%
X66857500Y-73525000D03*
X66222500Y-73525000D03*
X65587500Y-73525000D03*
X64952500Y-73525000D03*
X64317500Y-73525000D03*
X63682500Y-73525000D03*
X63047500Y-73525000D03*
X62412500Y-73525000D03*
X61777500Y-73525000D03*
X61142500Y-73525000D03*
X61142500Y-78475000D03*
X61777500Y-78475000D03*
X62412500Y-78475000D03*
X63047500Y-78475000D03*
X63682500Y-78475000D03*
X64317500Y-78475000D03*
X64952500Y-78475000D03*
X65587500Y-78475000D03*
X66222500Y-78475000D03*
X66857500Y-78475000D03*
%TD*%
D16*
%TO.C,C9*%
X58432000Y-81000000D03*
X57568000Y-81000000D03*
%TD*%
D33*
%TO.C,Y1*%
X100000000Y-77800000D03*
X100000000Y-79000000D03*
X100000000Y-80200000D03*
%TD*%
D34*
%TO.C,FL1*%
X57110000Y-72000000D03*
X58890000Y-72000000D03*
%TD*%
D24*
%TO.C,R7*%
X129000000Y-72000000D03*
X129000000Y-73300000D03*
%TD*%
D23*
%TO.C,R2*%
X90000000Y-89568000D03*
X90000000Y-90432000D03*
%TD*%
D35*
%TO.C,U5*%
X80300000Y-81805000D03*
X80300000Y-79525000D03*
D36*
X75675000Y-81050000D03*
X75675000Y-78000000D03*
X72325000Y-81050000D03*
X72325000Y-78000000D03*
D35*
X80300000Y-77245000D03*
%TD*%
D28*
%TO.C,C4*%
X99330000Y-85000000D03*
X98670000Y-85000000D03*
%TD*%
D23*
%TO.C,R3*%
X96000000Y-89568000D03*
X96000000Y-90432000D03*
%TD*%
D16*
%TO.C,R10*%
X146932000Y-70000000D03*
X146068000Y-70000000D03*
%TD*%
D28*
%TO.C,C6*%
X70670000Y-90000000D03*
X71330000Y-90000000D03*
%TD*%
D37*
%TO.C,R4*%
X98700000Y-71745000D03*
X100000000Y-71745000D03*
%TD*%
M02*
