%TF.GenerationSoftware,KiCad,Pcbnew,8.0.4*%
%TF.CreationDate,2024-11-12T21:14:04-08:00*%
%TF.ProjectId,Butterfly_v0,42757474-6572-4666-9c79-5f76302e6b69,rev?*%
%TF.SameCoordinates,Original*%
%TF.FileFunction,Other,Comment*%
%FSLAX46Y46*%
G04 Gerber Fmt 4.6, Leading zero omitted, Abs format (unit mm)*
G04 Created by KiCad (PCBNEW 8.0.4) date 2024-11-12 21:14:04*
%MOMM*%
%LPD*%
G01*
G04 APERTURE LIST*
%ADD10C,0.150000*%
%ADD11C,0.050000*%
G04 APERTURE END LIST*
D10*
X107619047Y-38454819D02*
X107047619Y-38454819D01*
X107333333Y-38454819D02*
X107333333Y-37454819D01*
X107333333Y-37454819D02*
X107238095Y-37597676D01*
X107238095Y-37597676D02*
X107142857Y-37692914D01*
X107142857Y-37692914D02*
X107047619Y-37740533D01*
X108000000Y-37550057D02*
X108047619Y-37502438D01*
X108047619Y-37502438D02*
X108142857Y-37454819D01*
X108142857Y-37454819D02*
X108380952Y-37454819D01*
X108380952Y-37454819D02*
X108476190Y-37502438D01*
X108476190Y-37502438D02*
X108523809Y-37550057D01*
X108523809Y-37550057D02*
X108571428Y-37645295D01*
X108571428Y-37645295D02*
X108571428Y-37740533D01*
X108571428Y-37740533D02*
X108523809Y-37883390D01*
X108523809Y-37883390D02*
X107952381Y-38454819D01*
X107952381Y-38454819D02*
X108571428Y-38454819D01*
X109190476Y-37454819D02*
X109285714Y-37454819D01*
X109285714Y-37454819D02*
X109380952Y-37502438D01*
X109380952Y-37502438D02*
X109428571Y-37550057D01*
X109428571Y-37550057D02*
X109476190Y-37645295D01*
X109476190Y-37645295D02*
X109523809Y-37835771D01*
X109523809Y-37835771D02*
X109523809Y-38073866D01*
X109523809Y-38073866D02*
X109476190Y-38264342D01*
X109476190Y-38264342D02*
X109428571Y-38359580D01*
X109428571Y-38359580D02*
X109380952Y-38407200D01*
X109380952Y-38407200D02*
X109285714Y-38454819D01*
X109285714Y-38454819D02*
X109190476Y-38454819D01*
X109190476Y-38454819D02*
X109095238Y-38407200D01*
X109095238Y-38407200D02*
X109047619Y-38359580D01*
X109047619Y-38359580D02*
X109000000Y-38264342D01*
X109000000Y-38264342D02*
X108952381Y-38073866D01*
X108952381Y-38073866D02*
X108952381Y-37835771D01*
X108952381Y-37835771D02*
X109000000Y-37645295D01*
X109000000Y-37645295D02*
X109047619Y-37550057D01*
X109047619Y-37550057D02*
X109095238Y-37502438D01*
X109095238Y-37502438D02*
X109190476Y-37454819D01*
X110714286Y-38454819D02*
X110714286Y-37788152D01*
X110714286Y-37883390D02*
X110761905Y-37835771D01*
X110761905Y-37835771D02*
X110857143Y-37788152D01*
X110857143Y-37788152D02*
X111000000Y-37788152D01*
X111000000Y-37788152D02*
X111095238Y-37835771D01*
X111095238Y-37835771D02*
X111142857Y-37931009D01*
X111142857Y-37931009D02*
X111142857Y-38454819D01*
X111142857Y-37931009D02*
X111190476Y-37835771D01*
X111190476Y-37835771D02*
X111285714Y-37788152D01*
X111285714Y-37788152D02*
X111428571Y-37788152D01*
X111428571Y-37788152D02*
X111523810Y-37835771D01*
X111523810Y-37835771D02*
X111571429Y-37931009D01*
X111571429Y-37931009D02*
X111571429Y-38454819D01*
X112047619Y-38454819D02*
X112047619Y-37788152D01*
X112047619Y-37883390D02*
X112095238Y-37835771D01*
X112095238Y-37835771D02*
X112190476Y-37788152D01*
X112190476Y-37788152D02*
X112333333Y-37788152D01*
X112333333Y-37788152D02*
X112428571Y-37835771D01*
X112428571Y-37835771D02*
X112476190Y-37931009D01*
X112476190Y-37931009D02*
X112476190Y-38454819D01*
X112476190Y-37931009D02*
X112523809Y-37835771D01*
X112523809Y-37835771D02*
X112619047Y-37788152D01*
X112619047Y-37788152D02*
X112761904Y-37788152D01*
X112761904Y-37788152D02*
X112857143Y-37835771D01*
X112857143Y-37835771D02*
X112904762Y-37931009D01*
X112904762Y-37931009D02*
X112904762Y-38454819D01*
D11*
X50000000Y-49500000D02*
X50000000Y-37413580D01*
X170000000Y-49500000D02*
X170000000Y-37413580D01*
X50000000Y-38000000D02*
X106232143Y-38000000D01*
X113767857Y-38000000D02*
X170000000Y-38000000D01*
X50000000Y-38000000D02*
X51126504Y-37413579D01*
X50000000Y-38000000D02*
X51126504Y-38586421D01*
X170000000Y-38000000D02*
X168873496Y-38586421D01*
X170000000Y-38000000D02*
X168873496Y-37413579D01*
D10*
X78000000Y-43137106D02*
X77809524Y-43137106D01*
X77809524Y-43137106D02*
X77714286Y-43184725D01*
X77714286Y-43184725D02*
X77666667Y-43232344D01*
X77666667Y-43232344D02*
X77571429Y-43375201D01*
X77571429Y-43375201D02*
X77523810Y-43565677D01*
X77523810Y-43565677D02*
X77523810Y-43946629D01*
X77523810Y-43946629D02*
X77571429Y-44041867D01*
X77571429Y-44041867D02*
X77619048Y-44089487D01*
X77619048Y-44089487D02*
X77714286Y-44137106D01*
X77714286Y-44137106D02*
X77904762Y-44137106D01*
X77904762Y-44137106D02*
X78000000Y-44089487D01*
X78000000Y-44089487D02*
X78047619Y-44041867D01*
X78047619Y-44041867D02*
X78095238Y-43946629D01*
X78095238Y-43946629D02*
X78095238Y-43708534D01*
X78095238Y-43708534D02*
X78047619Y-43613296D01*
X78047619Y-43613296D02*
X78000000Y-43565677D01*
X78000000Y-43565677D02*
X77904762Y-43518058D01*
X77904762Y-43518058D02*
X77714286Y-43518058D01*
X77714286Y-43518058D02*
X77619048Y-43565677D01*
X77619048Y-43565677D02*
X77571429Y-43613296D01*
X77571429Y-43613296D02*
X77523810Y-43708534D01*
X78714286Y-43137106D02*
X78809524Y-43137106D01*
X78809524Y-43137106D02*
X78904762Y-43184725D01*
X78904762Y-43184725D02*
X78952381Y-43232344D01*
X78952381Y-43232344D02*
X79000000Y-43327582D01*
X79000000Y-43327582D02*
X79047619Y-43518058D01*
X79047619Y-43518058D02*
X79047619Y-43756153D01*
X79047619Y-43756153D02*
X79000000Y-43946629D01*
X79000000Y-43946629D02*
X78952381Y-44041867D01*
X78952381Y-44041867D02*
X78904762Y-44089487D01*
X78904762Y-44089487D02*
X78809524Y-44137106D01*
X78809524Y-44137106D02*
X78714286Y-44137106D01*
X78714286Y-44137106D02*
X78619048Y-44089487D01*
X78619048Y-44089487D02*
X78571429Y-44041867D01*
X78571429Y-44041867D02*
X78523810Y-43946629D01*
X78523810Y-43946629D02*
X78476191Y-43756153D01*
X78476191Y-43756153D02*
X78476191Y-43518058D01*
X78476191Y-43518058D02*
X78523810Y-43327582D01*
X78523810Y-43327582D02*
X78571429Y-43232344D01*
X78571429Y-43232344D02*
X78619048Y-43184725D01*
X78619048Y-43184725D02*
X78714286Y-43137106D01*
X80238096Y-44137106D02*
X80238096Y-43470439D01*
X80238096Y-43565677D02*
X80285715Y-43518058D01*
X80285715Y-43518058D02*
X80380953Y-43470439D01*
X80380953Y-43470439D02*
X80523810Y-43470439D01*
X80523810Y-43470439D02*
X80619048Y-43518058D01*
X80619048Y-43518058D02*
X80666667Y-43613296D01*
X80666667Y-43613296D02*
X80666667Y-44137106D01*
X80666667Y-43613296D02*
X80714286Y-43518058D01*
X80714286Y-43518058D02*
X80809524Y-43470439D01*
X80809524Y-43470439D02*
X80952381Y-43470439D01*
X80952381Y-43470439D02*
X81047620Y-43518058D01*
X81047620Y-43518058D02*
X81095239Y-43613296D01*
X81095239Y-43613296D02*
X81095239Y-44137106D01*
X81571429Y-44137106D02*
X81571429Y-43470439D01*
X81571429Y-43565677D02*
X81619048Y-43518058D01*
X81619048Y-43518058D02*
X81714286Y-43470439D01*
X81714286Y-43470439D02*
X81857143Y-43470439D01*
X81857143Y-43470439D02*
X81952381Y-43518058D01*
X81952381Y-43518058D02*
X82000000Y-43613296D01*
X82000000Y-43613296D02*
X82000000Y-44137106D01*
X82000000Y-43613296D02*
X82047619Y-43518058D01*
X82047619Y-43518058D02*
X82142857Y-43470439D01*
X82142857Y-43470439D02*
X82285714Y-43470439D01*
X82285714Y-43470439D02*
X82380953Y-43518058D01*
X82380953Y-43518058D02*
X82428572Y-43613296D01*
X82428572Y-43613296D02*
X82428572Y-44137106D01*
D11*
X50000000Y-49500000D02*
X50000000Y-44245867D01*
X110000000Y-49500000D02*
X110000000Y-44245867D01*
X50000000Y-44832287D02*
X110000000Y-44832287D01*
X50000000Y-44832287D02*
X110000000Y-44832287D01*
X50000000Y-44832287D02*
X51126504Y-44245866D01*
X50000000Y-44832287D02*
X51126504Y-45418708D01*
X110000000Y-44832287D02*
X108873496Y-45418708D01*
X110000000Y-44832287D02*
X108873496Y-44245866D01*
D10*
X174454819Y-76952380D02*
X174454819Y-77428570D01*
X174454819Y-77428570D02*
X174931009Y-77476189D01*
X174931009Y-77476189D02*
X174883390Y-77428570D01*
X174883390Y-77428570D02*
X174835771Y-77333332D01*
X174835771Y-77333332D02*
X174835771Y-77095237D01*
X174835771Y-77095237D02*
X174883390Y-76999999D01*
X174883390Y-76999999D02*
X174931009Y-76952380D01*
X174931009Y-76952380D02*
X175026247Y-76904761D01*
X175026247Y-76904761D02*
X175264342Y-76904761D01*
X175264342Y-76904761D02*
X175359580Y-76952380D01*
X175359580Y-76952380D02*
X175407200Y-76999999D01*
X175407200Y-76999999D02*
X175454819Y-77095237D01*
X175454819Y-77095237D02*
X175454819Y-77333332D01*
X175454819Y-77333332D02*
X175407200Y-77428570D01*
X175407200Y-77428570D02*
X175359580Y-77476189D01*
X174454819Y-76285713D02*
X174454819Y-76190475D01*
X174454819Y-76190475D02*
X174502438Y-76095237D01*
X174502438Y-76095237D02*
X174550057Y-76047618D01*
X174550057Y-76047618D02*
X174645295Y-75999999D01*
X174645295Y-75999999D02*
X174835771Y-75952380D01*
X174835771Y-75952380D02*
X175073866Y-75952380D01*
X175073866Y-75952380D02*
X175264342Y-75999999D01*
X175264342Y-75999999D02*
X175359580Y-76047618D01*
X175359580Y-76047618D02*
X175407200Y-76095237D01*
X175407200Y-76095237D02*
X175454819Y-76190475D01*
X175454819Y-76190475D02*
X175454819Y-76285713D01*
X175454819Y-76285713D02*
X175407200Y-76380951D01*
X175407200Y-76380951D02*
X175359580Y-76428570D01*
X175359580Y-76428570D02*
X175264342Y-76476189D01*
X175264342Y-76476189D02*
X175073866Y-76523808D01*
X175073866Y-76523808D02*
X174835771Y-76523808D01*
X174835771Y-76523808D02*
X174645295Y-76476189D01*
X174645295Y-76476189D02*
X174550057Y-76428570D01*
X174550057Y-76428570D02*
X174502438Y-76380951D01*
X174502438Y-76380951D02*
X174454819Y-76285713D01*
X175454819Y-74761903D02*
X174788152Y-74761903D01*
X174883390Y-74761903D02*
X174835771Y-74714284D01*
X174835771Y-74714284D02*
X174788152Y-74619046D01*
X174788152Y-74619046D02*
X174788152Y-74476189D01*
X174788152Y-74476189D02*
X174835771Y-74380951D01*
X174835771Y-74380951D02*
X174931009Y-74333332D01*
X174931009Y-74333332D02*
X175454819Y-74333332D01*
X174931009Y-74333332D02*
X174835771Y-74285713D01*
X174835771Y-74285713D02*
X174788152Y-74190475D01*
X174788152Y-74190475D02*
X174788152Y-74047618D01*
X174788152Y-74047618D02*
X174835771Y-73952379D01*
X174835771Y-73952379D02*
X174931009Y-73904760D01*
X174931009Y-73904760D02*
X175454819Y-73904760D01*
X175454819Y-73428570D02*
X174788152Y-73428570D01*
X174883390Y-73428570D02*
X174835771Y-73380951D01*
X174835771Y-73380951D02*
X174788152Y-73285713D01*
X174788152Y-73285713D02*
X174788152Y-73142856D01*
X174788152Y-73142856D02*
X174835771Y-73047618D01*
X174835771Y-73047618D02*
X174931009Y-72999999D01*
X174931009Y-72999999D02*
X175454819Y-72999999D01*
X174931009Y-72999999D02*
X174835771Y-72952380D01*
X174835771Y-72952380D02*
X174788152Y-72857142D01*
X174788152Y-72857142D02*
X174788152Y-72714285D01*
X174788152Y-72714285D02*
X174835771Y-72619046D01*
X174835771Y-72619046D02*
X174931009Y-72571427D01*
X174931009Y-72571427D02*
X175454819Y-72571427D01*
D11*
X167500000Y-50000000D02*
X173586420Y-50000000D01*
X167500000Y-100000000D02*
X173586420Y-100000000D01*
X173000000Y-50000000D02*
X173000000Y-100000000D01*
X173000000Y-50000000D02*
X173000000Y-100000000D01*
X173000000Y-50000000D02*
X173586421Y-51126504D01*
X173000000Y-50000000D02*
X172413579Y-51126504D01*
X173000000Y-100000000D02*
X172413579Y-98873496D01*
X173000000Y-100000000D02*
X173586421Y-98873496D01*
D10*
%TO.C,H3*%
X167600000Y-93000000D02*
G75*
G02*
X158400000Y-93000000I-4600000J0D01*
G01*
X158400000Y-93000000D02*
G75*
G02*
X167600000Y-93000000I4600000J0D01*
G01*
%TO.C,H2*%
X61600000Y-93000000D02*
G75*
G02*
X52400000Y-93000000I-4600000J0D01*
G01*
X52400000Y-93000000D02*
G75*
G02*
X61600000Y-93000000I4600000J0D01*
G01*
%TO.C,H4*%
X167600000Y-57000000D02*
G75*
G02*
X158400000Y-57000000I-4600000J0D01*
G01*
X158400000Y-57000000D02*
G75*
G02*
X167600000Y-57000000I4600000J0D01*
G01*
%TO.C,H1*%
X61600000Y-57000000D02*
G75*
G02*
X52400000Y-57000000I-4600000J0D01*
G01*
X52400000Y-57000000D02*
G75*
G02*
X61600000Y-57000000I4600000J0D01*
G01*
%TD*%
M02*
