%TF.GenerationSoftware,KiCad,Pcbnew,8.0.4*%
%TF.CreationDate,2024-11-12T21:14:04-08:00*%
%TF.ProjectId,Butterfly_v0,42757474-6572-4666-9c79-5f76302e6b69,rev?*%
%TF.SameCoordinates,Original*%
%TF.FileFunction,Copper,L3,Inr*%
%TF.FilePolarity,Positive*%
%FSLAX46Y46*%
G04 Gerber Fmt 4.6, Leading zero omitted, Abs format (unit mm)*
G04 Created by KiCad (PCBNEW 8.0.4) date 2024-11-12 21:14:04*
%MOMM*%
%LPD*%
G01*
G04 APERTURE LIST*
%TA.AperFunction,ComponentPad*%
%ADD10C,1.520000*%
%TD*%
%TA.AperFunction,ComponentPad*%
%ADD11R,1.520000X1.520000*%
%TD*%
%TA.AperFunction,ComponentPad*%
%ADD12O,2.400000X1.200000*%
%TD*%
%TA.AperFunction,ComponentPad*%
%ADD13O,1.460000X0.730000*%
%TD*%
%TA.AperFunction,ComponentPad*%
%ADD14C,9.200000*%
%TD*%
%TA.AperFunction,ComponentPad*%
%ADD15R,1.605000X1.605000*%
%TD*%
%TA.AperFunction,ComponentPad*%
%ADD16C,1.605000*%
%TD*%
%TA.AperFunction,ViaPad*%
%ADD17C,0.600000*%
%TD*%
G04 APERTURE END LIST*
D10*
%TO.N,GND*%
%TO.C,J6*%
X142500000Y-84680000D03*
D11*
%TO.N,Net-(J6-Pad1)*%
X145500000Y-84680000D03*
%TD*%
%TO.N,+12V*%
%TO.C,J4*%
X124000000Y-65000000D03*
D10*
%TO.N,Net-(J4-Pad2)*%
X127000000Y-65000000D03*
%TD*%
D12*
%TO.N,GND*%
%TO.C,J2*%
X52000000Y-80725000D03*
X52000000Y-75275000D03*
D13*
X55030000Y-80425000D03*
X55030000Y-75575000D03*
%TD*%
D11*
%TO.N,Net-(J7-Pad1)*%
%TO.C,J7*%
X127500000Y-84680000D03*
D10*
%TO.N,GND*%
X124500000Y-84680000D03*
%TD*%
D11*
%TO.N,+12V*%
%TO.C,J3*%
X92000000Y-65000000D03*
D10*
%TO.N,Net-(D2-PadA)*%
X95000000Y-65000000D03*
%TD*%
D14*
%TO.N,GND*%
%TO.C,H3*%
X163000000Y-93000000D03*
%TD*%
D10*
%TO.N,Net-(J5-Pad2)*%
%TO.C,J5*%
X146000000Y-65000000D03*
D11*
%TO.N,+12V*%
X143000000Y-65000000D03*
%TD*%
D14*
%TO.N,GND*%
%TO.C,H2*%
X57000000Y-93000000D03*
%TD*%
D10*
%TO.N,GND*%
%TO.C,J1*%
X77000000Y-65000000D03*
D11*
%TO.N,Net-(D1-A)*%
X74000000Y-65000000D03*
%TD*%
D14*
%TO.N,GND*%
%TO.C,H4*%
X163000000Y-57000000D03*
%TD*%
%TO.N,GND*%
%TO.C,H1*%
X57000000Y-57000000D03*
%TD*%
D15*
%TO.N,MISO*%
%TO.C,J8*%
X112540000Y-61270000D03*
D16*
%TO.N,+3.3V*%
X112540000Y-58730000D03*
%TO.N,SCK*%
X110000000Y-61270000D03*
%TO.N,MOSI*%
X110000000Y-58730000D03*
%TO.N,RESET*%
X107460000Y-61270000D03*
%TO.N,GND*%
X107460000Y-58730000D03*
%TD*%
D17*
%TO.N,+3.3V*%
X100000000Y-88000000D03*
X94934413Y-88065587D03*
X95000000Y-89000000D03*
X95000000Y-91000000D03*
X91000000Y-91000000D03*
X89000000Y-90000000D03*
X97000000Y-90000000D03*
X100000000Y-86000000D03*
X98374999Y-80675000D03*
X78000000Y-80000000D03*
X88000000Y-78000000D03*
X78000000Y-89000000D03*
X72000000Y-88000000D03*
X72000000Y-81000000D03*
X74000000Y-81000000D03*
X76000000Y-81000000D03*
X76000000Y-78000000D03*
X74000000Y-78000000D03*
X72000000Y-78000000D03*
X63000000Y-84000000D03*
X65000000Y-71000000D03*
X67000000Y-67000000D03*
X62000000Y-67000000D03*
%TO.N,+12V*%
X82000000Y-74000000D03*
X72000000Y-74000000D03*
X72000000Y-70000000D03*
%TO.N,SCK*%
X92000000Y-74000000D03*
X106000000Y-69000000D03*
%TO.N,RESET*%
X85500000Y-83500000D03*
X87000000Y-82000000D03*
X95077087Y-85922913D03*
X87000000Y-76000000D03*
%TO.N,Net-(U6-~{DTR}#)*%
X67000000Y-71000000D03*
X69000000Y-71000000D03*
%TO.N,TX-O*%
X97000000Y-84000000D03*
%TO.N,RX-I*%
X96000000Y-84000000D03*
X89617408Y-83567429D03*
%TO.N,TX-O*%
X67000000Y-76000000D03*
%TO.N,RESET*%
X104000000Y-83000000D03*
X114000000Y-73000000D03*
%TO.N,MISO*%
X93000000Y-75000000D03*
X104000000Y-73000000D03*
%TO.N,PD6*%
X127000000Y-74000000D03*
X127000000Y-76000000D03*
%TO.N,PD3*%
X102000000Y-82000000D03*
X106000000Y-80000000D03*
%TO.N,PD6*%
X97000000Y-76000000D03*
X101000000Y-76000000D03*
%TO.N,PD5*%
X99000000Y-76000000D03*
X99000000Y-76000000D03*
X99000000Y-76000000D03*
X99000000Y-74000000D03*
X99000000Y-74000000D03*
X99000000Y-74000000D03*
%TO.N,SCL*%
X79000000Y-91000000D03*
X79000000Y-91000000D03*
X79000000Y-91000000D03*
X92000000Y-86000000D03*
%TD*%
%TA.AperFunction,Conductor*%
%TO.N,+12V*%
G36*
X144943039Y-63019685D02*
G01*
X144988794Y-63072489D01*
X145000000Y-63124000D01*
X145000000Y-64191435D01*
X144980315Y-64258474D01*
X144977576Y-64262557D01*
X144904204Y-64367344D01*
X144810994Y-64567235D01*
X144810990Y-64567244D01*
X144753909Y-64780275D01*
X144753907Y-64780285D01*
X144734685Y-64999998D01*
X144734685Y-65000001D01*
X144753907Y-65219714D01*
X144753909Y-65219724D01*
X144810990Y-65432755D01*
X144810995Y-65432769D01*
X144904203Y-65632654D01*
X144904205Y-65632658D01*
X144977575Y-65737442D01*
X144999902Y-65803646D01*
X145000000Y-65808564D01*
X145000000Y-74876000D01*
X144980315Y-74943039D01*
X144927511Y-74988794D01*
X144876000Y-75000000D01*
X127295685Y-75000000D01*
X127228646Y-74980315D01*
X127182891Y-74927511D01*
X127172947Y-74858353D01*
X127201972Y-74794797D01*
X127254731Y-74758958D01*
X127288607Y-74747103D01*
X127349522Y-74725789D01*
X127502262Y-74629816D01*
X127629816Y-74502262D01*
X127725789Y-74349522D01*
X127785368Y-74179255D01*
X127797149Y-74074699D01*
X127805565Y-74000003D01*
X127805565Y-73999996D01*
X127785369Y-73820750D01*
X127785368Y-73820745D01*
X127725788Y-73650476D01*
X127686582Y-73588080D01*
X127629816Y-73497738D01*
X127502262Y-73370184D01*
X127469379Y-73349522D01*
X127349523Y-73274211D01*
X127179254Y-73214631D01*
X127179249Y-73214630D01*
X127000004Y-73194435D01*
X126999996Y-73194435D01*
X126820750Y-73214630D01*
X126820745Y-73214631D01*
X126650476Y-73274211D01*
X126497737Y-73370184D01*
X126370184Y-73497737D01*
X126274211Y-73650476D01*
X126214631Y-73820745D01*
X126214630Y-73820750D01*
X126194435Y-73999996D01*
X126194435Y-74000003D01*
X126214630Y-74179249D01*
X126214631Y-74179254D01*
X126274211Y-74349523D01*
X126367341Y-74497737D01*
X126370184Y-74502262D01*
X126497738Y-74629816D01*
X126650478Y-74725789D01*
X126745269Y-74758958D01*
X126802046Y-74799680D01*
X126827793Y-74864633D01*
X126814337Y-74933194D01*
X126765950Y-74983597D01*
X126704315Y-75000000D01*
X99295685Y-75000000D01*
X99228646Y-74980315D01*
X99182891Y-74927511D01*
X99172947Y-74858353D01*
X99201972Y-74794797D01*
X99254731Y-74758958D01*
X99288607Y-74747103D01*
X99349522Y-74725789D01*
X99502262Y-74629816D01*
X99629816Y-74502262D01*
X99725789Y-74349522D01*
X99785368Y-74179255D01*
X99797149Y-74074699D01*
X99805565Y-74000003D01*
X99805565Y-73999996D01*
X99785369Y-73820750D01*
X99785368Y-73820745D01*
X99725788Y-73650476D01*
X99686582Y-73588080D01*
X99629816Y-73497738D01*
X99502262Y-73370184D01*
X99469379Y-73349522D01*
X99349523Y-73274211D01*
X99179254Y-73214631D01*
X99179249Y-73214630D01*
X99000004Y-73194435D01*
X98999996Y-73194435D01*
X98820750Y-73214630D01*
X98820745Y-73214631D01*
X98650476Y-73274211D01*
X98497737Y-73370184D01*
X98370184Y-73497737D01*
X98274211Y-73650476D01*
X98214631Y-73820745D01*
X98214630Y-73820750D01*
X98194435Y-73999996D01*
X98194435Y-74000003D01*
X98214630Y-74179249D01*
X98214631Y-74179254D01*
X98274211Y-74349523D01*
X98367341Y-74497737D01*
X98370184Y-74502262D01*
X98497738Y-74629816D01*
X98650478Y-74725789D01*
X98745269Y-74758958D01*
X98802046Y-74799680D01*
X98827793Y-74864633D01*
X98814337Y-74933194D01*
X98765950Y-74983597D01*
X98704315Y-75000000D01*
X93916378Y-75000000D01*
X93849339Y-74980315D01*
X93803584Y-74927511D01*
X93793158Y-74889883D01*
X93785369Y-74820749D01*
X93785368Y-74820745D01*
X93725788Y-74650476D01*
X93686582Y-74588080D01*
X93629816Y-74497738D01*
X93502262Y-74370184D01*
X93469379Y-74349522D01*
X93349523Y-74274211D01*
X93179254Y-74214631D01*
X93179249Y-74214630D01*
X93000004Y-74194435D01*
X92999996Y-74194435D01*
X92935388Y-74201714D01*
X92866566Y-74189659D01*
X92815187Y-74142310D01*
X92797563Y-74074699D01*
X92798285Y-74064610D01*
X92805565Y-74000002D01*
X92805565Y-73999996D01*
X92785369Y-73820750D01*
X92785368Y-73820745D01*
X92725788Y-73650476D01*
X92686582Y-73588080D01*
X92629816Y-73497738D01*
X92502262Y-73370184D01*
X92469379Y-73349522D01*
X92349523Y-73274211D01*
X92179254Y-73214631D01*
X92179249Y-73214630D01*
X92000004Y-73194435D01*
X91999996Y-73194435D01*
X91820750Y-73214630D01*
X91820745Y-73214631D01*
X91650476Y-73274211D01*
X91497737Y-73370184D01*
X91370184Y-73497737D01*
X91274211Y-73650476D01*
X91214631Y-73820745D01*
X91214630Y-73820750D01*
X91194435Y-73999996D01*
X91194435Y-74000003D01*
X91214630Y-74179249D01*
X91214631Y-74179254D01*
X91274211Y-74349523D01*
X91367341Y-74497737D01*
X91370184Y-74502262D01*
X91497738Y-74629816D01*
X91650478Y-74725789D01*
X91745269Y-74758958D01*
X91802046Y-74799680D01*
X91827793Y-74864633D01*
X91814337Y-74933194D01*
X91765950Y-74983597D01*
X91704315Y-75000000D01*
X71124000Y-75000000D01*
X71056961Y-74980315D01*
X71011206Y-74927511D01*
X71000000Y-74876000D01*
X71000000Y-72999996D01*
X103194435Y-72999996D01*
X103194435Y-73000003D01*
X103214630Y-73179249D01*
X103214631Y-73179254D01*
X103274211Y-73349523D01*
X103367341Y-73497737D01*
X103370184Y-73502262D01*
X103497738Y-73629816D01*
X103650478Y-73725789D01*
X103820745Y-73785368D01*
X103820750Y-73785369D01*
X103999996Y-73805565D01*
X104000000Y-73805565D01*
X104000004Y-73805565D01*
X104179249Y-73785369D01*
X104179252Y-73785368D01*
X104179255Y-73785368D01*
X104349522Y-73725789D01*
X104502262Y-73629816D01*
X104629816Y-73502262D01*
X104725789Y-73349522D01*
X104785368Y-73179255D01*
X104805565Y-73000000D01*
X104805565Y-72999996D01*
X113194435Y-72999996D01*
X113194435Y-73000003D01*
X113214630Y-73179249D01*
X113214631Y-73179254D01*
X113274211Y-73349523D01*
X113367341Y-73497737D01*
X113370184Y-73502262D01*
X113497738Y-73629816D01*
X113650478Y-73725789D01*
X113820745Y-73785368D01*
X113820750Y-73785369D01*
X113999996Y-73805565D01*
X114000000Y-73805565D01*
X114000004Y-73805565D01*
X114179249Y-73785369D01*
X114179252Y-73785368D01*
X114179255Y-73785368D01*
X114349522Y-73725789D01*
X114502262Y-73629816D01*
X114629816Y-73502262D01*
X114725789Y-73349522D01*
X114785368Y-73179255D01*
X114805565Y-73000000D01*
X114785368Y-72820745D01*
X114725789Y-72650478D01*
X114629816Y-72497738D01*
X114502262Y-72370184D01*
X114349523Y-72274211D01*
X114179254Y-72214631D01*
X114179249Y-72214630D01*
X114000004Y-72194435D01*
X113999996Y-72194435D01*
X113820750Y-72214630D01*
X113820745Y-72214631D01*
X113650476Y-72274211D01*
X113497737Y-72370184D01*
X113370184Y-72497737D01*
X113274211Y-72650476D01*
X113214631Y-72820745D01*
X113214630Y-72820750D01*
X113194435Y-72999996D01*
X104805565Y-72999996D01*
X104785368Y-72820745D01*
X104725789Y-72650478D01*
X104629816Y-72497738D01*
X104502262Y-72370184D01*
X104349523Y-72274211D01*
X104179254Y-72214631D01*
X104179249Y-72214630D01*
X104000004Y-72194435D01*
X103999996Y-72194435D01*
X103820750Y-72214630D01*
X103820745Y-72214631D01*
X103650476Y-72274211D01*
X103497737Y-72370184D01*
X103370184Y-72497737D01*
X103274211Y-72650476D01*
X103214631Y-72820745D01*
X103214630Y-72820750D01*
X103194435Y-72999996D01*
X71000000Y-72999996D01*
X71000000Y-68999996D01*
X105194435Y-68999996D01*
X105194435Y-69000003D01*
X105214630Y-69179249D01*
X105214631Y-69179254D01*
X105274211Y-69349523D01*
X105370184Y-69502262D01*
X105497738Y-69629816D01*
X105650478Y-69725789D01*
X105820745Y-69785368D01*
X105820750Y-69785369D01*
X105999996Y-69805565D01*
X106000000Y-69805565D01*
X106000004Y-69805565D01*
X106179249Y-69785369D01*
X106179252Y-69785368D01*
X106179255Y-69785368D01*
X106349522Y-69725789D01*
X106502262Y-69629816D01*
X106629816Y-69502262D01*
X106725789Y-69349522D01*
X106785368Y-69179255D01*
X106805565Y-69000000D01*
X106785368Y-68820745D01*
X106725789Y-68650478D01*
X106629816Y-68497738D01*
X106502262Y-68370184D01*
X106349523Y-68274211D01*
X106179254Y-68214631D01*
X106179249Y-68214630D01*
X106000004Y-68194435D01*
X105999996Y-68194435D01*
X105820750Y-68214630D01*
X105820745Y-68214631D01*
X105650476Y-68274211D01*
X105497737Y-68370184D01*
X105370184Y-68497737D01*
X105274211Y-68650476D01*
X105214631Y-68820745D01*
X105214630Y-68820750D01*
X105194435Y-68999996D01*
X71000000Y-68999996D01*
X71000000Y-64192135D01*
X72739500Y-64192135D01*
X72739500Y-65807870D01*
X72739501Y-65807876D01*
X72745908Y-65867483D01*
X72796202Y-66002328D01*
X72796206Y-66002335D01*
X72882452Y-66117544D01*
X72882455Y-66117547D01*
X72997664Y-66203793D01*
X72997671Y-66203797D01*
X73132517Y-66254091D01*
X73132516Y-66254091D01*
X73139444Y-66254835D01*
X73192127Y-66260500D01*
X74807872Y-66260499D01*
X74867483Y-66254091D01*
X75002331Y-66203796D01*
X75117546Y-66117546D01*
X75203796Y-66002331D01*
X75254091Y-65867483D01*
X75260500Y-65807873D01*
X75260499Y-64999998D01*
X75734685Y-64999998D01*
X75734685Y-65000001D01*
X75753907Y-65219714D01*
X75753909Y-65219724D01*
X75810990Y-65432755D01*
X75810995Y-65432769D01*
X75904203Y-65632654D01*
X75904207Y-65632662D01*
X76030712Y-65813330D01*
X76186669Y-65969287D01*
X76367337Y-66095792D01*
X76367339Y-66095793D01*
X76367342Y-66095795D01*
X76413990Y-66117547D01*
X76567230Y-66189004D01*
X76567232Y-66189004D01*
X76567237Y-66189007D01*
X76780280Y-66246092D01*
X76937222Y-66259822D01*
X76999998Y-66265315D01*
X77000000Y-66265315D01*
X77000002Y-66265315D01*
X77060762Y-66259999D01*
X77219720Y-66246092D01*
X77432763Y-66189007D01*
X77632658Y-66095795D01*
X77813329Y-65969288D01*
X77969288Y-65813329D01*
X78095795Y-65632658D01*
X78189007Y-65432763D01*
X78246092Y-65219720D01*
X78265315Y-65000000D01*
X78246092Y-64780280D01*
X78189007Y-64567237D01*
X78095795Y-64367343D01*
X77973128Y-64192155D01*
X90740000Y-64192155D01*
X90740000Y-64750000D01*
X91555440Y-64750000D01*
X91524755Y-64803147D01*
X91490000Y-64932857D01*
X91490000Y-65067143D01*
X91524755Y-65196853D01*
X91555440Y-65250000D01*
X90740000Y-65250000D01*
X90740000Y-65807844D01*
X90746401Y-65867372D01*
X90746403Y-65867379D01*
X90796645Y-66002086D01*
X90796649Y-66002093D01*
X90882809Y-66117187D01*
X90882812Y-66117190D01*
X90997906Y-66203350D01*
X90997913Y-66203354D01*
X91132620Y-66253596D01*
X91132627Y-66253598D01*
X91192155Y-66259999D01*
X91192172Y-66260000D01*
X91750000Y-66260000D01*
X91750000Y-65444560D01*
X91803147Y-65475245D01*
X91932857Y-65510000D01*
X92067143Y-65510000D01*
X92196853Y-65475245D01*
X92250000Y-65444560D01*
X92250000Y-66260000D01*
X92807828Y-66260000D01*
X92807844Y-66259999D01*
X92867372Y-66253598D01*
X92867379Y-66253596D01*
X93002086Y-66203354D01*
X93002093Y-66203350D01*
X93117187Y-66117190D01*
X93117190Y-66117187D01*
X93203350Y-66002093D01*
X93203354Y-66002086D01*
X93253596Y-65867379D01*
X93253598Y-65867372D01*
X93259999Y-65807844D01*
X93260000Y-65807827D01*
X93260000Y-65250000D01*
X92444560Y-65250000D01*
X92475245Y-65196853D01*
X92510000Y-65067143D01*
X92510000Y-64999998D01*
X93734685Y-64999998D01*
X93734685Y-65000001D01*
X93753907Y-65219714D01*
X93753909Y-65219724D01*
X93810990Y-65432755D01*
X93810995Y-65432769D01*
X93904203Y-65632654D01*
X93904207Y-65632662D01*
X94030712Y-65813330D01*
X94186669Y-65969287D01*
X94367337Y-66095792D01*
X94367339Y-66095793D01*
X94367342Y-66095795D01*
X94413990Y-66117547D01*
X94567230Y-66189004D01*
X94567232Y-66189004D01*
X94567237Y-66189007D01*
X94780280Y-66246092D01*
X94937222Y-66259822D01*
X94999998Y-66265315D01*
X95000000Y-66265315D01*
X95000002Y-66265315D01*
X95060762Y-66259999D01*
X95219720Y-66246092D01*
X95432763Y-66189007D01*
X95632658Y-66095795D01*
X95813329Y-65969288D01*
X95969288Y-65813329D01*
X96095795Y-65632658D01*
X96189007Y-65432763D01*
X96246092Y-65219720D01*
X96265315Y-65000000D01*
X96246092Y-64780280D01*
X96189007Y-64567237D01*
X96095795Y-64367343D01*
X95973128Y-64192155D01*
X122740000Y-64192155D01*
X122740000Y-64750000D01*
X123555440Y-64750000D01*
X123524755Y-64803147D01*
X123490000Y-64932857D01*
X123490000Y-65067143D01*
X123524755Y-65196853D01*
X123555440Y-65250000D01*
X122740000Y-65250000D01*
X122740000Y-65807844D01*
X122746401Y-65867372D01*
X122746403Y-65867379D01*
X122796645Y-66002086D01*
X122796649Y-66002093D01*
X122882809Y-66117187D01*
X122882812Y-66117190D01*
X122997906Y-66203350D01*
X122997913Y-66203354D01*
X123132620Y-66253596D01*
X123132627Y-66253598D01*
X123192155Y-66259999D01*
X123192172Y-66260000D01*
X123750000Y-66260000D01*
X123750000Y-65444560D01*
X123803147Y-65475245D01*
X123932857Y-65510000D01*
X124067143Y-65510000D01*
X124196853Y-65475245D01*
X124250000Y-65444560D01*
X124250000Y-66260000D01*
X124807828Y-66260000D01*
X124807844Y-66259999D01*
X124867372Y-66253598D01*
X124867379Y-66253596D01*
X125002086Y-66203354D01*
X125002093Y-66203350D01*
X125117187Y-66117190D01*
X125117190Y-66117187D01*
X125203350Y-66002093D01*
X125203354Y-66002086D01*
X125253596Y-65867379D01*
X125253598Y-65867372D01*
X125259999Y-65807844D01*
X125260000Y-65807827D01*
X125260000Y-65250000D01*
X124444560Y-65250000D01*
X124475245Y-65196853D01*
X124510000Y-65067143D01*
X124510000Y-64999998D01*
X125734685Y-64999998D01*
X125734685Y-65000001D01*
X125753907Y-65219714D01*
X125753909Y-65219724D01*
X125810990Y-65432755D01*
X125810995Y-65432769D01*
X125904203Y-65632654D01*
X125904207Y-65632662D01*
X126030712Y-65813330D01*
X126186669Y-65969287D01*
X126367337Y-66095792D01*
X126367339Y-66095793D01*
X126367342Y-66095795D01*
X126413990Y-66117547D01*
X126567230Y-66189004D01*
X126567232Y-66189004D01*
X126567237Y-66189007D01*
X126780280Y-66246092D01*
X126937222Y-66259822D01*
X126999998Y-66265315D01*
X127000000Y-66265315D01*
X127000002Y-66265315D01*
X127060762Y-66259999D01*
X127219720Y-66246092D01*
X127432763Y-66189007D01*
X127632658Y-66095795D01*
X127813329Y-65969288D01*
X127969288Y-65813329D01*
X128095795Y-65632658D01*
X128189007Y-65432763D01*
X128246092Y-65219720D01*
X128265315Y-65000000D01*
X128246092Y-64780280D01*
X128189007Y-64567237D01*
X128095795Y-64367343D01*
X127973128Y-64192155D01*
X141740000Y-64192155D01*
X141740000Y-64750000D01*
X142555440Y-64750000D01*
X142524755Y-64803147D01*
X142490000Y-64932857D01*
X142490000Y-65067143D01*
X142524755Y-65196853D01*
X142555440Y-65250000D01*
X141740000Y-65250000D01*
X141740000Y-65807844D01*
X141746401Y-65867372D01*
X141746403Y-65867379D01*
X141796645Y-66002086D01*
X141796649Y-66002093D01*
X141882809Y-66117187D01*
X141882812Y-66117190D01*
X141997906Y-66203350D01*
X141997913Y-66203354D01*
X142132620Y-66253596D01*
X142132627Y-66253598D01*
X142192155Y-66259999D01*
X142192172Y-66260000D01*
X142750000Y-66260000D01*
X142750000Y-65444560D01*
X142803147Y-65475245D01*
X142932857Y-65510000D01*
X143067143Y-65510000D01*
X143196853Y-65475245D01*
X143250000Y-65444560D01*
X143250000Y-66260000D01*
X143807828Y-66260000D01*
X143807844Y-66259999D01*
X143867372Y-66253598D01*
X143867379Y-66253596D01*
X144002086Y-66203354D01*
X144002093Y-66203350D01*
X144117187Y-66117190D01*
X144117190Y-66117187D01*
X144203350Y-66002093D01*
X144203354Y-66002086D01*
X144253596Y-65867379D01*
X144253598Y-65867372D01*
X144259999Y-65807844D01*
X144260000Y-65807827D01*
X144260000Y-65250000D01*
X143444560Y-65250000D01*
X143475245Y-65196853D01*
X143510000Y-65067143D01*
X143510000Y-64932857D01*
X143475245Y-64803147D01*
X143444560Y-64750000D01*
X144260000Y-64750000D01*
X144260000Y-64192172D01*
X144259999Y-64192155D01*
X144253598Y-64132627D01*
X144253596Y-64132620D01*
X144203354Y-63997913D01*
X144203350Y-63997906D01*
X144117190Y-63882812D01*
X144117187Y-63882809D01*
X144002093Y-63796649D01*
X144002086Y-63796645D01*
X143867379Y-63746403D01*
X143867372Y-63746401D01*
X143807844Y-63740000D01*
X143250000Y-63740000D01*
X143250000Y-64555439D01*
X143196853Y-64524755D01*
X143067143Y-64490000D01*
X142932857Y-64490000D01*
X142803147Y-64524755D01*
X142750000Y-64555439D01*
X142750000Y-63740000D01*
X142192155Y-63740000D01*
X142132627Y-63746401D01*
X142132620Y-63746403D01*
X141997913Y-63796645D01*
X141997906Y-63796649D01*
X141882812Y-63882809D01*
X141882809Y-63882812D01*
X141796649Y-63997906D01*
X141796645Y-63997913D01*
X141746403Y-64132620D01*
X141746401Y-64132627D01*
X141740000Y-64192155D01*
X127973128Y-64192155D01*
X127969288Y-64186671D01*
X127969286Y-64186668D01*
X127813330Y-64030712D01*
X127632662Y-63904207D01*
X127632654Y-63904203D01*
X127432769Y-63810995D01*
X127432755Y-63810990D01*
X127219724Y-63753909D01*
X127219722Y-63753908D01*
X127219720Y-63753908D01*
X127219718Y-63753907D01*
X127219714Y-63753907D01*
X127000002Y-63734685D01*
X126999998Y-63734685D01*
X126780285Y-63753907D01*
X126780275Y-63753909D01*
X126567244Y-63810990D01*
X126567235Y-63810994D01*
X126367344Y-63904204D01*
X126367342Y-63904205D01*
X126186668Y-64030713D01*
X126030713Y-64186668D01*
X125904205Y-64367342D01*
X125904204Y-64367344D01*
X125810994Y-64567235D01*
X125810990Y-64567244D01*
X125753909Y-64780275D01*
X125753907Y-64780285D01*
X125734685Y-64999998D01*
X124510000Y-64999998D01*
X124510000Y-64932857D01*
X124475245Y-64803147D01*
X124444560Y-64750000D01*
X125260000Y-64750000D01*
X125260000Y-64192172D01*
X125259999Y-64192155D01*
X125253598Y-64132627D01*
X125253596Y-64132620D01*
X125203354Y-63997913D01*
X125203350Y-63997906D01*
X125117190Y-63882812D01*
X125117187Y-63882809D01*
X125002093Y-63796649D01*
X125002086Y-63796645D01*
X124867379Y-63746403D01*
X124867372Y-63746401D01*
X124807844Y-63740000D01*
X124250000Y-63740000D01*
X124250000Y-64555439D01*
X124196853Y-64524755D01*
X124067143Y-64490000D01*
X123932857Y-64490000D01*
X123803147Y-64524755D01*
X123750000Y-64555439D01*
X123750000Y-63740000D01*
X123192155Y-63740000D01*
X123132627Y-63746401D01*
X123132620Y-63746403D01*
X122997913Y-63796645D01*
X122997906Y-63796649D01*
X122882812Y-63882809D01*
X122882809Y-63882812D01*
X122796649Y-63997906D01*
X122796645Y-63997913D01*
X122746403Y-64132620D01*
X122746401Y-64132627D01*
X122740000Y-64192155D01*
X95973128Y-64192155D01*
X95969288Y-64186671D01*
X95969286Y-64186668D01*
X95813330Y-64030712D01*
X95632662Y-63904207D01*
X95632654Y-63904203D01*
X95432769Y-63810995D01*
X95432755Y-63810990D01*
X95219724Y-63753909D01*
X95219722Y-63753908D01*
X95219720Y-63753908D01*
X95219718Y-63753907D01*
X95219714Y-63753907D01*
X95000002Y-63734685D01*
X94999998Y-63734685D01*
X94780285Y-63753907D01*
X94780275Y-63753909D01*
X94567244Y-63810990D01*
X94567235Y-63810994D01*
X94367344Y-63904204D01*
X94367342Y-63904205D01*
X94186668Y-64030713D01*
X94030713Y-64186668D01*
X93904205Y-64367342D01*
X93904204Y-64367344D01*
X93810994Y-64567235D01*
X93810990Y-64567244D01*
X93753909Y-64780275D01*
X93753907Y-64780285D01*
X93734685Y-64999998D01*
X92510000Y-64999998D01*
X92510000Y-64932857D01*
X92475245Y-64803147D01*
X92444560Y-64750000D01*
X93260000Y-64750000D01*
X93260000Y-64192172D01*
X93259999Y-64192155D01*
X93253598Y-64132627D01*
X93253596Y-64132620D01*
X93203354Y-63997913D01*
X93203350Y-63997906D01*
X93117190Y-63882812D01*
X93117187Y-63882809D01*
X93002093Y-63796649D01*
X93002086Y-63796645D01*
X92867379Y-63746403D01*
X92867372Y-63746401D01*
X92807844Y-63740000D01*
X92250000Y-63740000D01*
X92250000Y-64555439D01*
X92196853Y-64524755D01*
X92067143Y-64490000D01*
X91932857Y-64490000D01*
X91803147Y-64524755D01*
X91750000Y-64555439D01*
X91750000Y-63740000D01*
X91192155Y-63740000D01*
X91132627Y-63746401D01*
X91132620Y-63746403D01*
X90997913Y-63796645D01*
X90997906Y-63796649D01*
X90882812Y-63882809D01*
X90882809Y-63882812D01*
X90796649Y-63997906D01*
X90796645Y-63997913D01*
X90746403Y-64132620D01*
X90746401Y-64132627D01*
X90740000Y-64192155D01*
X77973128Y-64192155D01*
X77969288Y-64186671D01*
X77969286Y-64186668D01*
X77813330Y-64030712D01*
X77632662Y-63904207D01*
X77632654Y-63904203D01*
X77432769Y-63810995D01*
X77432755Y-63810990D01*
X77219724Y-63753909D01*
X77219722Y-63753908D01*
X77219720Y-63753908D01*
X77219718Y-63753907D01*
X77219714Y-63753907D01*
X77000002Y-63734685D01*
X76999998Y-63734685D01*
X76780285Y-63753907D01*
X76780275Y-63753909D01*
X76567244Y-63810990D01*
X76567235Y-63810994D01*
X76367344Y-63904204D01*
X76367342Y-63904205D01*
X76186668Y-64030713D01*
X76030713Y-64186668D01*
X75904205Y-64367342D01*
X75904204Y-64367344D01*
X75810994Y-64567235D01*
X75810990Y-64567244D01*
X75753909Y-64780275D01*
X75753907Y-64780285D01*
X75734685Y-64999998D01*
X75260499Y-64999998D01*
X75260499Y-64192128D01*
X75254091Y-64132517D01*
X75216120Y-64030712D01*
X75203797Y-63997671D01*
X75203793Y-63997664D01*
X75117547Y-63882455D01*
X75117544Y-63882452D01*
X75002335Y-63796206D01*
X75002328Y-63796202D01*
X74867482Y-63745908D01*
X74867483Y-63745908D01*
X74807883Y-63739501D01*
X74807881Y-63739500D01*
X74807873Y-63739500D01*
X74807864Y-63739500D01*
X73192129Y-63739500D01*
X73192123Y-63739501D01*
X73132516Y-63745908D01*
X72997671Y-63796202D01*
X72997664Y-63796206D01*
X72882455Y-63882452D01*
X72882452Y-63882455D01*
X72796206Y-63997664D01*
X72796202Y-63997671D01*
X72745908Y-64132517D01*
X72739574Y-64191435D01*
X72739501Y-64192123D01*
X72739500Y-64192135D01*
X71000000Y-64192135D01*
X71000000Y-63124000D01*
X71019685Y-63056961D01*
X71072489Y-63011206D01*
X71124000Y-63000000D01*
X144876000Y-63000000D01*
X144943039Y-63019685D01*
G37*
%TD.AperFunction*%
%TD*%
%TA.AperFunction,Conductor*%
%TO.N,+3.3V*%
G36*
X68943039Y-65019685D02*
G01*
X68988794Y-65072489D01*
X69000000Y-65124000D01*
X69000000Y-70083621D01*
X68980315Y-70150660D01*
X68927511Y-70196415D01*
X68889884Y-70206841D01*
X68820749Y-70214630D01*
X68820745Y-70214631D01*
X68650476Y-70274211D01*
X68497737Y-70370184D01*
X68370184Y-70497737D01*
X68274211Y-70650476D01*
X68214631Y-70820745D01*
X68214630Y-70820750D01*
X68194435Y-70999996D01*
X68194435Y-71000003D01*
X68214630Y-71179249D01*
X68214631Y-71179254D01*
X68274211Y-71349523D01*
X68370184Y-71502262D01*
X68497738Y-71629816D01*
X68650478Y-71725789D01*
X68820745Y-71785368D01*
X68820749Y-71785369D01*
X68889883Y-71793158D01*
X68954297Y-71820224D01*
X68993852Y-71877818D01*
X69000000Y-71916378D01*
X69000000Y-77000000D01*
X100876000Y-77000000D01*
X100943039Y-77019685D01*
X100988794Y-77072489D01*
X101000000Y-77124000D01*
X101000000Y-92876000D01*
X100980315Y-92943039D01*
X100927511Y-92988794D01*
X100876000Y-93000000D01*
X70040322Y-93000000D01*
X69973283Y-92980315D01*
X69967389Y-92976283D01*
X67249995Y-90999996D01*
X78194435Y-90999996D01*
X78194435Y-91000003D01*
X78214630Y-91179249D01*
X78214631Y-91179254D01*
X78274211Y-91349523D01*
X78370184Y-91502262D01*
X78497738Y-91629816D01*
X78650478Y-91725789D01*
X78820745Y-91785368D01*
X78820750Y-91785369D01*
X78999996Y-91805565D01*
X79000000Y-91805565D01*
X79000004Y-91805565D01*
X79179249Y-91785369D01*
X79179252Y-91785368D01*
X79179255Y-91785368D01*
X79349522Y-91725789D01*
X79502262Y-91629816D01*
X79629816Y-91502262D01*
X79725789Y-91349522D01*
X79785368Y-91179255D01*
X79805565Y-91000000D01*
X79785368Y-90820745D01*
X79725789Y-90650478D01*
X79629816Y-90497738D01*
X79502262Y-90370184D01*
X79349523Y-90274211D01*
X79179254Y-90214631D01*
X79179249Y-90214630D01*
X79000004Y-90194435D01*
X78999996Y-90194435D01*
X78820750Y-90214630D01*
X78820745Y-90214631D01*
X78650476Y-90274211D01*
X78497737Y-90370184D01*
X78370184Y-90497737D01*
X78274211Y-90650476D01*
X78214631Y-90820745D01*
X78214630Y-90820750D01*
X78194435Y-90999996D01*
X67249995Y-90999996D01*
X60374995Y-85999996D01*
X91194435Y-85999996D01*
X91194435Y-86000003D01*
X91214630Y-86179249D01*
X91214631Y-86179254D01*
X91274211Y-86349523D01*
X91321747Y-86425175D01*
X91370184Y-86502262D01*
X91497738Y-86629816D01*
X91650478Y-86725789D01*
X91820745Y-86785368D01*
X91820750Y-86785369D01*
X91999996Y-86805565D01*
X92000000Y-86805565D01*
X92000004Y-86805565D01*
X92179249Y-86785369D01*
X92179252Y-86785368D01*
X92179255Y-86785368D01*
X92349522Y-86725789D01*
X92502262Y-86629816D01*
X92629816Y-86502262D01*
X92725789Y-86349522D01*
X92785368Y-86179255D01*
X92794054Y-86102167D01*
X92805565Y-86000003D01*
X92805565Y-85999996D01*
X92796879Y-85922909D01*
X94271522Y-85922909D01*
X94271522Y-85922916D01*
X94291717Y-86102162D01*
X94291718Y-86102167D01*
X94351298Y-86272436D01*
X94447271Y-86425175D01*
X94574825Y-86552729D01*
X94665167Y-86609495D01*
X94697506Y-86629815D01*
X94727565Y-86648702D01*
X94897832Y-86708281D01*
X94897837Y-86708282D01*
X95077083Y-86728478D01*
X95077087Y-86728478D01*
X95077091Y-86728478D01*
X95256336Y-86708282D01*
X95256339Y-86708281D01*
X95256342Y-86708281D01*
X95426609Y-86648702D01*
X95579349Y-86552729D01*
X95706903Y-86425175D01*
X95802876Y-86272435D01*
X95862455Y-86102168D01*
X95873966Y-86000003D01*
X95882652Y-85922916D01*
X95882652Y-85922909D01*
X95862456Y-85743663D01*
X95862455Y-85743658D01*
X95802875Y-85573389D01*
X95706902Y-85420650D01*
X95579349Y-85293097D01*
X95426610Y-85197124D01*
X95256341Y-85137544D01*
X95256336Y-85137543D01*
X95077091Y-85117348D01*
X95077083Y-85117348D01*
X94897837Y-85137543D01*
X94897832Y-85137544D01*
X94727563Y-85197124D01*
X94574824Y-85293097D01*
X94447271Y-85420650D01*
X94351298Y-85573389D01*
X94291718Y-85743658D01*
X94291717Y-85743663D01*
X94271522Y-85922909D01*
X92796879Y-85922909D01*
X92785369Y-85820750D01*
X92785368Y-85820745D01*
X92725788Y-85650476D01*
X92629815Y-85497737D01*
X92502262Y-85370184D01*
X92349523Y-85274211D01*
X92179254Y-85214631D01*
X92179249Y-85214630D01*
X92000004Y-85194435D01*
X91999996Y-85194435D01*
X91820750Y-85214630D01*
X91820745Y-85214631D01*
X91650476Y-85274211D01*
X91497737Y-85370184D01*
X91370184Y-85497737D01*
X91274211Y-85650476D01*
X91214631Y-85820745D01*
X91214630Y-85820750D01*
X91194435Y-85999996D01*
X60374995Y-85999996D01*
X59051067Y-85037139D01*
X59008427Y-84981789D01*
X59000000Y-84936856D01*
X59000000Y-83499996D01*
X84694435Y-83499996D01*
X84694435Y-83500003D01*
X84714630Y-83679249D01*
X84714631Y-83679254D01*
X84774211Y-83849523D01*
X84816579Y-83916951D01*
X84870184Y-84002262D01*
X84997738Y-84129816D01*
X85076410Y-84179249D01*
X85105050Y-84197245D01*
X85150478Y-84225789D01*
X85320745Y-84285368D01*
X85320750Y-84285369D01*
X85499996Y-84305565D01*
X85500000Y-84305565D01*
X85500004Y-84305565D01*
X85679249Y-84285369D01*
X85679252Y-84285368D01*
X85679255Y-84285368D01*
X85849522Y-84225789D01*
X86002262Y-84129816D01*
X86129816Y-84002262D01*
X86225789Y-83849522D01*
X86285368Y-83679255D01*
X86285369Y-83679249D01*
X86297968Y-83567425D01*
X88811843Y-83567425D01*
X88811843Y-83567432D01*
X88832038Y-83746678D01*
X88832039Y-83746683D01*
X88891619Y-83916952D01*
X88987592Y-84069691D01*
X89115146Y-84197245D01*
X89205488Y-84254011D01*
X89255392Y-84285368D01*
X89267886Y-84293218D01*
X89303172Y-84305565D01*
X89438153Y-84352797D01*
X89438158Y-84352798D01*
X89617404Y-84372994D01*
X89617408Y-84372994D01*
X89617412Y-84372994D01*
X89796657Y-84352798D01*
X89796660Y-84352797D01*
X89796663Y-84352797D01*
X89966930Y-84293218D01*
X90119670Y-84197245D01*
X90247224Y-84069691D01*
X90291016Y-83999996D01*
X95194435Y-83999996D01*
X95194435Y-84000003D01*
X95214630Y-84179249D01*
X95214631Y-84179254D01*
X95274211Y-84349523D01*
X95276269Y-84352798D01*
X95370184Y-84502262D01*
X95497738Y-84629816D01*
X95650478Y-84725789D01*
X95820745Y-84785368D01*
X95820750Y-84785369D01*
X95999996Y-84805565D01*
X96000000Y-84805565D01*
X96000004Y-84805565D01*
X96179249Y-84785369D01*
X96179252Y-84785368D01*
X96179255Y-84785368D01*
X96349522Y-84725789D01*
X96434027Y-84672691D01*
X96501264Y-84653690D01*
X96565973Y-84672691D01*
X96650475Y-84725788D01*
X96820745Y-84785368D01*
X96820750Y-84785369D01*
X96999996Y-84805565D01*
X97000000Y-84805565D01*
X97000004Y-84805565D01*
X97179249Y-84785369D01*
X97179252Y-84785368D01*
X97179255Y-84785368D01*
X97349522Y-84725789D01*
X97502262Y-84629816D01*
X97629816Y-84502262D01*
X97725789Y-84349522D01*
X97785368Y-84179255D01*
X97785369Y-84179249D01*
X97805565Y-84000003D01*
X97805565Y-83999996D01*
X97785369Y-83820750D01*
X97785368Y-83820745D01*
X97759453Y-83746684D01*
X97725789Y-83650478D01*
X97629816Y-83497738D01*
X97502262Y-83370184D01*
X97434027Y-83327309D01*
X97349523Y-83274211D01*
X97179254Y-83214631D01*
X97179249Y-83214630D01*
X97000004Y-83194435D01*
X96999996Y-83194435D01*
X96820750Y-83214630D01*
X96820737Y-83214633D01*
X96650479Y-83274209D01*
X96565971Y-83327309D01*
X96498734Y-83346309D01*
X96434029Y-83327309D01*
X96349520Y-83274209D01*
X96179262Y-83214633D01*
X96179249Y-83214630D01*
X96000004Y-83194435D01*
X95999996Y-83194435D01*
X95820750Y-83214630D01*
X95820745Y-83214631D01*
X95650476Y-83274211D01*
X95497737Y-83370184D01*
X95370184Y-83497737D01*
X95274211Y-83650476D01*
X95214631Y-83820745D01*
X95214630Y-83820750D01*
X95194435Y-83999996D01*
X90291016Y-83999996D01*
X90343197Y-83916951D01*
X90402776Y-83746684D01*
X90402777Y-83746678D01*
X90422973Y-83567432D01*
X90422973Y-83567425D01*
X90402777Y-83388179D01*
X90402776Y-83388174D01*
X90379183Y-83320750D01*
X90343197Y-83217907D01*
X90247224Y-83065167D01*
X90119670Y-82937613D01*
X89966931Y-82841640D01*
X89796662Y-82782060D01*
X89796657Y-82782059D01*
X89617412Y-82761864D01*
X89617404Y-82761864D01*
X89438158Y-82782059D01*
X89438153Y-82782060D01*
X89267884Y-82841640D01*
X89115145Y-82937613D01*
X88987592Y-83065166D01*
X88891619Y-83217905D01*
X88832039Y-83388174D01*
X88832038Y-83388179D01*
X88811843Y-83567425D01*
X86297968Y-83567425D01*
X86305565Y-83500003D01*
X86305565Y-83499996D01*
X86285369Y-83320750D01*
X86285368Y-83320745D01*
X86225788Y-83150476D01*
X86129815Y-82997737D01*
X86002262Y-82870184D01*
X85849523Y-82774211D01*
X85679254Y-82714631D01*
X85679249Y-82714630D01*
X85500004Y-82694435D01*
X85499996Y-82694435D01*
X85320750Y-82714630D01*
X85320745Y-82714631D01*
X85150476Y-82774211D01*
X84997737Y-82870184D01*
X84870184Y-82997737D01*
X84774211Y-83150476D01*
X84714631Y-83320745D01*
X84714630Y-83320750D01*
X84694435Y-83499996D01*
X59000000Y-83499996D01*
X59000000Y-81999996D01*
X86194435Y-81999996D01*
X86194435Y-82000003D01*
X86214630Y-82179249D01*
X86214631Y-82179254D01*
X86274211Y-82349523D01*
X86370184Y-82502262D01*
X86497738Y-82629816D01*
X86588080Y-82686582D01*
X86632721Y-82714632D01*
X86650478Y-82725789D01*
X86788860Y-82774211D01*
X86820745Y-82785368D01*
X86820750Y-82785369D01*
X86999996Y-82805565D01*
X87000000Y-82805565D01*
X87000004Y-82805565D01*
X87179249Y-82785369D01*
X87179252Y-82785368D01*
X87179255Y-82785368D01*
X87349522Y-82725789D01*
X87502262Y-82629816D01*
X87629816Y-82502262D01*
X87725789Y-82349522D01*
X87785368Y-82179255D01*
X87805565Y-82000000D01*
X87785368Y-81820745D01*
X87725789Y-81650478D01*
X87629816Y-81497738D01*
X87502262Y-81370184D01*
X87349523Y-81274211D01*
X87179254Y-81214631D01*
X87179249Y-81214630D01*
X87000004Y-81194435D01*
X86999996Y-81194435D01*
X86820750Y-81214630D01*
X86820745Y-81214631D01*
X86650476Y-81274211D01*
X86497737Y-81370184D01*
X86370184Y-81497737D01*
X86274211Y-81650476D01*
X86214631Y-81820745D01*
X86214630Y-81820750D01*
X86194435Y-81999996D01*
X59000000Y-81999996D01*
X59000000Y-75999996D01*
X66194435Y-75999996D01*
X66194435Y-76000003D01*
X66214630Y-76179249D01*
X66214631Y-76179254D01*
X66274211Y-76349523D01*
X66370184Y-76502262D01*
X66497738Y-76629816D01*
X66650478Y-76725789D01*
X66820745Y-76785368D01*
X66820750Y-76785369D01*
X66999996Y-76805565D01*
X67000000Y-76805565D01*
X67000004Y-76805565D01*
X67179249Y-76785369D01*
X67179252Y-76785368D01*
X67179255Y-76785368D01*
X67349522Y-76725789D01*
X67502262Y-76629816D01*
X67629816Y-76502262D01*
X67725789Y-76349522D01*
X67785368Y-76179255D01*
X67805565Y-76000000D01*
X67785368Y-75820745D01*
X67725789Y-75650478D01*
X67629816Y-75497738D01*
X67502262Y-75370184D01*
X67469379Y-75349522D01*
X67349523Y-75274211D01*
X67179254Y-75214631D01*
X67179249Y-75214630D01*
X67000004Y-75194435D01*
X66999996Y-75194435D01*
X66820750Y-75214630D01*
X66820745Y-75214631D01*
X66650476Y-75274211D01*
X66497737Y-75370184D01*
X66370184Y-75497737D01*
X66274211Y-75650476D01*
X66214631Y-75820745D01*
X66214630Y-75820750D01*
X66194435Y-75999996D01*
X59000000Y-75999996D01*
X59000000Y-70999996D01*
X66194435Y-70999996D01*
X66194435Y-71000003D01*
X66214630Y-71179249D01*
X66214631Y-71179254D01*
X66274211Y-71349523D01*
X66370184Y-71502262D01*
X66497738Y-71629816D01*
X66650478Y-71725789D01*
X66820745Y-71785368D01*
X66820750Y-71785369D01*
X66999996Y-71805565D01*
X67000000Y-71805565D01*
X67000004Y-71805565D01*
X67179249Y-71785369D01*
X67179252Y-71785368D01*
X67179255Y-71785368D01*
X67349522Y-71725789D01*
X67502262Y-71629816D01*
X67629816Y-71502262D01*
X67725789Y-71349522D01*
X67785368Y-71179255D01*
X67805565Y-71000000D01*
X67785368Y-70820745D01*
X67725789Y-70650478D01*
X67629816Y-70497738D01*
X67502262Y-70370184D01*
X67469379Y-70349522D01*
X67349523Y-70274211D01*
X67179254Y-70214631D01*
X67179249Y-70214630D01*
X67000004Y-70194435D01*
X66999996Y-70194435D01*
X66820750Y-70214630D01*
X66820745Y-70214631D01*
X66650476Y-70274211D01*
X66497737Y-70370184D01*
X66370184Y-70497737D01*
X66274211Y-70650476D01*
X66214631Y-70820745D01*
X66214630Y-70820750D01*
X66194435Y-70999996D01*
X59000000Y-70999996D01*
X59000000Y-65124000D01*
X59019685Y-65056961D01*
X59072489Y-65011206D01*
X59124000Y-65000000D01*
X68876000Y-65000000D01*
X68943039Y-65019685D01*
G37*
%TD.AperFunction*%
%TD*%
M02*
