M48
; DRILL file {KiCad 8.0.4} date 2024-11-13T20:53:01-0800
; FORMAT={-:-/ absolute / metric / decimal}
; #@! TF.CreationDate,2024-11-13T20:53:01-08:00
; #@! TF.GenerationSoftware,Kicad,Pcbnew,8.0.4
; #@! TF.FileFunction,Plated,1,2,Blind
FMAT,2
METRIC
; #@! TA.AperFunction,Plated,Buried,ViaDrill
T1C0.300
%
G90
G05
T1
X51.75Y-77.037
X51.75Y-78.962
X58.0Y-74.0
X60.0Y-81.0
X64.0Y-76.0
X68.0Y-82.0
X74.0Y-90.0
X80.0Y-74.0
X81.0Y-84.0
X84.0Y-83.0
X88.0Y-82.0
X93.0Y-87.0
X94.0Y-68.0
X94.0Y-79.0
X94.0Y-80.0
X94.0Y-81.0
X95.0Y-79.0
X95.0Y-80.0
X95.0Y-81.0
X96.0Y-79.0
X96.0Y-80.0
X96.0Y-81.0
X99.0Y-86.0
X100.0Y-68.0
X103.0Y-79.0
X128.0Y-69.0
X145.0Y-69.0
M30
