M48
; DRILL file {KiCad 8.0.4} date 2024-11-13T20:53:01-0800
; FORMAT={-:-/ absolute / metric / decimal}
; #@! TF.CreationDate,2024-11-13T20:53:01-08:00
; #@! TF.GenerationSoftware,Kicad,Pcbnew,8.0.4
; #@! TF.FileFunction,MixedPlating,1,4
FMAT,2
METRIC
; #@! TA.AperFunction,Plated,PTH,ViaDrill
T1C0.300
; #@! TA.AperFunction,Plated,PTH,ComponentDrill
T2C0.650
; #@! TA.AperFunction,Plated,PTH,ComponentDrill
T3C0.700
; #@! TA.AperFunction,Plated,PTH,ComponentDrill
T4C1.020
; #@! TA.AperFunction,Plated,PTH,ComponentDrill
T5C1.070
; #@! TA.AperFunction,Plated,PTH,ComponentDrill
T6C5.300
; #@! TA.AperFunction,NonPlated,NPTH,ComponentDrill
T7C3.000
%
G90
G05
T1
X62.0Y-67.0
X63.0Y-84.0
X65.0Y-71.0
X67.0Y-67.0
X67.0Y-71.0
X67.0Y-76.0
X69.0Y-71.0
X72.0Y-70.0
X72.0Y-74.0
X72.0Y-78.0
X72.0Y-81.0
X72.0Y-88.0
X74.0Y-78.0
X74.0Y-81.0
X76.0Y-78.0
X76.0Y-81.0
X78.0Y-80.0
X78.0Y-89.0
X79.0Y-91.0
X79.0Y-91.0
X79.0Y-91.0
X82.0Y-74.0
X85.5Y-83.5
X87.0Y-76.0
X87.0Y-82.0
X88.0Y-78.0
X89.0Y-90.0
X89.617Y-83.567
X91.0Y-91.0
X92.0Y-74.0
X92.0Y-86.0
X93.0Y-75.0
X94.934Y-88.066
X95.0Y-89.0
X95.0Y-91.0
X95.077Y-85.923
X96.0Y-84.0
X97.0Y-76.0
X97.0Y-84.0
X97.0Y-90.0
X98.375Y-80.675
X99.0Y-74.0
X99.0Y-74.0
X99.0Y-74.0
X99.0Y-76.0
X99.0Y-76.0
X99.0Y-76.0
X100.0Y-86.0
X100.0Y-88.0
X101.0Y-76.0
X102.0Y-82.0
X104.0Y-73.0
X104.0Y-83.0
X106.0Y-69.0
X106.0Y-80.0
X114.0Y-73.0
X127.0Y-74.0
X127.0Y-76.0
T4
X74.0Y-65.0
X77.0Y-65.0
X92.0Y-65.0
X95.0Y-65.0
X124.0Y-65.0
X124.5Y-84.68
X127.0Y-65.0
X127.5Y-84.68
X142.5Y-84.68
X143.0Y-65.0
X145.5Y-84.68
X146.0Y-65.0
T5
X107.46Y-58.73
X107.46Y-61.27
X110.0Y-58.73
X110.0Y-61.27
X112.54Y-58.73
X112.54Y-61.27
T6
X57.0Y-57.0
X57.0Y-93.0
X163.0Y-57.0
X163.0Y-93.0
T7
X75.5Y-60.68
X93.5Y-60.68
X125.5Y-60.68
X126.0Y-89.0
X144.0Y-89.0
X144.5Y-60.68
T2
G00X55.23Y-75.575
M15
G01X54.83Y-75.575
M16
G05
G00X55.23Y-80.425
M15
G01X54.83Y-80.425
M16
G05
T3
G00X52.25Y-75.275
M15
G01X51.75Y-75.275
M16
G05
G00X52.25Y-80.725
M15
G01X51.75Y-80.725
M16
G05
M30
